<svg xmlns="http://www.w3.org/2000/svg" width="342" height="405.171" viewBox="0 0 342 405.171"><g transform="translate(-1837.613 -1122.885)"><g transform="translate(1867.281 1130.983)"><g transform="translate(20.662 370.366)"><path d="M2095.4,3041.8v21.492a4.021,4.021,0,0,0,4.03,4.03h53.73s.316-9.976-7.862-12.761c-13.887-4.721-20.366-12.761-20.366-12.761Z" transform="translate(-2094.807 -3041.208)" fill="#fff"/><path d="M2151.326,3065.507h-54.3a4.628,4.628,0,0,1-4.623-4.622V3038.8h30.408l.178.221c.064.079,6.553,7.968,20.1,12.572a11.681,11.681,0,0,1,7.369,7.8,17.591,17.591,0,0,1,.894,5.541Zm-57.741-25.522v20.9a3.441,3.441,0,0,0,3.437,3.437h53.127c-.093-2.1-.892-9.374-7.45-11.607-12.776-4.344-19.281-11.37-20.451-12.729Z" transform="translate(-2092.4 -3038.8)"/><g transform="translate(30.321 2.745)"><path d="M2246.212,3062.115l-.319-1.142c1.883-.526,6.914-3.418,7.466-5.521a1.117,1.117,0,0,0-.337-1.173c-.815-.815-3.013-.164-3.719.128l-.455-1.094c.353-.147,3.492-1.393,5.012.128a2.3,2.3,0,0,1,.646,2.312C2253.753,3058.618,2248.049,3061.6,2246.212,3062.115Z" transform="translate(-2245.893 -3052.694)"/></g><g transform="translate(38.42 5.557)"><path d="M2287.212,3076.505l-.319-1.142c1.737-.485,6.59-3.633,7.019-5.73a1.044,1.044,0,0,0-.435-1.118c-1.78-1.436-4.8,1.616-4.832,1.647l-.854-.821c.153-.16,3.785-3.883,6.429-1.75a2.213,2.213,0,0,1,.854,2.279C2294.489,3072.729,2288.986,3076.01,2287.212,3076.505Z" transform="translate(-2286.893 -3066.933)"/></g><g transform="translate(0.593 0.593)"><path d="M2126.591,3043.539l-31.191,9.7V3041.8h29.552A20.144,20.144,0,0,0,2126.591,3043.539Z" transform="translate(-2095.4 -3041.8)"/></g><g transform="translate(67.36)"><path d="M2436.4,3041.8v21.492a4.021,4.021,0,0,0,4.03,4.03h53.73s.316-9.976-7.862-12.761c-13.887-4.721-20.366-12.761-20.366-12.761Z" transform="translate(-2435.807 -3041.208)" fill="#fff"/><path d="M2492.326,3065.507h-54.3a4.628,4.628,0,0,1-4.623-4.622V3038.8h30.408l.178.221c.064.079,6.553,7.968,20.1,12.572a11.682,11.682,0,0,1,7.369,7.8,17.591,17.591,0,0,1,.894,5.541Zm-57.741-25.522v20.9a3.441,3.441,0,0,0,3.437,3.437h53.127c-.093-2.1-.892-9.374-7.45-11.607-12.776-4.344-19.281-11.37-20.451-12.729Z" transform="translate(-2433.4 -3038.8)"/><g transform="translate(30.321 2.745)"><path d="M2587.213,3062.115l-.319-1.142c1.883-.526,6.914-3.418,7.465-5.521a1.117,1.117,0,0,0-.337-1.173c-.816-.815-3.013-.164-3.719.128l-.455-1.094c.353-.147,3.492-1.393,5.012.128a2.3,2.3,0,0,1,.646,2.312C2594.754,3058.618,2589.05,3061.6,2587.213,3062.115Z" transform="translate(-2586.894 -3052.694)"/></g><g transform="translate(38.42 5.557)"><path d="M2628.213,3076.5l-.319-1.142c1.737-.485,6.59-3.633,7.019-5.731a1.044,1.044,0,0,0-.435-1.118c-1.781-1.436-4.8,1.616-4.832,1.647l-.854-.821c.153-.16,3.784-3.884,6.429-1.75a2.213,2.213,0,0,1,.854,2.279C2635.49,3072.728,2629.987,3076.01,2628.213,3076.5Z" transform="translate(-2627.894 -3066.933)"/></g><g transform="translate(0.593 0.593)"><path d="M2467.591,3043.539l-31.191,9.7V3041.8h29.552A20.144,20.144,0,0,0,2467.591,3043.539Z" transform="translate(-2436.4 -3041.8)"/></g></g></g><g transform="translate(12.227 157.026)"><g transform="translate(4.089)"><path d="M2089.857,1958.8,2070.4,2162.5h40.693l20.445-98.709,8.356,21.038V2162.5h42.372v-87.094l-22.6-116.606Z" transform="translate(-2070.4 -1958.8)" fill="#00c471"/></g><g transform="translate(25.227 48.858)"><rect width="155.923" height="1.185" transform="translate(0 154.769) rotate(-83.026)" fill="#00b261"/></g><g transform="translate(66.904 9.734)"><path d="M2416.105,2202.042h-1.185V2115.02l-26.531-106.658,1.15-.286,26.567,106.8Z" transform="translate(-2388.389 -2008.075)" fill="#00b261"/></g><g transform="translate(41.68 47.547)"><path d="M2291.449,2278.174l-25.364-73.661a5.687,5.687,0,0,0-5.385-3.828V2199.5a6.873,6.873,0,0,1,6.506,4.627l25.364,73.661Z" transform="translate(-2260.7 -2199.5)" fill="#fff"/></g><g transform="translate(20.327)"><path d="M2152.6,1992.48l3.22-33.68h69.81l2,10.351Z" transform="translate(-2152.6 -1958.8)" fill="#00b261"/></g><g transform="translate(70.521 203.7)"><path d="M2452.212,3000.232H2409.6a2.908,2.908,0,0,1-2.9-2.9V2992.9a2.909,2.909,0,0,1,2.9-2.9h42.609a2.909,2.909,0,0,1,2.9,2.9v4.425A2.921,2.921,0,0,1,2452.212,3000.232Z" transform="translate(-2406.7 -2990)" fill="#00b261"/></g><g transform="translate(0 203.7)"><path d="M2095.212,3000.232H2052.6a2.908,2.908,0,0,1-2.9-2.9V2992.9a2.909,2.909,0,0,1,2.9-2.9h42.609a2.909,2.909,0,0,1,2.9,2.9v4.425A2.921,2.921,0,0,1,2095.212,3000.232Z" transform="translate(-2049.7 -2990)" fill="#00b261"/></g></g><g transform="translate(91.909 157.366)"><path d="M2532.629,1966.147l13.354,49.957-66.57,17.8-13.373-50a5.826,5.826,0,1,0-11.26,3l13.373,50-1.462.4-13.354-49.957a7.584,7.584,0,0,1,5.136-9.225l.237-.059,64.634-17.284A7.612,7.612,0,0,1,2532.629,1966.147Z" transform="translate(-2453.076 -1960.521)" fill="#1f39d2"/><g transform="translate(0 17.416)"><path d="M2467.521,2054.32l13.354,49.957-1.462.4-13.373-50a5.826,5.826,0,1,0-11.26,3l13.373,50-1.462.4-13.354-49.957a7.345,7.345,0,1,1,14.183-3.793Z" transform="translate(-2453.076 -2048.688)" fill="#1f39d2"/></g><g transform="translate(1.504 19.058)"><path d="M2472.151,2061.325l12.543,46.935-11.26,3-12.543-46.935a5.826,5.826,0,0,1,11.26-3Z" transform="translate(-2460.692 -2056.999)" fill="#fff"/></g></g><g transform="translate(0 55.947)"><path d="M2159.46,1580.615l-30.282,10.43-23.9-42.866h-92.645a24.821,24.821,0,0,1-24.3-29.887l9.64-46.3a31.268,31.268,0,0,1,30.6-24.89h63.35a31.244,31.244,0,0,1,30.855,26.292l9.541,45.078Z" transform="translate(-1987.801 -1447.1)" fill="#7736ff"/><g transform="translate(0.059 75.967)"><path d="M2007.933,1856.291a24.885,24.885,0,0,1-19.833-22.42,12.054,12.054,0,0,1,2.746-1.422c7.171-2.647,15.368,1.7,18.351,9.7A16.108,16.108,0,0,1,2007.933,1856.291Z" transform="translate(-1988.1 -1831.673)" fill="#fff"/></g></g><g transform="translate(58.194)"><g transform="translate(0 28.173)"><path d="M2313.077,1306.5v27.793H2282.4l7.072-18.49Z" transform="translate(-2282.4 -1306.5)" fill="#f86b6b"/></g><g transform="translate(21.908 37.478)"><path d="M2402.076,1357.832s-7.031.706-8.769-4.226c0,0,2.112,14.857,8.769,18.488Z" transform="translate(-2393.307 -1353.606)" fill="#e34545"/></g><g transform="translate(6.756)"><path d="M2347.574,1180.358c-.02,0-.059.02-.079.02h0l-9.106,2.41a9.945,9.945,0,0,0-6.835,6.321h-3.5a4.013,4.013,0,0,0-4.01,4.01v.059a4,4,0,0,0,3.654,3.99l-.02.02s-1.62,7.7-11.082,5.116c0,0,.375-20.267.771-26.569.335-5.2,27.892-15.033,30.44-10.845,2.252,3.714-.356,5.452-2.568,6.222,3.911-.83,11.3-1.936,12.05,1.363C2358.162,1176.308,2350.359,1179.627,2347.574,1180.358Z" transform="translate(-2316.6 -1163.879)"/></g><g transform="translate(14.223 16.518)"><path d="M2379.685,1261.663h-.968l.276,4.741a5.953,5.953,0,0,1-5.926,6.282H2368.8a7.452,7.452,0,0,1-7.447-7.447v-.928h-2.943a4.013,4.013,0,0,1-4.01-4.01v-.059a4.013,4.013,0,0,1,4.01-4.01h3.5a9.9,9.9,0,0,1,6.835-6.321l9.107-2.41h0l3.121,12.5A1.307,1.307,0,0,1,2379.685,1261.663Z" transform="translate(-2354.4 -1247.5)" fill="#f86b6b"/><g transform="translate(3.003 3.575)"><g transform="translate(0 6.617)"><path d="M2372.879,1302.873a.494.494,0,0,1-.494-.494,2.294,2.294,0,0,0-2.291-2.291.494.494,0,1,1,0-.988,3.283,3.283,0,0,1,3.279,3.279A.494.494,0,0,1,2372.879,1302.873Z" transform="translate(-2369.6 -1299.1)"/></g><g transform="translate(18.193 4.03)"><ellipse cx="0.731" cy="1.521" rx="0.731" ry="1.521"/></g><g transform="translate(15.27)"><path d="M2447.4,1268.444a.494.494,0,0,1-.3-.886,10.968,10.968,0,0,1,6.206-1.958.494.494,0,1,1,0,.988,10.147,10.147,0,0,0-5.607,1.756A.493.493,0,0,1,2447.4,1268.444Z" transform="translate(-2446.901 -1265.6)"/></g></g></g></g><g transform="translate(25.188 50.258)"><g transform="translate(55.496 92.083)"><path d="M2401.8,1914.808s24.2,1.047,32.712-18.371l-4.5-8.237-13.452,5.176Z" transform="translate(-2400.705 -1887.461)" fill="#fff"/><path d="M2398.053,1912.41c-.428,0-.681-.01-.728-.012l-1.07-.046,15.467-22.466,14.108-5.427,4.892,8.948-.117.267c-4.488,10.237-13.309,14.784-19.919,16.8A45.194,45.194,0,0,1,2398.053,1912.41Zm14.437-21.55-14.015,20.357a44.9,44.9,0,0,0,11.9-1.893c9.145-2.793,15.545-8.129,19.026-15.862l-4.115-7.525Z" transform="translate(-2396.255 -1884.458)" fill="#f8b905"/></g><g transform="translate(0 0.02)"><path d="M2193.682,1421.4a4.852,4.852,0,0,0-4.445,4.82v97.326a16.81,16.81,0,0,1-16.81,16.81h-37.315a16.809,16.809,0,0,1-16.711-18.608v-.02l13.432-92.388a9.274,9.274,0,0,1,9.186-7.941Z" transform="translate(-2117.711 -1420.807)" fill="#f8b905"/><path d="M2170.028,1538.542h-37.315a17.4,17.4,0,0,1-17.3-19.232l.006-.073,13.432-92.388a9.817,9.817,0,0,1,9.772-8.448h52.663l.05,1.183a4.266,4.266,0,0,0-2.653,1.231,4.217,4.217,0,0,0-1.249,3v97.326A17.423,17.423,0,0,1,2170.028,1538.542Zm-53.434-19.177,0,.041a16.216,16.216,0,0,0,16.123,17.952h37.315a16.236,16.236,0,0,0,16.218-16.218v-97.326a5.442,5.442,0,0,1,2.031-4.227H2138.62a8.639,8.639,0,0,0-8.6,7.435Z" transform="translate(-2115.313 -1418.4)" fill="#f8b905"/></g><g transform="translate(0.02)"><path d="M2190.009,1421.32a4.86,4.86,0,0,0-3.022,1.4,4.733,4.733,0,0,0-1.363,2.746c-.02.217-.04.435-.04.652l-.79,7.447-9.482,89.879a16.81,16.81,0,0,1-16.811,16.81h-23.29a16.809,16.809,0,0,1-16.712-18.608v-.02l6.064-41.759,7.368-50.629a10.212,10.212,0,0,1,.277-1.3,9.268,9.268,0,0,1,8.889-6.637h48.91Z" transform="translate(-2117.811 -1420.707)" fill="#fff"/><path d="M2156.1,1538.442h-23.29a17.4,17.4,0,0,1-17.3-19.232l.006-.073,6.064-41.76,7.368-50.629a10.813,10.813,0,0,1,.291-1.374,9.912,9.912,0,0,1,9.461-7.074h49.5v1.157l-.542.046a4.266,4.266,0,0,0-2.653,1.231,4.128,4.128,0,0,0-1.193,2.393c-.018.2-.036.4-.036.586l0,.063-.79,7.447-9.479,89.848A17.423,17.423,0,0,1,2156.1,1538.442Zm-39.41-19.168,0,.031a16.216,16.216,0,0,0,16.123,17.952h23.29a16.236,16.236,0,0,0,16.218-16.218l0-.062,9.482-89.88.787-7.417c0-.235.023-.467.042-.673l0-.022a5.3,5.3,0,0,1,1.531-3.088,5.383,5.383,0,0,1,.46-.411H2138.7a8.716,8.716,0,0,0-8.321,6.212,9.554,9.554,0,0,0-.258,1.217l-7.369,50.634Z" transform="translate(-2115.412 -1418.3)" fill="#f8b905"/></g><g transform="translate(6.971 19.971)"><path d="M2207.53,1519.42l-3.536,26.529c-1.166,5.432-5.393,8.336-11.516,9.324l-41.878,6.084,6.1-41.957h50.826Z" transform="translate(-2150.6 -1519.4)" fill="#f98e00"/></g><g transform="translate(1.621 0.019)"><path d="M2195.018,1421.4h-1.047a3.979,3.979,0,0,0-3.931,3.2l-6.163,39.764a11.792,11.792,0,0,1-11.516,9.324h-38.539a7.3,7.3,0,0,1-7.131-8.87l7.427-33.739a12.343,12.343,0,0,1,12.05-9.679Z" transform="translate(-2125.924 -1420.806)" fill="#f8b905"/><path d="M2169.957,1471.872h-38.54a7.89,7.89,0,0,1-7.71-9.59l7.427-33.739a12.936,12.936,0,0,1,12.629-10.144h48.851v1.185H2191.5a3.385,3.385,0,0,0-3.277,2.712l-6.164,39.768,0,.017A12.444,12.444,0,0,1,2169.957,1471.872Zm-26.193-52.288a11.816,11.816,0,0,0-11.471,9.214l-7.427,33.739a6.7,6.7,0,0,0,6.552,8.149h38.54a11.252,11.252,0,0,0,10.933-8.839l6.165-39.772a4.573,4.573,0,0,1,1.411-2.491Z" transform="translate(-2123.519 -1418.398)" fill="#f8b905"/></g><g transform="translate(38.325 1.225)"><path d="M2312.357,1489.645l9.817-60.031a2.521,2.521,0,0,1,2.469-2.114h0a2.506,2.506,0,0,1,2.469,2.924l-9.817,60.031a2.521,2.521,0,0,1-2.469,2.114h0A2.506,2.506,0,0,1,2312.357,1489.645Z" transform="translate(-2311.73 -1426.907)" fill="#fff"/><path d="M2312.421,1490.754a3.1,3.1,0,0,1-3.054-3.614l9.817-60.03a3.13,3.13,0,0,1,3.054-2.611,3.1,3.1,0,0,1,3.054,3.614l-9.817,60.03A3.13,3.13,0,0,1,2312.421,1490.754Zm9.818-65.069a1.935,1.935,0,0,0-1.884,1.617l-9.818,60.033a1.91,1.91,0,1,0,3.769.617l9.818-60.031a1.913,1.913,0,0,0-1.885-2.235Z" transform="translate(-2309.325 -1424.5)" fill="#f98e00"/></g><g transform="translate(16.378 1.225)"><path d="M2201.257,1489.645l9.818-60.031a2.521,2.521,0,0,1,2.469-2.114h0a2.506,2.506,0,0,1,2.469,2.924l-9.818,60.031a2.521,2.521,0,0,1-2.469,2.114h0A2.506,2.506,0,0,1,2201.257,1489.645Z" transform="translate(-2200.63 -1426.907)" fill="#fff"/><path d="M2201.321,1490.754a3.1,3.1,0,0,1-3.054-3.614l9.817-60.03a3.131,3.131,0,0,1,3.054-2.611,3.1,3.1,0,0,1,3.054,3.614l-9.817,60.03A3.13,3.13,0,0,1,2201.321,1490.754Zm9.818-65.069a1.935,1.935,0,0,0-1.885,1.617l-9.818,60.033a1.91,1.91,0,1,0,3.769.617l9.818-60.031a1.913,1.913,0,0,0-1.884-2.235Z" transform="translate(-2198.225 -1424.5)" fill="#f98e00"/></g><g transform="translate(70.953 0.02)"><path d="M2487.16,1426.516l-9.66.039v-.336a4.741,4.741,0,0,1,1.422-3.417,4.81,4.81,0,0,1,3.022-1.4h.79A4.981,4.981,0,0,1,2487.16,1426.516Z" transform="translate(-2476.907 -1420.807)" fill="#fff"/><path d="M2474.5,1424.743v-.931a5.444,5.444,0,0,1,4.988-5.411l.049,0,.838,0a5.593,5.593,0,0,1,4.969,5.69l.017.606Zm5.063-5.158a4.2,4.2,0,0,0-2.629,1.229,4.139,4.139,0,0,0-1.241,2.739l8.419-.034a4.282,4.282,0,0,0-3.809-3.934Z" transform="translate(-2474.5 -1418.4)" fill="#f8b905"/></g></g><g transform="translate(98.581 103.047)"><g transform="translate(44.218 87.66)"><g transform="translate(1.008)"><path d="M2740.038,2129.3l8.138,21a6.119,6.119,0,0,1-4.069,8.1l-17.877,4.9a3.351,3.351,0,0,1-3.082-.691l-1.817-1.58,3.714-.988a3.6,3.6,0,0,0,2.667-3.655l-.415-4.188a3.6,3.6,0,0,0-3.477-3.437h.2a6.141,6.141,0,0,1-5.373-3.575l-2.844-7.566Z" transform="translate(-2715.8 -2129.3)" fill="#f86b6b"/></g><g transform="translate(0 8.533)"><path d="M2717.613,2196.7a.593.593,0,0,1-.154-1.165l2.924-.79a2.8,2.8,0,0,0,2.229-2.857l-.217-4.583a3.012,3.012,0,0,0-2.9-2.873,6.469,6.469,0,0,1-5.7-3.936l-3.042-7.171a.593.593,0,0,1,1.091-.463l3.042,7.171a5.279,5.279,0,0,0,4.65,3.215,4.2,4.2,0,0,1,4.048,4l.218,4.58a3.946,3.946,0,0,1-3.107,4.058l-2.921.79A.6.6,0,0,1,2717.613,2196.7Z" transform="translate(-2710.699 -2172.499)" fill="#fff"/></g><g transform="translate(15.882 20.998)"><path d="M2791.691,2247.294a.593.593,0,0,1-.151-1.166,3.982,3.982,0,0,0,2.977-4.062l-.277-5.846a.593.593,0,0,1,1.184-.056l.277,5.847a5.158,5.158,0,0,1-3.858,5.262A.582.582,0,0,1,2791.691,2247.294Z" transform="translate(-2791.099 -2235.599)" fill="#fff"/></g><g transform="translate(23.448 19.042)"><path d="M2829.992,2237.393a.593.593,0,0,1-.151-1.166,3.982,3.982,0,0,0,2.977-4.062l-.277-5.846a.593.593,0,1,1,1.184-.056l.277,5.847a5.16,5.16,0,0,1-3.858,5.263A.594.594,0,0,1,2829.992,2237.393Z" transform="translate(-2829.4 -2225.698)" fill="#fff"/></g></g><path d="M2529.352,1783.1l-.241-.435-32.989-59.538a41.1,41.1,0,0,1-4.489-12.365l-4.781-25.007,1.164-.223,4.78,25.008a39.917,39.917,0,0,0,4.361,12.011l32.748,59.1,29.812-10.268.386,1.121Z" transform="translate(-2486.853 -1685.537)" fill="#fff"/><g transform="translate(5.738 26.112)"><path d="M2530.755,1848.439l-10.805-19.517a41.667,41.667,0,0,1-4.05-10.469,14.34,14.34,0,0,1,3.22-.672c8.534-.751,16.1,6.42,16.909,16A18.249,18.249,0,0,1,2530.755,1848.439Z" transform="translate(-2515.9 -1817.727)" fill="#fff"/></g></g></g><g transform="translate(2104.78 1183.838)"><path d="M3190.7,1775.668a.593.593,0,0,1-.593-.593V1432.043a.593.593,0,1,1,1.185,0v343.033A.592.592,0,0,1,3190.7,1775.668Z" transform="translate(-3190.106 -1431.45)" fill="#7736ff"/></g><g transform="translate(2072.388 1178.508)"><path d="M3123.871,1423.23h-97.743v-18.762h97.743l9.482,9.381Z" transform="translate(-3026.128 -1404.468)" fill="#ffcf2d"/></g><g transform="translate(2048.482 1207.997)"><path d="M2914.588,1572.511h97.743V1553.75h-97.743l-9.482,9.381Z" transform="translate(-2905.106 -1553.75)" fill="#ffcf2d"/></g><g transform="translate(2072.388 1234.777)"><path d="M3123.871,1708.082h-97.743V1689.32h97.743l9.482,9.381Z" transform="translate(-3026.128 -1689.32)" fill="#ffcf2d"/></g><g transform="translate(2048.482 1264.265)"><path d="M2914.588,1857.363h97.743V1838.6h-97.743l-9.482,9.381Z" transform="translate(-2905.106 -1838.601)" fill="#ffcf2d"/></g><g transform="translate(1837.613 1122.885)"><path d="M1851.673,1127.361a3.345,3.345,0,0,1-.259,1.323,4.794,4.794,0,0,1-.679,1.133,7.421,7.421,0,0,1-.955.984q-.535.461-1.1.886l-1.1.834a9.637,9.637,0,0,0-.967.828,4.127,4.127,0,0,0-.685.869,1.993,1.993,0,0,0-.27.967l-.011.805h-2.957l-.011-1.07a2.883,2.883,0,0,1,.23-1.22,4.313,4.313,0,0,1,.639-1.03,6.468,6.468,0,0,1,.909-.892q.512-.414,1.047-.794t1.047-.754a8.112,8.112,0,0,0,.909-.765,3.908,3.908,0,0,0,.644-.817,1.822,1.822,0,0,0,.247-.932,2.68,2.68,0,0,0-.2-1.064,1.738,1.738,0,0,0-.65-.759,3.318,3.318,0,0,0-1.191-.454,9.258,9.258,0,0,0-1.806-.15,7.6,7.6,0,0,0-1.841.19,3.672,3.672,0,0,0-1.214.518,1.968,1.968,0,0,0-.673.771,2.215,2.215,0,0,0-.207.949v.357h-2.957v-.483a4.835,4.835,0,0,1,.345-1.824,3.635,3.635,0,0,1,1.151-1.5,6.05,6.05,0,0,1,2.128-1.013,12.208,12.208,0,0,1,3.268-.374,10.688,10.688,0,0,1,5.4,1.07A3.683,3.683,0,0,1,1851.673,1127.361Zm-9.527,12.2a1.164,1.164,0,0,1,.478-1.024,2.635,2.635,0,0,1,1.49-.334,2.728,2.728,0,0,1,1.553.334,1.181,1.181,0,0,1,.46,1.024,1.156,1.156,0,0,1-.46,1,2.728,2.728,0,0,1-1.553.334,2.635,2.635,0,0,1-1.49-.334A1.14,1.14,0,0,1,1842.146,1139.557Z" transform="translate(-1837.613 -1122.885)"/><path d="M1931.762,1127.361a3.349,3.349,0,0,1-.259,1.323,4.8,4.8,0,0,1-.679,1.133,7.429,7.429,0,0,1-.955.984q-.535.461-1.1.886l-1.1.834a9.668,9.668,0,0,0-.967.828,4.129,4.129,0,0,0-.684.869,1.993,1.993,0,0,0-.27.967l-.011.805h-2.957l-.011-1.07a2.883,2.883,0,0,1,.23-1.22,4.313,4.313,0,0,1,.639-1.03,6.455,6.455,0,0,1,.909-.892q.512-.414,1.047-.794t1.047-.754a8.11,8.11,0,0,0,.909-.765,3.9,3.9,0,0,0,.644-.817,1.82,1.82,0,0,0,.248-.932,2.68,2.68,0,0,0-.2-1.064,1.737,1.737,0,0,0-.65-.759,3.32,3.32,0,0,0-1.191-.454,9.259,9.259,0,0,0-1.806-.15,7.6,7.6,0,0,0-1.841.19,3.675,3.675,0,0,0-1.214.518,1.967,1.967,0,0,0-.673.771,2.215,2.215,0,0,0-.207.949v.357H1917.7v-.483a4.835,4.835,0,0,1,.345-1.824,3.636,3.636,0,0,1,1.151-1.5,6.05,6.05,0,0,1,2.129-1.013,12.208,12.208,0,0,1,3.268-.374,10.688,10.688,0,0,1,5.4,1.07A3.683,3.683,0,0,1,1931.762,1127.361Zm-9.527,12.2a1.164,1.164,0,0,1,.477-1.024,2.635,2.635,0,0,1,1.49-.334,2.728,2.728,0,0,1,1.553.334,1.181,1.181,0,0,1,.46,1.024,1.157,1.157,0,0,1-.46,1,2.729,2.729,0,0,1-1.553.334,2.635,2.635,0,0,1-1.49-.334A1.141,1.141,0,0,1,1922.235,1139.557Z" transform="translate(-1901.882 -1122.885)"/><path d="M2011.851,1127.361a3.349,3.349,0,0,1-.259,1.323,4.8,4.8,0,0,1-.679,1.133,7.413,7.413,0,0,1-.955.984q-.535.461-1.1.886l-1.1.834a9.678,9.678,0,0,0-.967.828,4.125,4.125,0,0,0-.684.869,1.992,1.992,0,0,0-.271.967l-.011.805h-2.957l-.012-1.07a2.885,2.885,0,0,1,.23-1.22,4.3,4.3,0,0,1,.639-1.03,6.466,6.466,0,0,1,.909-.892q.512-.414,1.047-.794t1.047-.754a8.11,8.11,0,0,0,.909-.765,3.907,3.907,0,0,0,.644-.817,1.821,1.821,0,0,0,.248-.932,2.68,2.68,0,0,0-.2-1.064,1.737,1.737,0,0,0-.65-.759,3.32,3.32,0,0,0-1.191-.454,9.259,9.259,0,0,0-1.807-.15,7.6,7.6,0,0,0-1.841.19,3.672,3.672,0,0,0-1.214.518,1.965,1.965,0,0,0-.673.771,2.212,2.212,0,0,0-.207.949v.357h-2.957v-.483a4.835,4.835,0,0,1,.345-1.824,3.634,3.634,0,0,1,1.151-1.5,6.048,6.048,0,0,1,2.128-1.013,12.207,12.207,0,0,1,3.268-.374,10.689,10.689,0,0,1,5.4,1.07A3.683,3.683,0,0,1,2011.851,1127.361Zm-9.527,12.2a1.164,1.164,0,0,1,.477-1.024,2.635,2.635,0,0,1,1.49-.334,2.727,2.727,0,0,1,1.553.334,1.181,1.181,0,0,1,.46,1.024,1.156,1.156,0,0,1-.46,1,2.727,2.727,0,0,1-1.553.334,2.635,2.635,0,0,1-1.49-.334A1.14,1.14,0,0,1,2002.324,1139.557Z" transform="translate(-1966.15 -1122.885)"/><path d="M2091.939,1127.361a3.345,3.345,0,0,1-.259,1.323,4.79,4.79,0,0,1-.679,1.133,7.406,7.406,0,0,1-.955.984q-.535.461-1.1.886l-1.1.834a9.705,9.705,0,0,0-.967.828,4.121,4.121,0,0,0-.684.869,1.992,1.992,0,0,0-.271.967l-.011.805h-2.957l-.011-1.07a2.878,2.878,0,0,1,.23-1.22,4.3,4.3,0,0,1,.638-1.03,6.48,6.48,0,0,1,.909-.892q.512-.414,1.047-.794t1.047-.754a8.087,8.087,0,0,0,.909-.765,3.909,3.909,0,0,0,.645-.817,1.822,1.822,0,0,0,.247-.932,2.672,2.672,0,0,0-.2-1.064,1.732,1.732,0,0,0-.65-.759,3.319,3.319,0,0,0-1.191-.454,9.262,9.262,0,0,0-1.807-.15,7.6,7.6,0,0,0-1.841.19,3.67,3.67,0,0,0-1.214.518,1.968,1.968,0,0,0-.673.771,2.217,2.217,0,0,0-.207.949v.357h-2.957v-.483a4.838,4.838,0,0,1,.345-1.824,3.635,3.635,0,0,1,1.151-1.5,6.045,6.045,0,0,1,2.128-1.013,12.205,12.205,0,0,1,3.268-.374,10.688,10.688,0,0,1,5.4,1.07A3.683,3.683,0,0,1,2091.939,1127.361Zm-9.527,12.2a1.164,1.164,0,0,1,.478-1.024,2.635,2.635,0,0,1,1.49-.334,2.727,2.727,0,0,1,1.553.334,1.181,1.181,0,0,1,.46,1.024,1.156,1.156,0,0,1-.46,1,2.727,2.727,0,0,1-1.553.334,2.635,2.635,0,0,1-1.49-.334A1.14,1.14,0,0,1,2082.412,1139.557Z" transform="translate(-2030.417 -1122.885)"/></g></g></svg>