<svg xmlns="http://www.w3.org/2000/svg" width="523" height="317.518" viewBox="0 0 523 317.518"><g transform="translate(-9 -1.074)"><g transform="translate(158.597 1.074)"><g transform="translate(0.428 0.428)"><path d="M643.307,46.767H751.222V2.884H643.307Z" transform="translate(-643.307 -2.884)" fill="#fff" fill-rule="evenodd"/></g><path d="M749.842,1.074H641.927a.428.428,0,0,0-.427.428V45.385a.428.428,0,0,0,.427.428H749.842a.428.428,0,0,0,.428-.428V1.5A.428.428,0,0,0,749.842,1.074Zm-.427.856V44.957H642.355V1.93Z" transform="translate(-641.5 -1.074)" fill="#141414"/><g transform="translate(9.599 8.982)"><path d="M682.083,64.945h26.065V39.052H682.083Z" transform="translate(-682.083 -39.052)" fill="#ff4b33" fill-rule="evenodd"/></g><g transform="translate(40.737 11.917)"><path d="M841.034,68.706a1.712,1.712,0,0,1,.053,3.423H815.447a1.712,1.712,0,0,1-.053-3.423h25.641ZM852.2,60.082a1.712,1.712,0,0,1,.053,3.423H815.447a1.712,1.712,0,0,1-.053-3.423h36.8Zm11.394-8.623a1.712,1.712,0,0,1,.053,3.423h-48.2a1.712,1.712,0,0,1-.053-3.423h48.2Z" transform="translate(-813.737 -51.459)" fill="#d3e2f2"/></g><g transform="translate(0 55.108)"><g transform="translate(0.428 0.428)"><path d="M643.307,279.767H751.222V235.884H643.307Z" transform="translate(-643.307 -235.884)" fill="#fff" fill-rule="evenodd"/></g><path d="M749.842,234.074H641.927a.428.428,0,0,0-.427.428v43.883a.428.428,0,0,0,.427.428H749.842a.428.428,0,0,0,.428-.428V234.5A.428.428,0,0,0,749.842,234.074Zm-.427.856v43.027H642.355V234.93Z" transform="translate(-641.5 -234.074)" fill="#141414"/><g transform="translate(9.599 8.982)"><path d="M682.083,297.945h26.065V272.052H682.083Z" transform="translate(-682.083 -272.052)" fill="#13d6c3" fill-rule="evenodd"/></g><g transform="translate(40.737 11.917)"><path d="M841.034,301.706a1.712,1.712,0,0,1,.053,3.423H815.447a1.712,1.712,0,0,1-.053-3.423h25.641Zm11.164-8.624a1.712,1.712,0,0,1,.053,3.423H815.447a1.712,1.712,0,0,1-.053-3.423h36.8Zm11.394-8.623a1.712,1.712,0,0,1,.053,3.423h-48.2a1.712,1.712,0,0,1-.053-3.423h48.2Z" transform="translate(-813.737 -284.459)" fill="#d3e2f2"/></g></g><g transform="translate(0 110.217)" opacity="0.17"><g transform="translate(0.428 0.428)"><path d="M643.307,512.767H751.222V468.884H643.307Z" transform="translate(-643.307 -468.884)" fill="#fff" fill-rule="evenodd"/></g><path d="M749.842,467.074H641.927a.428.428,0,0,0-.427.428v43.883a.428.428,0,0,0,.427.428H749.842a.428.428,0,0,0,.428-.428V467.5A.428.428,0,0,0,749.842,467.074Zm-.427.856v43.027H642.355V467.93Z" transform="translate(-641.5 -467.074)" fill="#141414"/><g transform="translate(9.599 8.982)"><path d="M682.083,530.945h26.065V505.052H682.083Z" transform="translate(-682.083 -505.052)" fill="#02bad3" fill-rule="evenodd"/></g><g transform="translate(40.737 11.917)"><path d="M841.034,534.706a1.712,1.712,0,0,1,.053,3.423H815.447a1.712,1.712,0,0,1-.053-3.423h25.641Zm11.164-8.624a1.712,1.712,0,0,1,.053,3.423H815.447a1.712,1.712,0,0,1-.053-3.423h36.8Zm11.394-8.623a1.712,1.712,0,0,1,.053,3.423h-48.2a1.712,1.712,0,0,1-.053-3.423h48.2Z" transform="translate(-813.737 -517.459)" fill="#d3e2f2"/></g></g><g transform="translate(0 165.325)" opacity="0.17"><g transform="translate(0.428 0.428)"><path d="M643.307,745.767H751.222V701.884H643.307Z" transform="translate(-643.307 -701.884)" fill="#fff" fill-rule="evenodd"/></g><path d="M749.842,700.074H641.927a.428.428,0,0,0-.427.428v43.883a.428.428,0,0,0,.427.428H749.842a.428.428,0,0,0,.428-.428V700.5A.428.428,0,0,0,749.842,700.074Zm-.427.856v43.027H642.355V700.93Z" transform="translate(-641.5 -700.074)" fill="#141414"/><g transform="translate(9.599 8.982)"><path d="M682.083,763.945h26.065V738.052H682.083Z" transform="translate(-682.083 -738.052)" fill="#ffc81a" fill-rule="evenodd"/></g><g transform="translate(40.737 11.917)"><path d="M841.034,767.706a1.712,1.712,0,0,1,.053,3.423H815.447a1.712,1.712,0,0,1-.053-3.423h25.641Zm11.164-8.624a1.712,1.712,0,0,1,.053,3.423H815.447a1.712,1.712,0,0,1-.053-3.423h36.8Zm11.394-8.623a1.712,1.712,0,0,1,.053,3.423h-48.2a1.712,1.712,0,0,1-.053-3.423h48.2Z" transform="translate(-813.737 -750.459)" fill="#d3e2f2"/></g></g><g transform="translate(132.923)"><g opacity="0.19"><g transform="translate(0.428 0.428)"><path d="M1205.307,46.767h107.915V2.884H1205.307Z" transform="translate(-1205.307 -2.884)" fill="#fff" fill-rule="evenodd"/></g><path d="M1311.842,1.074H1203.927a.428.428,0,0,0-.427.428V45.385a.428.428,0,0,0,.427.428h107.915a.428.428,0,0,0,.428-.428V1.5A.428.428,0,0,0,1311.842,1.074Zm-.427.856V44.957h-107.06V1.93Z" transform="translate(-1203.5 -1.074)" fill="#141414"/><g transform="translate(9.599 8.982)"><path d="M1244.083,64.945h26.066V39.052h-26.066Z" transform="translate(-1244.083 -39.052)" fill="#ffc81a" fill-rule="evenodd"/></g><g transform="translate(40.737 11.917)"><path d="M1403.034,68.706a1.712,1.712,0,0,1,.053,3.423h-25.641a1.712,1.712,0,0,1-.053-3.423h25.641Zm11.164-8.624a1.712,1.712,0,0,1,.053,3.423h-36.805a1.712,1.712,0,0,1-.053-3.423h36.8Zm11.394-8.623a1.712,1.712,0,0,1,.053,3.423h-48.2a1.712,1.712,0,0,1-.053-3.423h48.2Z" transform="translate(-1375.737 -51.459)" fill="#d3e2f2"/></g></g><g transform="translate(0 55.108)"><g transform="translate(0.428 0.428)"><path d="M1205.307,279.767h107.915V235.884H1205.307Z" transform="translate(-1205.307 -235.884)" fill="#fff" fill-rule="evenodd"/></g><path d="M1311.842,234.074H1203.927a.428.428,0,0,0-.427.428v43.883a.428.428,0,0,0,.427.428h107.915a.428.428,0,0,0,.428-.428V234.5A.428.428,0,0,0,1311.842,234.074Zm-.427.856v43.027h-107.06V234.93Z" transform="translate(-1203.5 -234.074)" fill="#141414"/><g transform="translate(9.599 8.982)"><path d="M1244.083,297.945h26.066V272.052h-26.066Z" transform="translate(-1244.083 -272.052)" fill="#ffc81a" fill-rule="evenodd"/></g><g transform="translate(40.737 11.917)"><path d="M1403.034,301.706a1.712,1.712,0,0,1,.053,3.423h-25.641a1.712,1.712,0,0,1-.053-3.423h25.641Zm11.164-8.624a1.712,1.712,0,0,1,.053,3.423h-36.805a1.712,1.712,0,0,1-.053-3.423h36.8Zm11.394-8.623a1.712,1.712,0,0,1,.053,3.423h-48.2a1.712,1.712,0,0,1-.053-3.423h48.2Z" transform="translate(-1375.737 -284.459)" fill="#d3e2f2"/></g></g><g transform="translate(0 110.217)" opacity="0.17"><g transform="translate(0.428 0.428)"><path d="M1205.307,512.767h107.915V468.884H1205.307Z" transform="translate(-1205.307 -468.884)" fill="#fff" fill-rule="evenodd"/></g><path d="M1311.842,467.074H1203.927a.428.428,0,0,0-.427.428v43.883a.428.428,0,0,0,.427.428h107.915a.428.428,0,0,0,.428-.428V467.5A.428.428,0,0,0,1311.842,467.074Zm-.427.856v43.027h-107.06V467.93Z" transform="translate(-1203.5 -467.074)" fill="#141414"/><g transform="translate(9.599 8.982)"><path d="M1244.083,530.945h26.066V505.052h-26.066Z" transform="translate(-1244.083 -505.052)" fill="#ffc81a" fill-rule="evenodd"/></g><g transform="translate(40.737 11.917)"><path d="M1403.034,534.706a1.712,1.712,0,0,1,.053,3.423h-25.641a1.712,1.712,0,0,1-.053-3.423h25.641Zm11.164-8.624a1.712,1.712,0,0,1,.053,3.423h-36.805a1.712,1.712,0,0,1-.053-3.423h36.8Zm11.394-8.623a1.712,1.712,0,0,1,.053,3.423h-48.2a1.712,1.712,0,0,1-.053-3.423h48.2Z" transform="translate(-1375.737 -517.459)" fill="#d3e2f2"/></g></g><g transform="translate(0 165.325)"><g transform="translate(0.428 0.428)"><path d="M1205.307,745.767h107.915V701.884H1205.307Z" transform="translate(-1205.307 -701.884)" fill="#fff" fill-rule="evenodd"/></g><path d="M1311.842,700.074H1203.927a.428.428,0,0,0-.427.428v43.883a.428.428,0,0,0,.427.428h107.915a.428.428,0,0,0,.428-.428V700.5A.428.428,0,0,0,1311.842,700.074Zm-.427.856v43.027h-107.06V700.93Z" transform="translate(-1203.5 -700.074)" fill="#141414"/><g transform="translate(9.599 8.982)"><path d="M1244.083,763.945h26.066V738.052h-26.066Z" transform="translate(-1244.083 -738.052)" fill="#ffc81a" fill-rule="evenodd"/></g><g transform="translate(40.737 11.917)"><path d="M1403.034,767.706a1.712,1.712,0,0,1,.053,3.423h-25.641a1.712,1.712,0,0,1-.053-3.423h25.641Zm11.164-8.624a1.712,1.712,0,0,1,.053,3.423h-36.805a1.712,1.712,0,0,1-.053-3.423h36.8Zm11.394-8.623a1.712,1.712,0,0,1,.053,3.423h-48.2a1.712,1.712,0,0,1-.053-3.423h48.2Z" transform="translate(-1375.737 -750.459)" fill="#d3e2f2"/></g></g></g></g><g transform="translate(9 94.262)"><g transform="translate(0 33.331)"><path d="M29.122,696.831S4.694,682.192,9.669,655.7c2.969-15.812,13.041-15.037,18.87-27.007,3.72-7.64-1.932-28.144,9.67-41.632,10.839-12.6,28.562-11.458,34.27-14.2,7.651-3.668,10.565-11.375,12.751-17.7,8.155-23.6,27-22.961,30.063-11.221,3.7,14.154.157,22.685-17.239,36.557-13.071,10.423,6.067,22.117-5.318,41.1-6.361,10.6-23.467,16.116-15.111,29.828,11.442,18.777,9.293,37.235,3.46,45.407Z" transform="translate(-9 -536)" fill="#ff4b33" fill-rule="evenodd"/><g transform="translate(36.66 19.867)"><path d="M218.731,620.136a.471.471,0,0,0-.667,0A176.275,176.275,0,0,0,203.8,637.378a224.625,224.625,0,0,0-26.223,45.937c-7.326,17.57-15.443,42.269-13.2,77.649h.945c-2.245-35.217,5.833-59.8,13.124-77.285,15.709-37.673,40.043-62.628,40.287-62.875a.473.473,0,0,0,0-.668" transform="translate(-164 -620)" fill="#fff" fill-rule="evenodd"/></g><g transform="translate(39.004 74.266)"><path d="M242.456,850a2.973,2.973,0,0,0-2.98,2.7,2.683,2.683,0,0,0,.1.71A122.959,122.959,0,0,0,176.21,927.43a80.877,80.877,0,0,0-2.3,9.135h.959a81.524,81.524,0,0,1,2.244-8.858,121.212,121.212,0,0,1,62.87-73.443,2.664,2.664,0,0,0,2.168,1.116,2.5,2.5,0,0,0,2.714-2.422c0-1.479-.932-2.958-2.408-2.958" transform="translate(-173.909 -850)" fill="#141414" fill-rule="evenodd"/></g><g transform="translate(42.706 104.766)"><path d="M270.16,978.953a2.977,2.977,0,0,0-2.987,2.7h0c-4.581.821-12.313,2.536-26.366,7.71-18.7,6.887-31.633,18.91-39.184,27.783a89.144,89.144,0,0,0-12.04,17.806.454.454,0,0,0-.022.064H190.6a90.652,90.652,0,0,1,11.76-17.281c7.476-8.778,20.271-20.673,38.77-27.484,13.981-5.147,21.66-6.851,26.208-7.667a2.678,2.678,0,0,0,2.509,1.748,2.508,2.508,0,0,0,2.721-2.422c0-1.48-.934-2.959-2.413-2.959" transform="translate(-189.561 -978.953)" fill="#141414" fill-rule="evenodd"/></g></g><g transform="translate(399.714)"><g transform="translate(0)"><g transform="translate(35.205 60.154)"><g transform="translate(0.716 0.477)"><path d="M1905.1,652.324c10.274-2.01,29.259-.447,32.162,2.68,3.253,3.5-4.908,22.839-8.823,24.406-5.874,0-15.663-1.175-14.1,1.958s6.657,7.048,6.657,9.006-3.524,14.489-7.832,15.271-14.88-2.741-15.272,0,5.482,6.266,5.874,9.4-5.482,11.747-30.543,19.187h-21.537s-3.916-27.019,5.482-38.375c7.44,2.741,10.573,3.132,10.573,3.132s-.783-15.272,1.958-21.928,6.442-12.425,11.277-12.452c3.623-.02,11.388,6.985,12.954,4.244s-1.9-13.97,11.168-16.528" transform="translate(-1850.875 -651.424)" fill="#fff" fill-rule="evenodd"/></g><path d="M1902.458,650.319c-5.986,1.171-9.086,4.146-10.295,8.648l-.064.244a23.085,23.085,0,0,0-.613,4.557l-.051.739a6.51,6.51,0,0,1-.464,2.57c-.268.469-.9.533-2.035.148l-.179-.063a22,22,0,0,1-3.156-1.533l-1.527-.842c-2.872-1.575-4.343-2.2-5.649-2.193-4.575.025-8.379,4.653-11.711,12.745a33.5,33.5,0,0,0-1.827,9.587,105.547,105.547,0,0,0-.231,10.717l.017.588.013.4.009.252-.225-.045c-.463-.094-1.014-.222-1.655-.387l-.293-.076c-2.076-.547-4.645-1.364-7.738-2.5a.472.472,0,0,0-.528.142c-3.2,3.869-5.1,9.7-5.925,16.969a91.436,91.436,0,0,0-.069,18.064l.038.426c.071.769.146,1.478.221,2.118l.049.4q.027.223.052.413l.048.352a.473.473,0,0,0,.468.405h21.537a.486.486,0,0,0,.135-.019c11.42-3.391,19.7-7.261,24.969-11.287l.248-.191c3.97-3.093,5.921-6.143,5.661-8.222a6.859,6.859,0,0,0-1.8-3.357l-.091-.109c-.3-.359-.6-.691-1.089-1.233l-.244-.269c-2.158-2.384-2.789-3.332-2.651-4.3.059-.414.7-.657,2.039-.656l.2,0a36.518,36.518,0,0,1,4.675.5l1.078.156c3.576.515,5.429.659,6.893.393,2.119-.385,4.084-3.119,5.828-7.343l.057-.138a33.018,33.018,0,0,0,2.336-8.255,4.419,4.419,0,0,0-1.212-2.469c-.291-.371-.631-.771-1.064-1.258l-.415-.462-.987-1.084c-.44-.485-.776-.862-1.089-1.227a14.153,14.153,0,0,1-1.941-2.717c-.338-.676.147-1.068,1.822-1.31l.147-.02a41.581,41.581,0,0,1,6.489-.088l2.682.1c1.131.037,1.786.05,2.535.05a.471.471,0,0,0,.176-.034c2.034-.814,5.06-5.809,7.365-11.745l.146-.38c2.355-6.187,3.122-11.277,1.483-13.042C1932.011,649.861,1912.9,648.276,1902.458,650.319Zm31.907,3.466c1.291,1.391.521,6.353-1.749,12.257l-.135.349c-2.152,5.489-4.98,10.177-6.665,10.993l-.025.011-.433,0c-.767-.007-1.588-.032-3.122-.087l-1.364-.049a41.2,41.2,0,0,0-6.971.112,4.578,4.578,0,0,0-2.2.754,1.444,1.444,0,0,0-.331,1.915,14.944,14.944,0,0,0,2.068,2.909l.209.242c.238.273.495.561.8.9l1.244,1.369.153.17.267.3c.339.386.615.714.852,1.017a3.876,3.876,0,0,1,1.01,1.885,32.968,32.968,0,0,1-2.265,7.9l-.11.268c-1.608,3.851-3.411,6.34-5.067,6.641l-.123.021a21.9,21.9,0,0,1-6-.353l-2.173-.312a32.263,32.263,0,0,0-4.172-.424h-.115c-1.838-.016-2.918.38-3.074,1.467a3.736,3.736,0,0,0,.816,2.58l.063.093a20,20,0,0,0,1.879,2.26l.578.637c.366.4.611.684.859.979a6.32,6.32,0,0,1,1.677,2.975c.213,1.707-1.648,4.569-5.545,7.544l-.156.118c-5.077,3.829-12.98,7.536-23.839,10.813l-.6.18h-21.054l-.042-.339-.028-.228c-.094-.789-.188-1.69-.277-2.687a90.534,90.534,0,0,1,.066-17.873l.027-.229c.795-6.768,2.539-12.217,5.394-15.88l.083-.105.124.045c3.072,1.119,5.621,1.917,7.68,2.446l.3.075c.63.157,1.169.277,1.622.365l.246.046c.183.033.313.053.391.063a.473.473,0,0,0,.531-.494l-.016-.356-.022-.6c0-.13-.009-.266-.013-.407a105.482,105.482,0,0,1,.216-11.063l.033-.415a31.759,31.759,0,0,1,1.725-8.885c3.2-7.76,6.793-12.137,10.842-12.159,1.043-.006,2.4.557,4.944,1.942l.672.369.8.441a23.608,23.608,0,0,0,3.7,1.8l.169.057c1.474.483,2.53.361,3.08-.6a7.363,7.363,0,0,0,.6-3.177l.055-.786a20.554,20.554,0,0,1,.629-4.37c1.116-4.158,3.936-6.864,9.563-7.965,10.044-1.965,28.6-.454,31.638,2.449Z" transform="translate(-1847.849 -649.407)" fill="#070707"/><path d="M1902.458,650.319c-5.986,1.171-9.086,4.146-10.295,8.648l-.064.244a23.085,23.085,0,0,0-.613,4.557l-.051.739a6.51,6.51,0,0,1-.464,2.57c-.268.469-.9.533-2.035.148l-.179-.063a22,22,0,0,1-3.156-1.533l-1.527-.842c-2.872-1.575-4.343-2.2-5.649-2.193-4.575.025-8.379,4.653-11.711,12.745a33.5,33.5,0,0,0-1.827,9.587,105.547,105.547,0,0,0-.231,10.717l.017.588.013.4.009.252-.225-.045c-.463-.094-1.014-.222-1.655-.387l-.293-.076c-2.076-.547-4.645-1.364-7.738-2.5a.472.472,0,0,0-.528.142c-3.2,3.869-5.1,9.7-5.925,16.969a91.436,91.436,0,0,0-.069,18.064l.038.426c.071.769.146,1.478.221,2.118l.049.4q.027.223.052.413l.048.352a.473.473,0,0,0,.468.405h21.537a.486.486,0,0,0,.135-.019c11.42-3.391,19.7-7.261,24.969-11.287l.248-.191c3.97-3.093,5.921-6.143,5.661-8.222a6.859,6.859,0,0,0-1.8-3.357l-.091-.109c-.3-.359-.6-.691-1.089-1.233l-.244-.269c-2.158-2.384-2.789-3.332-2.651-4.3.059-.414.7-.657,2.039-.656l.2,0a36.518,36.518,0,0,1,4.675.5l1.078.156c3.576.515,5.429.659,6.893.393,2.119-.385,4.084-3.119,5.828-7.343l.057-.138a33.018,33.018,0,0,0,2.336-8.255,4.419,4.419,0,0,0-1.212-2.469c-.291-.371-.631-.771-1.064-1.258l-.415-.462-.987-1.084c-.44-.485-.776-.862-1.089-1.227a14.153,14.153,0,0,1-1.941-2.717c-.338-.676.147-1.068,1.822-1.31l.147-.02a41.581,41.581,0,0,1,6.489-.088l2.682.1c1.131.037,1.786.05,2.535.05a.471.471,0,0,0,.176-.034c2.034-.814,5.06-5.809,7.365-11.745l.146-.38c2.355-6.187,3.122-11.277,1.483-13.042C1932.011,649.861,1912.9,648.276,1902.458,650.319Zm31.907,3.466c1.291,1.391.521,6.353-1.749,12.257l-.135.349c-2.152,5.489-4.98,10.177-6.665,10.993l-.025.011-.433,0c-.767-.007-1.588-.032-3.122-.087l-1.364-.049a41.2,41.2,0,0,0-6.971.112,4.578,4.578,0,0,0-2.2.754,1.444,1.444,0,0,0-.331,1.915,14.944,14.944,0,0,0,2.068,2.909l.209.242c.238.273.495.561.8.9l1.244,1.369.153.17.267.3c.339.386.615.714.852,1.017a3.876,3.876,0,0,1,1.01,1.885,32.968,32.968,0,0,1-2.265,7.9l-.11.268c-1.608,3.851-3.411,6.34-5.067,6.641l-.123.021a21.9,21.9,0,0,1-6-.353l-2.173-.312a32.263,32.263,0,0,0-4.172-.424h-.115c-1.838-.016-2.918.38-3.074,1.467a3.736,3.736,0,0,0,.816,2.58l.063.093a20,20,0,0,0,1.879,2.26l.578.637c.366.4.611.684.859.979a6.32,6.32,0,0,1,1.677,2.975c.213,1.707-1.648,4.569-5.545,7.544l-.156.118c-5.077,3.829-12.98,7.536-23.839,10.813l-.6.18h-21.054l-.042-.339-.028-.228c-.094-.789-.188-1.69-.277-2.687a90.534,90.534,0,0,1,.066-17.873l.027-.229c.795-6.768,2.539-12.217,5.394-15.88l.083-.105.124.045c3.072,1.119,5.621,1.917,7.68,2.446l.3.075c.63.157,1.169.277,1.622.365l.246.046c.183.033.313.053.391.063a.473.473,0,0,0,.531-.494l-.016-.356-.022-.6c0-.13-.009-.266-.013-.407a105.482,105.482,0,0,1,.216-11.063l.033-.415a31.759,31.759,0,0,1,1.725-8.885c3.2-7.76,6.793-12.137,10.842-12.159,1.043-.006,2.4.557,4.944,1.942l.672.369.8.441a23.608,23.608,0,0,0,3.7,1.8l.169.057c1.474.483,2.53.361,3.08-.6a7.363,7.363,0,0,0,.6-3.177l.055-.786a20.554,20.554,0,0,1,.629-4.37c1.116-4.158,3.936-6.864,9.563-7.965,10.044-1.965,28.6-.454,31.638,2.449Z" transform="translate(-1847.849 -649.407)" fill="#070707"/></g><path d="M1797.69,395.226c4.474.511,8.712,34.149-6.324,38.056-5.564,1.446-14.727,4.186-9.743,9.724,2.539,2.82,12.735,5.984,15.288,11.657,1.945,4.321-3.015,17.432-10.471,20.845-8.537,3.907-16.607,2.208-17.323,7.456s11.7,8.523,12.465,15.682c.539,5.032-7.837,23.473-35.322,39.016-16.222,0-29.816-.239-29.816-.239s-13.083-20.709-16.422-45.042,1.813-32.846,10.888-33.989c4.837-.609,14.167,6.376,18.845,5.01,3.9-1.139-1.1-14.258-1.1-23.562s2.429-17.642,6.347-19.617c3.155-1.59,12.533,5.4,15.634,6.829s9.2,2.914,10.362-.252c1.434-3.891-3.707-14.062.128-19.815,4.795-7.192,26.342-12.929,36.562-11.761" transform="translate(-1699 -395.075)" fill="#ff4b33" fill-rule="evenodd"/><g transform="translate(32.59 9.984)"><path d="M1896.329,437.42a.473.473,0,0,1,.013.669l-.165.174q-.181.192-.419.448l-.487.529q-.6.653-1.31,1.455l-.131.147c-2,2.262-4.236,4.9-6.641,7.906a263.916,263.916,0,0,0-20.162,28.97,226.1,226.1,0,0,0-19.777,41.585,161.212,161.212,0,0,0-9.512,50.377.473.473,0,1,1-.946-.017,162.161,162.161,0,0,1,9.566-50.673,227.037,227.037,0,0,1,19.859-41.76,264.848,264.848,0,0,1,20.235-29.074l.451-.561c2.244-2.783,4.333-5.25,6.221-7.381l.388-.437q.823-.922,1.484-1.635l.326-.351.34-.36A.473.473,0,0,1,1896.329,437.42Z" transform="translate(-1836.791 -437.288)" fill="#070707"/></g><g transform="translate(5.462 141.883)"><g transform="translate(0.473 0.473)"><path d="M1777.347,1056.586q-20.395,0-40.794,0c-12.745-21.748-16.6-37.871-7.4-59.624h55.589c9.2,21.753,5.349,37.871-7.4,59.624" transform="translate(-1724.093 -996.962)" fill="#ffc81a" fill-rule="evenodd"/></g><path d="M1783.218,994.962a.473.473,0,0,1,.436.289c4.572,10.812,6,20.379,4.563,30.065-1.325,8.922-5.057,18.1-11.783,29.632l-.2.35-.408-.239v.473h-40.794a.473.473,0,0,1-.408-.234c-6.855-11.7-10.649-20.967-11.988-29.98-1.439-9.688-.01-19.255,4.562-30.067a.473.473,0,0,1,.4-.287l.038,0Zm-.315.946h-54.96l-.013.031c-4.356,10.42-5.734,19.639-4.405,28.955l.042.285c1.3,8.785,4.995,17.856,11.665,29.293l.066.114h40.251l.067-.114c6.6-11.324,10.286-20.327,11.625-29.029l.04-.266c1.383-9.317.064-18.524-4.231-28.92Z" transform="translate(-1722.094 -994.962)" fill="#141414"/><g transform="translate(8.256 6.408)"><path d="M1785.618,1022.054a.473.473,0,0,1,.035.945h-28.181a.473.473,0,0,1-.035-.945h28.181Z" transform="translate(-1756.999 -1022.054)" fill="#141414"/></g></g></g></g><g transform="translate(8.041 193.69)"><path d="M525.968,1214.946H43.473a.473.473,0,1,1,0-.946H525.968a.473.473,0,0,1,0,.946Z" transform="translate(-43 -1214)" fill="#141414"/></g></g><g transform="translate(334.132 32.75)"><g transform="translate(0 113.17)"><g transform="translate(0 146.762)"><g transform="translate(18.091 2.493)"><path d="M1480.835,1244.541l-1.911,13.051-18.771,1.939,2.91-13.446Z" transform="translate(-1460.153 -1244.541)" fill="#fff" fill-rule="evenodd"/></g><g transform="translate(17.477 1.892)"><path d="M1458.11,1258.064l18.926-1.858a.5.5,0,0,0,.448-.428l1.932-13.2a.5.5,0,1,0-1-.145l-1.875,12.813L1458.7,1257l2.847-12.72a.5.5,0,1,0-.982-.22l-3,13.4a.5.5,0,0,0,.491.613Z" transform="translate(-1457.558 -1242)" fill="#141414" fill-rule="evenodd"/></g><g transform="translate(0.042 13.082)"><path d="M1421.511,1290.242a.473.473,0,0,0-.542-.349c-.233.042-.527.1-.873.165a59.431,59.431,0,0,1-10.734,1.263h-.011a9.544,9.544,0,0,1-6.111-1.9.474.474,0,0,0-.422-.094c-7.19,1.872-12.384,3.224-16.234,5.792-.676.451-3.117,2.421-2.695,3.814.2.644.89.971,2.066.971,4.291,0,13.537.024,21.694.045,6.6.017,12.3.032,14.447.032a.72.72,0,0,0,.576-.29c.845-1.087-.531-6.97-1.162-9.448" transform="translate(-1383.841 -1289.311)" fill="#ff4b33" fill-rule="evenodd"/></g><g transform="translate(0 23.233)"><path d="M1421.876,1334.83h-37.094a1.116,1.116,0,0,1-1.116-1.116v-.369a1.116,1.116,0,0,1,1.116-1.116h37.094a1.116,1.116,0,0,1,1.116,1.116v.369a1.116,1.116,0,0,1-1.116,1.116" transform="translate(-1383.665 -1332.229)" fill="#141414" fill-rule="evenodd"/></g><g transform="translate(8.07 14.981)"><path d="M1421.365,1299.913a.5.5,0,0,1-.454-.287,2.035,2.035,0,0,0-2.476-1.2.5.5,0,0,1-.3-.96,3.046,3.046,0,0,1,3.685,1.727.5.5,0,0,1-.454.719" transform="translate(-1417.784 -1297.341)" fill="#141414" fill-rule="evenodd"/></g><g transform="translate(12.512 13.77)"><path d="M1440.146,1294.792a.5.5,0,0,1-.455-.287,2.035,2.035,0,0,0-2.476-1.2.5.5,0,0,1-.3-.96,3.046,3.046,0,0,1,3.685,1.727.5.5,0,0,1-.454.719" transform="translate(-1436.565 -1292.22)" fill="#141414" fill-rule="evenodd"/></g><g transform="translate(39.341)"><path d="M1550,1234" transform="translate(-1550 -1234)" fill="#141414" fill-rule="evenodd"/></g></g><g transform="translate(70.26 148.654)"><g transform="translate(2.2 0.566)"><path d="M1690.027,1244.394l.562,13.188,16.532,1.417-.252-13.241Z" transform="translate(-1690.027 -1244.394)" fill="#fff" fill-rule="evenodd"/></g><g transform="translate(1.686)"><path d="M1705.5,1257.671a.5.5,0,0,0,.5-.512l-.241-13.245a.5.5,0,0,0-1.006.018l.231,12.688-15.573-1.3-.555-12.836a.5.5,0,1,0-1,.044l.574,13.279a.5.5,0,0,0,.461.479l16.569,1.386.042,0" transform="translate(-1687.853 -1242)" fill="#141414" fill-rule="evenodd"/></g><g transform="translate(0.186 11.266)"><path d="M1682.942,1290.566a.473.473,0,0,1,.542-.349c.233.042.527.1.874.165a59.425,59.425,0,0,0,10.733,1.263h.011a9.545,9.545,0,0,0,6.111-1.9.475.475,0,0,1,.422-.094c7.189,1.872,12.384,3.224,16.234,5.792.677.451,3.117,2.421,2.695,3.814-.2.644-.89.971-2.066.971-4.292,0-13.537.024-21.694.045-6.6.017-12.3.032-14.447.032a.72.72,0,0,1-.576-.29c-.845-1.087.531-6.97,1.162-9.448" transform="translate(-1681.513 -1289.635)" fill="#ff4b33" fill-rule="evenodd"/></g><g transform="translate(0 21.417)"><path d="M1681.841,1335.153h37.094a1.116,1.116,0,0,0,1.116-1.116v-.369a1.116,1.116,0,0,0-1.116-1.116h-37.094a1.116,1.116,0,0,0-1.116,1.116v.369a1.116,1.116,0,0,0,1.116,1.116" transform="translate(-1680.725 -1332.552)" fill="#141414" fill-rule="evenodd"/></g><g transform="translate(27.173 13.166)"><path d="M1796.116,1300.237a.5.5,0,0,0,.454-.287,2.035,2.035,0,0,1,2.476-1.2.5.5,0,0,0,.3-.96,3.046,3.046,0,0,0-3.685,1.727.5.5,0,0,0,.454.719" transform="translate(-1795.614 -1297.665)" fill="#141414" fill-rule="evenodd"/></g><g transform="translate(22.731 11.954)"><path d="M1777.335,1295.115a.5.5,0,0,0,.454-.287,2.035,2.035,0,0,1,2.476-1.2.5.5,0,0,0,.3-.96,3.046,3.046,0,0,0-3.685,1.727.5.5,0,0,0,.238.67.5.5,0,0,0,.216.049" transform="translate(-1776.833 -1292.543)" fill="#141414" fill-rule="evenodd"/></g></g><g transform="translate(15.972)"><path d="M1529.608,614.069l12.363,155.9a268.5,268.5,0,0,1-38.59,0s-2.13-130.3-3.3-130.436c-2.19-.247-12.947,130.436-12.947,130.436-12.159,1.97-24.084,1.37-35.939,0,0,0,9.022-115.446,24.466-156.481,24.409,1.085,53.947.583,53.947.583" transform="translate(-1451.195 -613.486)" fill-rule="evenodd"/><g transform="translate(64.606 5.597)"><path d="M1724.67,637.219a.591.591,0,0,1,.8.253c3.919,7.56,12.381,6.845,12.749,6.809a.591.591,0,0,1,.116,1.177c-.017,0-.31.027-.806.027-2.4,0-9.549-.6-13.109-7.469a.591.591,0,0,1,.253-.8" transform="translate(-1724.35 -637.152)" fill="#fff" fill-rule="evenodd"/></g><g transform="translate(20.889 4.483)"><path d="M1540.142,639.57c.348.034,8.559.755,12.361-6.809a.565.565,0,0,1,.773-.253.6.6,0,0,1,.245.8c-3.451,6.866-10.382,7.469-12.709,7.469-.481,0-.765-.026-.781-.027a.587.587,0,0,1-.514-.646.579.579,0,0,1,.626-.531" transform="translate(-1539.514 -632.442)" fill="#fff" fill-rule="evenodd"/></g></g></g><g transform="translate(15.365 34.295)"><g transform="translate(0 12.299)"><g transform="translate(0.446 0.438)"><path d="M1466.216,339.326c-.528-1.385-2.781.624-3.176,3.348-.446-2.459-1.482-8.407-3.3-8.778-1.834-.374-1.73,3.2-1.73,3.2-.757-1.667-1.552-3.788-2.769-3.124-1.311.715-.287,3.859-.287,3.859-1.152-1.888-1.742-2.155-2.512-1.691-1.233.743,0,3.638,0,3.638-.906-.991-2.655-.67-1.6,3.089a73.92,73.92,0,0,1,2.971,22.48c-.059,1.359,8.838,6.087,16.92,6.008-3.5-14.039-3.833-30.242-4.516-32.034" transform="translate(-1450.513 -333.852)" fill="#fff" fill-rule="evenodd"/></g><path d="M1468.954,366.451c-2.256-10.307-2.863-21.966-3.755-28.7-.98-1.766-2.69-.087-3.5,1.614-.753-3.774-1.713-7-3.308-7.324-1.214-.27-1.91.851-2.111,1.924-1.113-2.893-3.847-2.459-3.584.615a1.441,1.441,0,0,0-1.926-.235c-1,.6-.831,2.065-.558,3.1-1.371.012-2.042,1-1.248,4.132a73.554,73.554,0,0,1,3,20.8c2.749,3.507-1.027-18.879-2.131-21.046-.614-2.278-.308-3.617.8-2.7l1.387,2.729a.324.324,0,0,0,.587-.269s-1.19-2.9-1.19-2.9c-.35-.828-.854-2.669-.177-3.076.341-.206.694-.417,1.87,1.5l1.431,4.07a.352.352,0,0,0,.669-.218c-.285-1.592-2.546-6.3-1.189-7.51.98-.351,1.581,1.867,2.134,2.893l1.358,4.026a.344.344,0,0,0,.657-.2l-1.146-4.052c.047-.911.06-2.814,1.19-2.7,1.474.3,2.556,6.275,2.911,8.238a2.437,2.437,0,0,1-.563,1.285c-1.444.957-2.765,2.765-2.313,4.578a.238.238,0,0,0,.463-.106.626.626,0,0,1-.028-.321c.046-.12.163-2.312,1.723-3.088.415-.206.928-.4,1.134-.815a4.036,4.036,0,0,0,.507-1.369c.231-1.842,1.817-3.911,2.309-3.253.774,6.71,1.493,18.254,3.715,28.564a.451.451,0,0,0,.882-.185" transform="translate(-1448.629 -332)" fill="#141414" fill-rule="evenodd"/></g><g transform="translate(2.843 8.455)"><path d="M1541.787,332.085c8,16.932,7.881,38.973,3.079,46.461-2.249,3.507-6.954,4.673-9.159,4.509l3.522,4.209-58.839,1.183s1.144-6,1.574-7.819c-3.211.8-6.911.8-9.505-1.472-8.364-7.318-11.222-26.849-11.812-31.607,7.1-1.85,16.6-4.56,16.6-4.56l1.786,5.325s.215-12.848,5.11-20.443c4.3-6.678,10.17-10.643,21.286-11.826S1534.493,316.655,1541.787,332.085Z" transform="translate(-1460.647 -315.749)" fill="#ff4b33" fill-rule="evenodd"/><g transform="translate(21.056 21.406)"><path d="M1550.988,438.858l.689-5.413.723-5.408.722-5.408c.249-1.8.5-3.6.762-5.4.531-3.6,1.086-7.194,1.716-10.779a.234.234,0,0,1,.462.063c-.353,3.623-.781,7.236-1.234,10.845-.225,1.8-.47,3.607-.713,5.409l-.752,5.4-.752,5.4-.786,5.4q-.781,5.4-1.635,10.79a.262.262,0,0,1-.518-.07q.622-5.422,1.315-10.834" transform="translate(-1549.672 -406.254)" fill="#141414" fill-rule="evenodd"/></g></g><g transform="translate(30.911 28.822)"><path d="M1586.36,455.482l31.811-3.467a1.767,1.767,0,0,0,1.565-1.949l-5.082-46.629a1.768,1.768,0,0,0-1.948-1.565l-31.811,3.467a1.767,1.767,0,0,0-1.565,1.948l5.082,46.63a1.767,1.767,0,0,0,1.948,1.565" transform="translate(-1579.319 -401.862)" fill="#141414" fill-rule="evenodd"/></g><g transform="translate(30.737 39.588)"><g transform="translate(0.471 0.455)"><path d="M1608.641,477.215a71.874,71.874,0,0,1-13.738-6.7,79.673,79.673,0,0,1-12.939-9.808c-.568-.5-1.67-1.656-1.32-2.623a1.117,1.117,0,0,1,1.67-.613,7.434,7.434,0,0,1-1.292-1.161,1.589,1.589,0,0,1-.254-1.806,1.272,1.272,0,0,1,1.962-.209l-.693-.6a1.659,1.659,0,0,1-.481-2.246,1.84,1.84,0,0,1,2.368-.252c.287.177,1.143.724,1.143.724a1.6,1.6,0,0,1-.11-2.126,1.359,1.359,0,0,1,1.8-.261c2.646,1.82,5.851,3.651,7.872,4.748,0,0,.183-2.706.387-3.557.19-.792,1.569-1.833,2.16-.648a49.871,49.871,0,0,1,2.205,6.394,51.714,51.714,0,0,0,11.075,4.84" transform="translate(-1580.577 -449.302)" fill="#fff" fill-rule="evenodd"/></g><path d="M1578.6,456.777a1.71,1.71,0,0,1,.887-1.256h0c-.055-.055-.111-.108-.166-.166a2.8,2.8,0,0,1-.507-.72,2.194,2.194,0,0,1-.222-.908,1.664,1.664,0,0,1,.275-.975,1.715,1.715,0,0,1,.771-.646c.03-.012.061-.018.091-.027a2.178,2.178,0,0,1-.225-.373,2.2,2.2,0,0,1-.17-.571,2.161,2.161,0,0,1,.006-.6,2.307,2.307,0,0,1,.173-.56c.042-.09.082-.163.138-.258a1.312,1.312,0,0,1,.225-.269,1.933,1.933,0,0,1,1.1-.466,2.712,2.712,0,0,1,1.1.106,2.417,2.417,0,0,1,.52.23l.023.015a2.206,2.206,0,0,1,.076-.55,1.89,1.89,0,0,1,.566-.936,1.819,1.819,0,0,1,1.011-.452,1.779,1.779,0,0,1,1.092.225l.121.075.087.059.173.118.347.235c.464.312.935.616,1.408.917,1.7,1.077,3.449,2.1,5.215,3.074.026-.325.05-.65.081-.976.055-.557.109-1.107.208-1.682.011-.071.028-.148.044-.223l.012-.057.02-.072c.013-.049.031-.092.047-.137a2.019,2.019,0,0,1,.266-.459,2.345,2.345,0,0,1,.771-.658,1.688,1.688,0,0,1,.53-.177,1.258,1.258,0,0,1,.63.067,1.485,1.485,0,0,1,.77.82,26.4,26.4,0,0,1,1.19,3.16c.323,1,.619,2.012.924,3.012,1.73.923,3.436,1.874,5.2,2.671a55.368,55.368,0,0,0,5.622,2.119.36.36,0,0,1-.216.688,48.991,48.991,0,0,1-5.736-2.069c-1.869-.824-3.654-1.79-5.433-2.739a.43.43,0,0,1-.207-.251c-.328-1.061-.641-2.12-.979-3.166a25.617,25.617,0,0,0-1.153-3.046,1.163,1.163,0,0,0-.154-.268.394.394,0,0,0-.151-.118.554.554,0,0,0-.438.073,1.488,1.488,0,0,0-.478.413,1.178,1.178,0,0,0-.15.256c-.006.02-.016.041-.02.058l-.008.028-.009.045c-.012.06-.026.118-.036.184-.165,1.046-.246,2.166-.326,3.254v.005a.443.443,0,0,1-.653.354c-1.99-1.081-3.95-2.213-5.871-3.42-.479-.3-.956-.61-1.429-.926l-.354-.238-.176-.12-.088-.06-.059-.036a.868.868,0,0,0-.536-.108.906.906,0,0,0-.507.228.828.828,0,0,0-.177.217,1.013,1.013,0,0,0-.114.277,1.124,1.124,0,0,0,.2,1.032.462.462,0,0,1,.063.042c.266.218.554.432.841.643s.581.42.875.627c.588.413,1.184.821,1.781,1.222h0a.349.349,0,0,1-.373.589c-.625-.37-1.245-.744-1.863-1.127q-.463-.287-.924-.584c-.307-.2-.612-.4-.919-.622l-.022-.017a.465.465,0,0,1-.037-.037l-.69-.436-.382-.24a1.5,1.5,0,0,0-.325-.142,1.787,1.787,0,0,0-.724-.068,1.035,1.035,0,0,0-.578.226.375.375,0,0,0-.071.085c-.021.038-.056.1-.078.15a1.359,1.359,0,0,0-.1.321,1.1,1.1,0,0,0,.091.633,1.521,1.521,0,0,0,.451.546l.68.583c.744.566,1.528,1.115,2.306,1.66l2.353,1.624,0,0a.368.368,0,0,1-.408.614l-2.419-1.542c-.8-.522-1.6-1.038-2.4-1.6l-.014-.01a.338.338,0,0,1-.027-.026,1.538,1.538,0,0,0-.448-.208.71.71,0,0,0-.439.018.775.775,0,0,0-.341.3.724.724,0,0,0-.113.431,1.261,1.261,0,0,0,.132.52,1.876,1.876,0,0,0,.348.484,7.186,7.186,0,0,0,1.018.88c.01.007.02.011.03.019l0,0,2.926,2.281,0,0a.372.372,0,0,1-.443.6l-3-2.088c-.011-.006-.022-.011-.032-.018l-.013-.01h0a.532.532,0,0,0-.58-.021.77.77,0,0,0-.393.548,1.345,1.345,0,0,0,.216.8,4.229,4.229,0,0,0,.626.815q.184.193.385.368l.432.387.851.768q.85.765,1.719,1.5,1.74,1.474,3.571,2.838c1.216.914,2.48,1.763,3.751,2.6.318.208.629.428.943.644s.641.41.963.614q.967.608,1.95,1.188c1.311.774,2.641,1.516,3.992,2.213s2.723,1.355,4.111,1.972c.7.305,1.393.606,2.1.885.351.144.706.278,1.061.413a5.262,5.262,0,0,1,1.032.495l.009.006a.37.37,0,0,1-.247.675,4.744,4.744,0,0,1-1.126-.289c-.362-.135-.723-.269-1.082-.412-.719-.279-1.43-.579-2.139-.883-1.414-.616-2.8-1.294-4.166-2s-2.709-1.465-4.032-2.251-2.612-1.626-3.925-2.43a87.85,87.85,0,0,1-7.379-5.555q-.882-.747-1.739-1.519l-.853-.77-.423-.378c-.153-.135-.3-.277-.444-.426a5.146,5.146,0,0,1-.766-1,2.251,2.251,0,0,1-.329-1.391" transform="translate(-1578.585 -447.379)" fill="#141414" fill-rule="evenodd"/></g><g transform="translate(47.598 46.163)"><g transform="translate(0.504 1.989)"><path d="M1681.736,511.029c-15.429-1.348-29.732-9.537-29.732-9.537l9.52-17.9s10.134,3.938,16.825,4.633" transform="translate(-1652.004 -483.588)" fill="#ff4b33" fill-rule="evenodd"/></g><g transform="translate(23.459 0.367)"><line x2="0.119" y2="5.591" fill="none"/></g><path d="M1649.933,494.837v0l9.52-17.9a.5.5,0,0,1,.626-.233h0c1.344.526,2.714,1.023,4.084,1.5s2.754.923,4.143,1.338,2.788.8,4.2,1.131c.148.035.3.066.446.1l.008-5.212a.375.375,0,0,1,.75-.016l.24,5.443c.933.189,1.87.35,2.811.46h0a.364.364,0,0,1-.079.723,38.406,38.406,0,0,1-4.356-.72c-1.434-.312-2.854-.679-4.263-1.077s-2.808-.829-4.2-1.283c-1.25-.411-2.49-.837-3.73-1.293l-9.08,17.077c2.123,1.168,4.337,2.229,6.57,3.209,2.39,1.04,4.821,1.987,7.291,2.819a76.487,76.487,0,0,0,7.517,2.131,60.5,60.5,0,0,0,7.7,1.258h0a.326.326,0,0,1-.06.648,61.187,61.187,0,0,1-7.807-1.184,77.27,77.27,0,0,1-7.618-2.067c-2.5-.812-4.968-1.74-7.393-2.763s-4.8-2.137-7.136-3.41a.5.5,0,0,1-.2-.671" transform="translate(-1649.874 -475.177)" fill="#141414" fill-rule="evenodd"/></g><g transform="translate(38.689)"><g transform="translate(4.895 0.46)"><path d="M1647.034,281.943a42.041,42.041,0,0,0-.18,5.908c.264,1.674,1.447,1.91,2.393,2.62-1.564,4.381-7.23,7.311-11.95,8.028-1.022.155-4.716-3.525-4.369-7.555a12.918,12.918,0,0,0,.237-3.075l-.146-5.3" transform="translate(-1632.903 -281.943)" fill="#fff" fill-rule="evenodd"/></g><g transform="translate(0.415 8.988)"><path d="M1622.271,325.67s4.708-1.994,12.512-7.67c1.027,6.591-1.782,24.28-12.429,8.984,0,0-5.326,5.858-7.034,4.507-4.294-3.4,2.951-12.95,2.951-12.95C1618.849,322.593,1622.271,325.67,1622.271,325.67Z" transform="translate(-1613.961 -318)" fill="#ffc81a" fill-rule="evenodd"/></g><path d="M1620.666,297.653a.478.478,0,0,1,.75.066c8.3,12.271,12.494,2.345,11.79-8.292a48.025,48.025,0,0,1-12.11,7.675c-1.477-.213-3.885-4.325-4.406-6.407a21.233,21.233,0,0,0-2.412,4.231c-1.093,2.412-1.98,5.617,0,7.183C1614.93,302.626,1617.558,301.07,1620.666,297.653Zm-3.924-16.554a.473.473,0,0,1,.946-.026l.187,6.866c-1.108,3.1,2.433,7.488,3.165,8.167a44.289,44.289,0,0,0,11.223-7.118,2.792,2.792,0,0,1-1.681-2.593c-.078-1.455.168-5.778.18-5.963a.473.473,0,0,1,.944.054c0,.045-.255,4.456-.18,5.856.133,1.343,1.915,1.723,2.343,2.579,1.389,8.44-2.158,24.113-12.91,9.81-1.492,1.575-5.518,5.506-7.268,4.12-4.6-3.642,2.993-13.866,3.022-13.894C1617.345,288.32,1616.7,282.018,1616.742,281.1Z" transform="translate(-1612.207 -280)" fill="#141414" fill-rule="evenodd"/></g></g><g transform="translate(47.874)"><g transform="translate(7.1 11.207)"><path d="M1616.628,192.742c1.723-10.535,6.87-10.844,16.479-10.122a10.775,10.775,0,0,1,9.64,11.83c2.637-1.01,4.116.653,4.027,2.639-.081,1.783-.887,4.133-4.168,4.133-.318,5.439-3.868,14.2-15.018,14.2-11.385,0-12.454-13.543-10.96-22.679" transform="translate(-1616.097 -182.383)" fill="#fff" fill-rule="evenodd"/></g><path d="M1597.146,175.525c4.741,5.67,15.515,3.377,19.131-2.168,1.929-2.333,2.925-6.769,2.937-8.34a.464.464,0,0,1,.472-.446c3.54.214,4.72-4.148,2.832-5.771a2.768,2.768,0,0,0-3.006.072c-.134.077-3.714-.216-6-7.08-4.46,2.6-12.824,3.868-18.628,1.707-1.845,6.829-2.044,16.807,2.265,22.025m21.558-33.081c-2.21-7.9-15.045-9.828-19.756-4.255-5.214-2.423-11.914-1.718-12.823,3.969-.535,4.743,3.4,8.767,7.885,10.974-1.969,7.183-2.193,17.424,2.414,23.005,6.115,7.313,19.412,2.379,21.87-4.293,2.556-.647,3.837-2.509,4.844-5.722,3.9-1.916,10.188-15.84.915-22.48A7.17,7.17,0,0,0,1618.7,142.444Zm2.41,17.871c.7-.024.7,1.923,0,1.9C1620.415,162.238,1620.415,160.29,1621.114,160.315Z" transform="translate(-1586.077 -135)" fill="#141414" fill-rule="evenodd"/></g><g transform="translate(59.039 23.179)"><path d="M1644.662,244.127a13.949,13.949,0,0,1-8.674.382.414.414,0,0,0-.411-.156.442.442,0,0,0-.329.611c.086,2.213,1.576,4.5,5.542,4.5,2.028,0,4.211-1.472,4.211-4.7C1645.03,244.5,1644.967,244.175,1644.662,244.127Zm-2.74,1.59a3.991,3.991,0,0,1-.058,1.067,6.5,6.5,0,0,1-1.462,0,1.43,1.43,0,0,0,.277-.939C1641.1,245.82,1641.516,245.776,1641.922,245.718Zm-3.261.109c.4.03.861.053,1.315.047a1.209,1.209,0,0,0,.088.839.212.212,0,0,0,.031.039,5.867,5.867,0,0,1-1.366-.242A1.179,1.179,0,0,1,1638.662,245.827Zm1.541-8.923a.274.274,0,0,0-.232.284v.1a5.462,5.462,0,0,1-.361,2.556c-2.966,1.2-1.709,4.339,1.277,3.135.466-.384-.072-.8-.515-.607-.541.032-1.759.14-1.489-.741.167-.7,1.4-.824,1.578-1.537C1640.658,239.621,1640.865,236.865,1640.2,236.9Zm7.958,1.916c.568-.895-1.919-2.1-2.686-1.956-.675-.059-2.488.77-1.92,1.548a.42.42,0,0,0,.5.052,2.479,2.479,0,0,1,1.776-.541,3.133,3.133,0,0,1,1.731.91A.42.42,0,0,0,1648.16,238.82Zm-11.19-1.586a2.476,2.476,0,0,0-2.926.11.42.42,0,0,0,.458.7,1.868,1.868,0,0,1,.975-.283c.625-.089,1.041.8,1.579.27A.535.535,0,0,0,1636.97,237.234Zm.072-3.78a3.5,3.5,0,0,0-3.642.81.314.314,0,0,0,.3.537h0l.822-.295a8.294,8.294,0,0,1,2.393-.284A.407.407,0,0,0,1637.042,233.454Zm11.688.4a3.112,3.112,0,0,0-2.574-.835c-.569-.026-1.487.743-.685,1.144.5.211,1.01-.005,1.52.005a4.032,4.032,0,0,1,1.4.245A.339.339,0,0,0,1648.73,233.856Z" transform="translate(-1633.285 -233)" fill="#141414" fill-rule="evenodd"/></g><g transform="translate(54.279 30.788)"><path d="M1622.985,274.259c.713.156,1.126,1.017,3.122,1.145,2.175.14,3.3-.5,3.335-1.287.072-1.793-3.241-3.011-6.386-3.075-4.033.151-4.606.364-4.9,1.416-.371,1.343.19,2.069,1.045,2.28C1621.515,275.31,1621.919,274.026,1622.985,274.259Zm-6.5-3.256a5.48,5.48,0,0,1,4.085-2.565c1.619-.253,2.575.62,3.094.629a6.639,6.639,0,0,1,5.546.557c1.457.773,1.892,2.129,2.365,3.548a5.585,5.585,0,0,0,2.838-.71c2.206-1.024,4.477-4.934,5.121-5.479.491-.415.6,3.692-1.1,8.317a14.518,14.518,0,0,1-6.811,8.018c-5.756,2.712-14.223,1.493-16.649-2.333-2.984-4.705-1.559-14.2-.757-15.619S1614.486,270.687,1616.481,271Z" transform="translate(-1613.16 -265.171)" fill="#141414" fill-rule="evenodd"/></g></g><g transform="translate(65.788 144.403)"><g transform="translate(19.059 98.336)"><path d="M346.007,1022.836l-16.325,58.512h6.989l23.88-58.512Z" transform="translate(-329.683 -1022.836)" fill="#ff8333" fill-rule="evenodd"/></g><g transform="translate(102.426 98.336)"><path d="M682.162,1022.836l26.445,58.616h4.469l-16.016-58.616Z" transform="translate(-682.162 -1022.836)" fill="#ff8333" fill-rule="evenodd"/></g><path d="M366.9,706.155H282.871a.5.5,0,0,1-.473-.333c-.22-.61-22.1-61.369-32.82-91.387-1.139-3.189-.2-5.917,2.39-6.95,4.7-1.873,15.259,2.172,23.572,21.009l20.808,53.7H366.9a.5.5,0,0,1,.5.5v22.957a.5.5,0,0,1-.5.5" transform="translate(-249.1 -607.071)" fill="#141414" fill-rule="evenodd"/><g transform="translate(1.004 0.988)"><path d="M286.466,708.336h83.172V686.385H299.244a.5.5,0,0,1-.469-.321l-20.924-54c-7.591-17.2-17.594-22.324-22.27-20.46-2.075.827-2.77,3-1.815,5.676,10.308,28.861,30.931,86.14,32.7,91.052" transform="translate(-253.345 -611.246)" fill="#fff" fill-rule="evenodd"/></g></g><g transform="translate(79.969 80.053)"><g transform="translate(27.672 110.926)"><g transform="translate(85.789 87.437)"><g transform="translate(0.469 0.473)"><path d="M790.76,1175.689l3.207,11.979,16.676,1.389-.92-11.62" transform="translate(-790.76 -1175.689)" fill="#fff" fill-rule="evenodd"/></g><path d="M809.129,1188l-.04,0-16.676-1.389a.472.472,0,0,1-.43-.531l-3.207-11.979a.473.473,0,1,1,.939.119l3.269,11.489,15.812,1.317-1.037-11.265a.473.473,0,0,1,.9.295l.92,11.62a.473.473,0,0,1-.449.326" transform="translate(-788.776 -1173.688)" fill="#141414" fill-rule="evenodd"/><g transform="translate(1.565 10.873)"><path d="M796.823,1220.592a.473.473,0,0,1,.542-.349c.233.042.527.1.873.165a59.429,59.429,0,0,0,10.734,1.263h.011a9.544,9.544,0,0,0,6.111-1.9.474.474,0,0,1,.422-.094c7.19,1.872,12.384,3.224,16.234,5.792.676.451,3.117,2.421,2.694,3.814-.2.644-.89.971-2.065.971-4.291,0-13.537.024-21.694.045-6.6.017-12.3.032-14.447.032a.72.72,0,0,1-.576-.289c-.845-1.087.531-6.97,1.162-9.448" transform="translate(-795.394 -1219.661)" fill="#ffc81a" fill-rule="evenodd"/></g><g transform="translate(1.379 21.024)"><path d="M795.721,1265.18h37.095a1.116,1.116,0,0,0,1.116-1.116v-.369a1.116,1.116,0,0,0-1.116-1.116H795.721a1.116,1.116,0,0,0-1.116,1.116v.369a1.116,1.116,0,0,0,1.116,1.116" transform="translate(-794.605 -1262.579)" fill="#141414" fill-rule="evenodd"/></g><g transform="translate(28.552 12.772)"><path d="M910,1230.262a.5.5,0,0,0,.454-.287,2.035,2.035,0,0,1,2.476-1.2.5.5,0,0,0,.3-.96,3.046,3.046,0,0,0-3.685,1.727.5.5,0,0,0,.454.719" transform="translate(-909.494 -1227.69)" fill="#141414" fill-rule="evenodd"/></g><g transform="translate(24.11 11.561)"><path d="M891.215,1225.141a.5.5,0,0,0,.455-.287,2.035,2.035,0,0,1,2.476-1.2.5.5,0,0,0,.3-.96,3.046,3.046,0,0,0-3.685,1.727.5.5,0,0,0,.454.719" transform="translate(-890.713 -1222.569)" fill="#141414" fill-rule="evenodd"/></g></g><g transform="translate(42.976 87.675)"><g transform="translate(2.298 0.473)"><path d="M619,1176.694l-1.523,11.979,16.676,1.389,3.81-11.62" transform="translate(-617.478 -1176.694)" fill="#fff" fill-rule="evenodd"/></g><g transform="translate(1.825)"><path d="M632.627,1189.008l-.039,0-16.676-1.389a.473.473,0,0,1-.43-.531L617,1175.107a.473.473,0,1,1,.939.119l-1.461,11.489,15.812,1.317,3.693-11.265a.473.473,0,0,1,.9.295l-3.81,11.62a.473.473,0,0,1-.449.326" transform="translate(-615.478 -1174.694)" fill="#141414" fill-rule="evenodd"/></g><g transform="translate(0.187 10.873)"><path d="M609.981,1221.6a.473.473,0,0,1,.542-.349c.232.042.527.1.873.165a59.44,59.44,0,0,0,10.734,1.263h.011a9.544,9.544,0,0,0,6.111-1.9.474.474,0,0,1,.422-.094c7.19,1.872,12.384,3.224,16.234,5.792.676.451,3.117,2.421,2.695,3.814-.2.644-.89.971-2.066.971-4.291,0-13.537.024-21.694.045-6.6.017-12.3.032-14.447.032a.72.72,0,0,1-.576-.29c-.845-1.087.531-6.97,1.162-9.448" transform="translate(-608.552 -1220.667)" fill="#ffc81a" fill-rule="evenodd"/></g><g transform="translate(0 21.024)"><path d="M608.879,1266.186h37.095a1.116,1.116,0,0,0,1.116-1.116v-.369a1.116,1.116,0,0,0-1.116-1.116H608.879a1.116,1.116,0,0,0-1.116,1.116v.369a1.116,1.116,0,0,0,1.116,1.116" transform="translate(-607.763 -1263.585)" fill="#141414" fill-rule="evenodd"/></g><g transform="translate(27.173 12.772)"><path d="M723.155,1231.268a.5.5,0,0,0,.454-.287,2.035,2.035,0,0,1,2.476-1.2.5.5,0,0,0,.3-.96,3.046,3.046,0,0,0-3.685,1.727.5.5,0,0,0,.454.719" transform="translate(-722.652 -1228.696)" fill="#141414" fill-rule="evenodd"/></g><g transform="translate(22.731 11.561)"><path d="M704.373,1226.147a.5.5,0,0,0,.455-.287,2.035,2.035,0,0,1,2.476-1.2.5.5,0,0,0,.3-.96,3.046,3.046,0,0,0-3.685,1.727.5.5,0,0,0,.454.719" transform="translate(-703.871 -1223.575)" fill="#141414" fill-rule="evenodd"/></g></g><g transform="translate(46.122)"><path d="M649.46,804h-27.12c-7.183,0,18.36,32.125,18.36,32.125.124,2.973.469,56.6.469,56.6,17.4,3.575,31.537,4.6,43.464,2.7,0,0-6.251-46.513-11.428-73.229-2.681-13.835-14.071-18.2-23.743-18.2" transform="translate(-621.066 -804)" fill="#141414" fill-rule="evenodd"/><g transform="translate(33.572 32.591)" opacity="0.8"><path d="M772.516,997.829a.47.47,0,0,1,.543.391h0l.455,2.8a.473.473,0,0,1-.391.543.442.442,0,0,1-.076.006.473.473,0,0,1-.466-.4h0l-.456-2.8A.473.473,0,0,1,772.516,997.829Zm-.911-5.6a.472.472,0,0,1,.543.391h0l.455,2.8a.473.473,0,0,1-.391.543.441.441,0,0,1-.076.006.473.473,0,0,1-.466-.4h0l-.456-2.8A.473.473,0,0,1,771.6,992.226Zm-.911-5.6a.472.472,0,0,1,.543.391h0l.455,2.8a.473.473,0,0,1-.391.543.454.454,0,0,1-.076.006.473.473,0,0,1-.466-.4h0l-.455-2.8A.473.473,0,0,1,770.694,986.623Zm-.911-5.6a.472.472,0,0,1,.543.391h0l.455,2.8a.473.473,0,0,1-.391.543.441.441,0,0,1-.076.006.473.473,0,0,1-.466-.4h0l-.456-2.8A.473.473,0,0,1,769.783,981.02Zm-.911-5.6a.472.472,0,0,1,.543.391h0l.455,2.8a.473.473,0,0,1-.391.543.437.437,0,0,1-.076.006.473.473,0,0,1-.467-.4h0l-.455-2.8A.473.473,0,0,1,768.872,975.417Zm-.911-5.6a.472.472,0,0,1,.543.391h0l.455,2.8a.473.473,0,0,1-.391.543.441.441,0,0,1-.076.006.473.473,0,0,1-.466-.4h0l-.456-2.8A.473.473,0,0,1,767.961,969.815Zm-.911-5.6a.47.47,0,0,1,.543.391h0l.455,2.8a.473.473,0,0,1-.391.543.447.447,0,0,1-.076.006.473.473,0,0,1-.466-.4h0l-.456-2.8A.473.473,0,0,1,767.051,964.212Zm-.911-5.6a.472.472,0,0,1,.543.391h0l.455,2.8a.473.473,0,0,1-.391.543.441.441,0,0,1-.076.006.473.473,0,0,1-.466-.4h0l-.456-2.8A.473.473,0,0,1,766.14,958.609Zm-.911-5.6a.47.47,0,0,1,.543.391h0l.455,2.8a.473.473,0,0,1-.391.543.453.453,0,0,1-.076.006.473.473,0,0,1-.466-.4h0l-.456-2.8A.473.473,0,0,1,765.229,953.006Zm-.911-5.6a.472.472,0,0,1,.543.391h0l.455,2.8a.473.473,0,0,1-.391.543.448.448,0,0,1-.077.006.473.473,0,0,1-.466-.4h0l-.456-2.8A.473.473,0,0,1,764.318,947.4Zm-.911-5.6a.472.472,0,0,1,.543.391h0l.455,2.8a.473.473,0,1,1-.934.152h0l-.456-2.8A.473.473,0,0,1,763.407,941.8Z" transform="translate(-763.01 -941.794)" fill="#fff" fill-rule="evenodd"/></g></g><path d="M482.221,804h-54.8s-5.543,19.762,5.717,30.571c10.378,9.963,34.1,6.4,39.061,5.52l.816-5.131a.473.473,0,1,1,.934.149l-.841,5.293c-.4,6.134-7.805,56.582-7.805,56.582,14.151,4.152,32.391,4.538,41.866,2.7,0,0,.173-47.367-1.726-76.522C504.627,810.616,494.653,804,482.221,804Z" transform="translate(-426.059 -804)" fill="#0b379b" fill-rule="evenodd"/><g transform="translate(9.386 1.095)" opacity="0.8"><path d="M509,900.713l.035,0a.473.473,0,0,1,.433.51h0l-.117,1.414a.473.473,0,0,1-.471.433l-.04,0a.473.473,0,0,1-.432-.511h0l.117-1.413a.47.47,0,0,1,.51-.433Zm.444-5.489h.035a.473.473,0,0,1,.434.509c-.084,1.047-.16,2-.228,2.835a.473.473,0,0,1-.471.435l-.039,0a.473.473,0,0,1-.433-.51c.068-.837.144-1.786.228-2.833a.474.474,0,0,1,.509-.434Zm.446-5.668h.035a.473.473,0,0,1,.435.508c-.077.988-.151,1.935-.222,2.835a.473.473,0,0,1-.471.436h-.038a.473.473,0,0,1-.434-.509c.071-.9.145-1.846.222-2.833a.475.475,0,0,1,.508-.435Zm.434-5.668h.035a.473.473,0,0,1,.436.507q-.11,1.452-.216,2.834a.473.473,0,0,1-.471.437h-.036a.473.473,0,0,1-.436-.508q.106-1.379.216-2.833a.474.474,0,0,1,.507-.436Zm.42-5.667h.035a.473.473,0,0,1,.438.506q-.105,1.436-.21,2.835a.473.473,0,0,1-.471.438H510.5a.473.473,0,0,1-.436-.507q.1-1.395.209-2.833a.474.474,0,0,1,.506-.438Zm.406-5.668h.035a.473.473,0,0,1,.439.505q-.1,1.426-.2,2.835a.473.473,0,0,1-.471.439h-.035a.473.473,0,0,1-.438-.506q.1-1.407.2-2.833a.478.478,0,0,1,.5-.439Zm.387-5.672.036,0a.472.472,0,0,1,.44.5q-.095,1.418-.193,2.837a.473.473,0,0,1-.471.44h-.033a.473.473,0,0,1-.439-.5q.1-1.417.193-2.836a.467.467,0,0,1,.5-.44Zm.367-5.667h.035a.473.473,0,0,1,.443.5q-.088,1.409-.181,2.837a.473.473,0,0,1-.472.442h-.031a.473.473,0,0,1-.441-.5q.093-1.425.181-2.834a.477.477,0,0,1,.5-.443Zm.336-5.673h.036a.473.473,0,0,1,.446.5q-.079,1.4-.166,2.838a.473.473,0,0,1-.472.445h-.029a.473.473,0,0,1-.444-.5q.087-1.436.166-2.835a.473.473,0,0,1,.5-.446Zm.332-5.675a.473.473,0,0,1,.45.5q-.067,1.384-.144,2.84a.473.473,0,0,1-.472.448h-.026a.473.473,0,0,1-.447-.5q.077-1.452.144-2.836A.474.474,0,0,1,512.569,849.865Zm.194-5.681h.035a.473.473,0,0,1,.457.488c-.03.9-.067,1.855-.108,2.845a.473.473,0,0,1-.473.453h-.02a.473.473,0,0,1-.453-.492c.041-.986.078-1.934.108-2.836a.473.473,0,0,1,.488-.457Zm.123-5.685a.473.473,0,0,1,.473.471h0v.386c0,.73-.009,1.561-.027,2.468a.473.473,0,0,1-.473.463h-.01a.473.473,0,0,1-.464-.483c.018-.9.027-1.725.027-2.449h0v-.383a.473.473,0,0,1,.471-.474h0Zm-1.7-5.05a.473.473,0,0,1,.664-.077,5.84,5.84,0,0,1,1.03,1.018,3.363,3.363,0,0,1,.385,1.71.473.473,0,0,1-.434.509l-.038,0a.473.473,0,0,1-.471-.435,3.611,3.611,0,0,0-.2-1.226,4.913,4.913,0,0,0-.855-.836A.473.473,0,0,1,511.185,833.449Zm-5.068-2.55a.473.473,0,0,1,.617-.258c.982.4,1.864.8,2.622,1.191a.473.473,0,1,1-.43.843c-.736-.375-1.594-.765-2.552-1.159A.473.473,0,0,1,506.117,830.9Zm-5.359-1.9a.473.473,0,0,1,.6-.3c.959.311,1.869.621,2.705.92a.473.473,0,0,1-.319.891c-.827-.3-1.728-.6-2.678-.911A.473.473,0,0,1,500.758,829Zm-5.448-1.628a.473.473,0,0,1,.584-.326c.952.271,1.873.54,2.736.8a.473.473,0,1,1-.272.906c-.858-.258-1.774-.526-2.722-.8A.473.473,0,0,1,495.31,827.375Zm-5.487-1.482a.473.473,0,0,1,.578-.338c.912.239,1.831.484,2.749.733a.473.473,0,1,1-.248.913c-.915-.248-1.831-.492-2.741-.731A.473.473,0,0,1,489.823,825.893Zm-5.51-1.407a.472.472,0,0,1,.574-.343c.9.226,1.82.46,2.758.7a.473.473,0,1,1-.234.917c-.937-.239-1.858-.473-2.754-.7A.473.473,0,0,1,484.313,824.486Zm-5.513-1.394a.472.472,0,0,1,.576-.341c.864.222,1.787.455,2.754.7a.473.473,0,0,1-.115.932.48.48,0,0,1-.116-.014c-.969-.244-1.893-.477-2.758-.7A.473.473,0,0,1,478.8,823.092Zm-5.468-1.57a.473.473,0,0,1,.6-.295c.642.219,1.525.482,2.7.8a.473.473,0,0,1-.124.93.467.467,0,0,1-.125-.017c-1.194-.326-2.1-.594-2.757-.82A.473.473,0,0,1,473.332,821.521Zm1.543-12.889a.474.474,0,0,1,.529.41,17.4,17.4,0,0,1-.155,4.722c-.536,3.008-1.918,5.065-4.013,6.007.1.08.2.162.3.237a.473.473,0,1,1-.556.765,10.279,10.279,0,0,1-2.113-2.077.473.473,0,0,1,.751-.575,9.832,9.832,0,0,0,.829.947c4.976-1.761,4.027-9.825,4.017-9.907A.473.473,0,0,1,474.875,808.633Zm-8.141,4.211a.473.473,0,0,1,.578.336,16.384,16.384,0,0,0,.917,2.6.473.473,0,1,1-.861.393,17.313,17.313,0,0,1-.971-2.748A.473.473,0,0,1,466.734,812.843Zm-.517-4.214a.473.473,0,0,1,.473.467c0,.005.008.536.106,1.364a.473.473,0,0,1-.414.526.486.486,0,0,1-.056,0,.473.473,0,0,1-.469-.417c-.1-.829-.111-1.372-.112-1.454v-.01a.473.473,0,0,1,.467-.478h.006Z" transform="translate(-465.744 -808.629)" fill="#fff" fill-rule="evenodd"/></g></g><g transform="translate(0 32.639)"><g transform="translate(0 7.322)"><g transform="translate(0.504 0.503)"><path d="M341.474,546.617c0,.079,0,.156,0,.236.014,1.349-.07,3.507-.217,6.1a15.923,15.923,0,0,1-5.1-.587A44.221,44.221,0,0,1,341.474,546.617Zm57.854,31.552c-.27-22.207.67-46.039-8.4-60.58-10.038-16.095-41.669-13.319-52.847-3.745a74.77,74.77,0,0,0-21.4,23.713c-5.437,9.247-8.784,27.185-.524,32.972,7.29,3.626,16.861,4.261,24.116,3.874-.141,1.445-.274,2.725-.391,3.765Z" transform="translate(-311.188 -506.088)" fill="#ffc81a" fill-rule="evenodd"/></g><path d="M335.359,550.476a43.873,43.873,0,0,1,3.988-4.3c-.019,1.211-.085,2.805-.184,4.643A19.511,19.511,0,0,1,335.359,550.476Zm3.7,25.565c.09-.816.187-1.755.289-2.784a50.07,50.07,0,0,0,10.565-1.648.5.5,0,0,0,.378-.537l-1.973-20.177a.5.5,0,0,0-.549-.452c-1.594.149-4.737.369-7.6.378.128-2.363.2-4.331.187-5.6v-.014c3.427-3.214,6.928-6.024,6.984-6.069a.5.5,0,0,0-.629-.785c-.215.173-3.224,2.585-6.379,5.494-.331.3-.662.613-.991.925a46.3,46.3,0,0,0-5.012,5.4,16.955,16.955,0,0,1-4.6-2.034.5.5,0,0,0-.563.833,17.332,17.332,0,0,0,5.215,2.252,15.307,15.307,0,0,0,4.726.6c.331,0,.667.007,1.005.007,2.956,0,6.057-.241,7.254-.343l1.88,19.248a52.015,52.015,0,0,1-9.8,1.5c-.336.019-.674.038-1.017.052-7.278.329-16.771-.414-23.638-3.817-4.747-3.356-4.938-10.657-4.631-14.716a43.369,43.369,0,0,1,5.331-17.566,76.644,76.644,0,0,1,17.578-20.761c1.282-1.045,2.483-1.942,3.574-2.7a24.955,24.955,0,0,1,6.27-3.836,50.558,50.558,0,0,1,20.74-3.914c11.7.215,20.894,4.319,25.222,11.258,8.013,12.848,8.141,33.3,8.264,53.074.012,2.214.026,4.5.052,6.736ZM389.732,515.7c-4.511-7.235-14.009-11.509-26.057-11.731a53.534,53.534,0,0,0-18.105,2.784,29.709,29.709,0,0,0-9.371,5.031c-.979.684-2.053,1.474-3.2,2.384a77.728,77.728,0,0,0-18.375,21.511c-5.754,9.792-8.765,27.762-.378,33.64a.588.588,0,0,0,.066.038c6.282,3.124,13.512,4.037,19.811,4.037,1.121,0,3.158-.028,4.208-.08-.118,1.206-.232,2.28-.333,3.176a.493.493,0,0,0,.125.39.5.5,0,0,0,.374.168h59.2a.5.5,0,0,0,.5-.508c-.029-2.4-.045-4.86-.06-7.24C398.024,549.384,397.9,528.788,389.732,515.7Z" transform="translate(-309.059 -503.959)" fill="#141414" fill-rule="evenodd"/></g><g transform="translate(54.424 15.561)"><path d="M539.808,541.7l2.893,4.5-3.536,26.2,8.2,10.127,6.751-9.162-8.52-27.166,1.929-4.662-4.974-2.753Z" transform="translate(-539.165 -538.791)" fill="#ffc81a" fill-rule="evenodd"/></g><g transform="translate(45.193)"><g transform="translate(2.794 0.503)"><path d="M526.863,475.98l.5,5.732c.082,3.394-5.163,9.325-5.163,9.325s-10.171-6.419-10.25-9.711l.592-6.2" transform="translate(-511.952 -475.126)" fill="#fff" fill-rule="evenodd"/></g><g transform="translate(2.291)"><path d="M520.578,489.918a.5.5,0,0,1-.268-.078c-1.064-.672-10.4-6.662-10.485-10.124a.562.562,0,0,1,0-.06l.592-6.2a.5.5,0,0,1,1,.1l-.589,6.168c.034.7.737,2.342,4.957,5.675,1.943,1.535,3.9,2.843,4.693,3.36.452-.536,1.383-1.678,2.3-3.022,1.632-2.394,2.482-4.335,2.458-5.616l-.5-5.716a.5.5,0,0,1,1-.088l.5,5.732c0,.011,0,.021,0,.032.086,3.551-5.07,9.422-5.289,9.67a.5.5,0,0,1-.377.17" transform="translate(-509.825 -473)" fill="#141414" fill-rule="evenodd"/></g><g transform="translate(0.5 6.768)"><path d="M519.749,501.774a20.445,20.445,0,0,1-4.9,9,40.994,40.994,0,0,1-10.473-9.159c-6.066,2.559,2.784,15.918,2.784,15.918s7.027-6.045,7.688-6.643c.661.6,8.844,4.473,8.844,4.473s-.17-13.126-3.947-13.588" transform="translate(-502.254 -501.615)" fill="#fff" fill-rule="evenodd"/></g><g transform="translate(0 6.265)"><path d="M513.947,509.135c1.128.653,4.431,2.285,7.612,3.8-.148-4.618-1.063-11.151-3.081-12.16a20.887,20.887,0,0,1-4.53,8.36m-11.334-8.51a2.688,2.688,0,0,0-1.287,1.642c-.531,1.758.094,4.613,1.806,8.258a46.213,46.213,0,0,0,2.529,4.626c1.354-1.165,5.445-4.687,6.826-5.893a41.187,41.187,0,0,1-9.873-8.633m2.935,15.788a.48.48,0,0,1-.069,0,.5.5,0,0,1-.35-.22c-.254-.383-6.205-9.446-4.766-14.212a3.717,3.717,0,0,1,2.206-2.448.5.5,0,0,1,.6.162,39.547,39.547,0,0,0,10,8.809,20.154,20.154,0,0,0,4.486-8.484.5.5,0,0,1,.546-.364c4.094.5,4.37,12.692,4.388,14.081a.5.5,0,0,1-.718.461c-1.24-.587-6.956-3.306-8.586-4.294-1.471,1.288-7.141,6.166-7.4,6.392a.5.5,0,0,1-.328.122" transform="translate(-500.138 -499.489)" fill="#141414" fill-rule="evenodd"/></g></g><g transform="translate(42.801 25.473)"><g transform="translate(0 36.241)"><path d="M542.963,740.316H492.626a3.26,3.26,0,0,1,0-6.386h50.337a3.26,3.26,0,0,1,0,6.386" transform="translate(-490.024 -733.93)" fill="#141414" fill-rule="evenodd"/></g><g transform="translate(31.562)"><path d="M676.563,623.328H626.735a3.268,3.268,0,0,1-3.268-3.268V583.969a3.268,3.268,0,0,1,3.268-3.268h49.828a3.268,3.268,0,0,1,3.268,3.268V620.06a3.268,3.268,0,0,1-3.268,3.268" transform="translate(-623.467 -580.701)" fill="#13d6c3" fill-rule="evenodd"/></g><g transform="translate(55.509 15.831)"><path d="M735.08,653.467c0,2.821-2.154,4.6-5.075,4.6a5.2,5.2,0,0,1-5.288-5.108c0-2.821,3.132-7.6,5.452-4.089,1.611,2.435,4.91,1.773,4.91,4.594" transform="translate(-724.718 -647.635)" fill="#fff" fill-rule="evenodd"/></g><g transform="translate(55.006 15.33)"><path d="M726.714,646.517a1.2,1.2,0,0,0-.36.06c-1.419.427-2.755,3.048-2.755,4.768a4.7,4.7,0,0,0,4.784,4.605c2.734,0,4.572-1.648,4.572-4.1,0-1.212-.671-1.578-1.959-2.172a6.2,6.2,0,0,1-2.868-2.145c-.56-.846-1.071-1.017-1.414-1.017m1.669,10.439a5.71,5.71,0,0,1-5.791-5.611c0-2.123,1.549-5.153,3.472-5.731.622-.188,1.828-.26,2.9,1.365a5.315,5.315,0,0,0,2.451,1.787c1.25.577,2.543,1.174,2.543,3.085,0,3.006-2.294,5.105-5.578,5.105" transform="translate(-722.592 -645.518)" fill="#141414" fill-rule="evenodd"/></g></g><g transform="translate(38.31 51.408)"><g transform="translate(0.503 0.505)"><path d="M473.161,695.62c3.785-.766,12.681-1.931,20.59-2.9,14.769-1.815,15.857,7.851,12.032,6.553a18.9,18.9,0,0,0-6.124-.775c2.142.341,3.115,1.742,2.555,2.631-.785,1.247-6.114-.995-11.947,2.03-5.178,2.685-11.673,6.821-15.562,7.432Z" transform="translate(-473.161 -692.49)" fill="#fff" fill-rule="evenodd"/></g><path d="M472.085,694.4l1.441,13.966c2.792-.625,6.8-2.846,10.679-5,1.474-.818,2.867-1.59,4.207-2.284a17.932,17.932,0,0,1,9.5-1.7c.939.036,2.108.081,2.256-.154a.6.6,0,0,0,0-.59,2.839,2.839,0,0,0-2.211-1.277.5.5,0,0,1,.108-1c.431.025.857.034,1.269.043a14.949,14.949,0,0,1,4.988.758c.268.091.757.2,1.022-.118s.308-1.01-.166-1.887c-1.268-2.343-5.345-4.511-12.989-3.572-10.056,1.236-16.813,2.18-20.1,2.808m1,15.066a.5.5,0,0,1-.5-.452l-1.545-14.968a.5.5,0,0,1,.4-.545c3.126-.632,10.066-1.611,20.628-2.909a20.79,20.79,0,0,1,9.637.718,7.936,7.936,0,0,1,4.359,3.374,2.7,2.7,0,0,1,.05,3.015,1.851,1.851,0,0,1-2.114.421,12.392,12.392,0,0,0-3.474-.665,2.5,2.5,0,0,1,.559.772,1.6,1.6,0,0,1-.068,1.541c-.457.726-1.526.685-3.146.623a17.054,17.054,0,0,0-8.995,1.585c-1.327.688-2.714,1.457-4.182,2.271-4.207,2.332-8.558,4.744-11.533,5.212a.51.51,0,0,1-.078.006" transform="translate(-471.035 -690.356)" fill="#141414" fill-rule="evenodd"/></g><g transform="translate(96.735 64.789)"><g transform="translate(0.501 0.503)"><path d="M733.326,750.784a2.169,2.169,0,0,0-1.478-1.634c-1.2-.259-1.755.728-1.81,1.8-.053-.2-.118-.405-.2-.624-.673-1.8-2.8-1.52-3.087-.189a5.1,5.1,0,0,0-.1,1.476c-.366-1.16-1.321-2.1-2.391-1.8a1.88,1.88,0,0,0-1.221,2.065,1.842,1.842,0,0,0-1.377-1.057c-.927-.109-1.877.912-1.311,2.688a1.454,1.454,0,0,0,2.605.243,1.7,1.7,0,0,0,.278-.722,5.9,5.9,0,0,0,.214.6,1.818,1.818,0,0,0,3.23-.169,2.734,2.734,0,0,0,.127-.978,2.279,2.279,0,0,0,.746,1.246,1.678,1.678,0,0,0,2.645-1.545,1.535,1.535,0,0,0,.8,1.013c1.575.6,2.868-.433,2.333-2.408" transform="translate(-720.179 -749.056)" fill="#fff" fill-rule="evenodd"/></g><path d="M730.932,751.032a1.255,1.255,0,0,1-1.356.076,2.685,2.685,0,0,1-.435-2.483c.165-.51.444-.637.718-.638a1.257,1.257,0,0,1,.264.032c.762.164,1.049,1.09,1.1,1.274a1.686,1.686,0,0,1-.289,1.74m-3.346.655a1.169,1.169,0,0,1-1.369,0,1.754,1.754,0,0,1-.536-.914,3.949,3.949,0,0,0-.154-.873,4.633,4.633,0,0,1,.1-1.281.9.9,0,0,1,.854-.68c.02,0,.044,0,.071,0a1.263,1.263,0,0,1,1.2.942c.486,1.3.426,2.352-.162,2.81m-3-.014a1.217,1.217,0,0,1-1.148.729,1.154,1.154,0,0,1-1.141-.6,3.287,3.287,0,0,1-.193-2.556,1.037,1.037,0,0,1,.674-.581,1.2,1.2,0,0,1,1.184.425,2.682,2.682,0,0,1,.579,1.009,4.918,4.918,0,0,0,.144.808,2.209,2.209,0,0,1-.1.763m-3.712.263a.817.817,0,0,1-.807.421.889.889,0,0,1-.853-.629,1.878,1.878,0,0,1,.129-1.752.741.741,0,0,1,.566-.288.673.673,0,0,1,.078,0,1.012,1.012,0,0,1,.726.532,2.1,2.1,0,0,1,.16,1.712m11.323-2.906h0a2.692,2.692,0,0,0-1.858-1.994,1.7,1.7,0,0,0-1.974.866,2.19,2.19,0,0,0-1.956-.966,1.9,1.9,0,0,0-1.753,1.433,2.165,2.165,0,0,0-2.144-.669,2.029,2.029,0,0,0-1.313,1.111,2.6,2.6,0,0,0-.122.307,1.849,1.849,0,0,0-.972-.425,1.737,1.737,0,0,0-1.538.642,2.835,2.835,0,0,0-.311,2.7,1.883,1.883,0,0,0,1.775,1.329h.082a1.855,1.855,0,0,0,1.518-.739,2.2,2.2,0,0,0,1.749.786l.1,0A2.249,2.249,0,0,0,725.4,752.3a1.664,1.664,0,0,0,.246.215,2.246,2.246,0,0,0,1.28.4,2.078,2.078,0,0,0,1.278-.438,2.164,2.164,0,0,0,.585-.72,1.273,1.273,0,0,0,.381.269,2.711,2.711,0,0,0,1.094.242,2.005,2.005,0,0,0,1.323-.476,2.638,2.638,0,0,0,.6-2.765" transform="translate(-718.059 -746.93)" fill="#141414" fill-rule="evenodd"/></g></g><g transform="translate(37.133)"><g transform="translate(0.813 5.339)"><path d="M500.813,374.51c-.095-1.624-.941-2.352-1.815-2.389-.077-.5-.16-1.006-.255-1.51-2.349-12.462-10.118-14.139-16.614-12.525-4.3,1.068-10.111,4.092-8.91,15.384-2.591-.645-3.8.775-3.715,2.762.08,1.783,1.424,3.084,4.067,3.226.77,6.047,6.431,15.445,17.379,13.293,6.389-1.255,8.777-8.125,8.487-16.069,1.18-.2,1.437-1.152,1.377-2.171" transform="translate(-469.499 -357.572)" fill="#fff" fill-rule="evenodd"/></g><path d="M477.375,335.187c15.563-1.75,19.6,9.172,19.428,15.615-.033,1.213-.4,3.354-.352,3.673,1.708.066,1.831,2.084,1.868,2.755A2.452,2.452,0,0,1,497,359.9a.343.343,0,0,1-.055.016c.158,7.519-2.046,14.7-8.872,16.041a16.675,16.675,0,0,1-3.236.329,13.322,13.322,0,0,1-7.966-2.564,16.734,16.734,0,0,1-5.346-6.718c-.447-.053-1.45-.7-2.908-4.639-.01-.026-.018-.053-.028-.079a3.564,3.564,0,0,1-2.528-3.29,3.277,3.277,0,0,1,1.052-2.779l.052-.039c-.518-3.8-1.061-8.45.108-11.9C468.9,339.479,472.673,335.715,477.375,335.187Zm14.359,11.547c-1.989-.75-1.913,1.292-5.605,2.153-3.524.821-4.588-1.575-8.172-1.429-4.875.2-4.177,6.038-5.972,8.188a3.092,3.092,0,0,1-1.4,1.006.845.845,0,0,1-.443.022,4.458,4.458,0,0,0-1.062-.142,2.093,2.093,0,0,0-1.358.419,2.378,2.378,0,0,0-.71,2.006c.076,1.644,1.4,2.654,3.621,2.774a.475.475,0,0,1,.445.412,16.539,16.539,0,0,0,6.353,10.816,12.947,12.947,0,0,0,10.464,2.074c5.111-1.005,10.121-7.261,7.42-21.587a26.006,26.006,0,0,0-1.154-4.255A4.253,4.253,0,0,0,491.734,346.734Zm-22.441,10.941c.3,0,.54.425.54.949s-.242.949-.54.949-.54-.425-.54-.949S468.994,357.675,469.292,357.675Zm27.3-2.242c.152,1.131.26,2.28.319,3.427a1.723,1.723,0,0,0,.464-1.575C497.287,355.8,496.9,355.5,496.592,355.433Z" transform="translate(-466.059 -335)" fill="#141414" fill-rule="evenodd"/></g><g transform="translate(48.486 19.158)"><path d="M519.794,429.691a.592.592,0,0,1,.837.042.565.565,0,0,1,.037.045,1.252,1.252,0,0,0,.091.1c.037.04.08.078.121.117.086.077.177.151.272.221a3.689,3.689,0,0,0,.616.366,4.31,4.31,0,0,0,1.407.4,5.221,5.221,0,0,0,2.97-.426h0l0,0a.317.317,0,0,1,.311.552,5.348,5.348,0,0,1-1.617.676,6.278,6.278,0,0,1-1.746.172,5.334,5.334,0,0,1-1.761-.38,4.806,4.806,0,0,1-.819-.419q-.2-.125-.382-.272c-.061-.051-.123-.1-.184-.156a2.275,2.275,0,0,1-.194-.193h0l-.005-.006A.592.592,0,0,1,519.794,429.691Zm3.856-9.537a.334.334,0,0,1,.325.312h0v0c.047.766.1,1.539.172,2.3a10.991,10.991,0,0,0,.155,1.1c.013.061.028.118.044.169a4.068,4.068,0,0,1,.541.266,2.3,2.3,0,0,1,.555.455,1.622,1.622,0,0,1,.363.709,1.974,1.974,0,0,1,.018.76,1.546,1.546,0,0,1-.33.735,1.661,1.661,0,0,1-.629.462,2.456,2.456,0,0,1-.679.171,3.538,3.538,0,0,1-.655.011,2.154,2.154,0,0,1-.326-.042,1.632,1.632,0,0,1-.321-.1.331.331,0,0,1,.05-.625h0l.128-.031a1.174,1.174,0,0,1,.251,0c.1.006.158.011.252.011a2.788,2.788,0,0,0,.5-.039,1.171,1.171,0,0,0,.73-.367.646.646,0,0,0,.124-.32,1.031,1.031,0,0,0-.025-.394,1.111,1.111,0,0,0-.513-.589,3.2,3.2,0,0,0-.447-.248h0l-.06-.029-.037-.018a.564.564,0,0,1-.1-.067.716.716,0,0,1-.065-.063h0l-.039-.05a.875.875,0,0,1-.121-.257,2.54,2.54,0,0,1-.076-.343,11.656,11.656,0,0,1-.105-1.205c-.038-.787-.039-1.564-.021-2.348A.333.333,0,0,1,523.65,420.154Zm-7.994,1.234a1.109,1.109,0,1,1,.917,1.367A1.167,1.167,0,0,1,515.656,421.388Zm12.585-1.459a1.228,1.228,0,1,1-.918,1.367A1.167,1.167,0,0,1,528.242,419.929Zm-9.392-3.323a.71.71,0,1,1,.128,1.414l-.049,0h-.011c-.835.016-1.615-.091-2.316-.089a3.856,3.856,0,0,0-1,.12,7.6,7.6,0,0,0-.961.358h0l-.017.007a.4.4,0,0,1-.452-.641,2.98,2.98,0,0,1,1.082-.73,4.979,4.979,0,0,1,1.27-.32c.422-.053.828-.06,1.215-.074S518.492,416.639,518.849,416.606Zm7.811-.575a6.235,6.235,0,0,1,1.3,0,3.742,3.742,0,0,1,1.31.377,3.226,3.226,0,0,1,1.03.843.451.451,0,0,1-.626.64h0l-.006-.005a2.959,2.959,0,0,0-1.79-.7,4.351,4.351,0,0,0-1.02.129,8.339,8.339,0,0,0-1.044.315.742.742,0,0,1-.513-1.392.816.816,0,0,1,.127-.035C525.831,416.139,526.24,416.072,526.66,416.031Z" transform="translate(-514.06 -415.999)" fill="#141414" fill-rule="evenodd"/></g></g></g></svg>