<svg xmlns="http://www.w3.org/2000/svg" width="523" height="394.245" viewBox="0 0 523 394.245"><g transform="translate(-10 -9)"><g transform="translate(10 9)" opacity="0.24"><g transform="translate(266.337 104.281)"><g transform="translate(0 8.597)"><path d="M1306.833,745.39h-87.427l-.369-.452a81.842,81.842,0,0,1-9.664-16.071c-4.123-8.924-8.48-22.574-5.827-36.927,2.953-15.974,12.709-24.068,20.547-30.571,4.682-3.885,8.725-7.239,10.043-11.293,2.555-7.857.846-15.948-.962-24.514-1.647-7.8-3.351-15.876-2.109-24.605,2.806-19.706,16.937-27.556,28.291-33.862,5.712-3.173,10.645-5.913,13.513-9.585,2.621-3.356,4.465-7.568,6.417-12.029,3.928-8.976,8.38-19.15,20.732-26.868,4.522-2.826,10.812-4.317,17.264-4.09,6.765.237,12.805,2.287,17.008,5.77a16.757,16.757,0,0,1,5.889,9.592c.886,4.167.308,8.912-1.718,14.1-4.3,11.029-12.675,18.293-20.061,24.7-6.84,5.935-12.748,11.061-13.235,17.483-.268,3.541,1.295,8.333,3.1,13.881,2.675,8.2,6,18.408,4.634,29.058-1.522,11.838-7.173,17.042-12.158,21.633-4.637,4.27-8.641,7.957-8.32,16.39.275,7.2,4.8,11.878,10.042,17.288,4.7,4.854,10.031,10.356,12.993,18.657,3.206,8.982,2.791,19.072-1.2,29.178a52.606,52.606,0,0,1-7.064,12.679Zm-1.543-2Zm-84.7-.457h85.052a52.754,52.754,0,0,0,6.371-11.652c2.609-6.638,4.925-16.777,1.141-27.38-2.783-7.8-7.695-12.87-12.444-17.773-5.359-5.533-10.422-10.759-10.733-18.9-.364-9.565,4.238-13.8,9.111-18.29,4.906-4.518,9.978-9.189,11.386-20.139,1.3-10.1-1.8-19.6-4.533-27.983-1.89-5.8-3.523-10.8-3.218-14.828.563-7.43,6.824-12.863,14.074-19.153,7.171-6.222,15.3-13.274,19.382-23.738,3.482-8.922,2.289-16.153-3.451-20.911-8.31-6.889-23.433-6.468-31.4-1.488-11.707,7.316-16,17.12-19.783,25.77-2.016,4.606-3.92,8.957-6.732,12.556-3.175,4.065-8.558,7.055-14.256,10.22-11.445,6.357-24.418,13.563-27.052,32.061-1.182,8.3.477,16.155,2.08,23.752,1.878,8.9,3.652,17.3.894,25.781-1.538,4.731-5.835,8.3-10.811,12.424-7.533,6.251-16.909,14.03-19.7,29.128-2.536,13.718,1.668,26.85,5.641,35.45A83.139,83.139,0,0,0,1220.587,742.934Z" transform="translate(-1202.736 -514.499)" fill="#fff"/></g><g transform="translate(110.384 101.79)"><path d="M1788.095,933.356c17.249-3.375,49.121-.75,54,4.5,5.461,5.881-8.24,38.343-14.813,40.973-9.861,0-26.3-1.972-23.667,3.287s11.176,11.833,11.176,15.12-5.917,24.324-13.148,25.638-24.981-4.6-25.639,0,9.2,10.519,9.861,15.778-9.2,19.722-51.278,32.213h-36.157s-6.574-45.361,9.2-64.425c12.491,4.6,17.751,5.259,17.751,5.259s-1.315-25.639,3.286-36.814,10.815-20.86,18.932-20.9c6.082-.033,19.119,11.726,21.748,7.124s-3.2-23.454,18.749-27.748" transform="translate(-1697.068 -931.846)" fill="#fff" fill-rule="evenodd"/></g><g transform="translate(50.078)"><path d="M1592.685,476.254c7.511.859,14.626,57.33-10.618,63.89-9.342,2.427-24.724,7.028-16.357,16.325,4.262,4.735,21.381,10.046,25.667,19.571,3.265,7.254-5.061,29.266-17.578,35-14.332,6.56-27.88,3.707-29.082,12.517s19.639,14.31,20.926,26.328c.906,8.447-13.156,39.408-59.3,65.5-27.234,0-50.056-.4-50.056-.4s-21.964-34.767-27.571-75.617,3.043-55.143,18.28-57.062c8.12-1.023,23.785,10.7,31.638,8.41,6.546-1.913-1.844-23.937-1.844-39.556s4.078-29.617,10.656-32.933c5.3-2.67,21.041,9.062,26.248,11.465s15.437,4.892,17.4-.422c2.406-6.532-6.224-23.608.214-33.265,8.05-12.075,44.224-21.706,61.381-19.745" transform="translate(-1427 -476)" fill="#d3e2f2" fill-rule="evenodd"/></g><g transform="translate(104.804 16.774)"><path d="M1772.013,551.339a.781.781,0,0,1,.022,1.105l-.278.293q-.208.221-.462.493l-.357.385q-1.291,1.4-2.967,3.281l-.153.172c-3.293,3.718-6.957,8.05-10.9,12.959l-.252.314a443.015,443.015,0,0,0-33.85,48.637,379.611,379.611,0,0,0-33.2,69.818c-9.9,28.271-15.461,56.564-15.97,84.579a.782.782,0,1,1-1.563-.028c.513-28.191,6.106-56.647,16.058-85.068a381.169,381.169,0,0,1,33.339-70.106,444.717,444.717,0,0,1,33.584-48.327l.386-.483c3.886-4.848,7.505-9.144,10.776-12.852l.425-.48q1.467-1.656,2.656-2.95l.486-.528q.286-.31.528-.568l.59-.625A.781.781,0,0,1,1772.013,551.339Z" transform="translate(-1672.079 -551.121)" fill="#fff"/></g></g><g transform="translate(23.652 41.534)"><g transform="translate(34.182)"><path d="M434.209,498.687s46.124-27.642,36.732-77.658c-5.607-29.856-24.624-28.392-35.631-51-7.025-14.426,3.649-53.142-18.26-78.611-20.466-23.793-53.931-21.636-64.71-26.8-14.446-6.927-19.948-21.479-24.077-33.43-15.4-44.558-50.974-43.355-56.765-21.187-6.982,26.726-.3,42.834,32.55,69.027,24.681,19.681-11.455,41.763,10.041,77.6,12.012,20.024,44.311,30.432,28.533,56.323-21.6,35.455-17.547,70.308-6.532,85.739Z" transform="translate(-269 -195)" fill="#d3e2f2" fill-rule="evenodd"/></g><g transform="translate(64.551 37.514)"><path d="M405.265,363.257a.889.889,0,0,1,1.259.009c.116.117,11.765,12,26.932,32.548,13.992,18.958,33.942,49.4,49.515,86.74,13.834,33.176,29.16,79.814,24.921,146.619h-1.785c4.24-66.5-11.013-112.916-24.78-145.931-29.663-71.135-75.611-118.255-76.072-118.723a.893.893,0,0,1,.009-1.261" transform="translate(-405 -363)" fill="#fff" fill-rule="evenodd"/></g><g transform="translate(29.757 140.232)"><path d="M253.729,823c2.788,0,5.626,2.306,5.626,5.1a5.056,5.056,0,0,1-.185,1.34A232.179,232.179,0,0,1,378.817,969.205a152.778,152.778,0,0,1,4.344,17.25h-1.811a153.9,153.9,0,0,0-4.237-16.725A228.874,228.874,0,0,0,258.4,831.052a5.032,5.032,0,0,1-4.093,2.107c-2.788,0-5.126-1.779-5.126-4.573S250.941,823,253.729,823" transform="translate(-249.182 -823)" fill="#fff" fill-rule="evenodd"/></g><g transform="translate(0 197.822)"><path d="M120.478,1080.906c2.794,0,5.64,2.306,5.64,5.1h0c8.651,1.551,23.25,4.789,49.784,14.559,35.318,13,59.73,35.707,73.989,52.462,15.453,18.157,22.663,33.469,22.734,33.621a.856.856,0,0,1,.042.121H270.7a171.162,171.162,0,0,0-22.205-32.632c-14.117-16.575-38.276-39.035-73.207-51.9-26.4-9.719-40.9-12.937-49.487-14.478a5.056,5.056,0,0,1-4.738,3.3c-2.794,0-5.138-1.779-5.138-4.573s1.763-5.586,4.557-5.586" transform="translate(-115.921 -1080.906)" fill="#fff" fill-rule="evenodd"/></g></g><g transform="translate(0 343.904)"><rect width="493" height="1" transform="translate(0 -0.208)" fill="#141414"/></g><g transform="translate(17.735 269.857)"><g transform="translate(26.188)"><path d="M232.51,1271.51s12.878-19.832.591-37.844c-8.739-12.812-18.838-14.36-20.846-15.464-12.033-6.615-4.18,35.3,20.255,53.308" transform="translate(-206.699 -1217.5)" fill="#ff4b33" fill-rule="evenodd"/><g transform="translate(15.505 20.209)"><path d="M287.45,1364.024a.446.446,0,0,0,.372-.2c.319-.478.438-8.469-.8-18.684-1.165-9.6-3.851-23.786-10.036-36.883a.447.447,0,0,0-.808.382c6.057,12.827,8.726,26.727,9.9,36.128,1.323,10.616,1.095,18,.963,18.64a.447.447,0,0,0,.413.617" transform="translate(-276.134 -1308.002)" fill="#141414" fill-rule="evenodd"/></g></g><g transform="translate(61.531 26.031)"><path d="M383.919,1334.11c-2.584-.332-8.212,1.568-13.769,9.714-7.813,11.453-5.955,25.52.147,26.876l-.144-.034c-1.269,8.2-.719,13.044-.476,13.41a.447.447,0,0,0,.78-.428c-.106-.406-.552-4.347.327-11.1q.106-.812.244-1.711v0C388.371,1373.623,389.9,1334.877,383.919,1334.11Z" transform="translate(-364.979 -1334.074)" fill="#141414" fill-rule="evenodd"/></g><g transform="translate(0 26.031)"><path d="M106.216,1370.7c6.1-1.356,7.96-15.423.147-26.876-5.557-8.147-11.185-10.046-13.769-9.714-6.065.778-4.408,40.6,13.622,36.591" transform="translate(-89.423 -1334.074)" fill="#ff4b33" fill-rule="evenodd"/><g transform="translate(7.049 9.641)"><path d="M130.068,1417.809a.447.447,0,0,1-.408-.627c.106-.406.552-4.347-.327-11.1a103.727,103.727,0,0,0-8.306-28.207.447.447,0,0,1,.817-.361c10.512,23.777,9.041,39.426,8.6,40.094a.446.446,0,0,1-.372.2Z" transform="translate(-120.989 -1377.25)" fill="#141414" fill-rule="evenodd"/></g></g></g><g transform="translate(298.549 41.634)"><g transform="translate(0.337 0.346)"><path d="M1351.916,228.29s7.013-5.044,13.636-18.8,14.18-12.905,16.744-12.112,6.4,9.912,9.645,18.129,7.33,4.966,9.685-2.29,7.53-2.626,8.242.237,1.941,8.145,6.813,6.459,6.545-.509,7.052,2.126,3.467,4.1,14.067,4.9,15.139,5.18,7.679,6.506-117.566.688-93.564-5.158" transform="translate(-1348.5 -197)" fill="#fff" fill-rule="evenodd"/></g><path d="M1374.133,196.47a9.736,9.736,0,0,1,7.089-.616c1.287.4,2.794,2.505,4.637,6.186l.132.266c1.364,2.754,2.8,6.112,4.636,10.731l.453,1.142c1.472,3.733,3.12,5.12,4.738,4.47,1.538-.619,3.094-3.03,4.274-6.607l.043-.133c1.112-3.428,3.012-4.671,5.17-3.888a6.6,6.6,0,0,1,3.715,4.148l.212.844c.185.722.3,1.127.486,1.663,1.11,3.265,2.765,4.684,5.594,3.745l.086-.029c4.623-1.6,6.839-.8,7.472,2.285l.019.094c.5,2.584,3.848,3.862,13.47,4.61l.293.023c5.034.381,9.088,1.606,10.81,3.14.891.794,1.122,1.676.55,2.438-.542.721-1.776,1.259-3.647,1.592-3.905.695-33.174.8-57.185.157l-1.463-.04c-13.926-.4-24.973-1.008-31.571-1.812l-.3-.037c-3.566-.447-5.738-.943-6.492-1.537-.572-.452-.461-1.031.218-1.464a10.935,10.935,0,0,1,2.959-1.048l.062-.015.016-.011.158-.123.046-.037c.226-.181.489-.4.785-.668a35.3,35.3,0,0,0,2.825-2.861,62.408,62.408,0,0,0,8.608-12.847q.423-.819.837-1.665l.206-.425C1367.083,201.9,1370.5,198.155,1374.133,196.47Zm6.891.024a9.073,9.073,0,0,0-6.61.584c-3.448,1.6-6.724,5.169-9.645,11.171l-.088.182q-.518,1.075-1.052,2.107a63.079,63.079,0,0,1-8.7,12.984,36.308,36.308,0,0,1-2.766,2.813l-.114.1c-.272.243-.517.451-.733.627l-.174.139-.123.095-.079.059-.2-.272.079.326-.243.06a10.613,10.613,0,0,0-2.6.906l-.042.026-.069.045c-.256.168-.249.206-.094.328.633.5,2.862,1,6.454,1.435l.4.048c6.546.77,17.259,1.36,30.693,1.748l.416.012c24.2.689,54.594.591,58.512-.106l.2-.036c3.144-.6,3.9-1.656,2.574-2.834-1.572-1.4-5.43-2.576-10.256-2.96l-.159-.012c-10.048-.759-13.712-2.1-14.352-5.083l-.018-.091c-.509-2.646-2.22-3.343-6.357-1.96l-.256.087a4.256,4.256,0,0,1-4.405-.583,7.623,7.623,0,0,1-2.08-3.411l-.048-.139c-.252-.74-.384-1.232-.714-2.561a5.942,5.942,0,0,0-3.294-3.68c-1.743-.632-3.266.345-4.271,3.365l-.033.1c-1.241,3.823-2.909,6.433-4.7,7.155-2.068.832-4.021-.812-5.611-4.845l-.539-1.361c-1.759-4.416-3.148-7.663-4.46-10.329l-.191-.385C1383.512,198.849,1382.06,196.814,1381.024,196.493Z" transform="translate(-1346.99 -195.449)" fill="#141414"/></g><g transform="translate(17.641)"><path d="M219.127,105.467H94.557A5.563,5.563,0,0,1,89,99.91V14.557A5.563,5.563,0,0,1,94.557,9h124.57a5.563,5.563,0,0,1,5.557,5.557V99.91a5.563,5.563,0,0,1-5.557,5.557Z" transform="translate(-89 -9)" fill="#fff" fill-rule="evenodd"/><path d="M94.557,9.893a4.669,4.669,0,0,0-4.664,4.664V99.91a4.669,4.669,0,0,0,4.664,4.664h124.57a4.669,4.669,0,0,0,4.664-4.664V14.557a4.669,4.669,0,0,0-4.664-4.664Zm124.57,95.574H94.557A5.563,5.563,0,0,1,89,99.91V14.557A5.563,5.563,0,0,1,94.557,9h124.57a5.563,5.563,0,0,1,5.557,5.557V99.91a5.563,5.563,0,0,1-5.557,5.557Z" transform="translate(-89 -9)" fill="#141414" fill-rule="evenodd"/><g transform="translate(0.001 17.332)"><path d="M224.032,87.513H89.452a.447.447,0,0,1,0-.893H224.032a.447.447,0,0,1,0,.893" transform="translate(-89.005 -86.62)" fill="#141414" fill-rule="evenodd"/></g><g transform="translate(6.753 6.108)"><g transform="translate(8.451)"><path d="M160.019,37.248a2.036,2.036,0,1,0,2.036,2.036,2.038,2.038,0,0,0-2.036-2.036m0,4.965a2.929,2.929,0,1,1,2.929-2.929,2.932,2.932,0,0,1-2.929,2.929" transform="translate(-157.09 -36.355)" fill="#141414" fill-rule="evenodd"/></g><g transform="translate(16.902)"><path d="M197.865,37.248a2.036,2.036,0,1,0,2.036,2.036,2.038,2.038,0,0,0-2.036-2.036m0,4.965a2.929,2.929,0,1,1,2.929-2.929,2.932,2.932,0,0,1-2.929,2.929" transform="translate(-194.936 -36.355)" fill="#141414" fill-rule="evenodd"/></g><g transform="translate(0.447 0.447)"><path d="M126.208,40.837a2.482,2.482,0,1,1-2.482-2.482,2.482,2.482,0,0,1,2.482,2.482" transform="translate(-121.243 -38.355)" fill="#ff4b33" fill-rule="evenodd"/></g><path d="M122.172,37.248a2.036,2.036,0,1,0,2.036,2.036,2.038,2.038,0,0,0-2.036-2.036m0,4.965a2.929,2.929,0,1,1,2.929-2.929,2.932,2.932,0,0,1-2.929,2.929" transform="translate(-119.243 -36.355)" fill="#141414" fill-rule="evenodd"/></g><g transform="translate(82.172 30.839)"><path d="M491.489,164.354A17.249,17.249,0,1,1,474.239,147.1a17.249,17.249,0,0,1,17.249,17.249" transform="translate(-456.99 -147.105)" fill="#ff4b33" fill-rule="evenodd"/></g><g transform="translate(60.747 35.445)"><path d="M362.265,200.674h36.488l-18.244-31.6Zm37.261.893H361.492a.447.447,0,0,1-.387-.67l19.017-32.939a.447.447,0,0,1,.774,0L399.913,200.9a.447.447,0,0,1-.387.67Z" transform="translate(-361.045 -167.735)" fill="#141414" fill-rule="evenodd"/></g></g><g transform="translate(81.058 130.407)"><g transform="translate(6.029 100.816)"><g transform="translate(66.32 138.56)"><g transform="translate(0.537 2.354)"><path d="M699.406,1675.541l1.8,12.322,17.721,1.831L716.183,1677Z" transform="translate(-699.406 -1675.541)" fill="#fff" fill-rule="evenodd"/></g><g transform="translate(0 1.786)"><path d="M717.121,1688.166l-17.868-1.754a.475.475,0,0,1-.423-.4l-1.824-12.465a.475.475,0,0,1,.94-.137l1.77,12.1,16.846,1.654-2.688-12.009a.475.475,0,1,1,.927-.207l2.831,12.649a.475.475,0,0,1-.463.579Z" transform="translate(-697 -1673)" fill="#141414" fill-rule="evenodd"/></g><g transform="translate(0.19 12.351)"><path d="M699.2,1721.19a.447.447,0,0,1,.512-.33c.219.04.5.093.825.156a56.134,56.134,0,0,0,10.134,1.192h.01a9.01,9.01,0,0,0,5.77-1.8.449.449,0,0,1,.4-.089c6.788,1.767,11.692,3.044,15.327,5.468.639.426,2.942,2.286,2.544,3.6-.184.608-.84.917-1.95.917-4.052,0-12.78.022-20.482.043-6.232.016-11.613.03-13.639.03a.68.68,0,0,1-.544-.273c-.8-1.026.5-6.58,1.1-8.92" transform="translate(-697.849 -1720.31)" fill="#ff4b33" fill-rule="evenodd"/></g><g transform="translate(0.013 21.934)"><path d="M698.113,1765.685h35.021a1.054,1.054,0,0,0,1.054-1.054v-.348a1.054,1.054,0,0,0-1.054-1.054H698.113a1.054,1.054,0,0,0-1.054,1.054v.348a1.054,1.054,0,0,0,1.054,1.054" transform="translate(-697.059 -1763.229)" fill="#141414" fill-rule="evenodd"/></g><g transform="translate(25.668 14.144)"><path d="M812.423,1730.77a.475.475,0,0,0,.429-.271,1.922,1.922,0,0,1,2.338-1.133.475.475,0,0,0,.284-.906,2.876,2.876,0,0,0-3.479,1.631.474.474,0,0,0,.225.633.469.469,0,0,0,.2.046" transform="translate(-811.948 -1728.341)" fill="#141414" fill-rule="evenodd"/></g><g transform="translate(21.474 13)"><path d="M793.642,1725.648a.475.475,0,0,0,.429-.271,1.921,1.921,0,0,1,2.337-1.133.475.475,0,0,0,.284-.906,2.876,2.876,0,0,0-3.479,1.631.475.475,0,0,0,.428.679" transform="translate(-793.168 -1723.22)" fill="#141414" fill-rule="evenodd"/></g><path d="M697,1665" transform="translate(-697 -1665)" fill="#141414" fill-rule="evenodd"/></g><g transform="translate(0 140.346)"><g transform="translate(18.913 0.535)"><path d="M500.838,1675.394l-.531,12.451-15.608,1.338.238-12.5Z" transform="translate(-484.699 -1675.394)" fill="#fff" fill-rule="evenodd"/></g><g transform="translate(18.402)"><path d="M482.884,1687.8a.475.475,0,0,1-.475-.484l.227-12.5a.475.475,0,0,1,.95.017l-.218,11.979,14.7-1.23.524-12.119a.475.475,0,1,1,.949.041L499,1686.032a.475.475,0,0,1-.435.453l-15.643,1.309-.04,0" transform="translate(-482.41 -1673)" fill="#141414" fill-rule="evenodd"/></g><g transform="translate(0.04 10.637)"><path d="M435.741,1721.514a.446.446,0,0,0-.512-.329c-.22.04-.5.093-.825.156a56.116,56.116,0,0,1-10.134,1.192h-.01a9.012,9.012,0,0,1-5.77-1.8.448.448,0,0,0-.4-.089c-6.788,1.767-11.692,3.044-15.326,5.468-.639.426-2.942,2.286-2.544,3.6.184.608.84.917,1.95.917,4.052,0,12.781.022,20.482.042,6.231.016,11.613.03,13.639.03a.68.68,0,0,0,.544-.273c.8-1.026-.5-6.58-1.1-8.92" transform="translate(-400.177 -1720.635)" fill="#ff4b33" fill-rule="evenodd"/></g><g transform="translate(0 20.22)"><path d="M436.075,1766.008H401.054a1.054,1.054,0,0,1-1.054-1.054v-.348a1.054,1.054,0,0,1,1.054-1.054h35.021a1.054,1.054,0,0,1,1.054,1.054v.348a1.054,1.054,0,0,1-1.054,1.054" transform="translate(-400 -1763.552)" fill="#141414" fill-rule="evenodd"/></g><g transform="translate(7.619 12.43)"><path d="M437.5,1731.094a.475.475,0,0,1-.429-.271,1.922,1.922,0,0,0-2.338-1.133.475.475,0,0,1-.284-.906,2.875,2.875,0,0,1,3.479,1.631.475.475,0,0,1-.428.679" transform="translate(-434.119 -1728.665)" fill="#141414" fill-rule="evenodd"/></g><g transform="translate(11.813 11.286)"><path d="M456.281,1725.971a.474.474,0,0,1-.429-.271,1.921,1.921,0,0,0-2.337-1.132.475.475,0,0,1-.284-.906,2.876,2.876,0,0,1,3.479,1.631.475.475,0,0,1-.428.679" transform="translate(-452.9 -1723.542)" fill="#141414" fill-rule="evenodd"/></g></g><g transform="translate(2.68)"><path d="M423.672,1045.036,412,1192.222a253.473,253.473,0,0,0,36.433,0s2.011-123.021,3.115-123.146c2.068-.233,12.224,123.146,12.224,123.146,11.479,1.86,22.738,1.293,33.931,0,0,0-8.518-108.994-23.1-147.736-23.044,1.024-50.933.55-50.933.55" transform="translate(-412 -1044.486)" fill-rule="evenodd"/><g transform="translate(11.004 5.285)"><path d="M474.683,1068.215a.558.558,0,0,0-.753.239c-3.7,7.137-11.689,6.462-12.037,6.429a.558.558,0,1,0-.109,1.111c.016,0,.292.026.761.026,2.266,0,9.016-.571,12.376-7.052a.558.558,0,0,0-.239-.753" transform="translate(-461.281 -1068.152)" fill="#fff" fill-rule="evenodd"/></g><g transform="translate(52.696 4.233)"><path d="M660.682,1070.172c-.329.033-8.08.713-11.67-6.429a.533.533,0,0,0-.729-.239.567.567,0,0,0-.232.753c3.258,6.482,9.8,7.052,12,7.052.454,0,.722-.025.738-.026a.554.554,0,0,0,.486-.61.547.547,0,0,0-.591-.5" transform="translate(-647.991 -1063.442)" fill="#fff" fill-rule="evenodd"/></g></g></g><g transform="translate(0 17.417)"><g transform="translate(0.032 100.176)"><g transform="translate(0.507 0.151)"><path d="M393.139,1125.233l-13.555-4.936c-2.615,11.818-5.688,26.365-3.315,28.149.047.035.1.067.143.1.086.55,2.415,1.5,3.588,1.733a12.83,12.83,0,0,0,3.557.631,2.014,2.014,0,0,0,2.166-2.159c1.756-.163,1.972-1,1.567-2.053,2.134-.405,1.29-2.071-.865-2.7,1-1.613,2.284-2.2,2.427-5.141.114-2.359,2.057-7.642,4.286-13.624" transform="translate(-375.418 -1120.297)" fill="#fff" fill-rule="evenodd"/></g><path d="M391.795,1124.86l-.9-.329c-2.068,5.6-3.9,10.764-4.279,13.776a7.808,7.808,0,0,1-2.1,4.641,2.41,2.41,0,0,1-1.051-.99.373.373,0,0,0-.5-.17c-.631.468.438,1.342.788,1.635.733.674,2.034.665,2.606,1.45.173.764-.719.825-1.307.854a13.611,13.611,0,0,1-4.173-1.491.309.309,0,0,0-.425.108c-.246.559,1.185,1.138,1.6,1.353,1.1.574,2.423.779,3.063,1.133.226.247.007.517-.244.717a2.354,2.354,0,0,1-1.542.29,15.064,15.064,0,0,1-4.7-1.214.257.257,0,0,0-.2.469,13.467,13.467,0,0,0,5.265,1.637c-.054.785-1.012,1.142-1.9,1.182a13.352,13.352,0,0,1-7-2.372c-.269-.2-.579-.8-.647-2.427-.058-6.789,2.385-17.146,4.14-25.173l-.877-.319c-2.051,9.711-4.4,20.912-4.252,25.952.049,1.633.482,2.37,1.032,2.7a14.632,14.632,0,0,0,4.451,2.1c2.335.646,5.719,1.057,6-1.7.88-.164,1.818-1.054,1.476-2.046a1.566,1.566,0,0,0,1.141-2.151,2.708,2.708,0,0,0-1.834-1.152,8.361,8.361,0,0,0,2.143-4.967c.336-2.894,2.218-8.127,4.233-13.494" transform="translate(-373.145 -1119.62)" fill="#141414" fill-rule="evenodd"/></g><g transform="translate(60.334)"><g transform="translate(9.334 5.804)"><path d="M704.843,723.6a103.75,103.75,0,0,0-7.988-18.751c-2.225-5.023-8.043-9.348-8.278-7.375-.507,4.269-3.582,10.141-3.582,10.141,1.228,3.429,4.245,13.9,4.454,20.253Z" transform="translate(-684.995 -696.99)" fill="#fff" fill-rule="evenodd"/></g><g transform="translate(8.86 5.33)"><path d="M687.906,726.193h0a.468.468,0,0,0,.345-.474c-.341-6.712-3.459-17.032-4.391-19.714.535-1.052,3.071-6.19,3.538-10.12,0-.035.01-.055.01-.061a.915.915,0,0,1,.5.089c1.723.628,5.251,3.856,6.858,7.484l.015.03a105.225,105.225,0,0,1,7.827,18.217.468.468,0,0,0,.9-.273A105.214,105.214,0,0,0,695.631,703c-1.887-4.244-6.507-8.392-8.344-8.116a.962.962,0,0,0-.833.893c-.491,4.131-3.5,9.919-3.532,9.977a.477.477,0,0,0-.027.381c1.475,4.118,4.093,13.665,4.415,19.635a.469.469,0,0,0,.594.427" transform="translate(-682.869 -694.868)" fill="#141414" fill-rule="evenodd"/></g><path d="M666.55,684.884l-4.624,6.484a1.83,1.83,0,0,1-2.552.427L643.96,680.8a1.829,1.829,0,0,1-.427-2.552l4.624-6.484a1.829,1.829,0,0,1,2.552-.427l15.414,10.992a1.829,1.829,0,0,1,.427,2.552" transform="translate(-643.193 -671)" fill="#02bad3" fill-rule="evenodd"/><g transform="translate(18.758 9.311)"><path d="M728.367,712.78c-.9.416-1.565,1.764-.9,2.553.507.6,1.683.527,2.366-.892a1.207,1.207,0,0,0-1.461-1.661" transform="translate(-727.196 -712.699)" fill="#fff" fill-rule="evenodd"/></g><g transform="translate(11.552 4.071)"><path d="M698.038,690.231c-.555-1.312-2.015-1.4-2.831.127a1.833,1.833,0,0,0-.039,1.863c1.12,1.629,3.264-1.058,2.87-1.99" transform="translate(-694.925 -689.231)" fill="#fff" fill-rule="evenodd"/></g><g transform="translate(13.559 5.606)"><path d="M709.911,699.681a1.537,1.537,0,0,0-2.084-1.77,2.311,2.311,0,0,0-.646.528,1.926,1.926,0,0,0,.264-1.2c-.278-1.3-2.223-1.98-3.378.764-.63,1.5.841,2.559,1.789,1.907a4.312,4.312,0,0,0,.917-.849,1.84,1.84,0,0,0,.425,2.5c.927.493,2.1-.239,2.713-1.877" transform="translate(-703.914 -696.105)" fill="#fff" fill-rule="evenodd"/></g><g transform="translate(11.076 3.596)"><path d="M702.68,694.357a1.541,1.541,0,0,1-1.057.975.564.564,0,0,1-.516-.182.809.809,0,0,1-.128-.706,1.773,1.773,0,0,1,.645-.977,1.26,1.26,0,0,1,.222-.134.641.641,0,0,1,.684.2.7.7,0,0,1,.15.825m-3.9-.209a.966.966,0,0,1-.456-.9,2.22,2.22,0,0,1,.22-.931,4.226,4.226,0,0,0,.376-.574,1.989,1.989,0,0,1,.29-.273,1.593,1.593,0,0,1,.2-.127.98.98,0,0,1,1.073.211.928.928,0,0,1,.341.975,2.732,2.732,0,0,1-1.335,1.654.828.828,0,0,1-.71-.031m-2.695-1.694a1.012,1.012,0,0,1-.222-1.257,3.285,3.285,0,0,1,.952-1.367,1.051,1.051,0,0,1,.727-.237.938.938,0,0,1,.8.756,1.5,1.5,0,0,1-.21.857,3.4,3.4,0,0,0-.388.592,3.813,3.813,0,0,1-.8.731.715.715,0,0,1-.86-.075m-2.119-3.523a1.379,1.379,0,0,1,1.141-.876,1.013,1.013,0,0,1,.835.71,2.272,2.272,0,0,1-1.151,1.717.585.585,0,0,1-.891-.181,1.433,1.433,0,0,1,.066-1.369m9.237,3.933a1.642,1.642,0,0,0-1.392-.5,2.065,2.065,0,0,0-2.517-1.993,1.388,1.388,0,0,0-.026-.222,1.826,1.826,0,0,0-2.373-1.417,1.087,1.087,0,0,0-.078-.339,1.945,1.945,0,0,0-1.666-1.288,2.279,2.279,0,0,0-2.022,1.376h0a2.324,2.324,0,0,0-.012,2.356,1.477,1.477,0,0,0,1.7.656,1.887,1.887,0,0,0,.672,1.7,1.662,1.662,0,0,0,1.9.179,1.86,1.86,0,0,0,.952,1.616,1.763,1.763,0,0,0,1.493.081c.067-.025.132-.059.2-.092a1.609,1.609,0,0,0,.352.784,1.517,1.517,0,0,0,1.362.515,1.917,1.917,0,0,0,.906-.378,3.021,3.021,0,0,0,.889-1.129,1.641,1.641,0,0,0-.33-1.9" transform="translate(-692.794 -687.105)" fill="#141414" fill-rule="evenodd"/></g><g transform="translate(7.08 15.38)"><path d="M685.4,743.971a3.367,3.367,0,0,0-3.847-.266,8.774,8.774,0,0,0-4.446-3.76c-1.1-.358-3.35.69-1.5,2.423,1.435,1.344,2.492,1.928,3.156,3.487l2.357-.15a6.058,6.058,0,0,0,.274.719c1.382,2.989,5.251,1.433,5.74.084.262-.722-.388-1.312-1.735-2.537" transform="translate(-674.901 -739.876)" fill="#fff" fill-rule="evenodd"/></g><g transform="translate(6.696 14.984)"><path d="M685.368,743.212a5.642,5.642,0,0,1,.5.775.309.309,0,0,1-.537.3l-.01-.017a5.3,5.3,0,0,0-1.03-1.229,3.847,3.847,0,0,0-1.341-.8,2.42,2.42,0,0,0-1.464-.059,4.343,4.343,0,0,0-.716.257,7.19,7.19,0,0,1,.265.688.366.366,0,0,1-.694.23c-.065-.188-.137-.371-.218-.554a7.3,7.3,0,0,0-.442-.84,7.84,7.84,0,0,0-1.47-1.75,6.985,6.985,0,0,0-1.564-1.079,2.459,2.459,0,0,0-.4-.159,1.7,1.7,0,0,0-.4-.048,3.194,3.194,0,0,0-.876.121,1.909,1.909,0,0,0-.731.361.614.614,0,0,0-.174.233.389.389,0,0,0-.008.24,1.532,1.532,0,0,0,.425.627c.053.052.109.1.166.152l.187.161.381.318a12.964,12.964,0,0,1,1.553,1.4,4.986,4.986,0,0,1,.631.914,7.129,7.129,0,0,1,.421,1,.475.475,0,0,1-.9.307v0l-.006-.012a5.884,5.884,0,0,0-.347-.858,3.942,3.942,0,0,0-.5-.752,12.018,12.018,0,0,0-1.428-1.311l-.388-.335-.194-.17q-.1-.092-.2-.192a2.314,2.314,0,0,1-.646-1.05,1.266,1.266,0,0,1,.049-.752,1.454,1.454,0,0,1,.42-.569,2.74,2.74,0,0,1,1.066-.524,3.987,3.987,0,0,1,1.118-.136,2.374,2.374,0,0,1,.6.086,3.156,3.156,0,0,1,.533.218,7.733,7.733,0,0,1,1.732,1.227,8.693,8.693,0,0,1,1.618,2c.013,0,.027-.012.041-.016a5.109,5.109,0,0,1,.9-.278,3.448,3.448,0,0,1,.973-.062,3.338,3.338,0,0,1,.944.232,4.569,4.569,0,0,1,1.552,1.022,5.425,5.425,0,0,1,.6.684" transform="translate(-673.178 -738.102)" fill="#141414" fill-rule="evenodd"/></g></g><g transform="translate(0 20.036)"><path d="M443.6,774.466a15.41,15.41,0,0,0-2.313-4.529c-7.926-11.349-33.366-12.132-44.481-2.774-11.414,9.61-17.64,37.823-23.8,80.644,13.721,4.305,18.058,4.974,18.058,4.974,3.092-8.831,5.886-17.737,8.222-26.188,14.744-.419,50.658,0,53.215,0-.862-5.681-1.9-12.223-2.913-18.815,4.375-.018,12-.8,15.238-8.287,4.956-11.458-1.929-31.336-1.929-31.336Z" transform="translate(-373 -760.727)" fill="#ff4b33" fill-rule="evenodd"/></g><g transform="translate(40.501 21.466)"><path d="M577.7,830.587s.534-52.064-11.838-63.265a101.039,101.039,0,0,1-11.488-.189s5.02,8.7,5.408,31.234c.4,23.319-.652,32.415-.652,32.415Z" transform="translate(-554.376 -767.133)" fill="#fff" fill-rule="evenodd"/></g><g transform="translate(40.055 21.02)"><path d="M558.073,829c.076-.822.227-2.9.369-5.926,1.308.149,2.606.246,3.913.318,1.495.084,2.993.123,4.495.13.75.008,1.5-.013,2.255-.023.753-.029,1.507-.049,2.263-.1a35.636,35.636,0,0,0,4.271-.5c.062,2.825.067,5.254.065,6.1Zm10.155-56.536a19.371,19.371,0,0,1-2.459.811c-.249.054-.5.114-.742.174l-.757.141c-.25.056-.51.086-.765.126l-.385.058-.389.046c-1.037.132-2.092.2-3.16.252-.534.019-1.069.04-1.61.051l-.819.018-.424.011-.5.023v.017a41.647,41.647,0,0,0-2.638-8.117,93.294,93.294,0,0,0,10.579.158A19.283,19.283,0,0,1,568.229,772.463Zm-5.565,42.151c1.411.05,2.824.063,4.239.052.707,0,1.415-.025,2.123-.041s1.417-.052,2.127-.1c1.384-.086,2.77-.207,4.166-.427.1,2.057.181,3.979.237,5.715-1.411.037-2.859.047-4.309.057l-4.389.006-4.414.009c-1.289.007-2.587.021-3.874.058.055-1.622.1-3.473.14-5.562C560.03,814.5,561.343,814.57,562.664,814.615Zm8.168-11.343c-1.371,0-2.748.015-4.125.057s-2.759.094-4.141.178c-1.266.085-2.54.181-3.8.343q-.012-2.078-.041-4.346c1.285.163,2.544.25,3.821.3q2.047.087,4.106.016c.343,0,.686-.026,1.031-.046s.687-.036,1.032-.063c.69-.062,1.38-.119,2.073-.219a23.949,23.949,0,0,0,3.332-.664c.168,1.515.32,3.023.454,4.512C573.324,803.289,572.08,803.274,570.831,803.272Zm.2,7.536-2.084.015-2.089.028c-1.394.027-2.789.048-4.186.095-1.306.04-2.618.091-3.92.176q.019-2.11.019-4.492c1.274.191,2.539.292,3.813.366q2.107.1,4.218.059c1.408-.033,2.816-.107,4.228-.268a28.548,28.548,0,0,0,3.777-.65c.127,1.6.236,3.161.329,4.673C573.776,810.8,572.4,810.8,571.028,810.807Zm-5.368-18.5c1.312-.112,2.622-.252,3.935-.479a26.611,26.611,0,0,0,3.48-.8c.241,1.536.46,3.089.659,4.644-1.072.138-2.188.234-3.313.315l-.968.063-.975.048c-.652.033-1.3.063-1.961.083-1.311.054-2.63.081-3.952.119-1.3.033-2.613.066-3.9.122q-.04-2.054-.129-3.954c1.069.049,2.124.054,3.189.035Q563.695,792.467,565.66,792.306ZM556.8,776.93l.2.026c.279.037.567.062.853.092.575.05,1.154.087,1.736.1a23.965,23.965,0,0,0,3.519-.155,18.268,18.268,0,0,0,3.521-.749,13.272,13.272,0,0,0,2.64-1.184c.576,1.583,1.1,3.29,1.577,5.087-.985.171-1.958.373-2.908.562-1.124.225-2.218.414-3.356.576l-3.461.491c-1.151.17-2.305.351-3.454.58C557.409,780.354,557.112,778.549,556.8,776.93Zm4.676,7.908c1.184-.093,2.367-.217,3.569-.384.6-.081,1.206-.192,1.811-.3.6-.13,1.207-.261,1.792-.423.984-.262,1.933-.558,2.87-.883.407,1.768.776,3.6,1.107,5.475-1.129.172-2.288.312-3.454.442l-.938.1-.944.087c-.629.064-1.261.116-1.894.17-1.266.114-2.538.2-3.811.307-1.064.083-2.137.17-3.2.266q-.164-2.472-.4-4.664C559.152,785,560.311,784.931,561.474,784.838Zm3.137-19.4a.443.443,0,0,0-.346-.113,101.218,101.218,0,0,1-11.411-.191.447.447,0,0,0-.417.668c.049.087,4.967,8.9,5.348,31.019.4,23.007-.638,32.488-.649,32.579a.447.447,0,0,0,.444.5h18.574c.243,0,.44-.394.442-.637,0-.13.118-13.429-1.282-27.7C573.427,782.312,569.827,770.159,564.611,765.437Z" transform="translate(-552.377 -765.133)" fill="#141414" fill-rule="evenodd"/></g><g transform="translate(39.697 12.424)"><g transform="translate(0.447 0.447)"><path d="M553.615,728.642l-.841,7.852s1.658,3.594,6.746,3.841c6.864.332,4.981-3.921,4.981-3.921l-.191-7.091" transform="translate(-552.774 -728.642)" fill="#fff" fill-rule="evenodd"/></g><path d="M558.7,739.245q-.363,0-.753-.019c-5.3-.256-7.058-3.943-7.13-4.1a.449.449,0,0,1-.039-.235l.841-7.852a.447.447,0,1,1,.888.1l-.827,7.72c.31.575,1.989,3.27,6.309,3.479,2.289.11,3.822-.3,4.434-1.183a2.418,2.418,0,0,0,.116-2.112.456.456,0,0,1-.037-.167l-.191-7.091a.447.447,0,0,1,.893-.024l.189,7.011a3.233,3.233,0,0,1-.229,2.884c-.726,1.059-2.227,1.594-4.464,1.594" transform="translate(-550.774 -726.64)" fill="#141414" fill-rule="evenodd"/></g></g><g transform="translate(26.573)"><g transform="translate(2.29 7.469)"><path d="M514.495,627.043c-2.169.879-5.517,7.563-5.517,7.563l-5.783-.89s-2.669,6.94.979,10.588,3.01,2.522,3.479,3.312,2.544,6.158,11.747,6.5,11.075-8.329,11.223-9.242a53.521,53.521,0,0,0,.025-8.684c-.321-1.333-.395-5.367-1.53-6.637-2.472-2.765-11.185-3.907-14.622-2.513" transform="translate(-502.253 -626.448)" fill="#fff" fill-rule="evenodd"/></g><path d="M502.347,593.7c7.257-2.777,27.25,3.031,20.793,10.895,1,1.943,2.36,5.62-.054,8.049.713,7.5-1.3,14.074-8.583,15.64-5.8,1.3-12.01-.8-14.94-5.99-6.884-.456-11.474-17.1-2.872-20.832C495.735,598.564,497.954,595.325,502.347,593.7Zm18.5,12.428a29.088,29.088,0,0,1-15.991.644c-.386,2.883-4.739,6.251-5.379,5.585-.823-.857-.607-1.35-1.736-1.943a2.139,2.139,0,0,0-3,2.289c.065,1.439.6,3.853,3.451,3.853a.447.447,0,0,1,.443.392,12.692,12.692,0,0,0,1.975,5.345c3.7,6.374,15.221,7.791,19.705,1.174C522.981,619.872,522.769,611.979,520.849,606.133Zm-24.3,5.811c.66-.023.66,1.815,0,1.792C495.885,613.759,495.885,611.921,496.545,611.944Z" transform="translate(-492 -593)" fill="#141414" fill-rule="evenodd"/></g><g transform="translate(37.291 16.524)"><path d="M548.048,680.63c.361-1.448,2.159-3.138,3.631-1.991a1.5,1.5,0,0,1,.419.583.41.41,0,0,1-.684.421c-.983-1.045-2.078.368-2.536,1.1A.419.419,0,0,1,548.048,680.63Zm1.908-9.5.029,0a.234.234,0,0,1,.185.213c.156,2.637.68,1.381,1.68,2.953a1.265,1.265,0,0,1-.923,1.688c-.372.1-1,.495-1.176-.031-.077-.46.566-.508.827-.711,1.367-.661-.672-1.139-.823-1.9-.187-.353-.327-2.308.229-2.214Zm-4.281.221a.313.313,0,0,1,.435-.155c.343.221.047.692-.04.975a2.185,2.185,0,0,1-2.349,1.419,1.914,1.914,0,0,1-1.24-.837c-.172-.285-.551-.9-.051-1.069a.355.355,0,0,1,.4.18,1.36,1.36,0,0,0,2.245.344A3.766,3.766,0,0,0,545.675,671.355Zm7.7-.377a.327.327,0,0,1,.366.161c.628.963,1.427,1.381,2.318.422a.413.413,0,0,1,.621.539,1.945,1.945,0,0,1-2.072.912,2.221,2.221,0,0,1-1.462-1.645A.32.32,0,0,1,553.379,670.978Zm-12.969-1.6a4.53,4.53,0,0,1,4.351-1.946,4.265,4.265,0,0,1,.833.176.454.454,0,0,1-.213.878,5.867,5.867,0,0,0-1.39-.081,4.389,4.389,0,0,0-2.964,1.454c-.268.213-.514.912-.937.6C539.8,670.155,540.273,669.669,540.41,669.375Zm12.951-2.244a4.186,4.186,0,0,1,4.787,2,.307.307,0,0,1-.481.366,6.037,6.037,0,0,0-1.167-.964,4.916,4.916,0,0,0-3.651-.364.421.421,0,0,1-.5-.316C552.248,667.293,553,667.244,553.361,667.131Z" transform="translate(-540 -667)" fill="#141414" fill-rule="evenodd"/></g><g transform="translate(39.747 25.233)"><path d="M558.887,709.122a32.735,32.735,0,0,0,5.171.762c2.523.156,1.326-1.48,1.326-1.48a6.234,6.234,0,0,0-3.785-2.364c-1.528-.239-2.154.656-2.643.664-.439.008-2.231-1.469-5.235.126-1.72.913-2.987,2.648-2.674,3.385Q551.364,710.961,558.887,709.122Z" transform="translate(-551 -706)" fill="#141414" fill-rule="evenodd"/></g></g><g transform="translate(432.084 111.762)"><g transform="translate(21.71 5.338)"><path d="M2057.2,533.4c-8.255,0-14.975,5.675-14.975,12.717s6.719,12.717,14.975,12.717h.2a17.589,17.589,0,0,0,2.715-.242l.051-.009.008.015a6.1,6.1,0,0,0,1.8,1.993,7.119,7.119,0,0,0,4.738,1.167.454.454,0,0,0,.181-.853l-.052-.025c-.737-.367-1.15-1.869-1.215-4.086l0-.156.013-.007c4.054-2.347,6.546-6.244,6.546-10.511C2072.173,539.08,2065.453,533.4,2057.2,533.4Zm0,.907c7.784,0,14.067,5.306,14.067,11.81,0,4.008-2.4,7.682-6.33,9.86a.454.454,0,0,0-.233.4v.09a9.176,9.176,0,0,0,.816,4.335l.034.057-.031,0a5.754,5.754,0,0,1-3.032-1.009,5.225,5.225,0,0,1-1.676-1.972.454.454,0,0,0-.492-.245,16.682,16.682,0,0,1-3.123.3c-7.785,0-14.067-5.306-14.067-11.81S2049.414,534.312,2057.2,534.312Z" transform="translate(-2042.224 -533.405)" fill="#141414"/></g><g transform="translate(29.066 16.82)"><path d="M2078.278,586.381a1.555,1.555,0,1,1-1.555-1.554,1.554,1.554,0,0,1,1.555,1.554" transform="translate(-2075.168 -584.827)" fill="#141414" fill-rule="evenodd"/></g><g transform="translate(35.169 16.82)"><path d="M2105.609,586.381a1.555,1.555,0,1,1-1.555-1.554,1.555,1.555,0,0,1,1.555,1.554" transform="translate(-2102.499 -584.827)" fill="#141414" fill-rule="evenodd"/></g><g transform="translate(41.272 16.82)"><path d="M2132.939,586.381a1.555,1.555,0,1,1-1.555-1.554,1.555,1.555,0,0,1,1.555,1.554" transform="translate(-2129.829 -584.827)" fill="#141414" fill-rule="evenodd"/></g><g transform="translate(0 1.139)"><path d="M1945,526.866c0-6.773,6.5-12.264,14.521-12.264s14.521,5.491,14.521,12.264-6.5,12.263-14.521,12.263a17.138,17.138,0,0,1-3.209-.3c-.554,1.129-2.213,3.508-6.265,3.227,1.185-.539,1.5-2.815,1.516-4.93-3.952-2.192-6.563-5.965-6.563-10.256" transform="translate(-1945 -514.602)" fill="#02bad3" fill-rule="evenodd"/></g><g transform="translate(6.731 12.417)"><path d="M1978.254,566.665a1.555,1.555,0,1,1-1.555-1.554,1.555,1.555,0,0,1,1.555,1.554" transform="translate(-1975.144 -565.111)" fill="#fff" fill-rule="evenodd"/></g><g transform="translate(12.834 12.417)"><path d="M2005.584,566.665a1.555,1.555,0,1,1-1.555-1.554,1.554,1.554,0,0,1,1.555,1.554" transform="translate(-2002.474 -565.111)" fill="#fff" fill-rule="evenodd"/></g><g transform="translate(18.937 12.417)"><path d="M2032.915,566.665a1.555,1.555,0,1,1-1.555-1.554,1.554,1.554,0,0,1,1.555,1.554" transform="translate(-2029.805 -565.111)" fill="#fff" fill-rule="evenodd"/></g><g transform="translate(47.487)"><path d="M2159.175,509.8a.454.454,0,0,1,.858.294l-.008.025-1.485,3.95a.454.454,0,0,1-.858-.294l.009-.025Z" transform="translate(-2157.66 -509.502)" fill="#141414"/></g><g transform="translate(50.41 3.7)"><path d="M2174.1,526.172a.454.454,0,0,1,.6.682l-.022.019-3.186,2.611a.454.454,0,0,1-.6-.682l.021-.019Z" transform="translate(-2170.751 -526.069)" fill="#141414"/></g><g transform="translate(52.121 9.111)"><path d="M2182.462,550.309a.453.453,0,0,1,.155.893l-.027,0-3.661.522a.454.454,0,0,1-.155-.893l.026,0Z" transform="translate(-2178.411 -550.304)" fill="#141414"/></g></g><g transform="translate(256.592 274.504)"><g transform="translate(62.322)"><path d="M1474.953,1256.648a18.379,18.379,0,1,1-18.38-18.336,18.358,18.358,0,0,1,18.38,18.336" transform="translate(-1438.194 -1238.312)" fill="#141414" fill-rule="evenodd"/></g><g transform="translate(0 4.604)"><path d="M1159.87,1295.261h54.838V1259.7H1159.87Zm55.224.771h-55.61a.386.386,0,0,1-.386-.385v-36.33a.386.386,0,0,1,.386-.385h55.61a.386.386,0,0,1,.386.385v36.33a.386.386,0,0,1-.386.385Z" transform="translate(-1159.098 -1258.931)" fill="#141414" fill-rule="evenodd"/></g><g transform="translate(15.13 18.301)"><path d="M1282.12,1362.558l-55.263-6.186,4.06-36.1,55.264,6.186Z" transform="translate(-1226.857 -1320.269)" fill="#02bad3" fill-rule="evenodd"/></g></g><g transform="translate(331.301 131.523)"><g transform="translate(0 99.7)"><g transform="translate(0 138.56)"><g transform="translate(17.08 2.354)"><path d="M1589.679,1675.541l-1.8,12.322-17.722,1.831L1572.9,1677Z" transform="translate(-1570.153 -1675.541)" fill="#fff" fill-rule="evenodd"/></g><g transform="translate(16.5 1.786)"><path d="M1568.079,1688.166l17.868-1.754a.475.475,0,0,0,.423-.4l1.824-12.465a.475.475,0,0,0-.94-.137l-1.77,12.1-16.845,1.654,2.688-12.009a.475.475,0,1,0-.927-.207l-2.831,12.649a.475.475,0,0,0,.464.579Z" transform="translate(-1567.558 -1673)" fill="#141414" fill-rule="evenodd"/></g><g transform="translate(0.039 12.351)"><path d="M1529.405,1721.19a.447.447,0,0,0-.512-.33c-.219.04-.5.093-.825.156a56.134,56.134,0,0,1-10.134,1.192h-.01a9.011,9.011,0,0,1-5.77-1.8.448.448,0,0,0-.4-.089c-6.788,1.767-11.692,3.044-15.327,5.468-.639.426-2.942,2.286-2.544,3.6.185.608.841.917,1.95.917,4.052,0,12.781.022,20.482.043,6.231.016,11.613.03,13.639.03a.68.68,0,0,0,.544-.273c.8-1.026-.5-6.58-1.1-8.92" transform="translate(-1493.841 -1720.31)" fill="#ff4b33" fill-rule="evenodd"/></g><g transform="translate(0 21.934)"><path d="M1529.74,1765.685h-35.021a1.054,1.054,0,0,1-1.054-1.054v-.348a1.054,1.054,0,0,1,1.054-1.054h35.021a1.054,1.054,0,0,1,1.054,1.054v.348a1.054,1.054,0,0,1-1.054,1.054" transform="translate(-1493.665 -1763.229)" fill="#141414" fill-rule="evenodd"/></g><g transform="translate(7.619 14.144)"><path d="M1531.165,1730.77a.475.475,0,0,1-.429-.271,1.921,1.921,0,0,0-2.338-1.133.475.475,0,0,1-.285-.906,2.876,2.876,0,0,1,3.48,1.631.475.475,0,0,1-.428.679" transform="translate(-1527.784 -1728.341)" fill="#141414" fill-rule="evenodd"/></g><g transform="translate(11.813 13)"><path d="M1549.946,1725.648a.474.474,0,0,1-.429-.271,1.922,1.922,0,0,0-2.338-1.133.475.475,0,0,1-.284-.906,2.876,2.876,0,0,1,3.479,1.631.475.475,0,0,1-.428.679" transform="translate(-1546.565 -1723.22)" fill="#141414" fill-rule="evenodd"/></g><g transform="translate(37.142)"><path d="M1660,1665" transform="translate(-1660 -1665)" fill="#141414" fill-rule="evenodd"/></g></g><g transform="translate(66.333 140.346)"><g transform="translate(2.077 0.535)"><path d="M1800.027,1675.394l.531,12.451,15.608,1.338-.238-12.5Z" transform="translate(-1800.027 -1675.394)" fill="#fff" fill-rule="evenodd"/></g><g transform="translate(1.592)"><path d="M1814.513,1687.8a.475.475,0,0,0,.475-.484l-.227-12.5a.475.475,0,0,0-.95.017l.218,11.979-14.7-1.23-.524-12.119a.475.475,0,1,0-.949.041l.542,12.537a.475.475,0,0,0,.435.453l15.643,1.309.039,0" transform="translate(-1797.853 -1673)" fill="#141414" fill-rule="evenodd"/></g><g transform="translate(0.176 10.637)"><path d="M1792.862,1721.514a.446.446,0,0,1,.512-.329c.22.04.5.093.825.156a56.12,56.12,0,0,0,10.134,1.192h.01a9.011,9.011,0,0,0,5.77-1.8.448.448,0,0,1,.4-.089c6.788,1.767,11.692,3.044,15.326,5.468.639.426,2.943,2.286,2.544,3.6-.184.608-.84.917-1.95.917-4.052,0-12.781.022-20.482.042-6.231.016-11.613.03-13.639.03a.68.68,0,0,1-.544-.273c-.8-1.026.5-6.58,1.1-8.92" transform="translate(-1791.513 -1720.635)" fill="#ff4b33" fill-rule="evenodd"/></g><g transform="translate(0 20.22)"><path d="M1791.779,1766.008H1826.8a1.054,1.054,0,0,0,1.054-1.054v-.348a1.054,1.054,0,0,0-1.054-1.054h-35.021a1.054,1.054,0,0,0-1.054,1.054v.348a1.054,1.054,0,0,0,1.054,1.054" transform="translate(-1790.725 -1763.552)" fill="#141414" fill-rule="evenodd"/></g><g transform="translate(25.655 12.43)"><path d="M1906.089,1731.094a.474.474,0,0,0,.429-.271,1.922,1.922,0,0,1,2.338-1.133.475.475,0,0,0,.284-.906,2.875,2.875,0,0,0-3.479,1.631.475.475,0,0,0,.428.679" transform="translate(-1905.614 -1728.665)" fill="#141414" fill-rule="evenodd"/></g><g transform="translate(21.461 11.286)"><path d="M1887.307,1725.971a.474.474,0,0,0,.429-.271,1.922,1.922,0,0,1,2.338-1.132.475.475,0,0,0,.285-.906,2.876,2.876,0,0,0-3.479,1.631.475.475,0,0,0,.428.679" transform="translate(-1886.833 -1723.542)" fill="#141414" fill-rule="evenodd"/></g></g><g transform="translate(15.079)"><path d="M1635.226,1045.036l11.672,147.186a253.472,253.472,0,0,1-36.433,0s-2.011-123.021-3.115-123.146c-2.068-.233-12.224,123.146-12.224,123.146-11.479,1.86-22.738,1.293-33.931,0,0,0,8.518-108.994,23.1-147.736,23.045,1.024,50.933.55,50.933.55" transform="translate(-1561.195 -1044.486)" fill-rule="evenodd"/><g transform="translate(60.995 5.285)"><path d="M1834.652,1068.215a.558.558,0,0,1,.752.239c3.7,7.137,11.689,6.462,12.037,6.429a.558.558,0,1,1,.109,1.111c-.016,0-.292.026-.761.026-2.266,0-9.016-.571-12.376-7.052a.558.558,0,0,1,.239-.753" transform="translate(-1834.35 -1068.152)" fill="#fff" fill-rule="evenodd"/></g><g transform="translate(19.721 4.233)"><path d="M1650.107,1070.172c.329.033,8.08.713,11.67-6.429a.533.533,0,0,1,.729-.239.567.567,0,0,1,.231.753c-3.258,6.482-9.8,7.052-12,7.052-.454,0-.723-.025-.738-.026a.554.554,0,0,1-.486-.61.547.547,0,0,1,.591-.5" transform="translate(-1649.514 -1063.442)" fill="#fff" fill-rule="evenodd"/></g></g></g><g transform="translate(18.563 21.437)"><g transform="translate(0 53.592)"><g transform="translate(0.454 0.475)"><path d="M1579.387,993.148a41.684,41.684,0,0,0,1.291-5.235c2.21-14.239,5.53-50.22,5.812-51.787l16.691,3.566s-11.61,47.037-11.508,52.035a29.985,29.985,0,0,1-2.806,13.1c-.568,1.665-2.063,2.716-2.96,2.046-.033,1.063-1.445,1.887-2.073.954-.084.642-.944.753-1.212.739-1.153-.058-1.791-.8-2.485-2.566a24.1,24.1,0,0,1-.75-12.851" transform="translate(-1578.832 -936.126)" fill="#fff" fill-rule="evenodd"/></g><path d="M1577.348,991.37c3.275-12.541,4.461-34.328,6.2-48.5.486-4.824.808-8.011.891-8.476a.475.475,0,1,1,.934.168c-.077.429-.414,3.774-.881,8.4-1.679,13.911-2.99,35.709-6.042,48.013a14.267,14.267,0,0,0-.666,3.772c-.227.947,1.579,7.586,2.708,4.634a12.579,12.579,0,0,0,.436-2.646.475.475,0,0,1,.4-.43,4.125,4.125,0,0,0,3.208-3.453.311.311,0,0,1,.614.089,5,5,0,0,1-3.312,4.221c-.177,1.232-.16,2.7-1.139,3.634-1.219.934-2.405-.514-2.811-1.563.3,2.321,1.061,7.162,3.171,7.207.165.009.685-.075.718-.327a.478.478,0,0,1,.865-.2.406.406,0,0,0,.5.172,1.018,1.018,0,0,0,.7-.875.478.478,0,0,1,.759-.366.651.651,0,0,0,.609.067c.954-.252,1.577-1.647,2.007-2.865a27.979,27.979,0,0,0,2.392-11.957c.334-5.184,10.453-51.2,12.1-52.506a.475.475,0,0,1,.348.575c-.116.47-11.594,47.033-11.494,51.911a28.871,28.871,0,0,1-2.465,12.342c-.586,1.706-1.594,3.69-3.446,3.464a1.771,1.771,0,0,1-2.27,1.044c-5.509,3.262-6.37-11.984-5.038-15.546" transform="translate(-1576.797 -933.999)" fill="#141414" fill-rule="evenodd"/></g><g transform="translate(5.24 15.351)"><g transform="translate(0.447 0.447)"><path d="M1683.3,790.853c-.689.672-3.1,2.8-3.1,2.8l-16.021,11.108,2.719,26.852h-53.345l4.584-25.382a72.745,72.745,0,0,1-15.871-3.6c2.476-14.5,5.23-31.04,22.748-36.948,7.093-.236,25.334-1.262,32.571-.846a28.329,28.329,0,0,1,9.543,4.2C1675.376,774.569,1680.422,784.5,1683.3,790.853Z" transform="translate(-1602.265 -764.746)" fill="#ff4b33" fill-rule="evenodd"/></g><path d="M1618.859,787.894a.447.447,0,1,1,.882.143l-2.705,16.707a.418.418,0,0,1-.023.085l-4.514,24.789h52.538l-2.855-26.331a.447.447,0,0,1,.186-.441l16-11.093c.209-.185,2.016-1.788,2.836-2.557-3.048-6.7-7.983-16.045-15.881-21.329a27.964,27.964,0,0,0-9.358-4.132c-5.492-.311-17.2.2-25.753.573-2.666.116-4.973.217-6.673.274-17.057,5.79-19.885,21.914-22.324,36.2a75.691,75.691,0,0,0,15,3.418ZM1600.3,800.827c2.492-14.6,5.317-31.146,23.014-37.114a.453.453,0,0,1,.128-.023c1.7-.056,4.032-.158,6.73-.276,8.593-.374,20.36-.887,25.881-.57a.46.46,0,0,1,.075.011,28.837,28.837,0,0,1,9.691,4.268c8.2,5.488,13.247,15.179,16.329,21.992a.446.446,0,0,1-.095.5c-.689.672-3.014,2.732-3.113,2.819a.407.407,0,0,1-.042.033l-15.789,10.947,2.895,26.572a.447.447,0,0,1-.441.521H1612a.447.447,0,0,1-.443-.5l4.53-24.928a77.264,77.264,0,0,1-15.515-3.574.447.447,0,0,1-.3-.5Z" transform="translate(-1600.263 -762.746)" fill="#141414" fill-rule="evenodd"/></g><g transform="translate(37.364 24.246)"><g transform="translate(0 6.713)"><path d="M1745.768,860.688l11.477,3.489a2.32,2.32,0,0,0,2.894-1.545l7.145-23.5a2.32,2.32,0,0,0-1.545-2.894l-11.477-3.489a2.319,2.319,0,0,0-2.894,1.545l-7.145,23.5a2.319,2.319,0,0,0,1.545,2.894" transform="translate(-1744.123 -832.646)" fill="#141414" fill-rule="evenodd"/></g><g transform="translate(11.966 10.244)"><path d="M1797.742,849.026a.784.784,0,1,0,.97-.538.784.784,0,0,0-.97.538" transform="translate(-1797.712 -848.457)" fill="#fff" fill-rule="evenodd"/></g><g transform="translate(9.122 9.428)"><path d="M1785,845.373a.784.784,0,1,0,.97-.538.784.784,0,0,0-.97.538" transform="translate(-1784.974 -844.805)" fill="#fff" fill-rule="evenodd"/></g><g transform="translate(2.227)"><path d="M1754.314,812.739l.016-.009,1.963-1.129-1.463-2.307a.454.454,0,0,1-.055-.126.447.447,0,0,1,.318-.546l2.144-.564-.119-3.443a.447.447,0,0,1,.715-.373l2.233,1.674,1.969-3.128a.447.447,0,0,1,.817.156l.69,3.681,3.179-1.116.022-.008a.434.434,0,0,1,.561.53l-.8,2.754a.293.293,0,0,1-.57-.132l.361-2.049-2.95,1.036a.5.5,0,0,1-.066.017.447.447,0,0,1-.521-.357l-.576-3.073-1.621,2.574-.021.03a.447.447,0,0,1-.625.089l-1.874-1.405.1,2.867a.447.447,0,0,1-.333.447l-1.9.5,1.385,2.185.01.016a.447.447,0,0,1-.165.61l-1.855,1.066,1.7,1.652a.325.325,0,0,1-.433.484l-2.3-1.9a.445.445,0,0,1-.1-.119.434.434,0,0,1,.16-.592" transform="translate(-1754.096 -802.582)" fill="#fff" fill-rule="evenodd"/></g></g><g transform="translate(43.519 41.002)"><g transform="translate(0.341 0.455)"><path d="M1773.36,886.99a1.054,1.054,0,0,1,1.651-.3A7.016,7.016,0,0,1,1774,885.4a1.5,1.5,0,0,1,.052-1.721,1.2,1.2,0,0,1,1.859.119l-.55-.665a1.566,1.566,0,0,1-.089-2.167,1.737,1.737,0,0,1,2.244.144c.239.21.948.856.948.856a1.512,1.512,0,0,1,.237-2h0a1.282,1.282,0,0,1,1.721.045c2.171,2.116,4.861,4.331,6.567,5.674,0,0,.6-2.489.928-3.248.3-.707,1.752-1.455,2.114-.258a47.136,47.136,0,0,1,1.031,6.3,34.512,34.512,0,0,0,7.15,4.686c2.809-1.875,16.6-11.9,16.6-11.9,1.216,2.091,14.564,27.533,3.125,31.5-10.554,3.655-22.887-2.772-33.29-11.931a75.223,75.223,0,0,1-10.474-11.192c-.449-.555-1.289-1.808-.809-2.651" transform="translate(-1773.217 -879.66)" fill="#fff" fill-rule="evenodd"/></g><path d="M1772.518,886.641a4.764,4.764,0,0,0,.669,1.122c.586.73,1.156,1.479,1.75,2.2q1.777,2.168,3.726,4.184c1.3,1.346,2.647,2.639,4.034,3.891s2.809,2.467,4.275,3.625a60.88,60.88,0,0,0,9.323,6.16,34.536,34.536,0,0,0,10.453,3.681,21.875,21.875,0,0,0,5.508.212,18.662,18.662,0,0,0,2.714-.454q.669-.162,1.323-.377a7.383,7.383,0,0,0,1.236-.5,5.6,5.6,0,0,0,1.961-1.7,7.071,7.071,0,0,0,1.079-2.41,15.479,15.479,0,0,0,.2-5.444,35.761,35.761,0,0,0-1.111-5.446c-.5-1.793-1.1-3.562-1.76-5.307s-1.39-3.467-2.167-5.167q-.583-1.274-1.2-2.53c-.341-.683-.691-1.371-1.054-2.035l-7.867,5.693-4.151,2.979c-1.183.842-2.36,1.683-3.561,2.511.609.282,1.245.544,1.874.8.887.359,1.782.707,2.679,1.05q2.692,1.024,5.408,1.993a.324.324,0,0,1-.21.613q-2.742-.916-5.464-1.883c-.907-.325-1.814-.655-2.717-1s-1.8-.692-2.7-1.137l-.008,0a.445.445,0,0,1-.056-.037,27.62,27.62,0,0,1-3.646-2.091c-1.2-.818-2.326-1.7-3.456-2.58a.446.446,0,0,1-.168-.3c-.134-1.041-.263-2.074-.414-3.1a24.212,24.212,0,0,0-.594-3.009,1.047,1.047,0,0,0-.1-.26.35.35,0,0,0-.1-.112.3.3,0,0,0-.14-.039.715.715,0,0,0-.231.035,1.35,1.35,0,0,0-.5.29,1.065,1.065,0,0,0-.177.2c-.008.016-.022.033-.027.047l-.012.023-.016.039c-.021.053-.044.1-.064.163-.168.462-.3.969-.44,1.465s-.264,1-.386,1.506a.458.458,0,0,1-.084.173.448.448,0,0,1-.63.075c-1.68-1.325-3.323-2.692-4.917-4.123-.4-.359-.793-.721-1.182-1.091l-.291-.278-.145-.14-.072-.069-.048-.042a.793.793,0,0,0-.466-.18.83.83,0,0,0-.493.127.749.749,0,0,0-.193.168.932.932,0,0,0-.147.233,1,1,0,0,0,.051,1.018.451.451,0,0,1,.059.081c.2.222.405.444.617.663q.352.364.714.723c.481.479.971.953,1.462,1.422l0,0a.329.329,0,0,1-.441.488c-.523-.444-1.04-.891-1.554-1.346q-.385-.341-.766-.691c-.232-.214-.461-.43-.689-.661a.471.471,0,0,1-.042-.031l-.014-.012-.644-.583-.316-.285a1.4,1.4,0,0,0-.276-.182,1.675,1.675,0,0,0-.656-.179.963.963,0,0,0-.564.113.338.338,0,0,0-.077.065c-.025.031-.068.083-.1.125a1.274,1.274,0,0,0-.143.279,1.024,1.024,0,0,0-.018.6,1.424,1.424,0,0,0,.329.577l.562.681c.008.01.014.022.022.032.587.626,1.21,1.244,1.828,1.858l1.93,1.887,0,0a.348.348,0,0,1-.478.506l-2-1.821c-.656-.606-1.31-1.207-1.954-1.847l-.015-.012h0a1.489,1.489,0,0,0-.427-.308.667.667,0,0,0-.408-.054.727.727,0,0,0-.363.222.673.673,0,0,0-.174.38,1.179,1.179,0,0,0,.038.5,1.752,1.752,0,0,0,.245.506,6.778,6.778,0,0,0,.806.982c.008.008.017.014.024.022l0,0,2.358,2.589,0,0a.352.352,0,0,1-.507.487l-2.459-2.422c-.009-.008-.018-.014-.026-.022l-.011-.011h0a.564.564,0,0,0-.2-.14.59.59,0,0,0-.28-.04.747.747,0,0,0-.311.1.708.708,0,0,0-.237.243,1.268,1.268,0,0,0,.047,1.068m-.639-1.4a1.681,1.681,0,0,1,.405-.478,1.579,1.579,0,0,1,.443-.258c-.055-.077-.111-.153-.164-.234a2.659,2.659,0,0,1-.358-.751,2.078,2.078,0,0,1-.063-.882,1.575,1.575,0,0,1,.412-.867,1.62,1.62,0,0,1,.823-.48c.024-.006.049-.009.073-.013a2.061,2.061,0,0,1-.145-.372,2.1,2.1,0,0,1-.068-.562,2.058,2.058,0,0,1,.1-.562,2.2,2.2,0,0,1,.251-.5c.054-.078.1-.14.17-.22a1.241,1.241,0,0,1,.255-.218,1.842,1.842,0,0,1,1.112-.261,2.58,2.58,0,0,1,1.018.276,2.313,2.313,0,0,1,.439.289,2.1,2.1,0,0,1,.153-.468,1.809,1.809,0,0,1,.685-.792,1.747,1.747,0,0,1,1.029-.264,1.709,1.709,0,0,1,1,.39l.1.091.071.069.142.137.286.274c.382.364.772.722,1.164,1.077,1.4,1.262,2.848,2.477,4.322,3.657.2-.792.412-1.576.682-2.383.021-.064.048-.134.075-.2l.02-.051.03-.066c.02-.045.044-.083.067-.124a1.973,1.973,0,0,1,.324-.4,2.258,2.258,0,0,1,.837-.508,1.645,1.645,0,0,1,.539-.087,1.25,1.25,0,0,1,.606.167,1.448,1.448,0,0,1,.613.922,24.812,24.812,0,0,1,.594,3.14c.137.981.245,1.961.37,2.934,1.079.837,2.152,1.675,3.263,2.433a26.58,26.58,0,0,0,3.43,1.974c1.323-.9,2.641-1.847,3.955-2.783l4.147-2.977,8.273-5.987.005,0c.013-.009.027-.018.041-.026a.442.442,0,0,1,.6.167c.476.84.9,1.674,1.318,2.522s.823,1.7,1.214,2.557c.782,1.717,1.514,3.457,2.182,5.224s1.273,3.559,1.778,5.385a36.618,36.618,0,0,1,1.13,5.582,20.927,20.927,0,0,1,.141,2.87,12.94,12.94,0,0,1-.371,2.883,7.924,7.924,0,0,1-1.217,2.7,6.467,6.467,0,0,1-2.259,1.953,8.255,8.255,0,0,1-1.369.557q-.685.224-1.385.393a19.538,19.538,0,0,1-2.837.471,22.725,22.725,0,0,1-5.719-.227,35.349,35.349,0,0,1-10.7-3.78,61.666,61.666,0,0,1-9.442-6.254,80.52,80.52,0,0,1-8.345-7.635q-1.946-2.055-3.725-4.262l-1.752-2.214a5.407,5.407,0,0,1-.764-1.292,2.641,2.641,0,0,1-.189-.784,1.535,1.535,0,0,1,.184-.871" transform="translate(-1771.69 -877.62)" fill="#141414" fill-rule="evenodd"/></g><g transform="translate(28.433)"><g transform="translate(0.447 0.447)"><path d="M1728.641,696s.02,7.9.02,11.894c0,2.942,5.617,2.355,10.043,3.556-2.564,4.441-7.73,8.454-16.3,8.455h0c-8.572,0-13.7-3.167-16.267-7.608,4.5-1.723,10.007-1.46,10.007-4.4,0-4,.019-11.894.019-11.894Z" transform="translate(-1706.131 -696)" fill="#fff" fill-rule="evenodd"/></g><path d="M1714.6,694a.446.446,0,0,0-.446.412l-.005,1.666-.016,10.022v.24c0,1.232-1.1,1.823-4.308,2.546l-1.629.361-.295.067c-.478.11-.894.212-1.3.318a21.36,21.36,0,0,0-2.192.694.447.447,0,0,0-.227.64c2.857,4.949,8.4,7.774,16.41,7.831h.248c7.86,0,13.605-3.337,16.689-8.678a.447.447,0,0,0-.27-.654,22.53,22.53,0,0,0-2.258-.475l-.184-.03c-.306-.049-.625-.1-.988-.147l-1.577-.214c-3.551-.5-4.706-1-4.706-2.26l-.01-7.807-.009-4.087a.447.447,0,0,0-.893,0l.019,11.142v.751a2.479,2.479,0,0,0,1.811,2.341l.077.031a15.021,15.021,0,0,0,3.566.769l1.46.2.4.056c.253.036.486.071.711.107.6.1,1.136.2,1.632.307l.14.032-.056.089c-2.969,4.665-8.2,7.571-15.327,7.632h-.229c-7.529,0-12.734-2.47-15.541-6.83l-.062-.1.15-.051c.393-.132.809-.257,1.255-.378l.193-.052.238-.062c.36-.092.74-.183,1.175-.282l1.664-.369a14.08,14.08,0,0,0,3.494-1.085,2.589,2.589,0,0,0,1.623-2.357l.011-8.164.008-3.729A.447.447,0,0,0,1714.6,694Z" transform="translate(-1704.13 -694)" fill="#141414" fill-rule="evenodd"/></g></g><g transform="translate(48.225)"><g transform="translate(2.284 5.743)"><path d="M1729.939,623.783c5.359-.447,11.388,1.563,14.068,4.243,1.514,1.514,3.894,4.785,4.243,7.592a7.162,7.162,0,0,1-1.34,5.806c-2.418,3.8-9.089,13.079-18.277,10.846s-9.188-8.39-8.519-16.652S1724.58,624.23,1729.939,623.783Z" transform="translate(-1719.86 -623.721)" fill="#fff" fill-rule="evenodd"/></g><path d="M1740.743,614.875c-1.262-13.109-9.418-17.605-15.506-16.78a6.22,6.22,0,0,0-2.025.9c-3.529-.1-7.614,1.275-10.246,6.807-2.557,5.375-1.586,16.657-1.726,27.1a130.682,130.682,0,0,1-1.606,17.017h9.562l.345-17.088a4.369,4.369,0,0,0,.668.1,24.107,24.107,0,0,0,3.365.248,17.685,17.685,0,0,0,4.9-.575,132.556,132.556,0,0,0,.361,17.311h12.813l-.7-29.147c0-.74,0-1.506-.021-2.294a5.478,5.478,0,0,0,.279-1.534A3.916,3.916,0,0,0,1740.743,614.875Zm-18.926-10c2.094,3.646,8.294,9.857,13.958,10.03h.014a.425.425,0,0,0,.061,0,5.3,5.3,0,0,0,1.295-.332.48.48,0,0,0,.077-.019,3.1,3.1,0,0,1,1.1-.226,1.8,1.8,0,0,1,1.074.328,2.617,2.617,0,0,1,.917,2.253,3.15,3.15,0,0,1-3.52,3.318.447.447,0,0,0-.446.421,12.876,12.876,0,0,1-4.326,8.966c-2.828,2.315-6.761,3.137-11.69,2.442a7.634,7.634,0,0,1-5.436-3.3c-2.234-3.237-2.756-8.673-1.461-15a.431.431,0,0,0,.037-.085C1714.533,609.8,1717.583,605.459,1721.817,604.878Zm16.557,11.115c-.393-.078-1.027.112-.979,1.036a.863.863,0,0,0,1.431.687C1739.362,617.328,1738.814,616.081,1738.375,615.993Z" transform="translate(-1709.633 -598.001)" fill="#141414" fill-rule="evenodd"/></g><g transform="translate(55.433 14.068)"><path d="M1751.925,673.926a.559.559,0,0,0-.79.04.526.526,0,0,0-.035.043,1.179,1.179,0,0,1-.086.1c-.035.037-.076.074-.114.111-.081.073-.167.143-.257.209a3.506,3.506,0,0,1-.581.346,4.072,4.072,0,0,1-1.328.374,4.93,4.93,0,0,1-2.8-.4h0l0,0a.3.3,0,0,0-.294.521,5.047,5.047,0,0,0,1.526.638,5.926,5.926,0,0,0,1.648.163,5.035,5.035,0,0,0,1.663-.359,4.542,4.542,0,0,0,.774-.4q.185-.118.361-.257c.058-.048.116-.094.173-.147a2.135,2.135,0,0,0,.183-.182h0l0-.005A.559.559,0,0,0,1751.925,673.926Zm-3.641-9a.315.315,0,0,0-.307.295h0v0c-.044.724-.095,1.453-.162,2.169a10.422,10.422,0,0,1-.146,1.042c-.012.058-.027.112-.041.159a3.85,3.85,0,0,0-.511.251,2.167,2.167,0,0,0-.524.43,1.531,1.531,0,0,0-.343.67,1.864,1.864,0,0,0-.017.718,1.46,1.46,0,0,0,.312.694,1.568,1.568,0,0,0,.594.436,2.317,2.317,0,0,0,.641.161,3.335,3.335,0,0,0,.618.01,2.019,2.019,0,0,0,.308-.04,1.531,1.531,0,0,0,.3-.1.312.312,0,0,0-.047-.59h0l-.121-.03a1.11,1.11,0,0,0-.237,0c-.091.006-.15.01-.238.011a2.639,2.639,0,0,1-.476-.037,1.106,1.106,0,0,1-.689-.347.611.611,0,0,1-.117-.3.971.971,0,0,1,.024-.372,1.048,1.048,0,0,1,.484-.556,3.006,3.006,0,0,1,.422-.234h0l.057-.027.035-.016a.533.533,0,0,0,.1-.063.673.673,0,0,0,.061-.059h0l.037-.047a.827.827,0,0,0,.114-.242,2.408,2.408,0,0,0,.072-.324,11,11,0,0,0,.1-1.138c.036-.743.037-1.477.02-2.216A.315.315,0,0,0,1748.284,664.922Zm7.547,1.165a1.047,1.047,0,1,0-.866,1.29A1.1,1.1,0,0,0,1755.831,666.087Zm-11.882-1.378a1.159,1.159,0,1,0,.866,1.29A1.1,1.1,0,0,0,1743.949,664.71Zm8.868-3.137a.67.67,0,1,0-.121,1.335l.046,0h.01c.788.015,1.525-.086,2.187-.084a3.639,3.639,0,0,1,.949.114,7.187,7.187,0,0,1,.908.338h0l.016.007a.379.379,0,0,0,.427-.6,2.815,2.815,0,0,0-1.022-.689,4.7,4.7,0,0,0-1.2-.3c-.4-.05-.782-.056-1.147-.07S1753.154,661.6,1752.817,661.572Zm-7.375-.543a5.889,5.889,0,0,0-1.229,0,3.534,3.534,0,0,0-1.236.356,3.047,3.047,0,0,0-.972.8.426.426,0,0,0,.591.6h0l.006,0a2.792,2.792,0,0,1,1.69-.66,4.1,4.1,0,0,1,.963.122,7.846,7.846,0,0,1,.985.3.7.7,0,1,0,.485-1.314.77.77,0,0,0-.12-.033C1746.224,661.131,1745.839,661.068,1745.442,661.029Z" transform="translate(-1741.911 -661)" fill="#141414" fill-rule="evenodd"/></g></g></g><g transform="translate(267.385 137.62)"><g transform="translate(0 102.689)"><g transform="translate(0 91.041)"><g transform="translate(16.986)"><g transform="translate(0.475 0.475)"><path d="M1240.842,1454.706l.6,61.022c4.442,1.5,10.276,1.286,16.554.531l3.667-61.443" transform="translate(-1240.842 -1454.706)" fill="#fff" fill-rule="evenodd"/></g><path d="M1248.047,1515.666a70.95,70.95,0,0,0,8.36-.587.475.475,0,0,0,.417-.443l3.667-61.443a.475.475,0,1,0-.948-.057l-3.643,61.046c-4.912.576-10.993,1-15.633-.453l-.6-60.681a.475.475,0,1,0-.95.01l.6,61.022a.475.475,0,0,0,.323.445,26.817,26.817,0,0,0,8.4,1.139" transform="translate(-1238.716 -1452.579)" fill="#141414" fill-rule="evenodd"/></g><g transform="translate(0 59.734)"><g transform="translate(0.039)"><path d="M1198.386,1720.963a.447.447,0,0,0-.511-.33c-.22.04-.5.093-.825.156a56.087,56.087,0,0,1-10.134,1.192h-.01a9.011,9.011,0,0,1-5.77-1.8.448.448,0,0,0-.4-.089c-6.788,1.767-11.692,3.044-15.326,5.468-.639.426-2.943,2.286-2.544,3.6.185.608.841.917,1.95.917,4.052,0,12.781.022,20.482.043,6.231.016,11.613.03,13.639.03a.68.68,0,0,0,.544-.273c.8-1.026-.5-6.58-1.1-8.92" transform="translate(-1162.822 -1720.083)" fill="#1cd28f" fill-rule="evenodd"/></g><g transform="translate(0 9.584)"><path d="M1198.721,1765.458H1163.7a1.054,1.054,0,0,1-1.054-1.054v-.348A1.054,1.054,0,0,1,1163.7,1763h35.022a1.054,1.054,0,0,1,1.054,1.054v.348a1.054,1.054,0,0,1-1.054,1.054" transform="translate(-1162.646 -1763.002)" fill="#141414" fill-rule="evenodd"/></g><g transform="translate(7.619 1.793)"><path d="M1200.146,1730.542a.474.474,0,0,1-.429-.271,1.922,1.922,0,0,0-2.338-1.132.475.475,0,0,1-.284-.906,2.876,2.876,0,0,1,3.479,1.631.475.475,0,0,1-.428.679" transform="translate(-1196.765 -1728.113)" fill="#141414" fill-rule="evenodd"/></g><g transform="translate(11.813 0.649)"><path d="M1218.927,1725.42a.474.474,0,0,1-.429-.271,1.922,1.922,0,0,0-2.338-1.133.475.475,0,0,1-.285-.906,2.876,2.876,0,0,1,3.479,1.631.475.475,0,0,1-.428.679" transform="translate(-1215.546 -1722.992)" fill="#141414" fill-rule="evenodd"/></g></g></g><g transform="translate(47.01 90.493)"><g transform="translate(8.366)"><g transform="translate(0.475)"><path d="M1412.763,1450.908l9.537,60.129c4.442,1.5,10.276,1.286,16.554.531l-4.819-61.443" transform="translate(-1412.763 -1450.126)" fill="#fff" fill-rule="evenodd"/></g><g transform="translate(0 0.642)"><path d="M1428.9,1515.976a71.029,71.029,0,0,0,8.36-.586.475.475,0,0,0,.417-.509l-4.819-61.443a.475.475,0,0,0-.947.074l4.783,60.988c-4.918.574-11,.988-15.622-.475l-9.492-59.842a.475.475,0,0,0-.938.149l9.537,60.129a.475.475,0,0,0,.318.375,26.819,26.819,0,0,0,8.4,1.139" transform="translate(-1410.636 -1453)" fill="#141414" fill-rule="evenodd"/></g></g><g transform="translate(0 60.281)"><g transform="translate(0.039)"><path d="M1408.911,1720.963a.447.447,0,0,0-.512-.33c-.22.04-.5.093-.825.156a56.089,56.089,0,0,1-10.134,1.192h-.01a9.011,9.011,0,0,1-5.77-1.8.448.448,0,0,0-.4-.089c-6.788,1.767-11.692,3.044-15.326,5.468-.639.426-2.942,2.286-2.544,3.6.185.608.841.917,1.95.917,4.052,0,12.781.022,20.482.043,6.231.016,11.613.03,13.639.03a.68.68,0,0,0,.544-.273c.8-1.026-.5-6.58-1.1-8.92" transform="translate(-1373.347 -1720.083)" fill="#1cd28f" fill-rule="evenodd"/></g><g transform="translate(0 9.584)"><path d="M1409.246,1765.458h-35.022a1.054,1.054,0,0,1-1.054-1.054v-.348a1.054,1.054,0,0,1,1.054-1.054h35.022a1.054,1.054,0,0,1,1.054,1.054v.348a1.054,1.054,0,0,1-1.054,1.054" transform="translate(-1373.171 -1763.002)" fill="#141414" fill-rule="evenodd"/></g><g transform="translate(7.619 1.793)"><path d="M1410.671,1730.542a.474.474,0,0,1-.429-.271,1.922,1.922,0,0,0-2.338-1.132.475.475,0,0,1-.284-.906,2.876,2.876,0,0,1,3.479,1.631.475.475,0,0,1-.428.679" transform="translate(-1407.29 -1728.113)" fill="#141414" fill-rule="evenodd"/></g><g transform="translate(11.813 0.649)"><path d="M1429.452,1725.42a.474.474,0,0,1-.429-.271,1.922,1.922,0,0,0-2.338-1.133.475.475,0,0,1-.284-.906,2.876,2.876,0,0,1,3.479,1.631.475.475,0,0,1-.429.679" transform="translate(-1426.071 -1722.992)" fill="#141414" fill-rule="evenodd"/></g></g></g><g transform="translate(11.953)"><path d="M1277.888,1045c1.314,2.936,16.109,32.6,14.156,92.341-30.361,4.535-64.8,4.019-75.87.367-.1-21.357,13.408-92.842,13.408-92.842Z" transform="translate(-1216.174 -1044.871)" fill="#141414" fill-rule="evenodd"/><g transform="translate(10.769 0.284)" opacity="0.8"><path d="M1295.725,1046.268l-.034,0a.475.475,0,0,0-.421.523c.055.515,5.507,52.039,3.184,94.137a.475.475,0,0,0,.448.5h.027a.475.475,0,0,0,.474-.449c2.327-42.176-3.132-93.774-3.188-94.291a.475.475,0,0,0-.523-.421Zm-13.446.034a.475.475,0,0,0-.475.471c0,.513-.4,51.748-2.722,93.874a.476.476,0,0,0,.448.5h.027a.475.475,0,0,0,.474-.449c2.326-42.149,2.72-93.407,2.724-93.92a.476.476,0,0,0-.472-.478h0Zm25.392.209a.475.475,0,1,0-.924.218c.119.5,11.843,50.721,9.523,92.787a.476.476,0,0,0,.448.5h.027a.475.475,0,0,0,.474-.449C1319.546,1097.363,1307.79,1047.014,1307.671,1046.511Zm-35.434-.363a.474.474,0,0,0-.519.425c-.05.5-4.992,50.536-7.318,92.684a.475.475,0,0,0,.448.5h.027a.475.475,0,0,0,.474-.449c2.324-42.127,7.265-92.142,7.314-92.642A.475.475,0,0,0,1272.237,1046.147Z" transform="translate(-1264.4 -1046.145)" fill="#fff" fill-rule="evenodd"/></g></g></g><g transform="translate(0.83 28.136)"><g transform="translate(0 11.611)"><g transform="translate(0.421 0.414)"><path d="M1183.075,770.02c-.5-1.307-2.625.589-3,3.161-.421-2.322-1.4-7.937-3.113-8.287-1.732-.353-1.633,3.026-1.633,3.026-.715-1.574-1.466-3.576-2.615-2.949-1.238.676-.271,3.644-.271,3.644-1.087-1.782-1.645-2.034-2.372-1.6-1.164.7,0,3.435,0,3.435-.856-.935-2.507-.633-1.509,2.916a69.794,69.794,0,0,1,2.8,21.224c-.055,1.283,8.344,5.747,15.974,5.672-3.308-13.254-3.619-28.552-4.263-30.244" transform="translate(-1168.249 -764.852)" fill="#fff" fill-rule="evenodd"/></g><path d="M1185.554,795.526c-2.13-9.731-2.7-20.738-3.545-27.1-.925-1.667-2.54-.083-3.3,1.523-.711-3.563-1.618-6.608-3.123-6.915-1.146-.255-1.8.8-1.993,1.817-1.051-2.731-3.632-2.321-3.384.581a1.361,1.361,0,0,0-1.818-.221c-.94.566-.784,1.95-.526,2.93-1.294.011-1.928.94-1.178,3.9a69.446,69.446,0,0,1,2.831,19.64c2.595,3.311-.97-17.824-2.012-19.87-.58-2.151-.291-3.415.751-2.547l1.309,2.577a.306.306,0,0,0,.554-.254s-1.124-2.739-1.124-2.743c-.33-.782-.806-2.52-.167-2.9.322-.194.655-.394,1.765,1.416l1.351,3.842a.333.333,0,0,0,.632-.206c-.269-1.5-2.4-5.943-1.122-7.091.925-.332,1.493,1.763,2.015,2.732l1.282,3.8a.325.325,0,0,0,.621-.192l-1.082-3.826c.045-.86.056-2.656,1.123-2.547,1.391.284,2.413,5.924,2.748,7.778a2.3,2.3,0,0,1-.532,1.213c-1.363.9-2.61,2.61-2.184,4.322a.225.225,0,0,0,.437-.1.592.592,0,0,1-.027-.3c.044-.114.154-2.183,1.627-2.916.392-.195.876-.373,1.07-.77a3.806,3.806,0,0,0,.479-1.293c.218-1.739,1.715-3.692,2.18-3.071.731,6.335,1.41,17.234,3.507,26.968a.426.426,0,0,0,.833-.175" transform="translate(-1166.365 -763)" fill="#141414" fill-rule="evenodd"/></g><g transform="translate(2.684 7.983)"><path d="M1254.989,762.172c7.557,15.986,7.44,36.795,2.906,43.865-2.123,3.311-6.565,4.412-8.647,4.257l3.325,3.973-55.551,1.116s1.08-5.669,1.486-7.382c-3.031.751-6.525.754-8.974-1.389-7.9-6.909-10.6-25.349-11.152-29.841,6.705-1.747,15.675-4.305,15.675-4.305l1.687,5.027s.2-12.13,4.824-19.3c4.063-6.305,9.6-10.049,20.1-11.165S1248.1,747.6,1254.989,762.172Z" transform="translate(-1178.383 -746.75)" fill="#1cd28f" fill-rule="evenodd"/><g transform="translate(19.879 20.21)"><path d="M1268.651,868.035l.651-5.11.682-5.106.682-5.106c.235-1.7.468-3.4.719-5.1.5-3.4,1.025-6.792,1.62-10.177a.22.22,0,0,1,.437.06c-.333,3.42-.738,6.831-1.165,10.239-.212,1.7-.444,3.405-.673,5.107l-.71,5.1-.71,5.1-.742,5.1q-.737,5.1-1.543,10.187a.247.247,0,0,1-.489-.067q.587-5.119,1.241-10.228" transform="translate(-1267.408 -837.254)" fill="#141414" fill-rule="evenodd"/></g></g><g transform="translate(29.183 27.212)"><path d="M1303.7,883.485l30.033-3.273a1.669,1.669,0,0,0,1.478-1.84l-4.8-44.023a1.669,1.669,0,0,0-1.84-1.478l-30.033,3.273a1.668,1.668,0,0,0-1.478,1.839l4.8,44.024a1.668,1.668,0,0,0,1.839,1.478" transform="translate(-1297.054 -832.862)" fill="#141414" fill-rule="evenodd"/></g><g transform="translate(29.019 37.376)"><g transform="translate(0.445 0.429)"><path d="M1324.808,906.655a67.847,67.847,0,0,1-12.97-6.329,75.228,75.228,0,0,1-12.216-9.26c-.536-.471-1.576-1.564-1.246-2.476a1.054,1.054,0,0,1,1.577-.579,7.012,7.012,0,0,1-1.219-1.1,1.5,1.5,0,0,1-.24-1.705,1.2,1.2,0,0,1,1.852-.2l-.655-.563a1.566,1.566,0,0,1-.454-2.12,1.737,1.737,0,0,1,2.236-.238c.271.167,1.079.684,1.079.684a1.512,1.512,0,0,1-.1-2.008,1.283,1.283,0,0,1,1.7-.246c2.5,1.718,5.524,3.447,7.432,4.482,0,0,.173-2.555.365-3.358.179-.748,1.481-1.731,2.04-.611a47.085,47.085,0,0,1,2.082,6.037,48.828,48.828,0,0,0,10.456,4.57" transform="translate(-1298.313 -880.302)" fill="#fff" fill-rule="evenodd"/></g><path d="M1296.334,887.252a1.615,1.615,0,0,1,.838-1.186h0c-.052-.052-.1-.1-.156-.157a2.641,2.641,0,0,1-.479-.68,2.074,2.074,0,0,1-.21-.858,1.571,1.571,0,0,1,.26-.921,1.62,1.62,0,0,1,.728-.61c.028-.011.057-.017.086-.026a1.9,1.9,0,0,1-.366-1.458,2.167,2.167,0,0,1,.163-.529c.04-.085.077-.154.13-.244a1.241,1.241,0,0,1,.212-.254,1.825,1.825,0,0,1,1.043-.44,2.561,2.561,0,0,1,1.042.1,2.288,2.288,0,0,1,.491.217l.022.014a2.081,2.081,0,0,1,.072-.519,1.786,1.786,0,0,1,.534-.884,1.718,1.718,0,0,1,.955-.427,1.68,1.68,0,0,1,1.031.213l.114.071.082.056.164.111.328.222c.439.294.883.581,1.329.865,1.608,1.017,3.256,1.979,4.924,2.9.025-.307.047-.614.077-.921.052-.526.1-1.045.2-1.588.01-.067.026-.139.042-.21l.011-.054.019-.068c.012-.047.03-.087.045-.13a1.906,1.906,0,0,1,.251-.433,2.211,2.211,0,0,1,.729-.622,1.59,1.59,0,0,1,.5-.168,1.188,1.188,0,0,1,.595.063,1.4,1.4,0,0,1,.727.774,24.889,24.889,0,0,1,1.123,2.984c.3.948.585,1.9.873,2.843,1.633.871,3.244,1.77,4.913,2.521a52.271,52.271,0,0,0,5.308,2,.34.34,0,0,1-.2.649,46.248,46.248,0,0,1-5.415-1.954c-1.764-.778-3.449-1.69-5.129-2.586a.405.405,0,0,1-.2-.237c-.31-1-.6-2-.925-2.989a24.134,24.134,0,0,0-1.088-2.876,1.1,1.1,0,0,0-.145-.253.372.372,0,0,0-.143-.112.523.523,0,0,0-.414.069,1.407,1.407,0,0,0-.451.39,1.106,1.106,0,0,0-.142.242c-.006.019-.015.038-.019.055l-.008.027-.009.042c-.011.057-.024.112-.033.174-.156.987-.232,2.045-.308,3.073v0a.418.418,0,0,1-.616.334c-1.879-1.02-3.73-2.089-5.543-3.229-.452-.286-.9-.576-1.349-.874l-.334-.225-.167-.113-.083-.056-.056-.034a.82.82,0,0,0-.506-.1.854.854,0,0,0-.479.216.782.782,0,0,0-.167.2.96.96,0,0,0-.107.261,1.062,1.062,0,0,0,.186.974.44.44,0,0,1,.059.04c.251.206.523.408.794.607s.548.4.826.592c.555.39,1.118.775,1.681,1.154h0a.329.329,0,0,1-.352.556c-.591-.349-1.176-.7-1.759-1.064q-.437-.271-.872-.551c-.29-.188-.578-.377-.867-.588l-.021-.016a.44.44,0,0,1-.035-.035l-.652-.412-.36-.227a1.418,1.418,0,0,0-.307-.134,1.688,1.688,0,0,0-.684-.065.977.977,0,0,0-.546.213.35.35,0,0,0-.067.08c-.02.036-.053.095-.074.142a1.281,1.281,0,0,0-.094.3,1.039,1.039,0,0,0,.086.6,1.435,1.435,0,0,0,.426.516l.642.55c.7.534,1.443,1.052,2.177,1.568l2.221,1.533,0,0a.348.348,0,0,1-.385.579l-2.283-1.456c-.759-.493-1.514-.98-2.266-1.51l-.013-.01c-.01-.007-.017-.016-.026-.024a1.453,1.453,0,0,0-.423-.2.671.671,0,0,0-.415.017.734.734,0,0,0-.322.283.683.683,0,0,0-.106.407,1.19,1.19,0,0,0,.124.491,1.778,1.778,0,0,0,.329.457,6.782,6.782,0,0,0,.961.831c.009.006.019.011.028.018l0,0,2.762,2.153,0,0a.352.352,0,0,1-.418.565l-2.833-1.971c-.01-.006-.02-.01-.03-.017l-.012-.009h0a.5.5,0,0,0-.547-.019.727.727,0,0,0-.371.518,1.269,1.269,0,0,0,.2.753,4,4,0,0,0,.591.769q.174.182.363.348l.408.365.8.725q.8.722,1.623,1.417,1.643,1.392,3.372,2.679c1.149.863,2.342,1.665,3.542,2.455.3.2.594.4.89.608s.606.387.909.58q.913.574,1.842,1.121c1.238.731,2.493,1.431,3.769,2.089s2.57,1.28,3.881,1.862c.656.288,1.315.572,1.981.836.332.136.667.263,1,.39a4.983,4.983,0,0,1,.975.467l.008.006a.349.349,0,0,1-.233.637,4.487,4.487,0,0,1-1.063-.272c-.341-.127-.683-.254-1.021-.389-.679-.263-1.35-.546-2.019-.834-1.335-.582-2.642-1.222-3.933-1.891s-2.558-1.383-3.807-2.125-2.466-1.535-3.705-2.294a82.918,82.918,0,0,1-6.966-5.244q-.832-.705-1.642-1.434l-.805-.727-.4-.357c-.145-.127-.285-.261-.419-.4a4.869,4.869,0,0,1-.723-.948,2.127,2.127,0,0,1-.311-1.313" transform="translate(-1296.321 -878.379)" fill="#141414" fill-rule="evenodd"/></g><g transform="translate(44.938 43.583)"><g transform="translate(0.476 1.878)"><path d="M1397.81,940.5c-14.567-1.273-28.071-9-28.071-9l8.988-16.9s9.568,3.718,15.884,4.374" transform="translate(-1369.74 -914.588)" fill="#1cd28f" fill-rule="evenodd"/></g><g transform="translate(22.148 0.346)"><line x2="0.113" y2="5.279" fill="none"/></g><path d="M1367.666,924.738v0l8.988-16.9a.476.476,0,0,1,.591-.22h0c1.269.5,2.562.966,3.856,1.413s2.6.871,3.912,1.263,2.632.756,3.963,1.068c.14.033.281.063.421.094l.007-4.921a.354.354,0,0,1,.708-.015l.227,5.138c.881.179,1.766.331,2.653.434h0a.344.344,0,0,1-.074.683,36.267,36.267,0,0,1-4.113-.68c-1.354-.295-2.694-.641-4.025-1.017s-2.651-.782-3.965-1.211c-1.181-.388-2.351-.791-3.521-1.221l-8.572,16.122c2,1.1,4.094,2.1,6.2,3.029,2.256.982,4.552,1.876,6.883,2.662a72.253,72.253,0,0,0,7.1,2.012,57.125,57.125,0,0,0,7.273,1.188h0a.307.307,0,0,1-.057.612,57.765,57.765,0,0,1-7.371-1.118,72.958,72.958,0,0,1-7.192-1.951c-2.363-.767-4.69-1.643-6.979-2.609s-4.535-2.017-6.737-3.219a.473.473,0,0,1-.184-.633" transform="translate(-1367.61 -906.177)" fill="#141414" fill-rule="evenodd"/></g><g transform="translate(36.527)"><g transform="translate(4.621 0.434)"><path d="M1363.98,712.943a39.675,39.675,0,0,0-.17,5.578c.249,1.58,1.366,1.8,2.259,2.473-1.477,4.136-6.826,6.9-11.283,7.579-.964.146-4.452-3.328-4.125-7.133a12.2,12.2,0,0,0,.223-2.9l-.138-5" transform="translate(-1350.639 -712.943)" fill="#fff" fill-rule="evenodd"/></g><g transform="translate(0.392 8.485)"><path d="M1339.543,756.242A67.834,67.834,0,0,0,1351.356,749c.969,6.223-1.682,22.923-11.734,8.482,0,0-5.028,5.531-6.641,4.255-4.054-3.206,2.786-12.226,2.786-12.226C1336.312,753.336,1339.543,756.242,1339.543,756.242Z" transform="translate(-1331.697 -749)" fill="#ffc81a" fill-rule="evenodd"/></g><path d="M1337.929,727.666a.451.451,0,0,1,.708.063c7.836,11.585,11.8,2.214,11.131-7.829a45.339,45.339,0,0,1-11.433,7.246c-1.394-.2-3.668-4.083-4.16-6.049a20.053,20.053,0,0,0-2.278,3.995c-1.032,2.278-1.869,5.3,0,6.782C1332.514,732.362,1335,730.893,1337.929,727.666Zm-3.7-15.629a.447.447,0,0,1,.893-.025l.176,6.482c-1.046,2.931,2.3,7.07,2.988,7.711a41.82,41.82,0,0,0,10.6-6.72,2.636,2.636,0,0,1-1.588-2.449c-.074-1.373.159-5.455.17-5.629a.446.446,0,0,1,.891.051c0,.042-.241,4.207-.17,5.529.125,1.268,1.808,1.627,2.211,2.434,1.312,7.968-2.037,22.766-12.188,9.262-1.409,1.487-5.21,5.2-6.862,3.89-4.348-3.439,2.826-13.091,2.853-13.118C1334.794,718.855,1334.186,712.905,1334.225,712.037Z" transform="translate(-1329.943 -711)" fill="#141414" fill-rule="evenodd"/></g></g><g transform="translate(30.609)"><g transform="translate(8.321 6.476)"><path d="M1347.426,614c7.815,0,13.621,5.806,14.738,11.165,2.456,0,4.243,1.563,4.243,3.8,0,1.421.447,4.019-3.126,5.359-.893,7.146-8.953,12.425-16.579,10.557-10.942-2.68-10.053-9.664-9.324-17.926S1339.61,614,1347.426,614Z" transform="translate(-1336.987 -614)" fill="#fff" fill-rule="evenodd"/></g><path d="M1339.3,603.577c-2.648-10.595-9.153-18.889-18.388-18.568-4.208.147-5.818,1.577-6.422,3.388-2.745.439-5.983,3.172-6.258,8.576-.526,10.353-3.847,12-6.687,15.389-2.673,3.19-3.269,11.844,4.29,11.286,2.7,4.7,9.79,3.217,10.4-.891.172.033.347.064.525.089a24.118,24.118,0,0,0,3.365.249,18.529,18.529,0,0,0,5.055-.58c.223,1.563,1.235,5.811,6.576,4.519,4.739,2.649,13.647.9,13.519-7.652C1345.171,612.294,1341.947,614.172,1339.3,603.577Zm-24.483-9.682a7.149,7.149,0,0,0,1.729,1.545,9.364,9.364,0,0,0,5.952,1.569,10.209,10.209,0,0,1,5.349,1.123c3.158,1.647,4.2,7.123,4.21,7.178a.446.446,0,0,0,.375.361.48.48,0,0,0,.064,0,.446.446,0,0,0,.4-.244,2.948,2.948,0,0,1,.96-1,3.053,3.053,0,0,1,1.025-.2,1.8,1.8,0,0,1,1.075.328,2.618,2.618,0,0,1,.917,2.254,3.15,3.15,0,0,1-3.52,3.318.446.446,0,0,0-.446.42,12.873,12.873,0,0,1-4.327,8.966c-2.828,2.315-6.761,3.137-11.69,2.442a7.635,7.635,0,0,1-5.436-3.3c-2.328-3.372-2.8-9.132-1.289-15.8C1311.34,597.644,1312.676,595.077,1314.816,593.895Zm20.111,11.958c-.393-.078-.945.088-.9,1.012a.749.749,0,0,0,1.086.747C1335.659,607.232,1335.368,605.94,1334.928,605.853Z" transform="translate(-1299.722 -585)" fill="#141414" fill-rule="evenodd"/></g><g transform="translate(40.367 18.31)"><path d="M1347.283,677.338a.735.735,0,0,0-.778.3c-.688,1.576,1.492,4.144,4.622,4.13,2.08.109,4.6-1.156,4.709-2.59.1-.62-.458-1.68-1.316-1.524a21.45,21.45,0,0,1-3.5.1A28.059,28.059,0,0,1,1347.283,677.338Zm.15.72a35.684,35.684,0,0,0,7.363.306,2.083,2.083,0,0,1,0,.778c-1.152.654-5.9.531-7.4-.421A.748.748,0,0,1,1347.433,678.058Zm4.094-6.907a.233.233,0,0,0-.185.213v0a6.294,6.294,0,0,1-.211,1.389,1.875,1.875,0,0,1-.113.28.443.443,0,0,1-.12.156c-.055.04-.164.112-.266.176s-.219.139-.334.222a1.926,1.926,0,0,0-.636.725,1.228,1.228,0,0,0-.1.588,1.029,1.029,0,0,0,.248.58,1.982,1.982,0,0,0,.78.52,5.121,5.121,0,0,0,.757.232.35.35,0,0,0,.233-.654h0c-.223-.111-.444-.209-.64-.319a1.418,1.418,0,0,1-.443-.332.184.184,0,0,1-.04-.1.383.383,0,0,1,.037-.141,1.14,1.14,0,0,1,.349-.388c.085-.069.179-.137.281-.21a3.188,3.188,0,0,0,.341-.265,1.282,1.282,0,0,0,.3-.46,2.076,2.076,0,0,0,.117-.434,4.226,4.226,0,0,0-.07-1.6A.233.233,0,0,0,1351.526,671.151Zm5.574-.822c-.1.006-.207,0-.313.019a2.694,2.694,0,0,0-.635.143,2.228,2.228,0,0,0-.6.337,1.885,1.885,0,0,0-.257.25,1.776,1.776,0,0,0-.114.148c-.018.028-.035.053-.053.084a1.158,1.158,0,0,0-.059.114.507.507,0,1,0,.926.413c-.01.022,0,0,.005,0l.02-.028a.8.8,0,0,1,.05-.063,1.211,1.211,0,0,1,.451-.315,1.71,1.71,0,0,1,.4-.118c.07-.018.146-.018.219-.029a1.732,1.732,0,0,1,.208-.011,1.691,1.691,0,0,1,.807.234,2.307,2.307,0,0,1,.372.267,2.753,2.753,0,0,1,.319.327l.023.028a.309.309,0,0,0,.513-.336,2.777,2.777,0,0,0-.338-.514,2.848,2.848,0,0,0-.439-.427,2.411,2.411,0,0,0-1.177-.5A2.466,2.466,0,0,0,1357.1,670.329Zm-10.5-.323a2.245,2.245,0,0,0-.949.423,2.287,2.287,0,0,0-.362.35,2.088,2.088,0,0,0-.274.433.342.342,0,0,0,.5.427l.071-.049c.078-.054.183-.141.28-.2a2.735,2.735,0,0,1,.3-.175,2.093,2.093,0,0,1,.606-.2,1.464,1.464,0,0,1,.593.035,2.145,2.145,0,0,1,.59.273l.025.015a.446.446,0,0,0,.556-.69,2.2,2.2,0,0,0-.864-.561A2.077,2.077,0,0,0,1346.6,670.006Zm9.822-3a3.274,3.274,0,0,0-.424.034.559.559,0,0,0,.118,1.111l.051,0c.068-.005.185-.014.285-.015s.21,0,.316,0a6.029,6.029,0,0,1,.638.059,5.559,5.559,0,0,1,1.247.329,5.617,5.617,0,0,1,1.158.607,8.131,8.131,0,0,1,1.053.841l.021.019a.283.283,0,0,0,.419-.375c-.143-.2-.282-.412-.445-.6a6.2,6.2,0,0,0-.528-.544,5.568,5.568,0,0,0-1.269-.861,5.625,5.625,0,0,0-1.467-.5,5.99,5.99,0,0,0-.775-.1C1356.689,667,1356.559,667,1356.425,667Zm-10.514.244a4.384,4.384,0,0,0-1.366.657,4.454,4.454,0,0,0-.575.481,2.2,2.2,0,0,0-.25.274c-.079.094-.158.188-.233.285a.306.306,0,0,0,.425.432l.023-.017a6.607,6.607,0,0,1,1.07-.711,4.581,4.581,0,0,1,1.161-.437,4.807,4.807,0,0,1,1.23-.115l.31.02.308.039c.1.016.2.032.3.055s.206.048.273.067l.041.011a.531.531,0,0,0,.317-1.012,3.406,3.406,0,0,0-.394-.113c-.125-.03-.251-.052-.377-.072a5.264,5.264,0,0,0-.759-.059A4.932,4.932,0,0,0,1345.911,667.246Z" transform="translate(-1343.423 -667)" fill="#141414" fill-rule="evenodd"/></g></g><g transform="translate(143.152 171.673)"><g transform="translate(6.427 92.999)"><g transform="translate(78.503 115.146)"><g transform="translate(0.103)"><path d="M987.1,1670.139l6.42,13.89,14.183,1.427-4.448-15.82Z" transform="translate(-987.096 -1669.635)" fill="#fff" fill-rule="evenodd"/></g><g transform="translate(0 0.904)"><path d="M1007.486,1688.977l-.039,0-14.369-1.485a.4.4,0,0,1-.358-.342l-6.081-12.82a.4.4,0,0,1,.8-.116l6.035,12.509,13.5,1.4L1003,1674.175a.4.4,0,1,1,.785-.176l4.1,14.488a.4.4,0,0,1-.392.49" transform="translate(-986.634 -1673.685)" fill="#141414" fill-rule="evenodd"/></g></g><g transform="translate(82.295 127.634)"><g transform="translate(0.149)"><path d="M1005.425,1726.3a.378.378,0,0,1,.433-.279c.186.034.421.078.7.132a47.473,47.473,0,0,0,8.578,1.009h.009a7.628,7.628,0,0,0,4.884-1.52.38.38,0,0,1,.337-.075c5.746,1.5,9.9,2.577,12.974,4.629.541.361,2.491,1.935,2.154,3.049-.156.515-.711.776-1.651.776-3.43,0-10.819.019-17.338.036-5.275.014-9.83.026-11.546.026a.575.575,0,0,1-.461-.231c-.676-.869.425-5.571.929-7.551" transform="translate(-1004.283 -1725.56)" fill="#ff8333" fill-rule="evenodd"/></g><g transform="translate(0 8.113)"><path d="M1004.507,1763.97h29.646a.892.892,0,0,0,.892-.892v-.295a.892.892,0,0,0-.892-.892h-29.646a.892.892,0,0,0-.892.892v.295a.892.892,0,0,0,.892.892" transform="translate(-1003.615 -1761.891)" fill="#141414" fill-rule="evenodd"/></g><g transform="translate(21.717 1.518)"><path d="M1101.271,1734.414a.4.4,0,0,0,.363-.229,1.626,1.626,0,0,1,1.979-.959.4.4,0,0,0,.241-.767,2.434,2.434,0,0,0-2.945,1.38.4.4,0,0,0,.362.575" transform="translate(-1100.869 -1732.358)" fill="#141414" fill-rule="evenodd"/></g><g transform="translate(18.167 0.55)"><path d="M1085.373,1730.079a.4.4,0,0,0,.363-.229,1.627,1.627,0,0,1,1.979-.959.4.4,0,0,0,.241-.767,2.434,2.434,0,0,0-2.945,1.38.4.4,0,0,0,.19.536.4.4,0,0,0,.172.039" transform="translate(-1084.971 -1728.023)" fill="#141414" fill-rule="evenodd"/></g></g><g transform="translate(4.579 105.856)"><g transform="translate(0.194)"><path d="M660.274,1628.034l-3.826,12.99,13,7.873,6.44-15.535Z" transform="translate(-656.448 -1628.034)" fill="#fff" fill-rule="evenodd"/></g><g transform="translate(0 0.737)"><path d="M668.808,1651.481l-.035-.019-13-7.873a.4.4,0,0,1-.176-.463l3.165-11.507a.4.4,0,1,1,.768.239l-3.072,11.206,12.256,7.422,5.363-13.364a.4.4,0,1,1,.783.18l-5.488,13.906a.4.4,0,0,1-.565.272" transform="translate(-655.58 -1631.337)" fill="#141414" fill-rule="evenodd"/></g></g><g transform="translate(0 116.947)"><g transform="translate(0.835)"><path d="M642.927,1677.837a.378.378,0,0,1,.511-.064c.153.11.346.253.573.421a47.471,47.471,0,0,0,7.3,4.616l.008,0a7.628,7.628,0,0,0,5.061.739.378.378,0,0,1,.336.078c4.536,3.831,7.813,6.6,9.7,9.779.332.559,1.41,2.821.625,3.679-.363.4-.977.393-1.824-.013-3.093-1.481-9.766-4.656-15.653-7.457-4.763-2.266-8.877-4.223-10.424-4.964a.575.575,0,0,1-.315-.408c-.234-1.075,2.789-4.84,4.1-6.409" transform="translate(-638.815 -1677.701)" fill="#ff8333" fill-rule="evenodd"/></g><g transform="translate(0 6.521)"><path d="M635.58,1708.866l26.737,12.806a.892.892,0,0,0,1.19-.419l.127-.266a.892.892,0,0,0-.419-1.19l-26.737-12.806a.892.892,0,0,0-1.19.419l-.128.266a.892.892,0,0,0,.419,1.19" transform="translate(-635.073 -1706.904)" fill="#141414" fill-rule="evenodd"/></g><g transform="translate(22.281 10.398)"><path d="M735.084,1725.552a.4.4,0,0,0,.427-.05,1.627,1.627,0,0,1,2.2-.01.4.4,0,0,0,.548-.588,2.434,2.434,0,0,0-3.253-.027.4.4,0,0,0,.079.675" transform="translate(-734.856 -1724.266)" fill="#141414" fill-rule="evenodd"/></g><g transform="translate(19.498 7.991)"><path d="M722.619,1714.775a.4.4,0,0,0,.427-.05,1.627,1.627,0,0,1,2.2-.01.4.4,0,0,0,.548-.588,2.435,2.435,0,0,0-3.253-.027.4.4,0,0,0,.079.675" transform="translate(-722.391 -1713.489)" fill="#141414" fill-rule="evenodd"/></g></g><g transform="translate(6.736)"><path d="M731,1153.978l-4.328,26.1-27.218,87.476c-6.4,3.814-26.46-1.293-34.218-6.609l32.2-106.965Z" transform="translate(-665.238 -1153.978)" fill="#141414" fill-rule="evenodd"/><g transform="translate(10.097 45.703)" opacity="0.6"><path d="M734.2,1358.672a.4.4,0,0,0-.513.245l-23.211,65.722a.4.4,0,0,0,.758.268l23.21-65.722a.4.4,0,0,0-.245-.513" transform="translate(-710.455 -1358.649)" fill="#fff" fill-rule="evenodd"/></g><g transform="translate(23.047)"><path d="M768.736,1153.978s-2.528,16.85,7.463,36.89c18.792,37.695,21.421,65.978,26.417,79.251,7.477,3.956,34.121,2.328,34.9-1.387l-20.181-65.612-14.087-49.142Z" transform="translate(-768.451 -1153.978)" fill="#0b379b" fill-rule="evenodd"/><g transform="translate(13.573 5.612)" opacity="0.5"><path d="M844.934,1223.869c-4-10.986-7.7-21.152-10.447-29.257a7.18,7.18,0,0,0,2.864-2.532c1.9-2.787,2.415-6.844,1.532-12.057a.4.4,0,0,0-.793.134c1.048,6.185-.166,9.623-1.368,11.417a6.524,6.524,0,0,1-2.494,2.27,122.258,122.258,0,0,1-4.195-14.4.4.4,0,0,0-.791.144c1.291,7.1,7.614,24.459,14.936,44.559,7.788,21.379,19.072,51.471,22.99,66.838a.4.4,0,0,0,.779-.2C864.019,1275.378,852.728,1245.266,844.934,1223.869Z" transform="translate(-829.236 -1179.111)" fill="#fff" fill-rule="evenodd"/></g></g></g></g><g transform="translate(72.368 3.243)"><g transform="translate(0 0.969)"><path d="M970.7,766.26c1.837-2.958.419-3.665-.6-3.042,0,0,1.77-2.175.9-3.117-.545-.588-1.116-.506-2.57.825,0,0,1.657-2.439.711-3.377-.877-.871-2.085.748-3.147,1.989,0,0,.977-3.039-.687-3.174-1.647-.133-4.008,4.7-5,6.7.336-2.431-1.095-4.711-1.89-3.656-.983,1.3-4.949,13.947-10.951,24.8-7.629,12.4-17.08,11.409-17.08,11.409l5.075,16.808s1.488.813,7.3-2.434c10.535-5.884,16.665-18.047,19.384-24.776.253-.15.406-.3.44-.437.233-.956.494-1.9.776-2.815.283-.826.437-1.343.47-1.457A70.218,70.218,0,0,1,970.7,766.26" transform="translate(-930.378 -756.362)" fill="#fff" fill-rule="evenodd"/></g><g transform="translate(2.186)"><path d="M978.6,758.686c.491-.821,1-2.036.292-2.8a1.285,1.285,0,0,0-1.707-.277c.988-2.568-1.246-3.617-2.917-1.416.094-.97-.224-2.1-1.331-2.172-1.446-.117-3.068,2.407-4.65,5.453-.269-1.657-1.318-3.519-2.595-2.249-2.433,5.547-5.793,15.328-10.282,23.6-.036.064-.2.4-.245.481-3.608,6.167-7.644,9.1-10.584,10.483a15.914,15.914,0,0,1-4.414,1.367l.227.783a16.723,16.723,0,0,0,4.477-1.4c6.286-2.941,10.3-9.085,12.61-13.888.07-.145.371-.883.437-1.017,3.58-7.349,6.42-15.162,8.416-19.924.584-.441,1.43,1.723,1.171,3.359a3.6,3.6,0,0,0,.095,1.3c.072.411.464.7.769.979a3.493,3.493,0,0,1,.71,3.072,1.233,1.233,0,0,1-.073.281.2.2,0,1,0,.339.193c.837-1.441.154-3.317-.846-4.495a2.171,2.171,0,0,1-.164-1.24c.791-1.593,3.2-6.442,4.537-6.334,1,.181.535,1.814.35,2.606l-1.986,3.187a.307.307,0,0,0,.512.337l2.162-3.111c.728-.742,1.793-2.493,2.545-1.949.862,1.377-2.241,4.845-2.88,6.138a.314.314,0,0,0,.519.353l2.235-3.131c1.483-1.35,1.733-1.082,1.974-.821.478.517-.41,1.968-.915,2.591,0,0-1.738,2.19-1.74,2.193a.289.289,0,0,0,.436.376l1.865-1.994c1.174-.514,1.1.709.013,2.508-1.095,1.168-6.017,11.223-7.3,15.57-.089.3-.548,1.522-.653,1.8a70.414,70.414,0,0,1-3.844,8.5c-5.562,10.368-11.771,15.36-16,17.722a22.87,22.87,0,0,1-5.121,2.254l.225.775a24.133,24.133,0,0,0,5.288-2.328c7.838-4.378,13.2-12.237,16.326-18.06a71.267,71.267,0,0,0,3.747-8.228c.055-.144,1.145-3.29,1.184-3.422a68.862,68.862,0,0,1,6.832-14.159c1.459-2.489,1.127-3.5-.044-3.848" transform="translate(-940.167 -752.022)" fill="#141414" fill-rule="evenodd"/></g></g><g transform="translate(0.414 0.969)"><path d="M647.956,785.106c-7.7-1.422-14.59-6.08-19.054-16.669l-.043-.009c-4.087-10.6-6.355-21.565-7.125-22.844-.682-1.132-2.342.987-2.259,3.44-.78-2.088-2.627-7.145-4.279-7.183-1.669-.039-1.012,3.085-1.012,3.085-.927-1.344-1.96-3.079-2.924-2.3-1.038.835.357,3.432.357,3.432-1.308-1.475-1.868-1.616-2.471-1.087-.965.847.569,3.193.569,3.193-.952-.726-2.436-.169-.915,2.963a65.9,65.9,0,0,1,6.155,19.259c.023.172.218.375.555.593,5.52,19.005,17.611,26.977,27.473,30.966Z" transform="translate(-608.147 -741.84)" fill="#fff" fill-rule="evenodd"/></g><path d="M641.66,797.608c-11.247-4.571-24.132-13.753-28.492-35.657-.019-.1-.155-.548-.206-.767-1.377-5.081-4.413-13.084-5.241-14.175-.9-1.9-.842-3.126.273-2.493l1.648,2.176a.288.288,0,0,0,.472-.329s-1.5-2.358-1.5-2.362c-.438-.671-1.17-2.207-.641-2.672.267-.234.543-.476,1.878,1.021l1.9,3.345a.314.314,0,0,0,.553-.3c-.5-1.352-3.228-5.123-2.229-6.4.8-.463,1.682,1.389,2.33,2.2l1.827,3.319a.307.307,0,0,0,.545-.282l-1.645-3.376c-.1-.807-.392-2.479.618-2.555,1.341.031,3.233,5.1,3.855,6.771a2.173,2.173,0,0,1-.292,1.216c-1.116,1.067-1.99,2.863-1.307,4.383a.212.212,0,0,0,.389-.166.555.555,0,0,1-.075-.277c.021-.113-.222-2.055,1.025-2.982.331-.247.752-.493.866-.895a3.592,3.592,0,0,0,.229-1.282c-.088-1.653.978-3.719,1.513-3.219,1.739,5.767,3.994,15.223,7.571,23.921.048.125.312.628.425.844,2.717,5.626,6.382,9.7,10.9,12.243a24.312,24.312,0,0,0,7.553,2.7l.23-.778c-8.642-1.569-14.836-6.96-18.81-16.385-.024-.057-.051-.109-.092-.2-3.2-8.246-5.373-17.393-7.09-22.76-1.138-1.395-2.375.348-2.814,1.968-1.257-3.193-2.608-5.872-4.059-5.906-1.108-.045-1.542,1.048-1.549,2.022-1.433-2.363-3.764-1.551-3.048,1.105a1.285,1.285,0,0,0-1.727.1c-.779.684-.4,1.944,0,2.811-1.2.227-1.635,1.2-.443,3.823A71.79,71.79,0,0,1,612.66,763.4c.1.432.368,1.286.528,1.944,2.624,10.779,7.525,18.623,14.428,24.7a47.941,47.941,0,0,0,13.813,8.345Z" transform="translate(-606.293 -737.499)" fill="#141414" fill-rule="evenodd"/><g transform="translate(26.344 38.504)"><path d="M774.149,929.1a.4.4,0,0,1,.784-.181l1.179,5.118c6.966-1.7,8.21-4.615,8.21-4.615a58.789,58.789,0,0,0-5.871-18.112c-12.476,1.134-15.878-.567-17.768-.567-3.78-1.323-11.153-.912-15.311.378-5.482,1.7-6.238,2.079-12.579,1.315-.753,3.129-4.789,11.214-8.522,17.627,2.576,1.662,4.919,2.462,9.626,3.729l.263-3.964a.4.4,0,1,1,.8.053l-.34,5.123c0,.008,0,.014,0,.022-.365,14.591-.843,31.526-.843,31.526l48.4-.756s-5.122-21.374-6.724-31.064l0-.007Z" transform="translate(-724.271 -909.93)" fill="#ff8333" fill-rule="evenodd"/></g><g transform="translate(50.804 33.578)"><g transform="translate(0.378 0.378)"><path d="M836.216,889.566l-.712,6.646a6.488,6.488,0,0,0,5.71,3.251c5.81.281,4.594-3.319,4.594-3.319l-.162-6" transform="translate(-835.504 -889.566)" fill="#fff" fill-rule="evenodd"/></g><path d="M839.88,898.526a6.814,6.814,0,0,1-6.036-3.47.377.377,0,0,1-.033-.2l.712-6.647a.378.378,0,1,1,.752.081l-.7,6.535a6.159,6.159,0,0,0,5.341,2.945c1.938.093,3.613-.253,4.131-1a2.047,2.047,0,0,0,.1-1.788.39.39,0,0,1-.032-.142l-.162-6a.378.378,0,0,1,.756-.02l.16,5.935a2.737,2.737,0,0,1-.194,2.441c-.615.9-2.263,1.35-4.157,1.35Q840.21,898.542,839.88,898.526Z" transform="translate(-833.81 -887.872)" fill="#141414" fill-rule="evenodd"/></g><g transform="translate(27.786 5.103)"><g transform="translate(15.798 7.312)"><path d="M825.2,802.265c-.127-9.088-9.243-9.82-13.532-8.837-3.525.808-7.368,3.846-6.966,9.764-2.117-.188-3.228.817-3.228,2.243s.342,2.807,2.964,2.807c.254,4.347,3.039,12.182,13.9,10.785,5.54-.712,6.965-9.339,6.862-16.762" transform="translate(-801.477 -793.098)" fill="#fff" fill-rule="evenodd"/></g><path d="M758.313,762.373c2.6-2.294,4.51-2.467,7.931-1.351,6.872,2.241,6.833,7.453,5.318,13.049-.76,2.807,3.311,7.472-1.59,11.927-.073.066-.149.139-.227.215-.919,3.856-2.746,7.3-6.306,7.757a19.732,19.732,0,0,1-2.512.168,11.644,11.644,0,0,1-7.667-2.491,10.075,10.075,0,0,1-1.115-1.08,7.532,7.532,0,0,1-4.4-3.675,3.659,3.659,0,0,0-1.9-1.914c-1.867,1.522-.709,5.893-4.152,7.705-1.186.624-4.658.892-4.956-2.6-1.456,1.105-3.081.632-4.5-.517a4.125,4.125,0,0,1,3.4-7.253,2.991,2.991,0,0,1,.592-3.782,3.939,3.939,0,0,1,3.937-.593,14.7,14.7,0,0,1,3.266,1.349c.325-1.973,1.327-3.817,1.418-5.545a4.187,4.187,0,0,1,.067-.538c.125-2.082.371-5.437,2.53-8.3C750.5,760.845,755.764,761.555,758.313,762.373Zm2.047,5.682c-.593,5.892-7.7,10.271-10.639,10.093a6.593,6.593,0,0,1-.682-.025,2.5,2.5,0,0,0-1.6.565A1.727,1.727,0,0,0,746.9,780c0,1.229.2,2.428,2.586,2.428a.378.378,0,0,1,.377.356c.073,1.249.568,5.536,3.874,8.277,2.349,1.947,5.578,2.672,9.6,2.155,2.359-.3,4.12-2.19,5.236-5.607a35.33,35.33,0,0,0,1.3-10.775,8.175,8.175,0,0,0-2.967-6.684A11.4,11.4,0,0,0,760.361,768.055ZM748.8,779.491c.922-.091.7.625.307.866a.559.559,0,0,1-.626-.176A.514.514,0,0,1,748.8,779.491Z" transform="translate(-730.728 -760.353)" fill="#141414" fill-rule="evenodd"/><g transform="translate(10.718 18.158)"><path d="M783.243,848.168a4.05,4.05,0,0,1-2.459-3.219,5.733,5.733,0,0,1,.029-2.98c-3.041-1.717-2.086,4.417-1.287,5.731.5,2,4.119,3.524,3.718.468" transform="translate(-778.727 -841.669)" fill="#ff8333" fill-rule="evenodd"/></g></g><g transform="translate(51.414 20.414)"><path d="M840.814,839.824c2.434,1.042,6.324-1.395,8.087-.242,2.505,4.516-13.57,4.4-8.942.119A1.187,1.187,0,0,1,840.814,839.824Zm3.731.746c-.387.066-.779.123-1.173.157a11.511,11.511,0,0,1-.036,1.654c.417,0,.836-.012,1.251-.048l.187-.02A3.8,3.8,0,0,1,844.545,840.57Zm-2.628.169c.027.033-.12,1.454-.141,1.505a9.036,9.036,0,0,0,1.181.127,11.335,11.335,0,0,1,.077-1.619A7.589,7.589,0,0,1,841.917,840.738Zm3.959-.429q-.5.107-1.008.2a3.964,3.964,0,0,1,.2,1.365.785.785,0,0,1-.044.4,9.641,9.641,0,0,0,1.3-.26C845.941,841.594,846,840.862,845.876,840.309Zm-4.481.358c-.425.023-1.1-.527-1.392-.255a.844.844,0,0,0,.169,1.285,3.4,3.4,0,0,0,1.057.43C841.239,842.1,841.353,840.634,841.4,840.667Zm5.813-.624c-.276.044-.561.1-.841.16a4.427,4.427,0,0,1,.339,1.7c.141-.047.281-.1.417-.153a4.539,4.539,0,0,0,.415-.2A12.978,12.978,0,0,1,847.208,840.043Zm.942,1.071c.624-.719.362-1.332-.618-1.116a13.244,13.244,0,0,1,.314,1.366A2.184,2.184,0,0,0,848.151,841.114Zm-4.178-5.881c-.076-.354-.443-4.25.428-2.957a23.823,23.823,0,0,0,.309,2.845c2.059.784,1.284,3.155-.81,2.917a.378.378,0,0,1,0-.756c.409-.01,1.021-.063,1.2-.419C845.395,835.822,844.031,836.064,843.972,835.233Zm-5.89-1.945a2.126,2.126,0,0,1,1.864-.911c1.517.118,1.407,1.614.443,1.084a.856.856,0,0,0-.529-.284c-1.409-.179-1.384,1.631-2.036,1.422C837.324,834.3,837.885,833.647,838.083,833.289Zm9.622-2.248c.7-.19,2.728.786,1.928,1.591a.373.373,0,0,1-.471-.122,1.848,1.848,0,0,0-2.938.109.275.275,0,0,1-.388.008C845.554,831.877,847.024,831.063,847.7,831.04Zm-11.039-.61c.462-.514,2.974-.928,3.018-.023-.156.32-.609.133-.888.223-.635.055-1.238.326-1.863.416A.352.352,0,0,1,836.665,830.43Zm9.725-.589c-1.08-.322.756-1.028,1.186-.907.55-.126,2.3.686,1.114,1.061A4.909,4.909,0,0,0,846.39,829.841Z" transform="translate(-836.541 -828.921)" fill="#141414" fill-rule="evenodd"/><g transform="translate(1.261 4.958)"><path d="M844.275,854.149a.4.4,0,0,1,.334.717A.4.4,0,0,1,844.275,854.149Zm-1.786.683c-.735-.125.076-1.075.33-.469A.3.3,0,0,1,842.489,854.832Zm9.86-2.28a.363.363,0,0,1,.006.725A.363.363,0,0,1,852.349,852.552Zm-8.869.25a.24.24,0,0,1,.2.434A.24.24,0,0,1,843.48,852.8Zm1.388-.479a.327.327,0,0,1,.276.592A.327.327,0,0,1,844.869,852.322Zm8.771-.167c-.03-.6,1.017-.136.458.257A.273.273,0,0,1,853.639,852.155Zm-2.5-.88a.3.3,0,0,1,.005.6A.3.3,0,0,1,851.138,851.275Zm1.338-.151a.22.22,0,0,1,0,.439A.22.22,0,0,1,852.476,851.124Z" transform="translate(-842.188 -851.124)" fill="#ff8333" fill-rule="evenodd"/></g></g></g></g></svg>