<svg xmlns="http://www.w3.org/2000/svg" width="478.194" height="434.308" viewBox="0 0 478.194 434.308"><g transform="translate(9412 -751.538)"><g transform="translate(-9412 831.712)"><g transform="translate(0 300.868)"><path d="M478.194,2396.581H0l90-53.149H389.568Z" transform="translate(0 -2343.432)" fill="#d0f0e4"/></g><g transform="translate(12.069 93.784)"><g transform="translate(0 64.025)"><path d="M554.625,1470.356l-57.3-189.453a8.6,8.6,0,0,0-8.191-6.069H153.879a8.6,8.6,0,0,0-8.216,6.185L90.989,1470.352l-.771-.223L144.892,1280.8a9.4,9.4,0,0,1,8.987-6.765H489.138a9.355,9.355,0,0,1,8.959,6.64l57.3,189.452Z" transform="translate(-90.218 -1274.032)" fill="#7432ff"/></g><g transform="translate(58.94)"><path d="M531.25,861.408l-.439-.672,93.2-60.946a26.663,26.663,0,0,1,14.63-4.359H782.9v.8H638.638a25.862,25.862,0,0,0-14.19,4.228Z" transform="translate(-530.811 -795.431)" fill="#7432ff"/></g></g><g transform="translate(164.779 21.042)"><g transform="translate(24.878)"><path d="M1525.268,322.688H1421.186V262.5a7.378,7.378,0,0,1,7.378-7.378h89.326a7.378,7.378,0,0,1,7.378,7.378Z" transform="translate(-1420.723 -254.663)" fill="#7432ff"/><path d="M1522.732,320.152H1417.724V259.505a7.85,7.85,0,0,1,7.841-7.841h89.326a7.85,7.85,0,0,1,7.841,7.841Zm-104.082-.926h103.156v-59.72a6.923,6.923,0,0,0-6.915-6.915h-89.326a6.923,6.923,0,0,0-6.915,6.915Z" transform="translate(-1417.724 -251.664)" fill="#7432ff"/></g><g transform="translate(29.431 4.121)"><path d="M1543.9,342.455h-87.936a4.2,4.2,0,0,1-4.2-4.2V286.67a4.2,4.2,0,0,1,4.2-4.2H1543.9a4.2,4.2,0,0,1,4.2,4.2v51.6A4.19,4.19,0,0,1,1543.9,342.455Z" transform="translate(-1451.763 -282.472)" fill="#fff"/></g><g transform="translate(0 81.546)"><path d="M1382.466,864.84c3.982,2.593,3.056,7.671-1.652,7.671H1239.023c-3.967,0-5.325-5.356-1.436-7.81Z" transform="translate(-1234.798 -864.238)" fill="#7432ff"/><path d="M1377.773,869.975H1235.982a4.116,4.116,0,0,1-4.037-3.031,4.988,4.988,0,0,1,2.354-5.634l.113-.072h.134l145.015.139.115.075c2.116,1.378,3.14,3.639,2.55,5.628A4.334,4.334,0,0,1,1377.773,869.975Zm-143.09-7.81a4.052,4.052,0,0,0-1.848,4.522,3.176,3.176,0,0,0,3.147,2.362h141.791c1.818,0,3.151-.835,3.566-2.232a4.2,4.2,0,0,0-2.055-4.513Z" transform="translate(-1231.757 -861.238)" fill="#7432ff"/></g><g transform="translate(1.191 67.562)"><path d="M1388.481,778.423H1246.69c-2.531,0-3.535-2.979-1.435-4.276l22.582-13.985h103.758l18.523,14.123C1391.97,775.691,1390.889,778.423,1388.481,778.423Z" transform="translate(-1243.656 -759.7)" fill="#fff"/><path d="M1385.483,775.888H1243.692a2.965,2.965,0,0,1-2.932-2.092,2.673,2.673,0,0,1,1.253-3.041l22.694-14.054h104.046L1387.4,770.92a2.636,2.636,0,0,1,.978,3A2.963,2.963,0,0,1,1385.483,775.888Zm-120.512-18.26-22.47,13.915a1.743,1.743,0,0,0-.849,2,2.018,2.018,0,0,0,2.041,1.419h141.791a2.052,2.052,0,0,0,2.018-1.338,1.714,1.714,0,0,0-.661-1.967l-18.4-14.029Z" transform="translate(-1240.657 -756.702)" fill="#7432ff"/></g><g transform="translate(18.145 67.561)"><g transform="translate(0 0)"><path d="M1481.907,774.209H1372.839a1.781,1.781,0,0,1-1.111-3.288l15.682-10.758h81.5l14.247,10.867A1.774,1.774,0,0,1,1481.907,774.209Z" transform="translate(-1370.397 -759.7)" fill="#fff"/><path d="M1478.905,771.673H1369.838a2.388,2.388,0,0,1-2.358-1.693,2.15,2.15,0,0,1,.994-2.446l15.792-10.833h81.8l14.371,10.961a2.129,2.129,0,0,1,.8,2.423A2.382,2.382,0,0,1,1478.905,771.673Zm-94.353-14.046-15.583,10.69a1.216,1.216,0,0,0-.6,1.411,1.449,1.449,0,0,0,1.467,1.019h109.068a1.465,1.465,0,0,0,1.451-.956,1.214,1.214,0,0,0-.479-1.391l-14.125-10.773Z" transform="translate(-1367.396 -756.701)" fill="#7432ff"/></g><g transform="translate(61.921 0.133)"><g transform="translate(29.212 0)"><rect width="0.926" height="20.018" transform="translate(0 0.66) rotate(-45.437)" fill="#7432ff"/></g><g transform="translate(21.629 0.021)"><rect width="0.926" height="18.846" transform="matrix(0.745, -0.667, 0.667, 0.745, 0, 0.617)" fill="#7432ff"/></g><g transform="translate(14.538 0.046)"><rect width="0.926" height="17.778" transform="matrix(0.79, -0.613, 0.613, 0.79, 0, 0.568)" fill="#7432ff"/></g><g transform="translate(6.614 0.076)"><rect width="0.926" height="16.799" transform="matrix(0.836, -0.549, 0.549, 0.836, 0, 0.508)" fill="#7432ff"/></g><g transform="translate(0 0.189)"><rect width="0.926" height="14.747" transform="matrix(0.952, -0.305, 0.305, 0.952, 0, 0.282)" fill="#7432ff"/></g></g><g transform="translate(9.047 0.133)"><g transform="translate(0)"><rect width="20.018" height="0.926" transform="matrix(0.712, -0.702, 0.702, 0.712, 0, 14.047)" fill="#7432ff"/></g><g transform="translate(9.242 0.021)"><rect width="18.846" height="0.926" transform="translate(0 14.048) rotate(-48.193)" fill="#7432ff"/></g><g transform="translate(17.957 0.047)"><rect width="17.778" height="0.926" transform="translate(0 14.046) rotate(-52.194)" fill="#7432ff"/></g><g transform="translate(27.521 0.076)"><rect width="16.799" height="0.926" transform="translate(0 14.047) rotate(-56.739)" fill="#7432ff"/></g><g transform="translate(38.75 0.189)"><rect width="14.747" height="0.926" transform="translate(0 14.046) rotate(-72.261)" fill="#7432ff"/></g></g><g transform="translate(56.713 0.463)"><rect width="0.926" height="14.216" fill="#7432ff"/></g><g transform="translate(9.372 5.248)"><rect width="96.04" height="0.926" fill="#7432ff"/></g></g></g><g transform="translate(223.78 23.193)"><g transform="translate(0 99.75)"><path d="M1672.8,1013.432h35.932v30.862H1672.8Z" transform="translate(-1672.8 -1013.401)" fill="#ffcf2d"/></g><g transform="translate(7.973)"><g transform="translate(48.938 135.017)"><g transform="translate(31.607)"><g transform="translate(29.136 66.553)"><path d="M2569.009,1816.136l-16.709-41.6h26.9Z" transform="translate(-2552.3 -1774.532)" fill="#592ece"/></g><path d="M2334.5,1288.055h0a20.705,20.705,0,0,1,18.3-11.023H2373.5l14.06,11.023Z" transform="translate(-2334.5 -1277.032)" fill="#592ece"/></g><g transform="translate(0 10.18)"><g transform="translate(0 0.843)"><path d="M2208.294,1408.14h-52.132l19.625,47.637c-1.364-2.221-9.538.094-18.193,5.4-8.548,5.244-14.328,11.558-13.15,13.859l-42.3-73.6a27.838,27.838,0,0,1,23.972-42.005h116.826l.254.8A36.664,36.664,0,0,1,2208.294,1408.14Z" transform="translate(-2098.227 -1359.432)" fill="#7432ff"/></g><g transform="translate(82.683 0.856)"><path d="M2780.352,1373.177a36.18,36.18,0,0,1-2.782,12.441l-61.269-26.086h60.814l1.418,4.147A35.039,35.039,0,0,1,2780.352,1373.177Z" transform="translate(-2716.3 -1359.532)" fill="#592ece"/></g><g transform="translate(46.071 96.369)"><path d="M2474.119,2074.333c1.365,2.221-4.6,8.281-13.243,13.592s-16.7,7.973-18.06,5.752,4.455-8.494,13.11-13.805S2472.741,2072.113,2474.119,2074.333Z" transform="translate(-2442.618 -2073.515)" fill="#592ece"/></g><g transform="translate(18.896)"><g transform="translate(0 4.227)"><path d="M2278.961,1483.659a.4.4,0,0,1-.35-.2l-38.046-67.262a8.4,8.4,0,0,1,7.319-12.505h74.1a15.311,15.311,0,0,0,14.978-18.472.4.4,0,1,1,.785-.166,16.114,16.114,0,0,1-15.763,19.44h-74.1a7.594,7.594,0,0,0-6.62,11.308l38.045,67.261a.4.4,0,0,1-.349.6Z" transform="translate(-2239.48 -1384.732)" fill="#fff"/></g><g transform="translate(26.334 95.69)"><path d="M2436.932,2089.828a.4.4,0,0,1-.342-.191,2.253,2.253,0,0,1-.15-1.766c.75-2.988,5.856-8.676,13.841-13.332,10.665-6.213,17.118-7.689,19.177-4.387a.4.4,0,1,1-.681.425c-1.761-2.823-8.017-1.213-18.093,4.656-7.512,4.381-12.746,9.965-13.466,12.834a1.51,1.51,0,0,0,.055,1.151.4.4,0,0,1-.342.611Z" transform="translate(-2436.335 -2068.438)" fill="#fff"/></g><g transform="translate(34.155 38.246)"><path d="M2520.056,1699.1a.4.4,0,0,1-.37-.246l-24.855-59.263a.4.4,0,1,1,.74-.31l24.855,59.262a.4.4,0,0,1-.37.557Z" transform="translate(-2494.799 -1639.031)" fill="#fff"/></g><g transform="translate(7.534)"><rect width="60.64" height="0.803" fill="#fff"/></g></g><g transform="translate(52.142 96.546)"><path d="M2496.588,2097.881l-3.612-4.923L2488,2086.19a60.521,60.521,0,0,1,7.224-5.177c5.458-3.344,10.715-5.565,14.207-6.18l2.421,4.829,3.024,6.02C2512.735,2093.293,2496.588,2097.881,2496.588,2097.881Z" transform="translate(-2488 -2074.832)" fill="#f86b6b"/><g transform="translate(0.013)"><path d="M2511.952,2079.661c-2.247,2.742-6.475,6.207-11.678,9.4a71,71,0,0,1-7.2,3.893l-4.977-6.769a60.525,60.525,0,0,1,7.224-5.177c5.458-3.344,10.715-5.565,14.207-6.18Z" transform="translate(-2488.1 -2074.832)" fill="#e34545"/></g></g><g transform="translate(51.068 106.725)"><path d="M2527.051,2182.373l-36.708,26.367c-3.117,2.167-7.96,3.973-7.318-3.866.9-10.809,3.291-26.889,9.2-36.842h0c.254-.067,16.146-4.655,18.287-12.2l16.735,11.893A9.179,9.179,0,0,1,2527.051,2182.373Z" transform="translate(-2482.567 -2155.176)" fill="#fff"/><path d="M2483.191,2206.752a2.954,2.954,0,0,1-1.5-.373c-1.353-.78-1.913-2.727-1.662-5.789.771-9.3,3-26.478,9.259-37.014l.084-.141.159-.042a56.276,56.276,0,0,0,8.378-3.276c5.453-2.681,8.781-5.671,9.625-8.646l.155-.547,17.213,12.232a9.58,9.58,0,0,1-.21,15.289l0,0-36.708,26.367A9.528,9.528,0,0,1,2483.191,2206.752Zm6.71-42.629c-6.115,10.409-8.306,27.342-9.068,36.533-.22,2.686.216,4.425,1.262,5.027,1.6.919,4.326-.759,5.426-1.524l36.7-26.363a8.777,8.777,0,0,0,.2-14l-16.284-11.572C2505.5,2159.331,2491.569,2163.633,2489.9,2164.123Z" transform="translate(-2479.974 -2150.924)"/><g transform="translate(7.562 1.74)"><path d="M2537.343,2178.973a2.832,2.832,0,0,1-.516-.041.4.4,0,0,1,.148-.789c1.262.238,5.98-.98,10.8-3.5,3.342-1.75,9.159-5.432,10.576-10.42a.4.4,0,0,1,.772.219c-1.5,5.277-7.52,9.1-10.975,10.911C2543.784,2177.635,2539.316,2178.973,2537.343,2178.973Z" transform="translate(-2536.5 -2163.929)"/></g><g transform="translate(1.969 19.362)"><path d="M2496.744,2327.149s23.959-33.283,41-31.41C2556.3,2297.759,2481.574,2346.56,2496.744,2327.149Z" transform="translate(-2494.697 -2295.663)"/></g><g transform="translate(0.484 16.818)"><path d="M2486.293,2315.613a2.68,2.68,0,0,1-2.374-1.414c-.4-.747-.777-2.358,1.094-4.759a156.58,156.58,0,0,1,14.725-17.056,79.235,79.235,0,0,1,13.915-11.342c5.424-3.322,10.273-4.775,14.412-4.321a3.867,3.867,0,0,1,3.014,1.7,3.808,3.808,0,0,1,.346,3.281.4.4,0,0,1-.761-.254,3.011,3.011,0,0,0-.259-2.594,3.139,3.139,0,0,0-2.426-1.335c-3.959-.435-8.638.98-13.906,4.207a78.444,78.444,0,0,0-13.769,11.227,155.572,155.572,0,0,0-14.645,16.963l-.009.012c-1.167,1.5-1.54,2.915-1.021,3.9a1.88,1.88,0,0,0,1.789.982.4.4,0,1,1,.052.8C2486.411,2315.612,2486.352,2315.613,2486.293,2315.613Z" transform="translate(-2483.594 -2276.641)"/></g></g></g></g><g transform="translate(94.083 47.916)"><path d="M2540.368,743.026c-8.481-2.007-29.591-7.291-53.671-12.856a37.616,37.616,0,0,1-25.672-20.856L2439.1,661.878l13.271-21.029a23.8,23.8,0,0,1,18.675-11.063l13.057-.8c13.164-.8,23.732,7.411,27.745,19.973l26.554,77.7C2541.318,733.929,2540.368,743.026,2540.368,743.026Z" transform="translate(-2438.644 -628.527)" fill="#f8b905"/><path d="M2537.769,740.925l-.444-.105c-2.623-.621-6.41-1.544-11.2-2.713-10.9-2.658-25.831-6.3-42.464-10.142a38.018,38.018,0,0,1-25.945-21.078l-22.017-47.635,13.387-21.214a24.251,24.251,0,0,1,18.99-11.25l13.057-.8a26.527,26.527,0,0,1,17.566,5.052,29.879,29.879,0,0,1,10.586,15.2l26.548,77.679c2.915,7.284,2,16.464,1.989,16.556ZM2436.6,659.311l21.834,47.239a36.969,36.969,0,0,0,25.4,20.633c16.638,3.845,31.571,7.486,42.474,10.145,4.523,1.1,8.149,1.987,10.745,2.6.14-1.923.5-9.545-1.978-15.727l-.007-.02-26.554-77.7c-4.069-12.736-14.8-20.467-27.341-19.7l-13.056.8a23.447,23.447,0,0,0-18.36,10.877Z" transform="translate(-2435.693 -625.93)" fill="#fe5244"/><g transform="translate(11.662 35.797)"><path d="M2546.036,907.522a36.422,36.422,0,0,1-17.6-7.689,27.676,27.676,0,0,1-5.565-5.883l.677-.431a27.489,27.489,0,0,0,5.422,5.714,35.623,35.623,0,0,0,17.189,7.5Z" transform="translate(-2522.869 -893.519)" fill="#fe5244"/></g><g transform="translate(16.151 4.865)"><g transform="translate(2.29 10.314)"><path d="M2579.134,742.871h0a1.487,1.487,0,0,0-2.435.388h0a1.483,1.483,0,0,0,1.565,2.087h0A1.478,1.478,0,0,0,2579.134,742.871Z" transform="translate(-2576.157 -741.997)" fill="#ffcf2d"/><path d="M2575.426,743.166a1.886,1.886,0,0,1-1.7-2.674,1.887,1.887,0,1,1,1.987,2.653A1.963,1.963,0,0,1,2575.426,743.166Zm.021-2.965a1.1,1.1,0,0,0-.176.014,1.08,1.08,0,1,0,1.193,1.424,1.059,1.059,0,0,0-.232-1.091h0A1.064,1.064,0,0,0,2575.448,740.2Z" transform="translate(-2573.549 -739.399)" fill="#fe5244"/></g><g transform="translate(35.614 33.176)"><path d="M2828.233,913.771h0a1.487,1.487,0,0,0-2.435.388h0a1.483,1.483,0,0,0,1.565,2.087h0A1.478,1.478,0,0,0,2828.233,913.771Z" transform="translate(-2825.257 -912.898)" fill="#ffcf2d"/><path d="M2824.526,914.067a1.886,1.886,0,0,1-1.7-2.674,1.887,1.887,0,1,1,1.987,2.652A1.936,1.936,0,0,1,2824.526,914.067Zm.021-2.965a1.124,1.124,0,0,0-.176.014,1.08,1.08,0,1,0,1.193,1.424,1.057,1.057,0,0,0-.231-1.091h0A1.062,1.062,0,0,0,2824.547,911.1Z" transform="translate(-2822.65 -910.3)" fill="#fe5244"/></g><g transform="translate(46.169 42.541)"><path d="M2907.134,983.771h0a1.487,1.487,0,0,0-2.435.388h0a1.483,1.483,0,0,0,1.565,2.087h0A1.483,1.483,0,0,0,2907.134,983.771Z" transform="translate(-2904.157 -982.897)" fill="#ffcf2d"/><path d="M2903.425,984.067a1.886,1.886,0,0,1-1.7-2.674,1.888,1.888,0,0,1,3.093-.493l0,0a1.9,1.9,0,0,1,.382,1.934,1.83,1.83,0,0,1-1.494,1.209A1.92,1.92,0,0,1,2903.425,984.067Zm.023-2.965a1.131,1.131,0,0,0-.176.014,1.08,1.08,0,0,0,.325,2.136,1.042,1.042,0,0,0,.853-.689,1.087,1.087,0,0,0-.219-1.117A1.063,1.063,0,0,0,2903.447,981.1Z" transform="translate(-2901.549 -980.299)" fill="#fe5244"/></g><g transform="translate(66.409 95.529)"><path d="M3058.434,1379.871h0a1.487,1.487,0,0,0-2.435.388h0a1.483,1.483,0,0,0,1.565,2.087h0A1.485,1.485,0,0,0,3058.434,1379.871Z" transform="translate(-3055.457 -1378.997)" fill="#ffcf2d"/><path d="M3054.727,1380.167a1.886,1.886,0,0,1-1.7-2.674,1.888,1.888,0,0,1,3.093-.493l0,0a1.9,1.9,0,0,1,.386,1.917,1.85,1.85,0,0,1-1.493,1.225A1.978,1.978,0,0,1,3054.727,1380.167Zm.021-2.965a1.1,1.1,0,0,0-.176.014,1.08,1.08,0,0,0,.326,2.135,1.059,1.059,0,0,0,.855-.7,1.081,1.081,0,0,0-.222-1.105A1.062,1.062,0,0,0,3054.748,1377.2Z" transform="translate(-3052.85 -1376.399)" fill="#fe5244"/></g><g transform="translate(55.078 70.205)"><path d="M2973.733,1190.571h0a1.487,1.487,0,0,0-2.435.388h0a1.483,1.483,0,0,0,1.565,2.087h0A1.478,1.478,0,0,0,2973.733,1190.571Z" transform="translate(-2970.757 -1189.697)" fill="#ffcf2d"/><path d="M2970.026,1190.867a1.885,1.885,0,0,1-1.7-2.674,1.887,1.887,0,1,1,1.987,2.653A1.958,1.958,0,0,1,2970.026,1190.867Zm.021-2.965a1.129,1.129,0,0,0-.176.014,1.084,1.084,0,1,0,.962.332h0A1.064,1.064,0,0,0,2970.047,1187.9Z" transform="translate(-2968.15 -1187.1)" fill="#fe5244"/></g><g transform="translate(61.057 52.444)"><path d="M3017.13,1057.34h0a1.487,1.487,0,0,0-1.1,2.207h0a1.478,1.478,0,0,0,2.608-.067h0A1.477,1.477,0,0,0,3017.13,1057.34Z" transform="translate(-3015.437 -1056.925)" fill="#ffcf2d"/><path d="M3014.723,1058.1a1.856,1.856,0,0,1-1.631-.952,1.88,1.88,0,1,1,1.682.951Zm.02-2.971a1.122,1.122,0,0,0-.152.01h0a1.068,1.068,0,1,0,.155-.011Z" transform="translate(-3012.844 -1054.33)" fill="#fe5244"/></g><g transform="translate(69.605 79.467)"><path d="M3081.031,1259.34h0a1.487,1.487,0,0,0-1.1,2.207h0a1.479,1.479,0,0,0,2.609-.067h0A1.474,1.474,0,0,0,3081.031,1259.34Z" transform="translate(-3079.338 -1258.925)" fill="#ffcf2d"/><path d="M3078.624,1260.1a1.856,1.856,0,0,1-1.632-.952,1.88,1.88,0,1,1,1.681.951Zm.021-2.971a1.175,1.175,0,0,0-.154.01h0a1.077,1.077,0,1,0,.156-.011Z" transform="translate(-3076.744 -1256.331)" fill="#fe5244"/></g><g transform="translate(32.871 49.858)"><path d="M2807.733,1038.471h0a1.487,1.487,0,0,0-2.435.388h0a1.483,1.483,0,0,0,1.565,2.087h0A1.485,1.485,0,0,0,2807.733,1038.471Z" transform="translate(-2804.757 -1037.598)" fill="#ffcf2d"/><path d="M2804.026,1038.766a1.886,1.886,0,0,1-1.7-2.674,1.887,1.887,0,0,1,3.092-.493l0,0a1.9,1.9,0,0,1,.386,1.917,1.85,1.85,0,0,1-1.494,1.225A1.978,1.978,0,0,1,2804.026,1038.766Zm.021-2.965a1.147,1.147,0,0,0-.176.014,1.073,1.073,0,0,0-.816.615,1.081,1.081,0,1,0,2,.82,1.082,1.082,0,0,0-.222-1.105A1.064,1.064,0,0,0,2804.047,1035.8Z" transform="translate(-2802.149 -1034.999)" fill="#fe5244"/></g><g transform="translate(25.5 65.015)"><path d="M2752.633,1151.771h0a1.486,1.486,0,0,0-2.435.388h0a1.482,1.482,0,0,0,1.565,2.087h0A1.478,1.478,0,0,0,2752.633,1151.771Z" transform="translate(-2749.657 -1150.897)" fill="#ffcf2d"/><path d="M2748.926,1152.066a1.885,1.885,0,0,1-1.7-2.674,1.887,1.887,0,1,1,1.987,2.652A1.961,1.961,0,0,1,2748.926,1152.066Zm.021-2.965a1.131,1.131,0,0,0-.176.014,1.08,1.08,0,1,0,1.193,1.424,1.059,1.059,0,0,0-.231-1.092h0A1.064,1.064,0,0,0,2748.947,1149.1Z" transform="translate(-2747.049 -1148.299)" fill="#fe5244"/></g><g transform="translate(12.393 57.615)"><path d="M2654.565,1098.565h0a1.486,1.486,0,0,0-.388-2.435h0a1.483,1.483,0,0,0-2.087,1.565h0A1.485,1.485,0,0,0,2654.565,1098.565Z" transform="translate(-2651.671 -1095.589)" fill="#ffcf2d"/><path d="M2650.955,1096.751a1.9,1.9,0,0,1-.638-.111,1.883,1.883,0,1,1,1.427-3.482,1.888,1.888,0,0,1,.493,3.093l0,0A1.9,1.9,0,0,1,2650.955,1096.751Zm0-2.966a1.087,1.087,0,0,0-1.066,1.244,1.058,1.058,0,0,0,.7.855,1.084,1.084,0,0,0,1.105-.222,1.085,1.085,0,0,0-.286-1.775A1.079,1.079,0,0,0,2650.952,1093.786Z" transform="translate(-2649.071 -1092.981)" fill="#fe5244"/></g><g transform="translate(24.099 83.701)"><path d="M2742.064,1293.565h0a1.487,1.487,0,0,0-.388-2.435h0a1.483,1.483,0,0,0-2.087,1.565h0A1.478,1.478,0,0,0,2742.064,1293.565Z" transform="translate(-2739.171 -1290.589)" fill="#ffcf2d"/><path d="M2738.454,1291.76a1.882,1.882,0,0,1-1.863-1.614,1.884,1.884,0,0,1,2.653-1.987,1.889,1.889,0,0,1-.79,3.6Zm0-2.975a1.087,1.087,0,0,0-.354,2.111,1.059,1.059,0,0,0,1.091-.231h0a1.086,1.086,0,0,0-.284-1.777A1.077,1.077,0,0,0,2738.452,1288.786Z" transform="translate(-2736.57 -1287.981)" fill="#fe5244"/></g><g transform="translate(43.804 61.32)"><path d="M2889.365,1126.266h0a1.487,1.487,0,0,0-.388-2.435h0a1.483,1.483,0,0,0-2.087,1.565h0A1.482,1.482,0,0,0,2889.365,1126.266Z" transform="translate(-2886.471 -1123.289)" fill="#ffcf2d"/><path d="M2885.76,1124.458a1.891,1.891,0,0,1-1.868-1.61,1.884,1.884,0,0,1,2.652-1.988,1.888,1.888,0,0,1,.494,3.092A1.866,1.866,0,0,1,2885.76,1124.458Zm-.008-2.971a1.084,1.084,0,0,0-.349,2.108,1.053,1.053,0,0,0,1.086-.228h0a1.085,1.085,0,0,0-.284-1.777A1.082,1.082,0,0,0,2885.753,1121.486Z" transform="translate(-2883.871 -1120.682)" fill="#fe5244"/></g><g transform="translate(50.532 89.333)"><path d="M2939.665,1335.666h0a1.487,1.487,0,0,0-.388-2.435h0a1.483,1.483,0,0,0-2.087,1.565h0A1.476,1.476,0,0,0,2939.665,1335.666Z" transform="translate(-2936.771 -1332.689)" fill="#ffcf2d"/><path d="M2936.044,1333.86a1.89,1.89,0,0,1-.64-.112,1.834,1.834,0,0,1-1.215-1.506,1.884,1.884,0,0,1,2.653-1.983,1.888,1.888,0,0,1,.493,3.093h0A1.9,1.9,0,0,1,2936.044,1333.86Zm.006-2.975a1.087,1.087,0,0,0-1.066,1.243,1.048,1.048,0,0,0,.692.864,1.078,1.078,0,0,0,1.113-.229,1.085,1.085,0,0,0-.284-1.776A1.079,1.079,0,0,0,2936.05,1330.885Z" transform="translate(-2934.167 -1330.081)" fill="#fe5244"/></g><g transform="translate(10.103 34.701)"><path d="M2637.533,925.171h0a1.486,1.486,0,0,0-2.435.388h0a1.483,1.483,0,0,0,1.565,2.087h0A1.478,1.478,0,0,0,2637.533,925.171Z" transform="translate(-2634.557 -924.297)" fill="#ffcf2d"/><path d="M2633.826,925.466a1.885,1.885,0,0,1-1.7-2.674,1.887,1.887,0,1,1,1.988,2.653A1.979,1.979,0,0,1,2633.826,925.466Zm.021-2.965a1.13,1.13,0,0,0-.176.014,1.08,1.08,0,1,0,1.193,1.424,1.059,1.059,0,0,0-.232-1.091h0A1.064,1.064,0,0,0,2633.847,922.5Z" transform="translate(-2631.949 -921.699)" fill="#fe5244"/></g><g transform="translate(12.498)"><path d="M2655.434,665.771h0a1.487,1.487,0,0,0-2.435.388h0a1.483,1.483,0,0,0,1.565,2.087h0A1.478,1.478,0,0,0,2655.434,665.771Z" transform="translate(-2652.457 -664.897)" fill="#ffcf2d"/><path d="M2651.726,666.067a1.886,1.886,0,0,1-1.7-2.674,1.887,1.887,0,1,1,1.987,2.652A1.943,1.943,0,0,1,2651.726,666.067Zm.021-2.965a1.131,1.131,0,0,0-.176.014,1.08,1.08,0,1,0,1.193,1.424,1.059,1.059,0,0,0-.232-1.091h0A1.063,1.063,0,0,0,2651.748,663.1Z" transform="translate(-2649.85 -662.299)" fill="#fe5244"/></g><g transform="translate(35.614)"><path d="M2828.233,665.771h0a1.487,1.487,0,0,0-2.435.388h0a1.483,1.483,0,0,0,1.565,2.087h0A1.478,1.478,0,0,0,2828.233,665.771Z" transform="translate(-2825.257 -664.897)" fill="#ffcf2d"/><path d="M2824.526,666.067a1.886,1.886,0,0,1-1.7-2.674,1.887,1.887,0,1,1,1.987,2.652A1.944,1.944,0,0,1,2824.526,666.067Zm.021-2.965a1.132,1.132,0,0,0-.176.014,1.08,1.08,0,1,0,1.193,1.424,1.057,1.057,0,0,0-.231-1.091h0A1.062,1.062,0,0,0,2824.547,663.1Z" transform="translate(-2822.65 -662.299)" fill="#fe5244"/></g><g transform="translate(37.292 15.35)"><path d="M2839.128,780.137h0a1.483,1.483,0,0,0-.521,2.408h0a1.485,1.485,0,0,0,2.515-.7h0A1.485,1.485,0,0,0,2839.128,780.137Z" transform="translate(-2837.789 -779.631)" fill="#ffcf2d"/><path d="M2837.067,780.816a1.886,1.886,0,0,1-1.832-2.281,1.884,1.884,0,0,1,1.148-1.356h0a1.884,1.884,0,1,1,1.2,3.566A1.94,1.94,0,0,1,2837.067,780.816Zm.016-2.97a1.088,1.088,0,0,0-.4.079h0a1.065,1.065,0,1,0,.4-.079Z" transform="translate(-2835.193 -777.045)" fill="#fe5244"/></g><g transform="translate(24.017 6.861)"><path d="M2740.031,716.637h0a1.486,1.486,0,0,0-.762,2.341h0a1.483,1.483,0,0,0,2.568-.442h0A1.478,1.478,0,0,0,2740.031,716.637Z" transform="translate(-2738.555 -716.176)" fill="#ffcf2d"/><path d="M2737.832,717.354a1.866,1.866,0,0,1-1.47-.716,1.887,1.887,0,0,1,.964-2.977,1.882,1.882,0,1,1,.843,3.663A1.962,1.962,0,0,1,2737.832,717.354Zm.025-2.967a1.072,1.072,0,0,0-.3.044h0a1.077,1.077,0,1,0,1.072.288A1.054,1.054,0,0,0,2737.856,714.387Z" transform="translate(-2735.961 -713.586)" fill="#fe5244"/></g><g transform="translate(21.844 43.967)"><path d="M2724.022,993.968h0a1.487,1.487,0,0,0-1.124,2.194h0a1.483,1.483,0,0,0,2.609-.027h0A1.483,1.483,0,0,0,2724.022,993.968Z" transform="translate(-2722.312 -993.557)" fill="#ffcf2d"/><path d="M2721.6,994.73a1.864,1.864,0,0,1-1.649-.97,1.888,1.888,0,0,1,1.428-2.788h0a1.891,1.891,0,0,1,1.78.816,1.887,1.887,0,0,1-1.535,2.942Zm-.129-2.961a1.06,1.06,0,0,0-.83.577,1.081,1.081,0,0,0,.96,1.581h.015a1.084,1.084,0,0,0,.881-1.689A1.076,1.076,0,0,0,2721.475,991.769Z" transform="translate(-2719.72 -990.96)" fill="#fe5244"/></g><g transform="translate(10.38 71.832)"><path d="M2638.322,1202.268h0a1.487,1.487,0,0,0-1.124,2.194h0a1.483,1.483,0,0,0,2.608-.027h0A1.483,1.483,0,0,0,2638.322,1202.268Z" transform="translate(-2636.612 -1201.857)" fill="#ffcf2d"/><path d="M2635.905,1203.03a1.864,1.864,0,0,1-1.649-.97,1.888,1.888,0,0,1,1.428-2.788h0a1.891,1.891,0,0,1,1.78.816,1.887,1.887,0,0,1-1.535,2.942Zm-.129-2.961a1.06,1.06,0,0,0-.831.577,1.081,1.081,0,0,0,.96,1.581h.015a1.084,1.084,0,0,0,.881-1.688A1.075,1.075,0,0,0,2635.776,1200.069Z" transform="translate(-2634.021 -1199.26)" fill="#fe5244"/></g><g transform="translate(14.466 17.915)"><path d="M2668.632,799.265h0a1.486,1.486,0,0,0-.762,2.341h0a1.484,1.484,0,0,0,2.569-.441h0A1.481,1.481,0,0,0,2668.632,799.265Z" transform="translate(-2667.155 -798.808)" fill="#ffcf2d"/><path d="M2666.431,799.981a1.865,1.865,0,0,1-1.469-.716,1.888,1.888,0,0,1,.965-2.977h0a1.886,1.886,0,0,1,1.885.525,1.882,1.882,0,0,1-1.046,3.139A1.954,1.954,0,0,1,2666.431,799.981Zm-.283-2.921a1.079,1.079,0,0,0,.482,2.1,1.079,1.079,0,1,0-.482-2.1Z" transform="translate(-2664.562 -796.217)" fill="#fe5244"/></g><g transform="translate(25.542 25.402)"><path d="M2751.432,855.237h0a1.486,1.486,0,0,0-.762,2.341h0a1.483,1.483,0,0,0,2.568-.441h0A1.475,1.475,0,0,0,2751.432,855.237Z" transform="translate(-2749.955 -854.776)" fill="#ffcf2d"/><path d="M2749.231,855.954a1.864,1.864,0,0,1-1.469-.716,1.887,1.887,0,0,1,.964-2.977,1.882,1.882,0,1,1,.842,3.663A1.961,1.961,0,0,1,2749.231,855.954Zm.028-2.966a1.107,1.107,0,0,0-.309.045h0a1.079,1.079,0,0,0,.48,2.1,1.081,1.081,0,0,0-.171-2.146Z" transform="translate(-2747.362 -852.186)" fill="#fe5244"/></g><g transform="translate(0 22.72)"><path d="M2562.066,837.546h0a1.475,1.475,0,0,0-.709-2.354h0a1.477,1.477,0,0,0-1.86,1.819h0A1.481,1.481,0,0,0,2562.066,837.546Z" transform="translate(-2559.033 -834.724)" fill="#ffcf2d"/><path d="M2558.33,835.9a1.931,1.931,0,0,1-.392-.041,1.885,1.885,0,0,1-1.43-1.327,1.834,1.834,0,0,1,.479-1.852,1.883,1.883,0,0,1,2.784,2.53h0A1.856,1.856,0,0,1,2558.33,835.9Zm-.022-2.965a1.07,1.07,0,0,0-.757.316,1.046,1.046,0,0,0-.274,1.055,1.082,1.082,0,1,0,2.076-.609,1.057,1.057,0,0,0-.717-.712A1.114,1.114,0,0,0,2558.308,832.936Z" transform="translate(-2556.428 -832.135)" fill="#fe5244"/></g><g transform="translate(50.714 22.76)"><path d="M2941.166,837.846h0a1.475,1.475,0,0,0-.709-2.354h0a1.477,1.477,0,0,0-1.86,1.819h0A1.48,1.48,0,0,0,2941.166,837.846Z" transform="translate(-2938.132 -835.024)" fill="#ffcf2d"/><path d="M2937.413,836.2a1.909,1.909,0,0,1-.4-.042,1.867,1.867,0,0,1-1.416-1.328,1.832,1.832,0,0,1,.481-1.848,1.883,1.883,0,0,1,2.785,2.53h0A1.885,1.885,0,0,1,2937.413,836.2Zm-.009-2.964a1.068,1.068,0,0,0-.756.316,1.043,1.043,0,0,0-.274,1.055,1.057,1.057,0,0,0,.811.766,1.084,1.084,0,0,0,1.264-1.374,1.055,1.055,0,0,0-.716-.712A1.11,1.11,0,0,0,2937.4,833.237Z" transform="translate(-2935.524 -832.435)" fill="#fe5244"/></g><g transform="translate(37.845 76.992)"><path d="M2844.966,1243.246h0a1.475,1.475,0,0,0-.709-2.354h0a1.478,1.478,0,0,0-1.86,1.819h0A1.489,1.489,0,0,0,2844.966,1243.246Z" transform="translate(-2841.932 -1240.424)" fill="#ffcf2d"/><path d="M2841.217,1241.591a1.927,1.927,0,0,1-.4-.043,1.877,1.877,0,0,1-.931-3.166,1.883,1.883,0,0,1,2.784,2.53l0,0A1.887,1.887,0,0,1,2841.217,1241.591Zm-.012-2.954a1.069,1.069,0,0,0-.756.316,1.074,1.074,0,0,0,.535,1.81,1.075,1.075,0,0,0,1.266-1.364,1.055,1.055,0,0,0-.717-.712A1.106,1.106,0,0,0,2841.2,1238.637Z" transform="translate(-2839.325 -1237.835)" fill="#fe5244"/></g></g></g><g transform="translate(101.04)"><g transform="translate(12.027 26.218)"><g transform="translate(0 0.013)"><path d="M2604.971,485.53l-.9.04-13.057.8a23.646,23.646,0,0,0-9.4,2.582l-4.013-12.013,17.886-13.11Z" transform="translate(-2577.6 -463.832)" fill="#f86b6b"/></g><path d="M2581.56,488.681h0a16.851,16.851,0,0,0,8.375-8.4l6.5-14.381-.95-2.167-17.886,13.11Z" transform="translate(-2577.6 -463.732)" fill="#e34545"/></g><g transform="translate(0.596 11.2)"><path d="M2522.623,367.7a4.522,4.522,0,0,1-4.508,4.508h-3.933a12.3,12.3,0,0,1-14.02,9.03l-2.957-.522a6.1,6.1,0,0,1-4.99-6.849l3.465-17.351a6.008,6.008,0,0,1,7.959-4.7l5.739,2.3a7.69,7.69,0,0,1,5.191,7.264v1.672l3.545.134A4.51,4.51,0,0,1,2522.623,367.7Z" transform="translate(-2492.157 -351.469)" fill="#f86b6b"/><g transform="translate(5.116 8.369)"><g transform="translate(18.354 5.284)"><path d="M2667.935,457.318a.334.334,0,0,1-.334-.334,3.455,3.455,0,0,1,3.451-3.451.334.334,0,1,1,0,.669,2.786,2.786,0,0,0-2.783,2.783A.334.334,0,0,1,2667.935,457.318Z" transform="translate(-2667.6 -453.532)"/></g><path d="M2535.552,417.39a.334.334,0,0,1-.268-.134,6.21,6.21,0,0,0-4.548-2.554.334.334,0,0,1,0-.669,6.766,6.766,0,0,1,5.084,2.823.334.334,0,0,1-.268.535Z" transform="translate(-2530.402 -414.032)"/><g transform="translate(0.629 3.694)"><ellipse cx="1.431" cy="0.669" rx="1.431" ry="0.669" transform="translate(0 2.817) rotate(-79.7)"/></g></g></g><path d="M2514.253,290.676a4.51,4.51,0,0,1,4.508,4.508v.067c2.007-3.09,6.93-10.956,6.93-13.618,0-3.572-4.455-7.144-9.07-5.512q.462-.341.963-.722c1.78-1.391,2.716-2.435,2.863-3.184a.872.872,0,0,0-.12-.7,1.809,1.809,0,0,0-1.753-.99c-.923.147-1.872,1.284-2.822,3.371a25.487,25.487,0,0,0-.95,2.461c-.374-2.234-2.18-9.632-9.939-8.495-2.676.388-3.933,1.5-4.281,2.716-2.221-1.739-5.191-3.1-7.652-1.806-4.254,2.234-3.732,5.9-1.271,8.495-2.328-.04-3.96.642-3.96,2.609,0,1.806,1.859,2.676,4.415,3.023a37.859,37.859,0,0,0,8.668-.161c2.02-.227,3.839-.508,5-.709a8.412,8.412,0,0,0-1.017,4.107c.12,2.381,1.846,3.786,4.281,4.281a10.815,10.815,0,0,0,1.659.2Zm4.4-19.611a.413.413,0,0,1,.134-.013c.374,0,.736.268,1.1.776a.4.4,0,0,1,.04.281c-.214,1.084-2.957,3.144-4.549,4.227C2516.006,274.49,2517.33,271.292,2518.655,271.065Z" transform="translate(-2487.699 -267.75)"/></g><g transform="translate(0 24.866)"><g transform="translate(0 62.487)"><g transform="translate(2.217 12.307)"><path d="M1837.269,1038.47h-85.616a2.676,2.676,0,0,1-2.261-4.107l11.4-17.9a8.053,8.053,0,0,1,6.8-3.732h57.951Z" transform="translate(-1748.973 -1012.732)" fill="#f86b6b"/></g><g transform="translate(22.715)"><path d="M1902.2,933.053l6.823-11.237a2.246,2.246,0,0,1,1.913-1.084h0a2.242,2.242,0,0,1,1.913,3.411l-5.418,8.909Z" transform="translate(-1902.2 -920.732)" fill="#fe5244"/></g><g transform="translate(65.913 12.307)"><path d="M2249.718,1038.47h-19.25l-.134-.134a18.191,18.191,0,0,1-4.04-19.157l2.743-6.448h8.949Z" transform="translate(-2225.119 -1012.732)" fill="#e34545"/></g><g transform="translate(3.104 26.033)"><path d="M1769.493,1115.332h-10.729a2.023,2.023,0,0,0-1.752,1.017l-1.137,1.98a2.014,2.014,0,0,0,1.752,3.01h8.629a4.315,4.315,0,0,0,3.679-2.06l.923-1.512A1.6,1.6,0,0,0,1769.493,1115.332Z" transform="translate(-1755.608 -1115.332)" fill="#f86b6b"/></g><g transform="translate(0.335 32.039)"><path d="M1748.792,1160.232h-10.729a2.023,2.023,0,0,0-1.752,1.017l-1.137,1.98a2.014,2.014,0,0,0,1.753,3.01h8.628a4.315,4.315,0,0,0,3.679-2.06l.923-1.512A1.6,1.6,0,0,0,1748.792,1160.232Z" transform="translate(-1734.908 -1160.232)" fill="#f86b6b"/></g><g transform="translate(6.168 19.946)"><path d="M1792.393,1069.832h-10.729a2.023,2.023,0,0,0-1.753,1.017l-1.137,1.98a2.014,2.014,0,0,0,1.753,3.01h8.629a4.315,4.315,0,0,0,3.679-2.06l.923-1.512A1.6,1.6,0,0,0,1792.393,1069.832Z" transform="translate(-1778.508 -1069.832)" fill="#f86b6b"/></g><g transform="translate(2.769 25.698)"><path d="M1764.084,1119.507h-8.628a2.348,2.348,0,0,1-2.043-3.51l1.138-1.981a2.362,2.362,0,0,1,2.042-1.185h10.729a1.906,1.906,0,0,1,1.677.979,1.927,1.927,0,0,1-.026,1.963l-.924,1.514A4.624,4.624,0,0,1,1764.084,1119.507Zm-7.491-6.007a1.692,1.692,0,0,0-1.462.849l-1.137,1.98a1.679,1.679,0,0,0,1.462,2.509h8.628a3.958,3.958,0,0,0,3.394-1.9l.922-1.511a1.264,1.264,0,0,0,.016-1.286,1.245,1.245,0,0,0-1.095-.64Z" transform="translate(-1753.101 -1112.832)" fill="#e34545"/></g><g transform="translate(0 31.705)"><path d="M1743.385,1164.407h-8.628a2.348,2.348,0,0,1-2.043-3.51l1.137-1.981a2.363,2.363,0,0,1,2.042-1.185h10.729a1.934,1.934,0,0,1,1.649,2.944l-.923,1.511A4.624,4.624,0,0,1,1743.385,1164.407Zm-7.491-6.006a1.692,1.692,0,0,0-1.462.849l-1.137,1.98a1.679,1.679,0,0,0,1.462,2.509h8.628a3.958,3.958,0,0,0,3.394-1.9l.923-1.511a1.265,1.265,0,0,0-1.079-1.926Z" transform="translate(-1732.402 -1157.732)" fill="#e34545"/></g><g transform="translate(5.833 19.611)"><path d="M1786.984,1074.007h-8.629a2.349,2.349,0,0,1-2.043-3.51l1.138-1.981a2.363,2.363,0,0,1,2.042-1.185h10.729a1.934,1.934,0,0,1,1.65,2.944l-.923,1.511A4.623,4.623,0,0,1,1786.984,1074.007Zm-7.491-6.006a1.692,1.692,0,0,0-1.462.849l-1.137,1.98a1.679,1.679,0,0,0,1.462,2.509h8.629a3.958,3.958,0,0,0,3.394-1.9l.922-1.511a1.265,1.265,0,0,0-1.079-1.926Z" transform="translate(-1776.002 -1067.332)" fill="#e34545"/></g><g transform="translate(8.68 17.083)"><path d="M1824.188,1060.245a13.3,13.3,0,0,1-8.762-3.291l-4.067-3.559h-3.746l-.963,1.03a8.516,8.516,0,0,1-6.381,2.9h-1.792a1.193,1.193,0,0,1-1-1.833l4.508-7.063h22.22v11.813Z" transform="translate(-1797.284 -1048.432)" fill="#f86b6b"/></g><g transform="translate(8.344 16.749)"><path d="M1822.013,1058.413a13.659,13.659,0,0,1-8.982-3.373l-3.972-3.476h-3.475l-.864.924a8.783,8.783,0,0,1-6.625,3.009H1796.3a1.527,1.527,0,0,1-1.285-2.348l4.507-7.062a.334.334,0,0,1,.564.36l-4.508,7.063a.858.858,0,0,0,.721,1.318h1.792a8.139,8.139,0,0,0,6.136-2.8l1.063-1.137h4.016l4.161,3.641a12.989,12.989,0,0,0,8.542,3.208.334.334,0,1,1,0,.669Z" transform="translate(-1794.773 -1045.932)" fill="#e34545"/></g></g><g transform="translate(70.34)"><g transform="translate(0 0.023)"><path d="M2313.777,529.3l-20.427,22.822a22.643,22.643,0,0,1-16.883,7.545h0a18.239,18.239,0,0,1-17.083-24.641l24.267-57.015-8.2-4.589a4,4,0,0,1-1.471-3.839l1.391-9.378c.428-2.087,2.555-3.719,4.628-4.2l9.6-2.167a1.177,1.177,0,0,1,1.432,1.324l-1.391,7.237a6.276,6.276,0,0,0,5.364,7.184h0a5.9,5.9,0,0,1,4.655,6.314l-6.542,40.8A31.177,31.177,0,0,0,2313.777,529.3Z" transform="translate(-2258.208 -453.802)" fill="#f86b6b"/></g><g transform="translate(31.677 31.478)"><path d="M2495.334,740.849a.334.334,0,0,1-.331-.385l7.892-51.249a.334.334,0,0,1,.661.1l-7.893,51.249A.334.334,0,0,1,2495.334,740.849Z" transform="translate(-2495 -688.931)" fill="#e34545"/></g><g transform="translate(23.1 6.769)"><path d="M2445.471,513.609a.318.318,0,0,1-.067-.007l-12.319-2.494a3.184,3.184,0,0,1-2.2-3.234l.107-3.319a.335.335,0,0,1,.669.022l-.107,3.318a2.553,2.553,0,0,0,1.7,2.567l12.281,2.486a.334.334,0,0,1-.066.662Z" transform="translate(-2430.888 -504.231)" fill="#e34545"/></g><g transform="translate(20.961)"><path d="M2439.982,470.846a.342.342,0,0,1-.045,0l-9.847-1.313a6.418,6.418,0,0,1-5.262-7.225l1.272-7.275a.62.62,0,0,0-.756-.714l-10.035,2.342a.334.334,0,1,1-.152-.651l10.033-2.341a1.289,1.289,0,0,1,1.569,1.481l-1.271,7.263a5.749,5.749,0,0,0,4.711,6.461l9.825,1.31a.334.334,0,0,1-.043.666Z" transform="translate(-2414.899 -453.628)" fill="#e34545"/></g><g transform="translate(40.317 62.324)"><rect width="39.786" height="0.803" transform="translate(0 29.595) rotate(-48.061)" fill="#fe5244"/></g><g transform="translate(25.39 23.906)"><path d="M2453.03,633h-4.7a.334.334,0,1,1,0-.669h4.7a.334.334,0,1,1,0,.669Z" transform="translate(-2448 -632.332)" fill="#e34545"/></g><g transform="translate(23.222 1.187)"><path d="M2435.666,473.023h-1.472a2.534,2.534,0,0,1-2.394-2.649V469.3a.334.334,0,1,1,.669,0v1.07a1.868,1.868,0,0,0,1.726,1.98h1.472a.889.889,0,0,0,.816-.963l.094-6.987a1.136,1.136,0,0,0-.45-.911,1.443,1.443,0,0,0-1.21-.285.334.334,0,1,1-.158-.65,2.127,2.127,0,0,1,1.785.411,1.789,1.789,0,0,1,.7,1.443l-.094,6.983A1.546,1.546,0,0,1,2435.666,473.023Z" transform="translate(-2431.8 -462.504)" fill="#e34545"/></g><g transform="translate(27.998 7.652)"><path d="M2470.831,514.885h-.936a2.534,2.534,0,0,1-2.395-2.649v-1.07a.334.334,0,1,1,.669,0v1.07a1.868,1.868,0,0,0,1.726,1.98h.936a.334.334,0,1,1,0,.669Z" transform="translate(-2467.5 -510.832)" fill="#e34545"/></g></g></g></g><g transform="translate(112.251 194.748)"><g transform="translate(82.837 6.775)"><rect width="0.803" height="130.184" transform="matrix(0.993, -0.119, 0.119, 0.993, 0, 0.096)"/></g><g transform="translate(0 6.773)"><rect width="130.183" height="0.803" transform="matrix(0.119, -0.993, 0.993, 0.119, 0, 129.256)"/></g><g transform="translate(5.712 91.288)"><rect width="87.716" height="0.803" fill="#7432ff"/></g><g transform="translate(4.535)"><path d="M2550.833,1733.354h84.412a2.032,2.032,0,0,0,2.033-2.033v-2.756a2.032,2.032,0,0,0-2.033-2.033h-84.412a2.032,2.032,0,0,0-2.033,2.033v2.756A2.033,2.033,0,0,0,2550.833,1733.354Z" transform="translate(-2548.399 -1726.131)" fill="#fff"/><path d="M2632.647,1731.157h-84.412a2.437,2.437,0,0,1-2.435-2.435v-2.756a2.438,2.438,0,0,1,2.435-2.435h84.412a2.438,2.438,0,0,1,2.435,2.435v2.756A2.438,2.438,0,0,1,2632.647,1731.157Zm-84.412-6.823a1.634,1.634,0,0,0-1.632,1.632v2.756a1.634,1.634,0,0,0,1.632,1.632h84.412a1.634,1.634,0,0,0,1.632-1.632v-2.756a1.634,1.634,0,0,0-1.632-1.632Z" transform="translate(-2545.8 -1723.532)" fill="#fe5244"/></g></g></g><g transform="translate(244.229 56.668)"><path d="M1867.07,543.322h-39.24a2.167,2.167,0,0,1-2.166-2.166v-21.01a2.167,2.167,0,0,1,2.166-2.166h39.24a2.167,2.167,0,0,1,2.166,2.166v21.01A2.167,2.167,0,0,1,1867.07,543.322Z" transform="translate(-1825.664 -517.98)" fill="#3fb1b5"/><g transform="translate(8.351 4.173)"><g transform="translate(0 15.86)"><path d="M1913.734,672.978h-25.642a14.12,14.12,0,0,1,10.981-5.246h3.681A14.159,14.159,0,0,1,1913.734,672.978Z" transform="translate(-1888.092 -667.732)" fill="#fe5244"/></g><g transform="translate(4.845 15.873)"><path d="M1931.487,667.826a3.855,3.855,0,0,1-7.174,1.39,14.125,14.125,0,0,1,6.123-1.39Z" transform="translate(-1924.313 -667.826)" fill="#fff"/></g><g transform="translate(12.183 15.86)"><path d="M1986.572,668.621a3.855,3.855,0,0,1-7.412-.889h2.491A14.281,14.281,0,0,1,1986.572,668.621Z" transform="translate(-1979.16 -667.732)" fill="#fff"/></g><g transform="translate(8.865 10.288)"><path d="M1962.27,626.082v5.684c0,.889-1.778,1.6-3.956,1.6a11.208,11.208,0,0,1-1.152-.063c-1.628-.2-2.8-.814-2.8-1.54v-5.684Z" transform="translate(-1954.357 -626.082)" fill="#f86b6b"/></g><g transform="translate(8.865 10.276)"><path d="M1961.744,627.166a6.826,6.826,0,0,1-4.583,6.047c-1.628-.2-2.8-.814-2.8-1.54v-5.684h7.262Z" transform="translate(-1954.357 -625.989)" fill="#e34545"/></g><g transform="translate(6.799 4.291)"><path d="M1950.921,586.521v.138a1.758,1.758,0,0,1-1.753,1.753h-1.678a4.8,4.8,0,0,1-4.357,2.767h-.326a3.89,3.89,0,0,1-3.894-3.894v-4.019c2.491.163,5.659-2.016,5.659-2.016,1.039,4.019,4.007,3.969,5.384,3.706A1.776,1.776,0,0,1,1950.921,586.521Z" transform="translate(-1938.914 -581.25)" fill="#f86b6b"/></g><g transform="translate(16.152 8.536)"><path d="M2009.018,614.619a.193.193,0,0,1-.188-.188,1.454,1.454,0,0,1,1.452-1.452.188.188,0,0,1,0,.376,1.077,1.077,0,0,0-1.077,1.077A.193.193,0,0,1,2009.018,614.619Z" transform="translate(-2008.83 -612.979)"/></g><g transform="translate(5.034)"><path d="M1937.465,560.627h.275a1.758,1.758,0,0,0,1.753-1.753v-.138a1.739,1.739,0,0,0-.964-1.565,5.613,5.613,0,0,1-1.44.088c-1.427-.113-3.193-.889-3.944-3.794,0,0-3.168,2.179-5.659,2.016a2.845,2.845,0,0,1-1.29-.363c-2.066-1.177,2.93-6.686,8.664-5.86,4.583.664,4.482,6.148,4.395,7.45a6.063,6.063,0,0,1,.676-.038,5.924,5.924,0,0,1,6.072,5.772,5.706,5.706,0,0,1-2.892,4.921,14.022,14.022,0,0,0-5.647-2.166Z" transform="translate(-1925.721 -549.174)"/></g><g transform="translate(6.91 6.787)"><path d="M1942.163,603.435a.094.094,0,0,1-.063-.013.186.186,0,0,1-.113-.238,2.688,2.688,0,0,0-.25-2.116,1.8,1.8,0,0,0-1.778-.764.189.189,0,1,1-.05-.376,2.194,2.194,0,0,1,2.166.952,3.027,3.027,0,0,1,.276,2.429A.236.236,0,0,1,1942.163,603.435Z" transform="translate(-1939.745 -599.909)"/></g><g transform="translate(10.729 6.778)"><path d="M1971.163,601a.2.2,0,0,1-.113-.038,4.178,4.178,0,0,0-2.554-.739.188.188,0,1,1-.025-.376,4.5,4.5,0,0,1,2.8.814.183.183,0,0,1,.038.263A.217.217,0,0,1,1971.163,601Z" transform="translate(-1968.294 -599.844)"/></g><g transform="translate(8.677 10.739)"><path d="M1952.954,629.452s.3,1.978,2.341.05A7.7,7.7,0,0,1,1952.954,629.452Z" transform="translate(-1952.954 -629.452)" fill="#fff"/></g><g transform="translate(11.557 7.897)"><ellipse cx="0.263" cy="0.588" rx="0.263" ry="0.588"/></g><g transform="translate(7.688 7.997)"><ellipse cx="0.225" cy="0.488" rx="0.225" ry="0.488"/></g></g></g><g transform="translate(243.741 28.074)"><path d="M1863.42,329.574h-39.24a2.167,2.167,0,0,1-2.166-2.166V306.4a2.167,2.167,0,0,1,2.166-2.166h39.24a2.167,2.167,0,0,1,2.166,2.166v21.01A2.175,2.175,0,0,1,1863.42,329.574Z" transform="translate(-1822.014 -304.232)" fill="#66b0f0"/><g transform="translate(9.466 5.122)"><g transform="translate(0 14.949)"><path d="M1916.724,459.536h-23.952a12.819,12.819,0,0,1,10.254-5.271h3.443A12.819,12.819,0,0,1,1916.724,459.536Z" transform="translate(-1892.772 -454.265)" fill="#ffcf2d"/></g><g transform="translate(7.562 11.857)"><path d="M1952.446,438.434h.538a4.248,4.248,0,0,0,4.245-4.245v-3.017a.027.027,0,0,0-.025-.025h-7.875a.027.027,0,0,0-.025.025v4.144A3.14,3.14,0,0,0,1952.446,438.434Z" transform="translate(-1949.303 -431.147)" fill="#f86b6b"/></g><g transform="translate(7.575 11.857)"><path d="M1949.4,431.147v4.232c.113,2.329,5.91,1.415,7.65-4.232Z" transform="translate(-1949.397 -431.147)" fill="#e34545"/></g><g transform="translate(5.497 4.557)"><path d="M1946.143,382.065a1.817,1.817,0,0,1-1.828,1.816H1942.6a4.306,4.306,0,0,1-4.031,2.78h-1.34a3.369,3.369,0,0,1-3.368-3.368v-5.259a5.249,5.249,0,0,0,3.618-1.452c-.025.088-1,2.842,1.215,2.992a2.874,2.874,0,0,0,2.955-1.5c0,.063.012,2.191,1.753,2.3h.914A1.718,1.718,0,0,1,1946.143,382.065Z" transform="translate(-1933.86 -376.581)" fill="#f86b6b"/></g><g transform="translate(2.806)"><path d="M1926.141,350.868h-.15c-1.74-.113-1.753-2.229-1.753-2.3a2.891,2.891,0,0,1-2.955,1.5c-2.2-.15-1.24-2.9-1.214-2.992a5.309,5.309,0,0,1-3.618,1.452,3.243,3.243,0,0,1-1.29-.388c-2.817-1.527-1-4.67,1.766-4.708a3.944,3.944,0,0,1,3.143,1.177,2.64,2.64,0,0,1,3.18-2.041,2.366,2.366,0,0,1,2.216,2.817s2.266-1.052,3.518.889C1930.461,348.551,1928.245,350.868,1926.141,350.868Z" transform="translate(-1913.747 -342.517)"/></g><g transform="translate(5.517 6.869)"><path d="M1936.294,397.638h-.05a.187.187,0,0,1-.138-.225,3.637,3.637,0,0,0-.238-2.266,1.615,1.615,0,0,0-1.64-.9.186.186,0,0,1-.213-.15.177.177,0,0,1,.15-.213,1.99,1.99,0,0,1,2.041,1.089,3.905,3.905,0,0,1,.275,2.529A.234.234,0,0,1,1936.294,397.638Z" transform="translate(-1934.011 -393.865)"/></g><g transform="translate(7.645 10.822)"><path d="M1950.736,424.688a2.536,2.536,0,0,1-.676-.088.187.187,0,1,1,.088-.363h0c.063.012,1.49.388,2.016-.714a.187.187,0,0,1,.25-.088.178.178,0,0,1,.088.25A1.821,1.821,0,0,1,1950.736,424.688Z" transform="translate(-1949.917 -423.417)"/></g><g transform="translate(10.017 7.963)"><ellipse cx="0.263" cy="0.588" rx="0.263" ry="0.588"/></g><g transform="translate(6.16 8.063)"><ellipse cx="0.225" cy="0.488" rx="0.225" ry="0.488"/></g><g transform="translate(14.824 9.089)"><path d="M2003.776,412.1a.193.193,0,0,1-.188-.188,1.454,1.454,0,0,1,1.453-1.452.188.188,0,0,1,0,.376,1.077,1.077,0,0,0-1.077,1.077A.192.192,0,0,1,2003.776,412.1Z" transform="translate(-2003.588 -410.462)"/></g></g></g><g transform="translate(196.988 28.074)"><path d="M1513.934,329.574h-39.24a2.167,2.167,0,0,1-2.166-2.166V306.4a2.167,2.167,0,0,1,2.166-2.166h39.24a2.167,2.167,0,0,1,2.166,2.166v21.01A2.159,2.159,0,0,1,1513.934,329.574Z" transform="translate(-1472.528 -304.232)" fill="#ffcf2d"/><g transform="translate(7.588 3.141)"><g transform="translate(0 16.191)"><path d="M1553.587,454.753h-24.34a12.65,12.65,0,0,1,10.417-6.01h3.506A12.667,12.667,0,0,1,1553.587,454.753Z" transform="translate(-1529.247 -448.743)" fill="#fff"/><g transform="translate(0 1.265)"><g transform="translate(0 4.357)"><path d="M1553.587,491.155h-24.34c.075-.113.15-.213.225-.326a.126.126,0,0,1,.05-.063h23.8a.219.219,0,0,0,.05.063C1553.437,490.93,1553.512,491.042,1553.587,491.155Z" transform="translate(-1529.247 -490.767)" fill="#feb040"/></g><g transform="translate(1.027 2.992)"><path d="M1559.209,480.953h-22.287c.113-.138.226-.263.338-.388h21.611C1558.983,480.69,1559.1,480.815,1559.209,480.953Z" transform="translate(-1536.922 -480.565)" fill="#feb040"/></g><g transform="translate(2.404 1.565)"><path d="M1566.749,470.283h-19.532c.15-.138.3-.263.451-.388H1566.3C1566.449,470.02,1566.6,470.145,1566.749,470.283Z" transform="translate(-1547.217 -469.895)" fill="#feb040"/></g><g transform="translate(4.495)"><path d="M1578.186,458.584h-15.338c.225-.138.463-.263.7-.388h13.923C1577.723,458.321,1577.948,458.446,1578.186,458.584Z" transform="translate(-1562.848 -458.196)" fill="#feb040"/></g></g></g><g transform="translate(8.138 11.496)"><g transform="translate(0 0.013)"><path d="M1598,413.738v5.6c0,.576-1.778,1.039-3.957,1.039-2.129,0-3.869-.438-3.957-1v-5.634Z" transform="translate(-1590.084 -413.738)" fill="#f86b6b"/></g><g transform="translate(0.012)"><path d="M1598.028,413.657v.125c0,2.755-3.418,5.91-5.885,6.273a2.5,2.5,0,0,1-1.966-.776v-5.634h7.851Z" transform="translate(-1590.177 -413.644)" fill="#e34545"/></g></g><g transform="translate(6.073 4.272)"><path d="M1586.773,365.112v.125a1.758,1.758,0,0,1-1.753,1.753h-1.515a4.143,4.143,0,0,1-3.994,3.03H1577.9a3.257,3.257,0,0,1-3.255-3.255V359.64c3,.839,8.376.05,8.376.05a5.617,5.617,0,0,0,.438,3.656h1.578A1.775,1.775,0,0,1,1586.773,365.112Z" transform="translate(-1574.641 -359.64)" fill="#f86b6b"/></g><g transform="translate(3.826)"><path d="M1572.032,337.091H1570.6a3.715,3.715,0,0,1-.526-3.418s-5.371.776-8.376-.05c-1.365-.376-2.241-1.089-1.916-2.354,1.039-4.057,12.233.263,13.009,1.728S1572.032,337.091,1572.032,337.091Z" transform="translate(-1559.468 -329.326)"/><path d="M1570.554,335.724h-1.713l-.073-.123a4.369,4.369,0,0,1-.672-3.245c-1.311.163-5.5.6-8.081-.109-2.142-.59-2.32-1.771-2.092-2.658.184-.719.78-1.621,2.571-1.833,3.685-.439,10.261,2.3,10.9,3.506.845,1.57-.7,4.227-.769,4.339Zm-1.425-.5h1.136c.283-.521,1.312-2.571.69-3.725-.516-.974-6.77-3.676-10.4-3.245-1.212.144-1.934.635-2.145,1.46-.094.363-.378,1.468,1.74,2.05,2.919.8,8.221.051,8.274.044l.476-.069-.217.429A3.415,3.415,0,0,0,1569.128,335.223Z" transform="translate(-1557.848 -327.708)"/></g><g transform="translate(6.055 6.571)"><g transform="translate(1.832 4.136)"><path d="M1591.145,408.647a.16.16,0,0,1-.125.05.2.2,0,0,1-.138-.063l-.175-.188a2.39,2.39,0,0,1-1.528.714.472.472,0,0,1-.138-.012,1.184,1.184,0,0,1-.8-.413.188.188,0,0,1,.3-.225.826.826,0,0,0,.551.275,1.938,1.938,0,0,0,1.365-.613l-.1-.113a.186.186,0,1,1,.276-.25l.526.576A.182.182,0,0,1,1591.145,408.647Z" transform="translate(-1588.201 -407.745)"/></g><g transform="translate(3.81)"><path d="M1605.857,378.137a.188.188,0,0,1-.138-.05,3.18,3.18,0,0,0-2.517-.864.184.184,0,0,1-.062-.363,3.43,3.43,0,0,1,2.842.964.182.182,0,0,1,0,.263A.145.145,0,0,1,1605.857,378.137Z" transform="translate(-1602.988 -376.831)"/></g><g transform="translate(0 0.247)"><path d="M1576.915,382.365a.076.076,0,0,1-.05-.012.193.193,0,0,1-.125-.238,3.351,3.351,0,0,0-.238-2.379,1.629,1.629,0,0,0-1.766-.638.187.187,0,0,1-.088-.363,1.976,1.976,0,0,1,2.179.826,3.608,3.608,0,0,1,.275,2.68A.2.2,0,0,1,1576.915,382.365Z" transform="translate(-1574.506 -378.676)"/></g><g transform="translate(0.782 1.494)"><ellipse cx="0.225" cy="0.488" rx="0.225" ry="0.488"/></g><g transform="translate(4.638 1.394)"><ellipse cx="0.263" cy="0.588" rx="0.263" ry="0.588"/></g><g transform="translate(9.233 2.145)"><path d="M1643.715,394.531a.192.192,0,0,1-.188-.188,1.48,1.48,0,0,1,1.477-1.478.188.188,0,0,1,0,.376,1.1,1.1,0,0,0-1.1,1.1A.184.184,0,0,1,1643.715,394.531Z" transform="translate(-1643.527 -392.866)"/></g></g></g></g><g transform="translate(196.988 56.668)"><path d="M1513.934,543.322h-39.24a2.167,2.167,0,0,1-2.166-2.166v-21.01a2.167,2.167,0,0,1,2.166-2.166h39.24a2.167,2.167,0,0,1,2.166,2.166v21.01A2.159,2.159,0,0,1,1513.934,543.322Z" transform="translate(-1472.528 -517.98)" fill="#00c471"/><g transform="translate(7.588 2.18)"><g transform="translate(0 17.152)"><path d="M1553.587,668.5h-24.34a12.65,12.65,0,0,1,10.417-6.01h3.506A12.666,12.666,0,0,1,1553.587,668.5Z" transform="translate(-1529.247 -662.491)" fill="#1f39d2"/></g><g transform="translate(8.138 12.457)"><g transform="translate(0 0.012)"><path d="M1598,627.486v5.6c0,.576-1.778,1.039-3.957,1.039-2.129,0-3.869-.438-3.957-1v-5.634Z" transform="translate(-1590.084 -627.486)" fill="#f86b6b"/></g><g transform="translate(0.012)"><path d="M1598.028,627.405v.125c0,2.755-3.418,5.91-5.885,6.273a2.5,2.5,0,0,1-1.966-.776v-5.634h7.851Z" transform="translate(-1590.177 -627.393)" fill="#e34545"/></g></g><g transform="translate(6.073 5.232)"><path d="M1586.773,578.86v.125a1.758,1.758,0,0,1-1.753,1.753h-1.515a4.143,4.143,0,0,1-3.994,3.03H1577.9a3.257,3.257,0,0,1-3.255-3.255v-7.124c3,.839,8.376.05,8.376.05a5.617,5.617,0,0,0,.438,3.656h1.578A1.774,1.774,0,0,1,1586.773,578.86Z" transform="translate(-1574.641 -573.388)" fill="#f86b6b"/></g><g transform="translate(2.814)"><path d="M1572.032,543H1570.6a3.715,3.715,0,0,1-.526-3.418s-5.371.776-8.376-.05c-1.365-.376-2.241-1.089-1.916-2.354,1.259-6.79,12.233.263,13.009,1.728S1572.032,543,1572.032,543Z" transform="translate(-1558.457 -534.278)"/><path d="M1564,549.472h-1.713l-.073-.123a4.37,4.37,0,0,1-.673-3.245c-1.311.163-5.5.6-8.081-.109-2.143-.59-3.381-1.331-3.152-2.219.184-.719,1.84-2.06,3.632-2.273,3.685-.439,10.261,2.3,10.9,3.506.845,1.57-.7,4.226-.769,4.339Zm-1.425-.5h1.135c.283-.521,1.312-2.571.69-3.725-.516-.974-6.77-3.676-10.4-3.245-1.212.144-1.934.635-2.145,1.46-.094.363-.378,1.468,1.74,2.05,2.919.8,8.221.051,8.274.044l.476-.069-.217.43A3.413,3.413,0,0,0,1562.578,548.971Z" transform="translate(-1550.286 -540.496)"/></g><g transform="translate(6.055 7.532)"><g transform="translate(1.832 4.136)"><path d="M1591.145,622.4a.16.16,0,0,1-.125.05.2.2,0,0,1-.138-.062l-.175-.188a2.39,2.39,0,0,1-1.528.714.468.468,0,0,1-.138-.013,1.184,1.184,0,0,1-.8-.413.188.188,0,0,1,.3-.225.828.828,0,0,0,.551.276,1.938,1.938,0,0,0,1.365-.614l-.1-.113a.186.186,0,0,1,.276-.25l.526.576A.182.182,0,0,1,1591.145,622.4Z" transform="translate(-1588.201 -621.493)"/></g><g transform="translate(3.81)"><path d="M1605.857,591.885a.188.188,0,0,1-.138-.05,3.18,3.18,0,0,0-2.517-.864.184.184,0,0,1-.062-.363,3.431,3.431,0,0,1,2.842.964.181.181,0,0,1,0,.263A.145.145,0,0,1,1605.857,591.885Z" transform="translate(-1602.988 -590.579)"/></g><g transform="translate(0 0.247)"><path d="M1576.915,596.113a.075.075,0,0,1-.05-.013.192.192,0,0,1-.125-.238,3.351,3.351,0,0,0-.238-2.379,1.629,1.629,0,0,0-1.766-.638.187.187,0,0,1-.088-.363,1.976,1.976,0,0,1,2.179.827,3.607,3.607,0,0,1,.275,2.679A.205.205,0,0,1,1576.915,596.113Z" transform="translate(-1574.506 -592.424)"/></g><g transform="translate(0.782 1.494)"><ellipse cx="0.225" cy="0.488" rx="0.225" ry="0.488"/></g><g transform="translate(4.638 1.394)"><ellipse cx="0.263" cy="0.588" rx="0.263" ry="0.588"/></g><g transform="translate(9.233 2.145)"><path d="M1643.715,608.28a.192.192,0,0,1-.188-.188,1.48,1.48,0,0,1,1.477-1.477.188.188,0,0,1,0,.376,1.1,1.1,0,0,0-1.1,1.1A.184.184,0,0,1,1643.715,608.28Z" transform="translate(-1643.527 -606.615)"/></g></g></g></g><g transform="translate(231.676 73.312)"><path d="M1755.835,648.961h-22.063a1.943,1.943,0,0,1-1.945-1.945v-2.67a1.943,1.943,0,0,1,1.945-1.945h22.063a1.943,1.943,0,0,1,1.945,1.945v2.67A1.947,1.947,0,0,1,1755.835,648.961Z" transform="translate(-1731.827 -642.401)" fill="#1f39d2"/><g transform="translate(16.059 2.276)"><path d="M1854.033,661.918h-1.489a.67.67,0,0,1-.669-.669v-1.163a.67.67,0,0,1,.669-.669h1.489a.67.67,0,0,1,.669.669v1.163A.67.67,0,0,1,1854.033,661.918Z" transform="translate(-1851.875 -659.417)" fill="#fff"/><g transform="translate(3.258 0.164)"><path d="M1877.024,662.786l-.55-.35a.525.525,0,0,1-.244-.444v-.525a.525.525,0,0,1,.244-.444l.55-.35a.2.2,0,0,1,.3.162v1.782A.2.2,0,0,1,1877.024,662.786Z" transform="translate(-1876.23 -660.643)" fill="#fff"/></g></g><g transform="translate(11.45 1.488)"><g transform="translate(0 1.038)"><path d="M1818.548,662.95h-.138a.99.99,0,0,1-.988-.988v-.582a.1.1,0,0,1,.094-.094h1.92a.1.1,0,0,1,.094.094v.582A.981.981,0,0,1,1818.548,662.95Zm-.938-1.476v.488a.8.8,0,0,0,.8.8h.138a.8.8,0,0,0,.8-.8v-.488Z" transform="translate(-1817.422 -661.287)" fill="#fff"/></g><g transform="translate(0.963 2.889)"><path d="M1824.715,676.019a.1.1,0,0,1-.094-.094v-.707a.094.094,0,0,1,.188,0v.707A.1.1,0,0,1,1824.715,676.019Z" transform="translate(-1824.621 -675.125)" fill="#fff"/></g><g transform="translate(0.475 3.596)"><path d="M1822.051,680.595h-.982a.094.094,0,1,1,0-.188h.982a.094.094,0,1,1,0,.188Z" transform="translate(-1820.975 -680.407)" fill="#fff"/></g><g transform="translate(0.45)"><path d="M1821.438,655.791h-.088a.56.56,0,0,1-.563-.563V654.09a.56.56,0,0,1,.563-.563h.088a.561.561,0,0,1,.563.563v1.138A.561.561,0,0,1,1821.438,655.791Z" transform="translate(-1820.788 -653.527)" fill="#fff"/></g></g><g transform="translate(5.552 1.711)"><g transform="translate(0 0.361)"><path d="M1774.574,658.86l-.006.006a.355.355,0,0,0,.075.494l.575.463a.36.36,0,0,0,.5-.031l.006-.006a.346.346,0,0,1,.494-.019l.519.469a.33.33,0,0,1,0,.513,1.507,1.507,0,0,1-1.832-.225l-.875-.707a1.521,1.521,0,0,1-.607-1.751.325.325,0,0,1,.5-.106l.569.413A.353.353,0,0,1,1774.574,658.86Z" transform="translate(-1773.328 -657.886)" fill="#fff"/></g><g transform="translate(1.708 0.657)"><path d="M1787.16,661.142a.1.1,0,0,1-.094-.088.818.818,0,0,0-.87-.763.1.1,0,0,1-.1-.088.1.1,0,0,1,.088-.1,1.007,1.007,0,0,1,1.069.938.093.093,0,0,1-.094.1Z" transform="translate(-1786.096 -660.102)" fill="#fff"/></g><g transform="translate(1.658)"><path d="M1787.424,656.792a.1.1,0,0,1-.094-.087,1.422,1.422,0,0,0-1.507-1.326.1.1,0,0,1-.1-.088.1.1,0,0,1,.088-.1,1.621,1.621,0,0,1,1.163.394,1.6,1.6,0,0,1,.544,1.1.093.093,0,0,1-.094.106Z" transform="translate(-1785.723 -655.188)" fill="#fff"/></g></g></g><g transform="translate(335.476 55.048) rotate(-47)"><path d="M.267,0A.267.267,0,0,1,.483.109,7.872,7.872,0,0,0,5.4,3.024a.268.268,0,0,1-.064.531A8.3,8.3,0,0,1,.052.426.268.268,0,0,1,.267,0Z" transform="translate(0 0)"/></g><g transform="translate(369.549 0)"><circle cx="11.5" cy="11.5" r="11.5" transform="translate(0.451 0.288)" fill="#f8b905" opacity="0.22"/><circle cx="10" cy="10" r="10" transform="translate(1.451 1.288)" fill="#f8b905" opacity="0.19"/><path d="M0,1.665a1.39,1.39,0,0,0,.233.768L.977,3.548a1.389,1.389,0,0,0,1.157.62H4.812a1.389,1.389,0,0,0,1.157-.62l.742-1.115a1.389,1.389,0,0,0,.233-.768L6.945,0H0Z" transform="matrix(0.883, 0.469, -0.469, 0.883, 3.729, 18.595)" fill="#7432ff"/><path d="M0,7.641a7.6,7.6,0,0,0,1.891,5.026,12.476,12.476,0,0,1,2.267,3.97c0,.011,0,.023,0,.034h6.957c0-.011,0-.022,0-.034a12.476,12.476,0,0,1,2.267-3.97A7.639,7.639,0,1,0,0,7.641ZM7.641,4.168A3.477,3.477,0,0,0,4.168,7.641a.695.695,0,1,1-1.389,0A4.868,4.868,0,0,1,7.641,2.779a.695.695,0,0,1,0,1.389Z" transform="matrix(0.883, 0.469, -0.469, 0.883, 8.528, 0.692)" fill="#fa0"/></g></g><g transform="translate(-9365.777 751.538)"><g transform="translate(0)"><g transform="translate(5.244 4.934)"><path d="M4221.465,529.433h-51.79a5.416,5.416,0,0,1-5.421-5.421v-51.79a5.416,5.416,0,0,1,5.421-5.421h51.79a5.416,5.416,0,0,1,5.422,5.421v51.79A5.425,5.425,0,0,1,4221.465,529.433Z" transform="translate(-4164.254 -466.8)" fill="#7432ff"/></g><g transform="translate(0.443 0.443)"><path d="M4189.986,500.052h-52.81a5.415,5.415,0,0,1-5.421-5.421v-52.81a5.415,5.415,0,0,1,5.421-5.421h52.81a5.416,5.416,0,0,1,5.421,5.421v52.81A5.415,5.415,0,0,1,4189.986,500.052Z" transform="translate(-4131.755 -436.4)" fill="#fff"/></g><path d="M4187.429,497.939h-52.81a5.871,5.871,0,0,1-5.864-5.865v-52.81a5.871,5.871,0,0,1,5.864-5.864h52.81a5.871,5.871,0,0,1,5.864,5.864v52.81A5.871,5.871,0,0,1,4187.429,497.939Zm-52.81-63.652a4.983,4.983,0,0,0-4.978,4.978v52.81a4.983,4.983,0,0,0,4.978,4.978h52.81a4.984,4.984,0,0,0,4.978-4.978v-52.81a4.984,4.984,0,0,0-4.978-4.978Z" transform="translate(-4128.755 -433.4)" fill="#7432ff"/><g transform="translate(7.46 7.445)"><path d="M4204.072,533.434a24.817,24.817,0,1,1,24.817-24.817A24.845,24.845,0,0,1,4204.072,533.434Zm0-48.747A23.931,23.931,0,1,0,4228,508.617,23.957,23.957,0,0,0,4204.072,484.686Z" transform="translate(-4179.256 -483.8)" fill="#7432ff"/></g><g transform="translate(18.125 21.36)"><path d="M4266.468,590.117,4251.629,578.8a.443.443,0,0,1,.538-.7l12.578,9.6-2.926-8.973a.443.443,0,1,1,.843-.275Z" transform="translate(-4251.455 -578)" fill="#7432ff"/></g></g></g></g></svg>