<svg xmlns="http://www.w3.org/2000/svg" width="540.828" height="407.896" viewBox="0 0 540.828 407.896"><g transform="translate(-517.5 -362.619)"><g transform="translate(517.5 700.992)"><g transform="translate(0 25.088)"><path d="M1055.533,2932.5l-169.632.3c-20.792.144-42.879.216-65.786.216-55.757,0-106.723-.46-145.7-1.223H517.5c0-27.713,30.5-15.54,38.548-10.647,9.353,5.684-2.691-24.577,16.4-24.577,16.346,0,25.7,8.216,25.7,8.216s.446-15.972,15.943-16.2,25.339,13.425,37.57,24.663a71.73,71.73,0,0,0,16.864,11.123c39.67-.835,92.967-1.353,151.588-1.353,27.771,0,54.333.115,78.837.331h0c43.541,0,83.413-22.893,94.723-28.634,27.943-14.217,14.705,19.669,14.705,19.669s21.54-9.065,36.692-8.993C1066.469,2905.476,1055.533,2932.5,1055.533,2932.5Z" transform="translate(-517.5 -2888.58)" fill="#d0f0e4"/></g><g transform="translate(411.172 16.525)"><path d="M3406.818,2881.578a24.575,24.575,0,0,1-12.236-3.93,49.379,49.379,0,0,1-9.951-8.257,76.047,76.047,0,0,1-9.184-11.881l-.4-.67.781.018a47.665,47.665,0,0,1,14.966,2.738,69.111,69.111,0,0,1-1.486-13.6,149.458,149.458,0,0,1,.526-16.328l.058-.6.547.243a35.983,35.983,0,0,1,15.654,13.366,50.319,50.319,0,0,1,6.874,17.1,73.368,73.368,0,0,1,1.353,20.986l-.858-.1a72.479,72.479,0,0,0-1.343-20.732c-2.158-9.981-7.638-23.149-21.478-29.583-.278,3.3-1.443,19.36,1.137,29.615,6.046,2.365,9.831,5.552,10.01,7.629.037.429-.047,1.459-1.627,1.773a5.87,5.87,0,0,1-5.335-1.441c-1.6-1.456-2.866-3.9-3.78-7.324a46.443,46.443,0,0,0-14.436-2.857,76.766,76.766,0,0,0,8.657,11.063c5.074,5.338,12.934,11.738,21.566,11.906ZM3392.059,2861a13.544,13.544,0,0,0,3.348,6.283,4.984,4.984,0,0,0,4.588,1.233c.99-.2.949-.672.934-.851-.109-1.269-2.546-3.677-6.99-5.825Q3393.023,2861.4,3392.059,2861Z" transform="translate(-3375.048 -2829.068)" fill="#ffcf2d"/><g transform="translate(31.406 27.848)"><path d="M3594.172,3046.816l-.859-.079a29.748,29.748,0,0,1,3-9.669,26.855,26.855,0,0,1,16.119-13.855c2.783-.887,4.45-.807,5.095.242s.142,2.813-1.561,5.584a68.878,68.878,0,0,1-5.732,7.665c-4.313,5.148-8.971,9.9-9.018,9.943l-.616-.6c.046-.047,4.683-4.774,8.974-9.9,7.674-9.159,7.6-11.61,7.217-12.239s-1.845-.589-4.1.128a26.006,26.006,0,0,0-15.609,13.419A29.387,29.387,0,0,0,3594.172,3046.816Z" transform="translate(-3593.313 -3022.604)" fill="#ffcf2d"/></g></g><g transform="translate(24.447 0)"><path d="M719.328,2781.457a92.545,92.545,0,0,1-23.858-26.013,69.016,69.016,0,0,1-7.914-18.686l-.155-.614.607.181a81.727,81.727,0,0,1,12.14,5.028c5.858,2.983,13.743,7.932,18.63,14.774.318-2.364,1.269-8.926,2.932-16.256,2.8-12.322,6.164-20.832,10.01-25.293l.3-.351.265.381c.052.075,1.293,1.9,2.612,6.99,1.171,4.52,2.623,12.584,3,25.552,2.513-4.153,11.79-19,19.086-24.395l.608-.449-.035.755c-.011.243-1.152,23.691-6.651,36.643a17.245,17.245,0,0,1,4.107-1.875c3.928-1.165,7.319-.294,9.807,2.519a6.7,6.7,0,0,1,1.73,5.093c-.419,5.757-7.095,11.454-7.379,11.694l-.464-.55c.067-.057,6.729-5.744,7.126-11.2a6.005,6.005,0,0,0-1.551-4.563c-2.322-2.625-5.372-3.4-9.064-2.306a16.783,16.783,0,0,0-4.935,2.48l-1.186.923.64-1.36c5.3-11.266,6.8-32.431,7.06-36.753-8.151,6.527-18.8,24.585-18.914,24.771l-.64,1.091-.03-1.264c-.529-22.6-4.28-31.1-5.277-32.968-8.772,10.811-12.531,41.4-12.568,41.707l-.116.967-.54-.81c-4.744-7.115-12.893-12.252-18.894-15.308a83.818,83.818,0,0,0-11.406-4.785c3.656,13.874,11.867,24.926,18.161,31.792a86.937,86.937,0,0,0,13.159,11.863Z" transform="translate(-687.401 -2714.226)" fill="#fe5244"/><g transform="translate(41.892 1.52)"><path d="M979.22,2790.02l-.679-.238c2.569-7.325,2.356-64.414,2.354-64.99l.719,0C981.624,2727.145,981.829,2782.579,979.22,2790.02Z" transform="translate(-978.541 -2724.789)" fill="#fe5244"/></g><g transform="translate(41.949 10.139)"><path d="M979.5,2841.408l-.565-.445c9.412-11.964,26.539-55.828,26.711-56.27l.67.261C1006.144,2785.4,988.978,2829.361,979.5,2841.408Z" transform="translate(-978.935 -2784.693)" fill="#fe5244"/></g><g transform="translate(56.126 44.38)"><path d="M1078.6,3031.957c-.3,0-.81-.126-1.062-.926-.995-3.219,7.616-7.79,9.182-8.373l.251.674a22.221,22.221,0,0,0-3.173,1.651l.287.078c-.508,1.86-3.616,6.861-5.465,6.9Zm4.636-6.627c-2.65,1.677-5.476,3.982-5.011,5.487.134.426.307.424.381.421C1079.765,3031.215,1082.44,3027.389,1083.239,3025.33Z" transform="translate(-1077.461 -3022.657)" fill="#fe5244"/></g><g transform="translate(31.111 37.896)"><path d="M905.394,2991.338c-.052,0-.1,0-.158,0a1.141,1.141,0,0,1-.849-.45c-.961-1.179-.869-4.9-.571-8.119l-.007-.014.009,0c.229-2.479.579-4.66.661-5.155l.71.117c-.186,1.126-.445,2.972-.629,4.923.107.2.231.427.368.678,1.578,2.885,3.045,5.821,2.154,7.258A1.834,1.834,0,0,1,905.394,2991.338Zm-.944-7.4c-.209,2.857-.194,5.649.5,6.494a.418.418,0,0,0,.32.186c.619.023,1.013-.115,1.206-.426C907.179,2989.047,905.493,2985.849,904.449,2983.936Z" transform="translate(-903.612 -2977.592)" fill="#fe5244"/></g></g></g><g transform="translate(822.609 362.619)"><g transform="translate(38.725 221.127)"><g transform="translate(0 59.459)"><g transform="translate(9.013 76.46)"><g transform="translate(6.95 0.878)"><path d="M3039.6,2850.1c-9.784,4.792-8.864,13.986-8.95,20.159-.1,6.576-12.648,10.015-12.648,10.015,3.338-10.518.964-21.353.964-21.353Z" transform="translate(-3018 -2850.1)" fill="#f86b6b"/></g><path d="M3008.621,2869.094l-2.23,1.209-4.677-10.691a1.48,1.48,0,0,0-1.353-.892,1.647,1.647,0,0,0-.576.115,1.454,1.454,0,0,0-.877,1.166l-2.058,15.5-27.066,14.734c-.806-1.928,4.216-6.763,6.878-15.181,0,0,12.562-3.439,12.648-10.015.086-6.173-.82-15.382,8.95-20.159l2.058-.877C3011.542,2849.166,3008.621,2869.094,3008.621,2869.094Z" transform="translate(-2969.699 -2844)" fill="#ffcf2d"/></g><path d="M2949.367,2316.4v75.916l-22.389,9.713-16.778-76.218C2917.711,2326.1,2930.23,2324.515,2949.367,2316.4Z" transform="translate(-2909.749 -2315.857)" fill="#fff"/><path d="M2924.034,2399.3l-16.971-77.1.465.018c7.066.271,19.57-1.138,39.013-9.382l.5-.212v76.7Zm-16.069-76.348,16.584,75.34,21.772-9.445v-75.137C2927.457,2321.646,2915.117,2323.146,2907.965,2322.953Z" transform="translate(-2907.063 -2312.625)" fill="#00c471"/><g transform="translate(22.798 7.198)"><rect width="0.719" height="74.565" transform="matrix(0.998, -0.059, 0.059, 0.998, 0, 0.043)" fill="#00c471"/></g><g transform="translate(0.451 0.543)"><path d="M2949.367,2316.4v19.871l-38.1-5.511-1.065-4.95C2917.711,2326.1,2930.23,2324.515,2949.367,2316.4Z" transform="translate(-2910.2 -2316.4)" fill="#00c471"/></g></g><g transform="translate(34.893)"><g transform="translate(88.339)"><path d="M3792.724,1907.889l-14.475,3.051a1.4,1.4,0,0,1-1.7-1.367,1.365,1.365,0,0,1,.446-1.022l8.058-7.554-1.784-1.6s-18.706,3.669-19.771,15.339l1.424,1.554c7.353,7.223,15.281,3.5,20.821,1.626,5.295-1.784,11.612,6.432,12.864,8.13h.057c8.346-.273,14.26,2.691,15.713,1.353Z" transform="translate(-3763.5 -1899.4)" fill="#ffcf2d"/><g transform="translate(1.439 16.893)"><path d="M3773.5,2016.8c7.353,7.223,15.281,3.5,20.821,1.626,5.9-1.986,12.936,8.13,12.936,8.13-10.446.331-19.353,5.871-19.353,5.871Z" transform="translate(-3773.5 -2016.8)" fill="#f86b6b"/></g></g><g transform="translate(0 14.979)"><path d="M3152.3,2051.825s3.64,24.591,31.569,24.13,71.916-52.4,71.916-52.4l-15.468-16.95Z" transform="translate(-3151.907 -2006.154)" fill="#fff"/><path d="M3180.763,2073.669a34.345,34.345,0,0,1-16.118-3.624,27.786,27.786,0,0,1-9.667-8.424,31.636,31.636,0,0,1-5.376-12.4l-.038-.255,88.491-45.468,15.867,17.387-.2.241a306.154,306.154,0,0,1-25.519,26.064,165.028,165.028,0,0,1-23.465,18.032c-8.959,5.491-16.766,8.329-23.2,8.436C3181.276,2073.667,3181.018,2073.669,3180.763,2073.669Zm-30.406-24.3a31.29,31.29,0,0,0,5.22,11.853c3.966,5.476,11.688,11.96,25.943,11.719,6.305-.1,13.989-2.907,22.837-8.33a164.335,164.335,0,0,0,23.359-17.953,307.065,307.065,0,0,0,25.245-25.755l-15.068-16.512Z" transform="translate(-3149.564 -2003.502)" fill="#00c471"/></g><g transform="translate(16.139 24.715)"><path d="M3279.932,2113.146c-5.833,0-10.352-1.262-13.44-3.756a13.44,13.44,0,0,1-4.765-8.919l.712-.1c1.162,8.174,7.272,12.231,18.156,12.051,19.529-.314,47.2-25.985,61.951-41.259l.517.5c-14.832,15.354-42.668,41.16-62.457,41.478C3280.38,2113.145,3280.154,2113.146,3279.932,2113.146Z" transform="translate(-3261.726 -2071.163)" fill="#00c471"/></g></g></g><g transform="translate(29.895 18.185)"><path d="M3011.72,657.207c-2.547-.964-8.6,2.345-13.166,8.1-4.907,6.173-6.892,12.734-4.734,14.446l-69.11-36.749a4.41,4.41,0,0,0-6.346,4.993l20.922,79.255c-70.866,45.987-93.586,32.2-93.586,32.2V499.015c0,.014,0,.014.014.029.6,1.54,7.094.46,14.5-2.432,6.821-2.648,12.029-5.9,12.36-7.6l.014-.014v82.06a14.211,14.211,0,0,0,7.267,12.4Z" transform="translate(-2845.7 -489)" fill="#fe5244"/><path d="M3011.72,657.207c-2.547-.964-8.6,2.345-13.166,8.1-4.907,6.173-6.892,12.734-4.734,14.446l-69.11-36.749a4.41,4.41,0,0,0-6.346,4.993l20.922,79.571a290.989,290.989,0,0,1-45.138,24.389c-19.137,8.1-31.656,9.7-39.167,9.41-6.547-.245-9.281-1.914-9.281-1.914V499.015c0,.014,0,.014.014.029.6,1.54,7.094.46,14.5-2.432,6.821-2.648,12.029-5.9,12.36-7.6l.014-.014v82.06a14.211,14.211,0,0,0,7.267,12.4Z" transform="translate(-2845.7 -489)" fill="#00b261"/><g transform="translate(66.463 147.185)"><path d="M3389.257,1556.822a.43.43,0,0,1-.206-.052l-81.226-44.059a.432.432,0,0,1,.412-.759l81.226,44.059a.432.432,0,0,1-.206.811Z" transform="translate(-3307.599 -1511.899)" fill="#fff"/></g><g transform="translate(26.979 95.529)"><path d="M3042.308,1152.9l-9.108,52.937,46.491-32.016Z" transform="translate(-3033.2 -1152.9)" fill="#00b261"/></g><g transform="translate(26.38 95.097)"><path d="M3029.036,1204.2l9.282-53.947a.432.432,0,0,1,.851.146l-8.935,51.927,45.647-31.434a.432.432,0,1,1,.489.711Z" transform="translate(-3029.036 -1149.898)" fill="#fff"/></g></g><g transform="translate(0 0)"><g transform="translate(0 0.263)"><g transform="translate(0 0)"><g transform="translate(0 0.388)"><path d="M2705.675,380.561l-60.017,12.3c-2.216.46-4.5-1.511-5.094-4.4s.734-5.6,2.95-6.058l60.016-12.3Z" transform="translate(-2640.066 -369.675)" fill="#fff"/><path d="M2642.87,390.764a4.007,4.007,0,0,1-2.21-.7,6.332,6.332,0,0,1-2.579-4.056c-.627-3.074.821-5.982,3.229-6.482l60.37-12.375,2.289,11.166L2643.6,390.689A3.582,3.582,0,0,1,2642.87,390.764ZM2701.12,368l-59.664,12.23c-2.02.42-3.218,2.947-2.669,5.634a5.612,5.612,0,0,0,2.27,3.6,3.146,3.146,0,0,0,2.4.523l59.665-12.23Z" transform="translate(-2637.935 -367.149)" fill="#3fb1b5"/></g><g transform="translate(59.426)"><ellipse cx="4.101" cy="5.338" rx="4.101" ry="5.338" transform="matrix(0.98, -0.201, 0.201, 0.98, 0, 1.647)" fill="#fff"/><path d="M3059.847,378.533a4.2,4.2,0,0,1-2.741-1.1,6.565,6.565,0,0,1-2.051-3.656c-.631-3.078.816-5.984,3.225-6.478h0c2.41-.494,4.883,1.608,5.514,4.686a6.563,6.563,0,0,1-.448,4.169,4.018,4.018,0,0,1-2.778,2.309A3.593,3.593,0,0,1,3059.847,378.533ZM3058.424,368c-2.021.414-3.216,2.939-2.665,5.628a5.843,5.843,0,0,0,1.818,3.257,3.113,3.113,0,0,0,5.122-1.05,5.845,5.845,0,0,0,.39-3.709c-.552-2.689-2.645-4.54-4.665-4.126Z" transform="translate(-3054.335 -366.825)" fill="#3fb1b5"/></g></g><g transform="translate(8.093 14.036)"><path d="M2717.448,464.475s-19.411,21.814-17.3,26.62c2.763,2.748,5.007,3.957,4.677,4.979-.36,1.108-5.008,7.8-5.008,7.8l-.46-4.964-4.446,1.468s4.691-6.849,4.993-8.95c-1.928-1.468-5.856-4.518-5.727-6.648.144-2.259,7.022-10.288,12.015-15.828l-7.526,2.489-1.482-6.95,13.54-2.489Z" transform="translate(-2694.178 -462)" fill="#fe5244"/></g><g transform="translate(24.284 8.928)"><circle cx="4.086" cy="4.086" r="4.086" transform="translate(0.36 0.36)" fill="#fff"/><path d="M2811.146,435.392a4.446,4.446,0,1,1,4.446-4.446A4.451,4.451,0,0,1,2811.146,435.392Zm0-8.173a3.727,3.727,0,1,0,3.727,3.727A3.731,3.731,0,0,0,2811.146,427.219Z" transform="translate(-2806.7 -426.5)" fill="#fe5244"/></g></g><g transform="translate(29.862 17.098)"><path d="M2872.378,482.55c-.331,1.7-5.54,4.95-12.36,7.6-7.41,2.878-13.9,3.971-14.5,2.432,0-.014,0-.014-.014-.029-.518-1.554,4.979-5.108,12.346-7.971,7.41-2.878,13.9-3.971,14.5-2.432A.737.737,0,0,1,2872.378,482.55Z" transform="translate(-2845.465 -481.449)" fill="#00c471"/></g><g transform="translate(34.241 6.083)"><path d="M2893.44,404.922l-.792,11.425-.374,5.468a60.782,60.782,0,0,1-6.2,2.791,52.079,52.079,0,0,1-10.173,2.935V417.1l10.921-2.245a46.8,46.8,0,0,1,1.755-7.166C2889.713,404.4,2893.44,404.922,2893.44,404.922Z" transform="translate(-2875.9 -404.893)" fill="#f86b6b"/></g><g transform="translate(40.27 15.278)"><path d="M2918.088,474.987a.288.288,0,0,1-.288-.288c0-2.629,2.507-4.155,4-5.067a5.01,5.01,0,0,0,.915-.629.288.288,0,0,1,.555.152c-.07.288-.41.505-1.17.968-1.395.849-3.728,2.269-3.728,4.575A.288.288,0,0,1,2918.088,474.987Zm4.627-5.968h0Z" transform="translate(-2917.8 -468.799)" fill="#e34545"/></g><g transform="translate(34.241 17.537)"><path d="M2892.649,484.5l-.374,5.468a60.782,60.782,0,0,1-6.2,2.792,52.079,52.079,0,0,1-10.173,2.935v-4.72a57.649,57.649,0,0,1,8-3.784A54.653,54.653,0,0,1,2892.649,484.5Z" transform="translate(-2875.9 -484.5)" fill="#e34545"/></g><g transform="translate(30.399)"><path d="M2862.639,374.444l-12.187,2.791a1.057,1.057,0,0,1-1.252-1.094v-7.4a2.226,2.226,0,0,1,1.482-2.144l12.044-3.928a1.2,1.2,0,0,1,1.525,1.209v8.432A2.176,2.176,0,0,1,2862.639,374.444Z" transform="translate(-2849.2 -362.619)" fill="#f86b6b"/><g transform="translate(2.734 2.976)"><path d="M2869.554,394.1a1.359,1.359,0,0,1-1.354-1.363v-7.094a2.421,2.421,0,0,1,1.73-2.333.288.288,0,1,1,.166.551,1.849,1.849,0,0,0-1.32,1.782v7.094a.784.784,0,0,0,.292.614.775.775,0,0,0,.654.155.288.288,0,0,1,.122.562A1.364,1.364,0,0,1,2869.554,394.1Z" transform="translate(-2868.2 -383.299)" fill="#e34545"/></g><g transform="translate(6.245 1.911)"><path d="M2893.96,387a1.34,1.34,0,0,1-.843-.3,1.393,1.393,0,0,1-.518-1.091V378.3a2.492,2.492,0,0,1,1.73-2.391.288.288,0,1,1,.166.551,1.912,1.912,0,0,0-1.32,1.84v7.31a.82.82,0,0,0,.3.643.763.763,0,0,0,.643.155.288.288,0,1,1,.122.562A1.327,1.327,0,0,1,2893.96,387Z" transform="translate(-2892.6 -375.9)" fill="#e34545"/></g><g transform="translate(10.173 0.717)"><path d="M2921.266,379.062a1.332,1.332,0,0,1-.837-.3,1.429,1.429,0,0,1-.529-1.12v-7.569a2.57,2.57,0,0,1,1.726-2.461.288.288,0,0,1,.174.548,1.991,1.991,0,0,0-1.324,1.913v7.569a.856.856,0,0,0,.315.672.75.75,0,0,0,.631.154.288.288,0,0,1,.122.562A1.314,1.314,0,0,1,2921.266,379.062Z" transform="translate(-2919.9 -367.599)" fill="#e34545"/></g></g><g transform="translate(177.135 186.212)"><path d="M3882.409,1671.23c-4.907,6.187-10.4,9.943-12.562,8.23s-.173-8.259,4.734-14.447c4.576-5.756,10.619-9.065,13.166-8.1l.5.288C3890.424,1658.928,3887.316,1665.058,3882.409,1671.23Z" transform="translate(-3868.981 -1656.748)" fill="#00c471"/><g transform="translate(1.816 3.921)"><path d="M3915.414,1704.965l-3.266,1.727a2.66,2.66,0,0,1-3.6-1.094l-3.438-6.389-5.209-1.784c.576.216,2.82,1.367,2.115,5.554l-12.231-4.561-4.2-1.568-3.986-2.547a33.063,33.063,0,0,1,3.813-5.943,29.9,29.9,0,0,1,4.245-4.36l4.159,2.907,4.259.46,6.921.734a7.239,7.239,0,0,1,3.108,1.079l5.525,3.928a3.532,3.532,0,0,1,1.468,2.417l1.123,7.856A1.527,1.527,0,0,1,3915.414,1704.965Z" transform="translate(-3881.6 -1684)" fill="#f86b6b"/></g><g transform="translate(27.299 11.806)"><path d="M4065.334,1752.6a.288.288,0,0,1-.132-.544,1.041,1.041,0,0,0,.551-1.074l-.977-6.338a2.875,2.875,0,0,0-1.163-1.91l-4.792-3.411a.288.288,0,1,1,.334-.469l4.792,3.41a3.454,3.454,0,0,1,1.4,2.292l.978,6.345a1.634,1.634,0,0,1-.858,1.667A.289.289,0,0,1,4065.334,1752.6Z" transform="translate(-4058.7 -1738.799)" fill="#e34545"/></g><g transform="translate(24.334 12.943)"><path d="M4044.733,1760.5a.288.288,0,0,1-.132-.544,1.041,1.041,0,0,0,.551-1.075l-.978-6.338a2.875,2.875,0,0,0-1.162-1.91l-4.792-3.41a.288.288,0,0,1,.334-.469l4.792,3.41a3.451,3.451,0,0,1,1.4,2.292l.978,6.345a1.634,1.634,0,0,1-.857,1.667A.29.29,0,0,1,4044.733,1760.5Z" transform="translate(-4038.1 -1746.7)" fill="#e34545"/></g><g transform="translate(16.348 15.864)"><path d="M3986.369,1768.755a.285.285,0,0,1-.093-.015l-3.482-1.18a.288.288,0,0,1,.185-.545l3.482,1.18a.288.288,0,0,1-.092.56Z" transform="translate(-3982.599 -1766.999)" fill="#e34545"/></g><g transform="translate(1.816 3.921)"><path d="M3898.076,1687.367a49.065,49.065,0,0,1-4.85,7.209,41.647,41.647,0,0,1-3.439,3.842l-4.2-1.568-3.986-2.547a33.063,33.063,0,0,1,3.813-5.943,29.9,29.9,0,0,1,4.245-4.36l4.159,2.907Z" transform="translate(-3881.6 -1684)" fill="#e34545"/></g></g></g><g transform="translate(60.061 73.664)"><g transform="translate(9.721)"><g transform="translate(0 1.631)"><path d="M3122.9,885.9l30.778,13.655,10.979,32.116-22.3-15.943-10.4-12.706Z" transform="translate(-3122.9 -885.9)" fill="#00b261"/></g><g transform="translate(9.051 15.818)"><path d="M3185.8,987.435a19.783,19.783,0,0,1,14.13,12.95l2.144-2.158s-3.9-10.921-14.2-13.727Z" transform="translate(-3185.8 -984.5)" fill="#1f39d2"/></g><g transform="translate(0.859)"><path d="M3197.091,907.265c-3.453-1.957-6.648-3.036-7.669-2.648a1.286,1.286,0,0,0,.1-.576,1.2,1.2,0,0,0-1.194-1.108h-.1a1.217,1.217,0,0,0-1.108,1.295c0,.043.014.086.014.115l-3.655,2.345a2.639,2.639,0,0,1-4.058-2.23v-5.252a6.794,6.794,0,0,0-9.468-6.245l-6.964,3.108-2.647-7.756L3129.405,874.6a.383.383,0,0,0-.3.7l30.62,13.583,10.921,31.958a.385.385,0,0,0,.36.259c.043,0,.086-.014.13-.014a.4.4,0,0,0,.244-.489l-8.13-23.8,7.022-3.137a6.014,6.014,0,0,1,8.389,5.54v5.252a3.391,3.391,0,0,0,5.238,2.878l3.626-2.317a1.182,1.182,0,0,0,.806.317h.1a1.06,1.06,0,0,0,.662-.273c0,1.022,2.619,3.309,6.216,5.353.777.446,1.554.849,2.288,1.194a4.908,4.908,0,0,0,1.123-1.353,4.64,4.64,0,0,0,.575-1.655C3198.6,908.171,3197.868,907.711,3197.091,907.265Zm-8.734-2.532a.583.583,0,0,1-.633-.532.585.585,0,1,1,.633.532Z" transform="translate(-3128.868 -874.568)" fill="#00b261"/></g></g><g transform="translate(0 18.048)"><g transform="translate(11.448 16.792)"><path d="M3140.224,1119.535l-5.324,29.613,18.145-13.986V1116.7Z" transform="translate(-3134.9 -1116.7)" fill="#f86b6b"/><g transform="translate(4.662)"><path d="M3167.962,1119.535l-.662,3.712,8.029,16.116,5.454-4.2V1116.7Z" transform="translate(-3167.3 -1116.7)" fill="#e34545"/></g></g><g transform="translate(0 0.238)"><path d="M3076.1,1004.134s-9.08-2.259-11.914,3.007,5.454,6.72,5.8,4.878c.158-.806-14.921-.791-12.389,10.619,2.633,11.885,14.5,7.8,14.5,7.8l1.381-7.684Z" transform="translate(-3057.024 -1003.364)"/><path d="M3065.938,1029.7a10.942,10.942,0,0,1-5.369-1.29c-2.5-1.4-4.158-3.9-4.939-7.421-.861-3.879.213-6.985,3.1-8.984a13.008,13.008,0,0,1,4.291-1.838,4.026,4.026,0,0,1-.732-.724c-.612-.8-1.117-2.161-.046-4.15,1.21-2.248,3.722-3.5,7.263-3.63a19.881,19.881,0,0,1,4.974.48l.252.063-2.655,18.876-1.413,7.861-.16.055A15.319,15.319,0,0,1,3065.938,1029.7Zm-2.235-19.092a12.761,12.761,0,0,0-4.614,1.853c-2.743,1.88-3.717,4.708-2.9,8.4.744,3.357,2.31,5.726,4.655,7.041,3.749,2.1,8.4.871,9.315.6l1.35-7.512,2.58-18.345c-1.468-.307-8.9-1.607-11.339,2.92a3.057,3.057,0,0,0,0,3.526,3.706,3.706,0,0,0,1.053.906c2.22-.427,4.133-.331,4.593-.03a.381.381,0,0,1,.187.395c-.081.432-.464.752-1.079.9A5.778,5.778,0,0,1,3063.7,1010.606Zm1.03-.177a5.071,5.071,0,0,0,2.636.272,1.076,1.076,0,0,0,.584-.307A9.755,9.755,0,0,0,3064.733,1010.429Zm3.284-.176v0Z" transform="translate(-3055.341 -1001.651)"/><g transform="translate(22.622 13.947)"><path d="M3221.081,1105.025s-13.554,17.67-1.64,25.181c9.554,6.015,12.015-2.46,9.454-3.626-2.777-1.266-9.151,22.619,10.475,22.547,19.67-.072,13.655-24.634,3.741-32.778-4.734-3.885-20.533-14.749-20.533-14.749Z" transform="translate(-3214.255 -1101.165)"/><path d="M3237.585,1146.829c-8.08,0-11.418-4.063-12.8-7.478a18.444,18.444,0,0,1-.883-9.319c-1.5.036-3.578-.446-6.316-2.169a10.146,10.146,0,0,1-4.848-6.979c-.771-4.31,1.018-9.149,2.655-12.449a42.242,42.242,0,0,1,3.737-6.143l1.623-3.713.287.2c.158.109,15.864,10.915,20.553,14.763a27.289,27.289,0,0,1,7.769,11.859c1.818,5.184,2.078,10.122.731,13.9-1.217,3.417-4.359,7.5-12.423,7.525Zm-13.095-16.839c-.011.074-.022.15-.033.225a17.936,17.936,0,0,0,.866,8.921c1.879,4.658,6.119,7.118,12.264,7.118h.085c6.118-.022,10.227-2.492,11.883-7.143,2.837-7.969-2.145-20.05-8.323-25.125-4.32-3.545-18.062-13.044-20.226-14.536l-1.371,3.137-.021.028c-.077.1-7.73,10.2-6.3,18.17a9.592,9.592,0,0,0,4.588,6.593,11.184,11.184,0,0,0,6.1,2.085c.444-2.541,1.291-4.588,2.141-5.4a1.02,1.02,0,0,1,1.178-.328,2.1,2.1,0,0,1,1.112,1.917,4.224,4.224,0,0,1-2.094,3.741A4.768,4.768,0,0,1,3224.49,1129.99Zm2.487-5.756a.74.74,0,0,0-.44.242,10.3,10.3,0,0,0-1.947,4.926,4.137,4.137,0,0,0,1.454-.51,3.635,3.635,0,0,0,1.811-3.215,1.55,1.55,0,0,0-.776-1.422A.24.24,0,0,0,3226.977,1124.234Z" transform="translate(-3212.558 -1098.58)"/></g></g><g transform="translate(12.44)"><path d="M3158.4,1013.612l1.021.647a2.138,2.138,0,0,1,.662,2.935l-.2.3a2.125,2.125,0,0,1-2.936.662l-1.094-.691c-1.209.863-8.475,5.712-12.965.892-4.36-4.676,5.713-18.36,5.713-18.36a20.43,20.43,0,0,1,11.885,10.274Z" transform="translate(-3141.793 -1000)" fill="#f86b6b"/><g transform="translate(3.112 2.82)"><g transform="translate(0.602)"><path d="M3169.342,1029.5a.279.279,0,0,1-.042,0,2.5,2.5,0,0,1-1.349-.737c-.369-.4-.034-1.212.641-2.73a12.953,12.953,0,0,0,1.141-3.267c.2-1.778-1.857-2.571-1.944-2.6a.288.288,0,0,1,.2-.539c.889.331,2.517,1.427,2.315,3.209a13.312,13.312,0,0,1-1.187,3.437,6.5,6.5,0,0,0-.736,2.117,1.939,1.939,0,0,0,1,.547.288.288,0,0,1-.043.572Z" transform="translate(-3167.601 -1019.6)"/></g><g transform="translate(0.026 10.547)"><path d="M3166.927,1094.165a7.006,7.006,0,0,1-3.18-.727.288.288,0,0,1,.28-.5h0a6.744,6.744,0,0,0,3.96.572.288.288,0,0,1,.089.569A7.418,7.418,0,0,1,3166.927,1094.165Z" transform="translate(-3163.599 -1092.899)"/></g><g transform="translate(6.421 6.587)"><ellipse cx="1.036" cy="0.561" rx="1.036" ry="0.561" transform="translate(0 1.936) rotate(-69.133)"/></g><g transform="translate(0 3.763)"><ellipse cx="0.863" cy="0.475" rx="0.863" ry="0.475" transform="translate(0 1.613) rotate(-69.133)"/></g><g transform="translate(12.458 12.351)"><path d="M3250.288,1106.638a.288.288,0,0,1-.243-.442,1.645,1.645,0,0,1,2.268-.506.288.288,0,1,1-.309.486,1.068,1.068,0,0,0-1.473.329A.288.288,0,0,1,3250.288,1106.638Z" transform="translate(-3250 -1105.434)"/></g><g transform="translate(7.149 3.87)"><path d="M3216.05,1049.635a.288.288,0,0,1-.264-.173,4.215,4.215,0,0,0-2.473-2.4.288.288,0,0,1,.151-.556,4.747,4.747,0,0,1,2.851,2.725.288.288,0,0,1-.149.378A.284.284,0,0,1,3216.05,1049.635Z" transform="translate(-3213.099 -1046.498)"/></g></g></g><g transform="translate(24.995 3.046)"><path d="M3231.376,1024.2a10.318,10.318,0,0,0,3.568,10.677c3.223,2.547,3.41-.518,3.41-.518A13.9,13.9,0,0,0,3231.376,1024.2Z" transform="translate(-3230.764 -1023.764)"/><path d="M3235.359,1033.579a4.055,4.055,0,0,1-2.309-1.073,10.207,10.207,0,0,1-3.948-7.16,10.785,10.785,0,0,1,.282-3.825l.106-.353.317.19a14.321,14.321,0,0,1,7.118,10.386v.037a2.078,2.078,0,0,1-.984,1.68A1.412,1.412,0,0,1,3235.359,1033.579Zm-5.511-11.522a10.033,10.033,0,0,0,3.56,10c1.009.8,1.8,1.1,2.3.88.529-.236.63-1.044.643-1.172A13.72,13.72,0,0,0,3229.848,1022.057Z" transform="translate(-3229.049 -1021.167)"/></g></g></g></g><g transform="translate(612.498 369.828)"><g transform="translate(17.797 62.374)"><path d="M1452.269,1034.422c-1.511-5.511-26.461-.345-53.944,9.655-26.289,9.569-47.656,22.476-47.887,27.67L1336.02,966.578a3.008,3.008,0,0,0-5.986.432v89.816h0c-.173-2.461-6.518-4.432-14.317-4.432s-14.13,1.971-14.317,4.432h0V955.9a24.317,24.317,0,0,1,11.741-20.807l9.453-5.712,38.937-23.512,36.217-22.044V846.2c0,1.612,6.662,2.907,14.518,2.907s14.519-1.281,14.519-2.907v40.793a30.015,30.015,0,0,1-11.468,23.209l-22.03,15.742a8.459,8.459,0,0,0-2.043,11.684c14.6,21.137,59.484,82.823,61.009,96.392A3.765,3.765,0,0,1,1452.269,1034.422Z" transform="translate(-1301.4 -846.2)" fill="#7736ff"/><g transform="translate(95.485 33.972)"><path d="M1965.432,1094.243a.432.432,0,0,1-.432-.432v-11.079a.432.432,0,1,1,.863,0v11.079A.432.432,0,0,1,1965.432,1094.243Z" transform="translate(-1965 -1082.3)" fill="#fff"/></g><g transform="translate(20.429 58.978)"><path d="M1492.776,1313.313l-49.4-33.04,11.131-6.967,20.123,11.633-2.385-22.237,11.186-6.622Zm-47.808-33.016,46.635,31.193-8.817-54.023-9.62,5.7,2.507,23.376-21.145-12.224Z" transform="translate(-1443.379 -1256.08)" fill="#fff"/></g><g transform="translate(49.901 187.503)"><path d="M1654.272,2191.738a11.383,11.383,0,0,1-4.558-.707,2.493,2.493,0,0,1-1.389-1.364,2.654,2.654,0,0,1,.215-2.054c1.329-2.855,6.748-7.027,15.257-11.747a229.02,229.02,0,0,1,31.608-14.071,316.3,316.3,0,0,1,32.8-10.24c9.6-2.3,15.8-2.845,18.414-1.623a2.431,2.431,0,0,1,1.351,1.344,2.879,2.879,0,0,1-.246,2.217c-2.639,5.669-20.486,17.03-45.784,26.23a275.02,275.02,0,0,1-33.237,9.995A75.01,75.01,0,0,1,1654.272,2191.738Zm88.342-41.727c-7.954,0-25.052,4.492-46.963,12.46-23.365,8.5-43.773,19.674-46.459,25.445a1.977,1.977,0,0,0-.191,1.5,1.812,1.812,0,0,0,1.017.958c2.541,1.188,9.121.7,18.529-1.364a274.192,274.192,0,0,0,33.146-9.968,196.561,196.561,0,0,0,30.855-14.144c7.915-4.622,13.208-8.892,14.522-11.714a2.206,2.206,0,0,0,.222-1.667h0a1.724,1.724,0,0,0-.979-.937A9.165,9.165,0,0,0,1742.614,2150.011Z" transform="translate(-1648.203 -2149.298)" fill="#7736ff"/></g></g><g transform="translate(27.983 250.69)"><g transform="translate(41.885)"><g transform="translate(13.442 93.91)"><path d="M1777.9,2814.334l-1.583,2.763-1.755,3.079c-15.18,1.9-17.857-8.029-17.857-8.029l2.288-4.547C1765.118,2811.37,1772.888,2813.37,1777.9,2814.334Z" transform="translate(-1756.7 -2807.6)" fill="#f86b6b"/></g><g transform="translate(11.33)"><path d="M1822.642,2185.615c-10.792,18.6-49.6,73.053-49.6,73.053s-2.029-.216-5.079-.806c-5.007-.979-12.777-2.964-18.922-6.734a26.888,26.888,0,0,1-3.943-2.921l28.13-57.124,7.108-14.979,3.943-8.317c.475-.173.95-.331,1.41-.489.23-.086.46-.158.7-.245.705-.245,1.4-.475,2.086-.705.576-.187,1.137-.374,1.7-.576,1.712-.575,3.4-1.108,5.036-1.626,11.022-3.482,20.447-5.827,26.807-6.547a25.446,25.446,0,0,1,3.943,8.36C1827.3,2171.155,1827.146,2177.86,1822.642,2185.615Z" transform="translate(-1744.657 -2157.219)" fill="#fff"/><path d="M1770.58,2256.78l-.209-.022c-.021,0-2.079-.224-5.11-.81-5.349-1.045-12.994-3.07-19.041-6.781a27.048,27.048,0,0,1-4-2.961l-.2-.182,28.251-57.368,7.106-14.974,4.006-8.45.139-.051c.358-.13.718-.253,1.065-.371l.351-.12c.133-.05.276-.1.423-.148.092-.031.184-.062.28-.1.711-.247,1.413-.48,2.092-.707.466-.152,1.077-.353,1.69-.573,1.757-.591,3.506-1.143,5.049-1.631,11.359-3.589,20.653-5.857,26.875-6.562l.21-.024.123.172a25.567,25.567,0,0,1,4,8.479c1.674,6.5.543,13.2-3.361,19.926h0c-10.677,18.407-49.229,72.537-49.617,73.081Zm-27.671-10.927a26.561,26.561,0,0,0,3.688,2.7c5.955,3.654,13.511,5.654,18.8,6.688,2.447.473,4.25.706,4.841.777,2.425-3.407,39.1-54.994,49.457-72.852h0c3.806-6.554,4.912-13.076,3.287-19.385a25.183,25.183,0,0,0-3.764-8.068c-6.175.726-15.34,2.974-26.528,6.508-1.54.487-3.286,1.038-5.03,1.624-.615.221-1.233.424-1.7.576-.675.225-1.375.458-2.08.7l-.287.1c-.139.047-.274.092-.409.143l-.362.124c-.3.1-.607.207-.913.317l-3.879,8.183-7.108,14.979Z" transform="translate(-1742.023 -2154.95)" fill="#7736ff"/></g><g transform="translate(0 97.725)"><g transform="translate(2.219)"><path d="M1721.683,2883.764a2.8,2.8,0,0,1-4.705,1.353l-34.778-34.663,10.878-11.353s2.518,9.914,17.713,8.029C1723.065,2865.662,1723.036,2877.792,1721.683,2883.764Z" transform="translate(-1681.696 -2838.383)" fill="#fff"/><path d="M1715.942,2882.031a3.115,3.115,0,0,1-2.215-.929l-35.028-34.912,11.571-12.076.16.629a10.244,10.244,0,0,0,3.081,4.57c3.229,2.843,8.153,3.946,14.239,3.191l.221-.028.123.186c5.45,8.229,9.019,16.017,10.607,23.148a31.452,31.452,0,0,1,.336,13.764h0a3.114,3.114,0,0,1-2.2,2.328A3.214,3.214,0,0,1,1715.942,2882.031Zm-36.235-35.852,34.528,34.414a2.438,2.438,0,0,0,4.1-1.177h0c1.256-5.543,1.525-17.6-10.719-36.171-7.844.921-12.275-1.346-14.616-3.423a11.365,11.365,0,0,1-3.071-4.312Z" transform="translate(-1678.699 -2834.115)" fill="#1f39d2"/></g><g transform="translate(0 11.768)"><path d="M1704.062,2951.7a6.792,6.792,0,0,1-6.936-1.252l-18.159-15.957a1.139,1.139,0,0,1-.13-1.554,1.127,1.127,0,0,0-.086-1.511l-1.482-1.439a1.088,1.088,0,0,0-1.482-.043l-.345.288a1.075,1.075,0,0,1-1.424,0l-9.756-8.475a2.87,2.87,0,0,1-.115-4.216l1.7-1.64,34.994,35.325a2.77,2.77,0,0,0,3.5.374Z" transform="translate(-1663.281 -2915.9)" fill="#1f39d2"/></g><g transform="translate(31.586 13.02)"><path d="M1883.159,2931.118a.36.36,0,0,1-.148-.688c3.466-1.563,4.35-2.922,4.482-3.787a1.661,1.661,0,0,0-.472-1.415.36.36,0,1,1,.478-.538,2.389,2.389,0,0,1,.706,2.062c-.231,1.514-1.879,2.972-4.9,4.334A.358.358,0,0,1,1883.159,2931.118Z" transform="translate(-1882.799 -2924.6)" fill="#1f39d2"/><g transform="translate(1.856 3.151)"><path d="M1896.06,2953.019a.36.36,0,0,1-.148-.688c3.466-1.563,4.351-2.922,4.482-3.787a1.66,1.66,0,0,0-.472-1.415.36.36,0,0,1,.478-.538,2.388,2.388,0,0,1,.706,2.062c-.231,1.514-1.878,2.972-4.9,4.334A.358.358,0,0,1,1896.06,2953.019Z" transform="translate(-1895.7 -2946.501)" fill="#1f39d2"/></g><g transform="translate(3.712 6.303)"><path d="M1908.959,2974.92a.36.36,0,0,1-.148-.688c3.455-1.558,4.343-2.913,4.48-3.775a1.659,1.659,0,0,0-.472-1.428.36.36,0,0,1,.479-.537,2.389,2.389,0,0,1,.706,2.061c-.231,1.515-1.879,2.973-4.9,4.334A.354.354,0,0,1,1908.959,2974.92Z" transform="translate(-1908.599 -2968.402)" fill="#1f39d2"/></g></g></g><g transform="translate(61.89 0.381)"><path d="M2124.149,2165.96a105.9,105.9,0,0,0-28.174,4.173,24.929,24.929,0,0,0-2.576-5.986c11.022-3.482,20.447-5.827,26.807-6.547A25.159,25.159,0,0,1,2124.149,2165.96Z" transform="translate(-2093.4 -2157.6)" fill="#7736ff"/></g></g><g transform="translate(0 6.499)"><g transform="translate(15.513 83.771)"><path d="M1501.483,2791.221l-2.777,3.554-2.187,2.791c-15.3-.3-16.519-10.5-16.519-10.5l3.324-4.763h0C1489.094,2786.933,1496.893,2789.811,1501.483,2791.221Z" transform="translate(-1480 -2782.3)" fill="#f86b6b"/></g><g transform="translate(14.431)"><path d="M1567.387,2220.727a27.488,27.488,0,0,1-5.9,11.324c-13.468,16.216-59.973,64.362-59.973,64.362s-18.159-4.086-25.915-13.871l31.311-44.476h0l11.554-16.418a236.262,236.262,0,0,1,29.3-12.835c5.842-2.13,11.468-4.043,16.734-5.712a25.793,25.793,0,0,1,2.576,5.986A22.8,22.8,0,0,1,1567.387,2220.727Z" transform="translate(-1475.151 -2202.671)" fill="#fff"/><path d="M1498.962,2294.252l-.2-.044a72.14,72.14,0,0,1-10.106-3.284c-5.066-2.064-11.957-5.6-16.012-10.715l-.167-.21.155-.22,31.311-44.477,11.6-16.488.076-.04a235.973,235.973,0,0,1,29.342-12.855c5.7-2.078,11.337-4,16.749-5.717l.273-.087.146.246a26.235,26.235,0,0,1,2.612,6.071,23.054,23.054,0,0,1,.321,11.821h0a28.039,28.039,0,0,1-5.973,11.472c-13.322,16.041-59.526,63.9-59.991,64.382Zm-25.583-14.281c7.243,8.886,23.385,13.013,25.348,13.488,2.857-2.961,46.876-48.618,59.813-64.195a27.326,27.326,0,0,0,5.826-11.177h0a22.342,22.342,0,0,0-.312-11.458,25.535,25.535,0,0,0-2.4-5.656c-5.318,1.69-10.85,3.581-16.446,5.62a235.477,235.477,0,0,0-29.174,12.774l-11.505,16.348Z" transform="translate(-1472.48 -2200.115)" fill="#7736ff"/></g><g transform="translate(0 87.85)"><g transform="translate(2.754)"><path d="M1429.1,2863.718a2.791,2.791,0,0,1-4.849.662l-29.454-39.3,12.389-9.684s1.065,10.2,16.375,10.5C1433.075,2846.005,1431.3,2858.006,1429.1,2863.718Z" transform="translate(-1394.301 -2814.716)" fill="#fff"/><path d="M1423.515,2861.8a3.123,3.123,0,0,1-2.52-1.276l-29.666-39.578,13.178-10.3.067.646a10.279,10.279,0,0,0,2.391,4.977c2.787,3.284,7.5,5.083,13.633,5.2l.223,0,.1.2c4.223,8.926,6.644,17.146,7.2,24.43a31.343,31.343,0,0,1-1.645,13.668h0a3.11,3.11,0,0,1-2.506,1.992A3.224,3.224,0,0,1,1423.515,2861.8Zm-31.186-40.721,29.243,39.014a2.431,2.431,0,0,0,4.226-.575h0c2.043-5.3,4.045-17.19-5.434-37.331-7.9-.208-11.956-3.092-13.973-5.488a11.394,11.394,0,0,1-2.419-4.72Z" transform="translate(-1391.33 -2810.65)" fill="#1f39d2"/></g><g transform="translate(0 10.065)"><path d="M1408.032,2921.378a6.816,6.816,0,0,1-6.677-2.216l-15.684-18.36a1.137,1.137,0,0,1,.086-1.554,1.128,1.128,0,0,0,.129-1.511l-1.266-1.626a1.114,1.114,0,0,0-1.468-.259l-.374.245a1.1,1.1,0,0,1-1.41-.2l-8.49-9.741a2.851,2.851,0,0,1,.489-4.173l1.914-1.381,29.6,39.843a2.8,2.8,0,0,0,3.41.878Z" transform="translate(-1372.188 -2880.6)" fill="#1f39d2"/></g><g transform="translate(31.111 16.181)"><path d="M1588.759,2928.975a.36.36,0,0,1-.1-.706c3.648-1.051,4.721-2.266,4.979-3.1a1.653,1.653,0,0,0-.264-1.475.36.36,0,0,1,.551-.463,2.384,2.384,0,0,1,.405,2.136c-.444,1.465-2.285,2.675-5.472,3.593A.354.354,0,0,1,1588.759,2928.975Z" transform="translate(-1588.399 -2923.105)" fill="#1f39d2"/><g transform="translate(1.684 3.381)"><path d="M1600.459,2952.47a.36.36,0,0,1-.1-.706c3.66-1.055,4.73-2.274,4.983-3.111a1.653,1.653,0,0,0-.266-1.462.36.36,0,1,1,.549-.465,2.383,2.383,0,0,1,.405,2.136c-.443,1.466-2.284,2.675-5.472,3.594A.362.362,0,0,1,1600.459,2952.47Z" transform="translate(-1600.099 -2946.599)" fill="#1f39d2"/></g><g transform="translate(3.065 6.762)"><path d="M1610.059,2975.97a.36.36,0,0,1-.1-.705c3.66-1.055,4.73-2.274,4.983-3.111a1.654,1.654,0,0,0-.266-1.462.36.36,0,1,1,.549-.465,2.383,2.383,0,0,1,.405,2.136c-.444,1.466-2.285,2.675-5.472,3.594A.364.364,0,0,1,1610.059,2975.97Z" transform="translate(-1609.7 -2970.099)" fill="#1f39d2"/></g></g></g><g transform="translate(46.205 0.401)"><path d="M1753.46,2208.915a168.006,168.006,0,0,0-17.454,5.957,229,229,0,0,0-42.707,22.994l11.554-16.418a236.262,236.262,0,0,1,29.3-12.835c1.957-.705,3.885-1.4,5.8-2.072.475-.173.95-.331,1.41-.489.23-.086.46-.158.705-.245.705-.245,1.4-.475,2.086-.705.576-.187,1.137-.374,1.7-.576,1.712-.575,3.4-1.108,5.036-1.626A27.656,27.656,0,0,1,1753.46,2208.915Z" transform="translate(-1693.3 -2202.9)" fill="#7736ff"/></g></g></g><g transform="translate(0 0)"><g transform="translate(0 270.05)"><g transform="translate(17.783)"><path d="M1331.772,2296.533c0,2.5-6.259,4.547-13.986,4.547s-13.986-2.029-13.986-4.547v-.1c.173-2.46,6.374-4.432,13.986-4.432s13.813,1.971,13.986,4.432Z" transform="translate(-1303.44 -2291.64)" fill="#fff"/><path d="M1315.646,2299.3a33.7,33.7,0,0,1-10-1.347c-2.8-.91-4.344-2.174-4.344-3.56v-.126c.191-2.717,6.358-4.766,14.345-4.766s14.154,2.049,14.345,4.766v.126c0,1.38-1.543,2.643-4.344,3.554A33.611,33.611,0,0,1,1315.646,2299.3Zm-13.626-4.994v.087c0,2.022,5.475,4.187,13.626,4.187s13.626-2.165,13.626-4.187v-.087c-.16-1.975-5.663-4.085-13.626-4.085S1302.179,2292.33,1302.02,2294.3Z" transform="translate(-1301.3 -2289.5)" fill="#7736ff"/></g><g transform="translate(0 0.676)"><path d="M1218.19,2295.032v11.813a10.342,10.342,0,0,1-5.482,9.123l-5.741,3.051a9.641,9.641,0,0,1-4.547,1.137,1.141,1.141,0,0,1-1.137-1.151,1.163,1.163,0,0,1,.259-.719l2.144-2.59a.542.542,0,0,0-.417-.892h-12.619l-2.3,2.907a6.475,6.475,0,0,1-5.051,2.446h-.662a1.056,1.056,0,0,1-.921-1.583l.259-.475a6.583,6.583,0,0,1-2.532.518h-.662a1.057,1.057,0,0,1-.921-1.583l5.166-5.7,3.583-1.41v.015l17.8-6.993h0v-8.4a42.881,42.881,0,0,1,5.439-.345A37.707,37.707,0,0,1,1218.19,2295.032Z" transform="translate(-1177.716 -2294.197)" fill="#f86b6b"/></g><g transform="translate(3.825 16.72)"><path d="M1204.587,2413.686a.288.288,0,0,1-.248-.433l4.317-7.41a.288.288,0,1,1,.5.29l-4.317,7.41A.288.288,0,0,1,1204.587,2413.686Z" transform="translate(-1204.3 -2405.7)" fill="#e34545"/></g><g transform="translate(24.589 18.375)"><path d="M1348.888,2422.582a.288.288,0,0,1-.223-.47l2.648-3.237a.659.659,0,0,0,.092-.714.666.666,0,0,0-.617-.385.288.288,0,1,1,0-.575,1.245,1.245,0,0,1,.971,2.038l-2.648,3.237A.287.287,0,0,1,1348.888,2422.582Z" transform="translate(-1348.6 -2417.2)" fill="#e34545"/></g><g transform="translate(26.689 0.648)"><path d="M1376.985,2294.864v7.382a38.529,38.529,0,0,1-8.346.849,40.334,40.334,0,0,1-5.439-.345v-8.4a42.88,42.88,0,0,1,5.439-.345A39.488,39.488,0,0,1,1376.985,2294.864Z" transform="translate(-1363.2 -2294)" fill="#e34545"/></g></g><g transform="translate(114.117)"><g transform="translate(0 57.51)"><path d="M1985.362,818.99a53.294,53.294,0,0,1-10.114-.851c-2.951-.6-4.448-1.414-4.448-2.416,0-2.182,7.325-3.324,14.562-3.324a51.644,51.644,0,0,1,10.115.885c2.95.619,4.446,1.44,4.446,2.438s-1.5,1.814-4.448,2.416A53.29,53.29,0,0,1,1985.362,818.99Zm0-5.871a51.1,51.1,0,0,0-9.968.865c-3.058.64-3.874,1.395-3.874,1.74s.816,1.088,3.872,1.711a59.847,59.847,0,0,0,19.94,0c3.057-.622,3.872-1.368,3.872-1.711C1999.2,814.662,1993.812,813.12,1985.362,813.12Z" transform="translate(-1970.8 -812.4)" fill="#7736ff"/></g><g transform="translate(5.497 35.222)"><path d="M2013.734,685.487a44.256,44.256,0,0,1-4.734-.532V670.983a3.084,3.084,0,0,1,.3-1.338l4.518-9.324a5,5,0,0,1,4.5-2.82h5.54l-12.115,22.289a2.867,2.867,0,0,0-.144.3C2010.9,681.832,2011.777,684.062,2013.734,685.487Z" transform="translate(-2009 -657.5)" fill="#f86b6b"/></g><g transform="translate(17.54 54.445)"><path d="M2095.808,794.208l1.784-3.108v8.432c-1.468.187-3.123.345-4.892.417Z" transform="translate(-2092.7 -791.1)" fill="#e34545"/></g><g transform="translate(7.037)"><g transform="translate(0 3.136)"><path d="M2061.57,443.037l-29.5,54.275c-1.093,2.014-4.086,2.489-6.705,1.065s-3.842-4.2-2.748-6.2l29.5-54.275Z" transform="translate(-2021.857 -437.412)" fill="#fff"/><path d="M2026.306,496.657a6.88,6.88,0,0,1-3.262-.866,6.389,6.389,0,0,1-3.152-3.677,3.875,3.875,0,0,1,.26-3.013l29.668-54.591,10.086,5.48-29.669,54.591a4.051,4.051,0,0,1-3.04,2.006A5.7,5.7,0,0,1,2026.306,496.657Zm23.8-61.171-29.326,53.959a3.173,3.173,0,0,0-.2,2.465,5.668,5.668,0,0,0,2.806,3.249,5.9,5.9,0,0,0,3.7.718,3.349,3.349,0,0,0,2.521-1.638l29.326-53.959Z" transform="translate(-2019.706 -434.51)" fill="#1f39d2"/></g><g transform="translate(28.267)"><ellipse cx="4.144" cy="5.381" rx="4.144" ry="5.381" transform="translate(0 7.282) rotate(-61.477)" fill="#fff"/><path d="M2231.238,432.06a6.848,6.848,0,0,1-3.248-.855c-2.781-1.512-4.08-4.517-2.894-6.7h0c1.186-2.182,4.413-2.727,7.195-1.216s4.08,4.517,2.894,6.7A4.33,4.33,0,0,1,2231.238,432.06Zm-5.509-7.21c-1,1.833.172,4.4,2.605,5.723s5.222.906,6.219-.927-.172-4.4-2.605-5.723-5.223-.906-6.219.927Z" transform="translate(-2223.434 -421.037)" fill="#1f39d2"/></g><g transform="translate(21.64 17.135)"><path d="M2170.1,543.34l13.943-11.54-.216,4.2,4.461,1.108-10.648,6.576c8.173-1.755,22.85-4.23,25.08.086.878,1.7-.777,5.166-1.885,7.655-.691,5.252,26.85-1.252,27.167-1.324l-4.245,3.928,4.245,2.417s-23.109,4.4-29.066,3.194c-3.367-.691-.691-5.209,1.655-8.518.719-2.547-5.007-3.381-28.821-.791Z" transform="translate(-2170.1 -531.8)" fill="#1f39d2"/></g><g transform="translate(17.367 27.02)"><circle cx="4.115" cy="4.115" r="4.115" transform="translate(0.36 0.36)" fill="#fff"/><path d="M2144.875,609.45a4.475,4.475,0,1,1,4.475-4.475A4.48,4.48,0,0,1,2144.875,609.45Zm0-8.23a3.755,3.755,0,1,0,3.756,3.755A3.76,3.76,0,0,0,2144.875,601.219Z" transform="translate(-2140.4 -600.5)" fill="#1f39d2"/></g></g><g transform="translate(13.01 43.049)"><path d="M2080.309,714.13l-1.324,3.108-1.554,3.626-.834,1.971-1.281,3.007a1.868,1.868,0,0,1-.115.245.014.014,0,0,1-.014.014,2.4,2.4,0,0,1-2.072,1.151h-10.159a1.648,1.648,0,0,1-1.611-2.245l.734-1.727,1.626-3.813,1.4-3.281,1.223-2.892a2.371,2.371,0,0,1,2.2-1.4h10.158A1.632,1.632,0,0,1,2080.309,714.13Z" transform="translate(-2061.217 -711.899)" fill="#f86b6b"/></g><g transform="translate(14.116 46.287)"><g transform="translate(2.849)"><path d="M2102.039,736.789l-.031,0a.287.287,0,0,1-.255-.317,1.348,1.348,0,0,0-.341-1.041,1.362,1.362,0,0,0-1.028-.453h-9.7a1.963,1.963,0,0,0-1.482.65.288.288,0,1,1-.432-.38,2.538,2.538,0,0,1,1.914-.846h9.7a1.937,1.937,0,0,1,1.941,2.132A.288.288,0,0,1,2102.039,736.789Z" transform="translate(-2088.7 -734.4)" fill="#e34545"/></g><g transform="translate(1.525 3.381)"><path d="M2092.7,760.533a.292.292,0,0,1-.078-.011.288.288,0,0,1-.2-.355,1.307,1.307,0,0,0-.221-1.152,1.364,1.364,0,0,0-1.1-.54h-9.7a1.977,1.977,0,0,0-1.408.578.288.288,0,0,1-.407-.407,2.548,2.548,0,0,1,1.815-.746h9.7a1.935,1.935,0,0,1,1.558.768,1.877,1.877,0,0,1,.316,1.655A.288.288,0,0,1,2092.7,760.533Z" transform="translate(-2079.5 -757.9)" fill="#e34545"/></g><g transform="translate(0 7.223)"><path d="M2082.023,787.334a.288.288,0,0,1-.271-.385,1.3,1.3,0,0,0-.166-1.2,1.364,1.364,0,0,0-1.132-.579h-9.7a2.036,2.036,0,0,0-1.372.542.288.288,0,1,1-.392-.421,2.582,2.582,0,0,1,1.765-.7h9.7a1.933,1.933,0,0,1,1.6.822,1.864,1.864,0,0,1,.238,1.72A.288.288,0,0,1,2082.023,787.334Z" transform="translate(-2068.9 -784.6)" fill="#e34545"/></g></g><g transform="translate(16.144 35.207)"><path d="M2092.785,657.4v.259a4.775,4.775,0,0,1-4.777,4.777H2083V657.4Z" transform="translate(-2083 -657.4)" fill="#f86b6b"/></g></g></g><g transform="translate(14.387 94.145)"><g transform="translate(0 46.348)"><path d="M1281.758,1396.387c-.46.691-.935,1.338-1.41,1.928a4.557,4.557,0,0,1-1.482-.662,4.611,4.611,0,0,1-1.166-1.137c.374-.648.792-1.338,1.266-2.029,2.331-3.453,4.835-5.828,5.612-5.309S1284.089,1392.933,1281.758,1396.387Z" transform="translate(-1277.7 -1389.107)" fill="#7736ff"/></g><g transform="translate(6.488 1.784)"><path d="M1341.571,1079.4l-17.972,26.533a.4.4,0,0,0,.446.6l8.59-2.763a7.215,7.215,0,0,0-1.7,4.633v8.36a6.017,6.017,0,0,1-5.856,6.015,1.228,1.228,0,0,0-1.942-.273,1.14,1.14,0,0,0-.345.863,1.219,1.219,0,0,0,1.223,1.209h0a1.221,1.221,0,0,0,1.194-1.036,6.8,6.8,0,0,0,6.49-6.777v-8.36a6.471,6.471,0,0,1,2.59-5.166l17.281-5.554,22.188-18.288Zm-17.238,44.261a.448.448,0,1,1-.317-.763h0a.442.442,0,0,1,.446.446A.377.377,0,0,1,1324.333,1123.661Z" transform="translate(-1322.792 -1079.4)" fill="#7736ff"/></g><g transform="translate(5.346)"><path d="M1315.234,1095.26a.325.325,0,0,1-.216-.072.389.389,0,0,1-.1-.532L1333.652,1067h33.929a.388.388,0,1,1,0,.777h-33.526l-18.5,27.31A.361.361,0,0,1,1315.234,1095.26Z" transform="translate(-1314.854 -1067)" fill="#7736ff"/></g><g transform="translate(22.504 8.705)"><path d="M1436.258,1142.594l-2.158-.978.115-.331a23.306,23.306,0,0,1,3.683-6.417,19.011,19.011,0,0,1,13.109-7.338l.374-.029.374,2.719-.763.1-.273-1.986a18.209,18.209,0,0,0-12.216,7.008,23.16,23.16,0,0,0-3.425,5.871l1.511.691Z" transform="translate(-1434.1 -1127.5)" fill="#fff"/></g><g transform="translate(24.807 11.454)"><g transform="translate(6.432 14.087)"><path d="M1499.16,1263.738l-4.36-14.245,10.2-4.993,4.2,3.194,7.223,5.482,2.187,21.785Z" transform="translate(-1494.8 -1244.5)" fill="#f86b6b"/><path d="M1509.2,1247.694h0l-7.784,17.353-2.259-1.309-4.36-14.245,10.2-4.993Z" transform="translate(-1494.8 -1244.5)" fill="#e34545"/></g><path d="M1462.287,1166.615c-.734.072-2.216-.676-3.9-1.741l-1.971,1.6a2.654,2.654,0,1,1-3.353-4.115l.806-.662c-2.115-1.583-3.77-2.95-3.77-2.95s3.669-11.022,15.4-12.144c0,0,6.216,12.849,6.633,14.072S1466.432,1166.2,1462.287,1166.615Z" transform="translate(-1450.1 -1146.6)" fill="#f86b6b"/><g transform="translate(0 4.619)"><path d="M1453.87,1189.175c-2.115-1.583-3.77-2.95-3.77-2.95a20.149,20.149,0,0,1,5.065-7.525C1451.28,1182.571,1457.079,1186.887,1453.87,1189.175Z" transform="translate(-1450.1 -1178.7)"/></g><g transform="translate(3.694 3.082)"><g transform="translate(1.831 1.767)"><path d="M1488.787,1183.407a.287.287,0,0,1-.27-.388,5.55,5.55,0,0,1,2.318-2.685.288.288,0,0,1,.278.5,5.021,5.021,0,0,0-2.056,2.38A.288.288,0,0,1,1488.787,1183.407Z" transform="translate(-1488.5 -1180.299)"/></g><g transform="translate(9.062)"><path d="M1540.427,1175.254a.287.287,0,0,1-.224-.107,6.959,6.959,0,0,1-1.382-5.16,2.1,2.1,0,0,1,.808-1.5,6.463,6.463,0,0,1,3.442-.4.288.288,0,0,1-.079.57,6.039,6.039,0,0,0-3.062.32,1.622,1.622,0,0,0-.542,1.1,6.341,6.341,0,0,0,1.263,4.7.288.288,0,0,1-.224.468Z" transform="translate(-1538.75 -1168.02)"/></g><g transform="translate(7.874 8.804)"><path d="M1532.415,1230.421a4.791,4.791,0,0,1-1.732-.344.288.288,0,1,1,.207-.537,3.253,3.253,0,0,0,3.317-.264.288.288,0,0,1,.382.43A3.4,3.4,0,0,1,1532.415,1230.421Z" transform="translate(-1530.499 -1229.206)"/></g><g transform="translate(7.643 8.487)"><path d="M1529.18,1229.014a.288.288,0,0,1-.287-.277,2.948,2.948,0,0,1,.5-1.615.288.288,0,0,1,.471.33h0a2.39,2.39,0,0,0-.395,1.263.288.288,0,0,1-.277.3Z" transform="translate(-1528.891 -1227)"/></g><g transform="translate(4.707 4.989)"><ellipse cx="0.432" cy="0.849" rx="0.432" ry="0.849" transform="translate(0 0.224) rotate(-15.028)"/></g><g transform="translate(11.211 2.295)"><ellipse cx="0.388" cy="0.791" rx="0.388" ry="0.791" transform="translate(0 0.201) rotate(-15.028)"/></g><g transform="translate(0 12.979)"><path d="M1481.117,1261.585a.288.288,0,0,1-.177-.061l-3.324-2.59a.673.673,0,0,0-.866.043l-.2.186a.643.643,0,0,0,0,.935.288.288,0,0,1-.4.414,1.218,1.218,0,0,1,0-1.767l.205-.191a1.249,1.249,0,0,1,1.609-.075l3.325,2.591a.288.288,0,0,1-.177.515Z" transform="translate(-1475.775 -1258.221)" fill="#e34545"/></g></g></g></g></g></g></svg>