<?xml version="1.0" encoding="UTF-8"?>
<svg width="56px" height="28px" viewBox="0 0 56 28" version="1.1" xmlns="http://www.w3.org/2000/svg" xmlns:xlink="http://www.w3.org/1999/xlink">
    <!-- Generator: Sketch 58 (84663) - https://sketch.com -->
    <title>icon-solution-store</title>
    <desc>Created with Sketch.</desc>
    <g id="icon-solution-store" stroke="none" stroke-width="1" fill="none" fill-rule="evenodd">
        <g id="dark">
            <rect id="Rectangle" x="0" y="0" width="28" height="28"></rect>
            <g id="icon/icon-solution-store" transform="translate(5.000000, 2.000000)" stroke="#000000" stroke-linejoin="round" stroke-width="1.8">
                <path d="M17,23.5 L3.5,23.5 C1.843,23.5 0.5,22.157 0.5,20.5 L0.5,5.5 L15,5.5" id="Stroke-1" stroke-linecap="round"></path>
                <path d="M17,23.5 C15.896,23.5 15,22.604 15,21.5 L15,5.5 L19,5.5 L19,21.5 C19,22.604 18.104,23.5 17,23.5 Z" id="Stroke-2" stroke-linecap="round"></path>
                <path d="M12,5.5 L5,5.5 L5,3.5 C5,1.843 6.343,0.5 8,0.5 L9,0.5 C10.657,0.5 12,1.843 12,3.5 L12,5.5 Z" id="Stroke-3"></path>
                <path d="M9,5.5 L16,5.5 L16,3.5 C16,1.84 14.66,0.5 13,0.5 L12,0.5 C11.45,0.5 10.94,0.65 10.5,0.9" id="Stroke-4"></path>
            </g>
        </g>
        <g id="light" transform="translate(28.000000, 0.000000)">
            <rect id="Rectangle" x="0" y="0" width="28" height="28"></rect>
            <g id="icon/icon-solution-store" transform="translate(5.000000, 2.000000)" stroke="#FFFFFF" stroke-linejoin="round" stroke-width="1.8">
                <path d="M17,23.5 L3.5,23.5 C1.843,23.5 0.5,22.157 0.5,20.5 L0.5,5.5 L15,5.5" id="Stroke-1" stroke-linecap="round"></path>
                <path d="M17,23.5 C15.896,23.5 15,22.604 15,21.5 L15,5.5 L19,5.5 L19,21.5 C19,22.604 18.104,23.5 17,23.5 Z" id="Stroke-2" stroke-linecap="round"></path>
                <path d="M12,5.5 L5,5.5 L5,3.5 C5,1.843 6.343,0.5 8,0.5 L9,0.5 C10.657,0.5 12,1.843 12,3.5 L12,5.5 Z" id="Stroke-3"></path>
                <path d="M9,5.5 L16,5.5 L16,3.5 C16,1.84 14.66,0.5 13,0.5 L12,0.5 C11.45,0.5 10.94,0.65 10.5,0.9" id="Stroke-4"></path>
            </g>
        </g>
    </g>
</svg>