<?xml version="1.0" encoding="UTF-8"?>
<svg width="56px" height="28px" viewBox="0 0 56 28" version="1.1" xmlns="http://www.w3.org/2000/svg" xmlns:xlink="http://www.w3.org/1999/xlink">
    <!-- Generator: Sketch 58 (84663) - https://sketch.com -->
    <title>icon-solution-commercial</title>
    <desc>Created with Sketch.</desc>
    <g id="icon-solution-commercial" stroke="none" stroke-width="1" fill="none" fill-rule="evenodd">
        <g id="dark">
            <rect id="Rectangle" x="0" y="0" width="28" height="28"></rect>
            <g id="icon/icon-solution-commercial" transform="translate(3.000000, 2.000000)" stroke="#000000" stroke-linecap="round" stroke-width="1.5">
                <path d="M22.866,8.8661 C22.866,9.9701 21.881,10.8661 20.666,10.8661 C19.451,10.8661 18.466,9.9701 18.466,8.8661 C18.466,9.9701 17.481,10.8661 16.266,10.8661 C15.051,10.8661 14.066,9.9701 14.066,8.8661 C14.066,9.9701 13.0811,10.8661 11.866,10.8661 C10.651,10.8661 9.666,9.9701 9.666,8.8661 C9.666,9.9701 8.681,10.8661 7.466,10.8661 C6.251,10.8661 5.2661,9.9701 5.2661,8.8661 C5.2661,9.9701 4.281,10.8661 3.066,10.8661 C1.851,10.8661 0.866,9.9701 0.866,8.8661" id="Stroke-1" stroke-linejoin="round"></path>
                <path d="M0.866,8.8661 L3.1591,1.5921 C3.281,1.1621 3.674,0.8661 4.1201,0.8661 L19.612,0.8661 C20.058,0.8661 20.451,1.1621 20.573,1.5921 L22.866,8.8661" id="Stroke-2"></path>
                <path d="M21.366,10.8661 L21.366,22.8661 C21.366,23.4191 20.919,23.8661 20.366,23.8661 L3.366,23.8661 C2.813,23.8661 2.366,23.4191 2.366,22.8661 L2.366,10.8661" id="Stroke-3" stroke-linejoin="round"></path>
                <path d="M9.366,9.8661 L9.366,23.8661" id="Stroke-4"></path>
                <path d="M7.366,15.8661 L7.366,16.8661" id="Stroke-5"></path>
                <path d="M15.366,13.8661 L12.366,16.8661" id="Stroke-6"></path>
                <path d="M17.366,15.8661 L13.366,19.8661" id="Stroke-7"></path>
                <path d="M18.466,8.8661 L17.262,0.8661" id="Stroke-8"></path>
                <path d="M14.066,8.8661 L13.324,0.8661" id="Stroke-9"></path>
                <path d="M9.666,8.8661 L10.345,0.8661" id="Stroke-10"></path>
                <path d="M5.2661,8.8661 L6.554,0.8661" id="Stroke-11"></path>
            </g>
        </g>
        <g id="light" transform="translate(28.000000, 0.000000)">
            <rect id="Rectangle" x="0" y="0" width="28" height="28"></rect>
            <g id="icon/icon-solution-commercial" transform="translate(3.000000, 2.000000)" stroke="#FFFFFF" stroke-linecap="round" stroke-width="1.5">
                <path d="M22.866,8.8661 C22.866,9.9701 21.881,10.8661 20.666,10.8661 C19.451,10.8661 18.466,9.9701 18.466,8.8661 C18.466,9.9701 17.481,10.8661 16.266,10.8661 C15.051,10.8661 14.066,9.9701 14.066,8.8661 C14.066,9.9701 13.0811,10.8661 11.866,10.8661 C10.651,10.8661 9.666,9.9701 9.666,8.8661 C9.666,9.9701 8.681,10.8661 7.466,10.8661 C6.251,10.8661 5.2661,9.9701 5.2661,8.8661 C5.2661,9.9701 4.281,10.8661 3.066,10.8661 C1.851,10.8661 0.866,9.9701 0.866,8.8661" id="Stroke-1" stroke-linejoin="round"></path>
                <path d="M0.866,8.8661 L3.1591,1.5921 C3.281,1.1621 3.674,0.8661 4.1201,0.8661 L19.612,0.8661 C20.058,0.8661 20.451,1.1621 20.573,1.5921 L22.866,8.8661" id="Stroke-2"></path>
                <path d="M21.366,10.8661 L21.366,22.8661 C21.366,23.4191 20.919,23.8661 20.366,23.8661 L3.366,23.8661 C2.813,23.8661 2.366,23.4191 2.366,22.8661 L2.366,10.8661" id="Stroke-3" stroke-linejoin="round"></path>
                <path d="M9.366,9.8661 L9.366,23.8661" id="Stroke-4"></path>
                <path d="M7.366,15.8661 L7.366,16.8661" id="Stroke-5"></path>
                <path d="M15.366,13.8661 L12.366,16.8661" id="Stroke-6"></path>
                <path d="M17.366,15.8661 L13.366,19.8661" id="Stroke-7"></path>
                <path d="M18.466,8.8661 L17.262,0.8661" id="Stroke-8"></path>
                <path d="M14.066,8.8661 L13.324,0.8661" id="Stroke-9"></path>
                <path d="M9.666,8.8661 L10.345,0.8661" id="Stroke-10"></path>
                <path d="M5.2661,8.8661 L6.554,0.8661" id="Stroke-11"></path>
            </g>
        </g>
    </g>
</svg>